<svg width="50" height="50" viewBox="0 0 50 50" fill="none" xmlns="http://www.w3.org/2000/svg">
<circle cx="24.8075" cy="25.1335" r="24.2147" fill="url(#paint0_linear_905_6079)"/>
<mask id="path-2-outside-1_905_6079" maskUnits="userSpaceOnUse" x="11.3545" y="10.2966" width="26" height="26" fill="black">
<rect fill="white" x="11.3545" y="10.2966" width="26" height="26"/>
<path d="M24.4678 11.2966C24.4604 11.2965 24.4531 11.2968 24.4458 11.2974C24.4131 11.2998 24.3813 11.3096 24.3529 11.3261L12.4617 18.2446C12.4208 18.2686 12.3888 18.3054 12.3709 18.3493C12.3529 18.3933 12.3498 18.4419 12.3622 18.4877C12.3746 18.5335 12.4017 18.574 12.4394 18.6029C12.4771 18.6317 12.5232 18.6474 12.5707 18.6475H14.5165V20.1609C14.5165 20.2182 14.5393 20.2732 14.5799 20.3138C14.6204 20.3543 14.6754 20.3771 14.7327 20.3771H14.9489V32.052H14.7327C14.6754 32.0521 14.6204 32.0748 14.5799 32.1154C14.5393 32.1559 14.5165 32.2109 14.5165 32.2682V33.7817H12.5707C12.5134 33.7817 12.4584 33.8045 12.4178 33.845C12.3773 33.8855 12.3545 33.9405 12.3545 33.9979V35.2951C12.3545 35.3524 12.3773 35.4074 12.4178 35.448C12.4584 35.4885 12.5134 35.5113 12.5707 35.5113H36.353C36.4103 35.5113 36.4653 35.4885 36.5059 35.448C36.5464 35.4074 36.5692 35.3524 36.5692 35.2951V33.9979C36.5692 33.9405 36.5464 33.8855 36.5059 33.845C36.4653 33.8045 36.4103 33.7817 36.353 33.7817H34.4072V32.2682C34.4072 32.2109 34.3844 32.1559 34.3439 32.1154C34.3033 32.0748 34.2483 32.0521 34.191 32.052H33.9748V20.3771H34.191C34.2483 20.3771 34.3033 20.3543 34.3439 20.3138C34.3844 20.2732 34.4072 20.2182 34.4072 20.1609V18.6475H36.353C36.4005 18.6474 36.4466 18.6317 36.4843 18.6029C36.522 18.574 36.5491 18.5335 36.5615 18.4877C36.5739 18.4419 36.5708 18.3933 36.5529 18.3493C36.5349 18.3054 36.5029 18.2686 36.462 18.2446L24.5708 11.3261C24.5395 11.3078 24.504 11.2976 24.4678 11.2966ZM24.4619 11.7636L35.5498 18.2151H34.2062H29.4345H26.8553H22.0836H19.5044H14.7327H13.3739L24.4619 11.7636ZM14.9489 18.6475H19.273V19.9447H14.9489V18.6475ZM19.7054 18.6475H21.8674V20.1609C21.8674 20.2182 21.8902 20.2732 21.9307 20.3138C21.9713 20.3543 22.0263 20.3771 22.0836 20.3771H22.2998V32.052H22.0836C22.0263 32.0521 21.9713 32.0748 21.9307 32.1154C21.8902 32.1559 21.8674 32.2109 21.8674 32.2682V33.7817H19.7054V32.2682C19.7054 32.2109 19.6826 32.1559 19.6421 32.1154C19.6015 32.0748 19.5465 32.0521 19.4892 32.052H19.273V20.3771H19.4892C19.5465 20.3771 19.6015 20.3543 19.6421 20.3138C19.6826 20.2732 19.7054 20.2182 19.7054 20.1609V18.6475ZM22.2998 18.6475H26.6239V19.9447H22.2998V18.6475ZM27.0563 18.6475H29.2183V20.1609C29.2183 20.2182 29.2411 20.2732 29.2816 20.3138C29.3222 20.3543 29.3772 20.3771 29.4345 20.3771H29.6507V32.052H29.4345C29.3772 32.0521 29.3222 32.0748 29.2816 32.1154C29.2411 32.1559 29.2183 32.2109 29.2183 32.2682V33.7817H27.0563V32.2682C27.0563 32.2109 27.0335 32.1559 26.993 32.1154C26.9524 32.0748 26.8974 32.0521 26.8401 32.052H26.6239V20.3771H26.8401C26.8974 20.3771 26.9524 20.3543 26.993 20.3138C27.0335 20.2732 27.0563 20.2182 27.0563 20.1609V18.6475ZM29.6507 18.6475H33.9748V19.9447H29.6507V18.6475ZM15.3813 20.3771H16.2461V32.052H15.3813V20.3771ZM16.6785 20.3771H17.5434V32.052H16.6785V20.3771ZM17.9758 20.3771H18.8406V32.052H17.9758V20.3771ZM22.7322 20.3771H23.597V32.052H22.7322V20.3771ZM24.0294 20.3771H24.8943V32.052H24.0294V20.3771ZM25.3267 20.3771H26.1915V32.052H25.3267V20.3771ZM30.0831 20.3771H30.9479V32.052H30.0831V20.3771ZM31.3803 20.3771H32.2452V32.052H31.3803V20.3771ZM32.6776 20.3771H33.5424V32.052H32.6776V20.3771ZM14.9489 32.4845H19.273V33.7817H14.9489V32.4845ZM22.2998 32.4845H26.6239V33.7817H22.2998V32.4845ZM29.6507 32.4845H33.9748V33.7817H29.6507V32.4845ZM12.7869 34.2141H36.1368V35.0789H12.7869V34.2141Z"/>
</mask>
<path d="M24.4678 11.2966C24.4604 11.2965 24.4531 11.2968 24.4458 11.2974C24.4131 11.2998 24.3813 11.3096 24.3529 11.3261L12.4617 18.2446C12.4208 18.2686 12.3888 18.3054 12.3709 18.3493C12.3529 18.3933 12.3498 18.4419 12.3622 18.4877C12.3746 18.5335 12.4017 18.574 12.4394 18.6029C12.4771 18.6317 12.5232 18.6474 12.5707 18.6475H14.5165V20.1609C14.5165 20.2182 14.5393 20.2732 14.5799 20.3138C14.6204 20.3543 14.6754 20.3771 14.7327 20.3771H14.9489V32.052H14.7327C14.6754 32.0521 14.6204 32.0748 14.5799 32.1154C14.5393 32.1559 14.5165 32.2109 14.5165 32.2682V33.7817H12.5707C12.5134 33.7817 12.4584 33.8045 12.4178 33.845C12.3773 33.8855 12.3545 33.9405 12.3545 33.9979V35.2951C12.3545 35.3524 12.3773 35.4074 12.4178 35.448C12.4584 35.4885 12.5134 35.5113 12.5707 35.5113H36.353C36.4103 35.5113 36.4653 35.4885 36.5059 35.448C36.5464 35.4074 36.5692 35.3524 36.5692 35.2951V33.9979C36.5692 33.9405 36.5464 33.8855 36.5059 33.845C36.4653 33.8045 36.4103 33.7817 36.353 33.7817H34.4072V32.2682C34.4072 32.2109 34.3844 32.1559 34.3439 32.1154C34.3033 32.0748 34.2483 32.0521 34.191 32.052H33.9748V20.3771H34.191C34.2483 20.3771 34.3033 20.3543 34.3439 20.3138C34.3844 20.2732 34.4072 20.2182 34.4072 20.1609V18.6475H36.353C36.4005 18.6474 36.4466 18.6317 36.4843 18.6029C36.522 18.574 36.5491 18.5335 36.5615 18.4877C36.5739 18.4419 36.5708 18.3933 36.5529 18.3493C36.5349 18.3054 36.5029 18.2686 36.462 18.2446L24.5708 11.3261C24.5395 11.3078 24.504 11.2976 24.4678 11.2966ZM24.4619 11.7636L35.5498 18.2151H34.2062H29.4345H26.8553H22.0836H19.5044H14.7327H13.3739L24.4619 11.7636ZM14.9489 18.6475H19.273V19.9447H14.9489V18.6475ZM19.7054 18.6475H21.8674V20.1609C21.8674 20.2182 21.8902 20.2732 21.9307 20.3138C21.9713 20.3543 22.0263 20.3771 22.0836 20.3771H22.2998V32.052H22.0836C22.0263 32.0521 21.9713 32.0748 21.9307 32.1154C21.8902 32.1559 21.8674 32.2109 21.8674 32.2682V33.7817H19.7054V32.2682C19.7054 32.2109 19.6826 32.1559 19.6421 32.1154C19.6015 32.0748 19.5465 32.0521 19.4892 32.052H19.273V20.3771H19.4892C19.5465 20.3771 19.6015 20.3543 19.6421 20.3138C19.6826 20.2732 19.7054 20.2182 19.7054 20.1609V18.6475ZM22.2998 18.6475H26.6239V19.9447H22.2998V18.6475ZM27.0563 18.6475H29.2183V20.1609C29.2183 20.2182 29.2411 20.2732 29.2816 20.3138C29.3222 20.3543 29.3772 20.3771 29.4345 20.3771H29.6507V32.052H29.4345C29.3772 32.0521 29.3222 32.0748 29.2816 32.1154C29.2411 32.1559 29.2183 32.2109 29.2183 32.2682V33.7817H27.0563V32.2682C27.0563 32.2109 27.0335 32.1559 26.993 32.1154C26.9524 32.0748 26.8974 32.0521 26.8401 32.052H26.6239V20.3771H26.8401C26.8974 20.3771 26.9524 20.3543 26.993 20.3138C27.0335 20.2732 27.0563 20.2182 27.0563 20.1609V18.6475ZM29.6507 18.6475H33.9748V19.9447H29.6507V18.6475ZM15.3813 20.3771H16.2461V32.052H15.3813V20.3771ZM16.6785 20.3771H17.5434V32.052H16.6785V20.3771ZM17.9758 20.3771H18.8406V32.052H17.9758V20.3771ZM22.7322 20.3771H23.597V32.052H22.7322V20.3771ZM24.0294 20.3771H24.8943V32.052H24.0294V20.3771ZM25.3267 20.3771H26.1915V32.052H25.3267V20.3771ZM30.0831 20.3771H30.9479V32.052H30.0831V20.3771ZM31.3803 20.3771H32.2452V32.052H31.3803V20.3771ZM32.6776 20.3771H33.5424V32.052H32.6776V20.3771ZM14.9489 32.4845H19.273V33.7817H14.9489V32.4845ZM22.2998 32.4845H26.6239V33.7817H22.2998V32.4845ZM29.6507 32.4845H33.9748V33.7817H29.6507V32.4845ZM12.7869 34.2141H36.1368V35.0789H12.7869V34.2141Z" fill="white"/>
<path d="M24.4678 11.2966C24.4604 11.2965 24.4531 11.2968 24.4458 11.2974C24.4131 11.2998 24.3813 11.3096 24.3529 11.3261L12.4617 18.2446C12.4208 18.2686 12.3888 18.3054 12.3709 18.3493C12.3529 18.3933 12.3498 18.4419 12.3622 18.4877C12.3746 18.5335 12.4017 18.574 12.4394 18.6029C12.4771 18.6317 12.5232 18.6474 12.5707 18.6475H14.5165V20.1609C14.5165 20.2182 14.5393 20.2732 14.5799 20.3138C14.6204 20.3543 14.6754 20.3771 14.7327 20.3771H14.9489V32.052H14.7327C14.6754 32.0521 14.6204 32.0748 14.5799 32.1154C14.5393 32.1559 14.5165 32.2109 14.5165 32.2682V33.7817H12.5707C12.5134 33.7817 12.4584 33.8045 12.4178 33.845C12.3773 33.8855 12.3545 33.9405 12.3545 33.9979V35.2951C12.3545 35.3524 12.3773 35.4074 12.4178 35.448C12.4584 35.4885 12.5134 35.5113 12.5707 35.5113H36.353C36.4103 35.5113 36.4653 35.4885 36.5059 35.448C36.5464 35.4074 36.5692 35.3524 36.5692 35.2951V33.9979C36.5692 33.9405 36.5464 33.8855 36.5059 33.845C36.4653 33.8045 36.4103 33.7817 36.353 33.7817H34.4072V32.2682C34.4072 32.2109 34.3844 32.1559 34.3439 32.1154C34.3033 32.0748 34.2483 32.0521 34.191 32.052H33.9748V20.3771H34.191C34.2483 20.3771 34.3033 20.3543 34.3439 20.3138C34.3844 20.2732 34.4072 20.2182 34.4072 20.1609V18.6475H36.353C36.4005 18.6474 36.4466 18.6317 36.4843 18.6029C36.522 18.574 36.5491 18.5335 36.5615 18.4877C36.5739 18.4419 36.5708 18.3933 36.5529 18.3493C36.5349 18.3054 36.5029 18.2686 36.462 18.2446L24.5708 11.3261C24.5395 11.3078 24.504 11.2976 24.4678 11.2966ZM24.4619 11.7636L35.5498 18.2151H34.2062H29.4345H26.8553H22.0836H19.5044H14.7327H13.3739L24.4619 11.7636ZM14.9489 18.6475H19.273V19.9447H14.9489V18.6475ZM19.7054 18.6475H21.8674V20.1609C21.8674 20.2182 21.8902 20.2732 21.9307 20.3138C21.9713 20.3543 22.0263 20.3771 22.0836 20.3771H22.2998V32.052H22.0836C22.0263 32.0521 21.9713 32.0748 21.9307 32.1154C21.8902 32.1559 21.8674 32.2109 21.8674 32.2682V33.7817H19.7054V32.2682C19.7054 32.2109 19.6826 32.1559 19.6421 32.1154C19.6015 32.0748 19.5465 32.0521 19.4892 32.052H19.273V20.3771H19.4892C19.5465 20.3771 19.6015 20.3543 19.6421 20.3138C19.6826 20.2732 19.7054 20.2182 19.7054 20.1609V18.6475ZM22.2998 18.6475H26.6239V19.9447H22.2998V18.6475ZM27.0563 18.6475H29.2183V20.1609C29.2183 20.2182 29.2411 20.2732 29.2816 20.3138C29.3222 20.3543 29.3772 20.3771 29.4345 20.3771H29.6507V32.052H29.4345C29.3772 32.0521 29.3222 32.0748 29.2816 32.1154C29.2411 32.1559 29.2183 32.2109 29.2183 32.2682V33.7817H27.0563V32.2682C27.0563 32.2109 27.0335 32.1559 26.993 32.1154C26.9524 32.0748 26.8974 32.0521 26.8401 32.052H26.6239V20.3771H26.8401C26.8974 20.3771 26.9524 20.3543 26.993 20.3138C27.0335 20.2732 27.0563 20.2182 27.0563 20.1609V18.6475ZM29.6507 18.6475H33.9748V19.9447H29.6507V18.6475ZM15.3813 20.3771H16.2461V32.052H15.3813V20.3771ZM16.6785 20.3771H17.5434V32.052H16.6785V20.3771ZM17.9758 20.3771H18.8406V32.052H17.9758V20.3771ZM22.7322 20.3771H23.597V32.052H22.7322V20.3771ZM24.0294 20.3771H24.8943V32.052H24.0294V20.3771ZM25.3267 20.3771H26.1915V32.052H25.3267V20.3771ZM30.0831 20.3771H30.9479V32.052H30.0831V20.3771ZM31.3803 20.3771H32.2452V32.052H31.3803V20.3771ZM32.6776 20.3771H33.5424V32.052H32.6776V20.3771ZM14.9489 32.4845H19.273V33.7817H14.9489V32.4845ZM22.2998 32.4845H26.6239V33.7817H22.2998V32.4845ZM29.6507 32.4845H33.9748V33.7817H29.6507V32.4845ZM12.7869 34.2141H36.1368V35.0789H12.7869V34.2141Z" stroke="white" stroke-width="0.2" mask="url(#path-2-outside-1_905_6079)"/>
<defs>
<linearGradient id="paint0_linear_905_6079" x1="57.3244" y1="-13.61" x2="-8.40126" y2="53.4993" gradientUnits="userSpaceOnUse">
<stop stop-color="#7B1931"/>
<stop offset="1" stop-color="#E05226"/>
</linearGradient>
</defs>
</svg>
