<svg width="25" height="25" viewBox="0 0 25 25" fill="none" xmlns="http://www.w3.org/2000/svg">
<mask id="path-1-outside-1_1933_3924" maskUnits="userSpaceOnUse" x="-0.645508" y="-0.70343" width="26" height="26" fill="black">
<rect fill="white" x="-0.645508" y="-0.70343" width="26" height="26"/>
<path d="M12.4678 0.296586C12.4604 0.296496 12.4531 0.296777 12.4458 0.297431C12.4131 0.299825 12.3813 0.309645 12.3529 0.326145L0.461749 7.24463C0.420779 7.26861 0.388837 7.30539 0.37085 7.34932C0.352863 7.39325 0.349832 7.44188 0.362225 7.4877C0.374617 7.53352 0.401744 7.574 0.43942 7.60287C0.477095 7.63175 0.523226 7.64742 0.570695 7.64748H2.51652V9.1609C2.51653 9.21824 2.53931 9.27322 2.57985 9.31377C2.6204 9.35431 2.67538 9.37709 2.73272 9.3771H2.94893V21.052H2.73272C2.67538 21.0521 2.6204 21.0748 2.57985 21.1154C2.53931 21.1559 2.51653 21.2109 2.51652 21.2682V22.7817H0.570695C0.513356 22.7817 0.458368 22.8045 0.417823 22.845C0.377278 22.8855 0.354498 22.9405 0.354492 22.9979V24.2951C0.354498 24.3524 0.377278 24.4074 0.417823 24.448C0.458368 24.4885 0.513356 24.5113 0.570695 24.5113H24.353C24.4103 24.5113 24.4653 24.4885 24.5059 24.448C24.5464 24.4074 24.5692 24.3524 24.5692 24.2951V22.9979C24.5692 22.9405 24.5464 22.8855 24.5059 22.845C24.4653 22.8045 24.4103 22.7817 24.353 22.7817H22.4072V21.2682C22.4072 21.2109 22.3844 21.1559 22.3439 21.1154C22.3033 21.0748 22.2483 21.0521 22.191 21.052H21.9748V9.3771H22.191C22.2483 9.37709 22.3033 9.35431 22.3439 9.31377C22.3844 9.27322 22.4072 9.21824 22.4072 9.1609V7.64748H24.353C24.4005 7.64742 24.4466 7.63175 24.4843 7.60287C24.522 7.574 24.5491 7.53352 24.5615 7.4877C24.5739 7.44188 24.5708 7.39325 24.5529 7.34932C24.5349 7.30539 24.5029 7.26861 24.462 7.24463L12.5708 0.326145C12.5395 0.307801 12.504 0.297635 12.4678 0.296586ZM12.4619 0.763618L23.5498 7.21507H22.2062H17.4345H14.8553H10.0836H7.50439H2.73272H1.37385L12.4619 0.763618ZM2.94893 7.64748H7.27298V8.94469H2.94893V7.64748ZM7.70539 7.64748H9.86742V9.1609C9.86742 9.21824 9.8902 9.27322 9.93075 9.31377C9.97129 9.35431 10.0263 9.37709 10.0836 9.3771H10.2998V21.052H10.0836C10.0263 21.0521 9.97129 21.0748 9.93075 21.1154C9.8902 21.1559 9.86742 21.2109 9.86742 21.2682V22.7817H7.70539V21.2682C7.70538 21.2109 7.6826 21.1559 7.64206 21.1154C7.60151 21.0748 7.54653 21.0521 7.48919 21.052H7.27298V9.3771H7.48919C7.54653 9.37709 7.60151 9.35431 7.64206 9.31377C7.6826 9.27322 7.70538 9.21824 7.70539 9.1609V7.64748ZM10.2998 7.64748H14.6239V8.94469H10.2998V7.64748ZM15.0563 7.64748H17.2183V9.1609C17.2183 9.21824 17.2411 9.27322 17.2816 9.31377C17.3222 9.35431 17.3772 9.37709 17.4345 9.3771H17.6507V21.052H17.4345C17.3772 21.0521 17.3222 21.0748 17.2816 21.1154C17.2411 21.1559 17.2183 21.2109 17.2183 21.2682V22.7817H15.0563V21.2682C15.0563 21.2109 15.0335 21.1559 14.993 21.1154C14.9524 21.0748 14.8974 21.0521 14.8401 21.052H14.6239V9.3771H14.8401C14.8974 9.37709 14.9524 9.35431 14.993 9.31377C15.0335 9.27322 15.0563 9.21824 15.0563 9.1609V7.64748ZM17.6507 7.64748H21.9748V8.94469H17.6507V7.64748ZM3.38133 9.3771H4.24614V21.052H3.38133V9.3771ZM4.67855 9.3771H5.54336V21.052H4.67855V9.3771ZM5.97577 9.3771H6.84058V21.052H5.97577V9.3771ZM10.7322 9.3771H11.597V21.052H10.7322V9.3771ZM12.0294 9.3771H12.8943V21.052H12.0294V9.3771ZM13.3267 9.3771H14.1915V21.052H13.3267V9.3771ZM18.0831 9.3771H18.9479V21.052H18.0831V9.3771ZM19.3803 9.3771H20.2452V21.052H19.3803V9.3771ZM20.6776 9.3771H21.5424V21.052H20.6776V9.3771ZM2.94893 21.4845H7.27298V22.7817H2.94893V21.4845ZM10.2998 21.4845H14.6239V22.7817H10.2998V21.4845ZM17.6507 21.4845H21.9748V22.7817H17.6507V21.4845ZM0.786898 23.2141H24.1368V24.0789H0.786898V23.2141Z"/>
</mask>
<path d="M12.4678 0.296586C12.4604 0.296496 12.4531 0.296777 12.4458 0.297431C12.4131 0.299825 12.3813 0.309645 12.3529 0.326145L0.461749 7.24463C0.420779 7.26861 0.388837 7.30539 0.37085 7.34932C0.352863 7.39325 0.349832 7.44188 0.362225 7.4877C0.374617 7.53352 0.401744 7.574 0.43942 7.60287C0.477095 7.63175 0.523226 7.64742 0.570695 7.64748H2.51652V9.1609C2.51653 9.21824 2.53931 9.27322 2.57985 9.31377C2.6204 9.35431 2.67538 9.37709 2.73272 9.3771H2.94893V21.052H2.73272C2.67538 21.0521 2.6204 21.0748 2.57985 21.1154C2.53931 21.1559 2.51653 21.2109 2.51652 21.2682V22.7817H0.570695C0.513356 22.7817 0.458368 22.8045 0.417823 22.845C0.377278 22.8855 0.354498 22.9405 0.354492 22.9979V24.2951C0.354498 24.3524 0.377278 24.4074 0.417823 24.448C0.458368 24.4885 0.513356 24.5113 0.570695 24.5113H24.353C24.4103 24.5113 24.4653 24.4885 24.5059 24.448C24.5464 24.4074 24.5692 24.3524 24.5692 24.2951V22.9979C24.5692 22.9405 24.5464 22.8855 24.5059 22.845C24.4653 22.8045 24.4103 22.7817 24.353 22.7817H22.4072V21.2682C22.4072 21.2109 22.3844 21.1559 22.3439 21.1154C22.3033 21.0748 22.2483 21.0521 22.191 21.052H21.9748V9.3771H22.191C22.2483 9.37709 22.3033 9.35431 22.3439 9.31377C22.3844 9.27322 22.4072 9.21824 22.4072 9.1609V7.64748H24.353C24.4005 7.64742 24.4466 7.63175 24.4843 7.60287C24.522 7.574 24.5491 7.53352 24.5615 7.4877C24.5739 7.44188 24.5708 7.39325 24.5529 7.34932C24.5349 7.30539 24.5029 7.26861 24.462 7.24463L12.5708 0.326145C12.5395 0.307801 12.504 0.297635 12.4678 0.296586ZM12.4619 0.763618L23.5498 7.21507H22.2062H17.4345H14.8553H10.0836H7.50439H2.73272H1.37385L12.4619 0.763618ZM2.94893 7.64748H7.27298V8.94469H2.94893V7.64748ZM7.70539 7.64748H9.86742V9.1609C9.86742 9.21824 9.8902 9.27322 9.93075 9.31377C9.97129 9.35431 10.0263 9.37709 10.0836 9.3771H10.2998V21.052H10.0836C10.0263 21.0521 9.97129 21.0748 9.93075 21.1154C9.8902 21.1559 9.86742 21.2109 9.86742 21.2682V22.7817H7.70539V21.2682C7.70538 21.2109 7.6826 21.1559 7.64206 21.1154C7.60151 21.0748 7.54653 21.0521 7.48919 21.052H7.27298V9.3771H7.48919C7.54653 9.37709 7.60151 9.35431 7.64206 9.31377C7.6826 9.27322 7.70538 9.21824 7.70539 9.1609V7.64748ZM10.2998 7.64748H14.6239V8.94469H10.2998V7.64748ZM15.0563 7.64748H17.2183V9.1609C17.2183 9.21824 17.2411 9.27322 17.2816 9.31377C17.3222 9.35431 17.3772 9.37709 17.4345 9.3771H17.6507V21.052H17.4345C17.3772 21.0521 17.3222 21.0748 17.2816 21.1154C17.2411 21.1559 17.2183 21.2109 17.2183 21.2682V22.7817H15.0563V21.2682C15.0563 21.2109 15.0335 21.1559 14.993 21.1154C14.9524 21.0748 14.8974 21.0521 14.8401 21.052H14.6239V9.3771H14.8401C14.8974 9.37709 14.9524 9.35431 14.993 9.31377C15.0335 9.27322 15.0563 9.21824 15.0563 9.1609V7.64748ZM17.6507 7.64748H21.9748V8.94469H17.6507V7.64748ZM3.38133 9.3771H4.24614V21.052H3.38133V9.3771ZM4.67855 9.3771H5.54336V21.052H4.67855V9.3771ZM5.97577 9.3771H6.84058V21.052H5.97577V9.3771ZM10.7322 9.3771H11.597V21.052H10.7322V9.3771ZM12.0294 9.3771H12.8943V21.052H12.0294V9.3771ZM13.3267 9.3771H14.1915V21.052H13.3267V9.3771ZM18.0831 9.3771H18.9479V21.052H18.0831V9.3771ZM19.3803 9.3771H20.2452V21.052H19.3803V9.3771ZM20.6776 9.3771H21.5424V21.052H20.6776V9.3771ZM2.94893 21.4845H7.27298V22.7817H2.94893V21.4845ZM10.2998 21.4845H14.6239V22.7817H10.2998V21.4845ZM17.6507 21.4845H21.9748V22.7817H17.6507V21.4845ZM0.786898 23.2141H24.1368V24.0789H0.786898V23.2141Z" fill="white"/>
<path d="M12.4678 0.296586C12.4604 0.296496 12.4531 0.296777 12.4458 0.297431C12.4131 0.299825 12.3813 0.309645 12.3529 0.326145L0.461749 7.24463C0.420779 7.26861 0.388837 7.30539 0.37085 7.34932C0.352863 7.39325 0.349832 7.44188 0.362225 7.4877C0.374617 7.53352 0.401744 7.574 0.43942 7.60287C0.477095 7.63175 0.523226 7.64742 0.570695 7.64748H2.51652V9.1609C2.51653 9.21824 2.53931 9.27322 2.57985 9.31377C2.6204 9.35431 2.67538 9.37709 2.73272 9.3771H2.94893V21.052H2.73272C2.67538 21.0521 2.6204 21.0748 2.57985 21.1154C2.53931 21.1559 2.51653 21.2109 2.51652 21.2682V22.7817H0.570695C0.513356 22.7817 0.458368 22.8045 0.417823 22.845C0.377278 22.8855 0.354498 22.9405 0.354492 22.9979V24.2951C0.354498 24.3524 0.377278 24.4074 0.417823 24.448C0.458368 24.4885 0.513356 24.5113 0.570695 24.5113H24.353C24.4103 24.5113 24.4653 24.4885 24.5059 24.448C24.5464 24.4074 24.5692 24.3524 24.5692 24.2951V22.9979C24.5692 22.9405 24.5464 22.8855 24.5059 22.845C24.4653 22.8045 24.4103 22.7817 24.353 22.7817H22.4072V21.2682C22.4072 21.2109 22.3844 21.1559 22.3439 21.1154C22.3033 21.0748 22.2483 21.0521 22.191 21.052H21.9748V9.3771H22.191C22.2483 9.37709 22.3033 9.35431 22.3439 9.31377C22.3844 9.27322 22.4072 9.21824 22.4072 9.1609V7.64748H24.353C24.4005 7.64742 24.4466 7.63175 24.4843 7.60287C24.522 7.574 24.5491 7.53352 24.5615 7.4877C24.5739 7.44188 24.5708 7.39325 24.5529 7.34932C24.5349 7.30539 24.5029 7.26861 24.462 7.24463L12.5708 0.326145C12.5395 0.307801 12.504 0.297635 12.4678 0.296586ZM12.4619 0.763618L23.5498 7.21507H22.2062H17.4345H14.8553H10.0836H7.50439H2.73272H1.37385L12.4619 0.763618ZM2.94893 7.64748H7.27298V8.94469H2.94893V7.64748ZM7.70539 7.64748H9.86742V9.1609C9.86742 9.21824 9.8902 9.27322 9.93075 9.31377C9.97129 9.35431 10.0263 9.37709 10.0836 9.3771H10.2998V21.052H10.0836C10.0263 21.0521 9.97129 21.0748 9.93075 21.1154C9.8902 21.1559 9.86742 21.2109 9.86742 21.2682V22.7817H7.70539V21.2682C7.70538 21.2109 7.6826 21.1559 7.64206 21.1154C7.60151 21.0748 7.54653 21.0521 7.48919 21.052H7.27298V9.3771H7.48919C7.54653 9.37709 7.60151 9.35431 7.64206 9.31377C7.6826 9.27322 7.70538 9.21824 7.70539 9.1609V7.64748ZM10.2998 7.64748H14.6239V8.94469H10.2998V7.64748ZM15.0563 7.64748H17.2183V9.1609C17.2183 9.21824 17.2411 9.27322 17.2816 9.31377C17.3222 9.35431 17.3772 9.37709 17.4345 9.3771H17.6507V21.052H17.4345C17.3772 21.0521 17.3222 21.0748 17.2816 21.1154C17.2411 21.1559 17.2183 21.2109 17.2183 21.2682V22.7817H15.0563V21.2682C15.0563 21.2109 15.0335 21.1559 14.993 21.1154C14.9524 21.0748 14.8974 21.0521 14.8401 21.052H14.6239V9.3771H14.8401C14.8974 9.37709 14.9524 9.35431 14.993 9.31377C15.0335 9.27322 15.0563 9.21824 15.0563 9.1609V7.64748ZM17.6507 7.64748H21.9748V8.94469H17.6507V7.64748ZM3.38133 9.3771H4.24614V21.052H3.38133V9.3771ZM4.67855 9.3771H5.54336V21.052H4.67855V9.3771ZM5.97577 9.3771H6.84058V21.052H5.97577V9.3771ZM10.7322 9.3771H11.597V21.052H10.7322V9.3771ZM12.0294 9.3771H12.8943V21.052H12.0294V9.3771ZM13.3267 9.3771H14.1915V21.052H13.3267V9.3771ZM18.0831 9.3771H18.9479V21.052H18.0831V9.3771ZM19.3803 9.3771H20.2452V21.052H19.3803V9.3771ZM20.6776 9.3771H21.5424V21.052H20.6776V9.3771ZM2.94893 21.4845H7.27298V22.7817H2.94893V21.4845ZM10.2998 21.4845H14.6239V22.7817H10.2998V21.4845ZM17.6507 21.4845H21.9748V22.7817H17.6507V21.4845ZM0.786898 23.2141H24.1368V24.0789H0.786898V23.2141Z" stroke="white" stroke-width="0.2" mask="url(#path-1-outside-1_1933_3924)"/>
</svg>
