<svg width="47" height="47" viewBox="0 0 47 47" fill="none" xmlns="http://www.w3.org/2000/svg">
<circle cx="23.2707" cy="23.2707" r="23.2707" fill="url(#paint0_linear_1310_11425)"/>
<g clip-path="url(#clip0_1310_11425)">
<path d="M13.7247 28.4059H17.2996C17.4544 28.4059 17.5803 28.2799 17.5803 28.1251C17.5803 27.9703 17.4544 27.8443 17.2996 27.8443H13.7247C13.5699 27.8443 13.4439 27.9703 13.4439 28.1251C13.4439 28.2799 13.5699 28.4059 13.7247 28.4059Z" fill="white" stroke="white" stroke-width="0.2"/>
<path d="M12.8539 15.7924H12.9539V15.7887H33.0266C33.7203 15.7887 34.2842 16.3526 34.2842 17.0463V29.4716C34.2842 30.1653 33.7203 30.7293 33.0266 30.7293H12.8539C12.1603 30.7293 11.5963 30.1653 11.5963 29.4716V17.05C11.5963 16.3563 12.1603 15.7924 12.8539 15.7924ZM12.8539 31.2908H33.0266C34.0301 31.2908 34.8458 30.4748 34.8458 29.4679V17.0463C34.8458 16.043 34.03 15.2271 33.0266 15.2271H12.8539C11.8506 15.2271 11.0348 16.043 11.0348 17.0463V29.4716C11.0348 30.475 11.8506 31.2908 12.8539 31.2908Z" fill="white" stroke="white" stroke-width="0.2"/>
<path d="M26.8619 24.7201H28.6254C28.7812 24.7201 28.911 24.5964 28.9061 24.4375C28.9051 24.2835 28.7796 24.1586 28.6254 24.1586H27.1427V23.0895H28.6254C28.7802 23.0895 28.9061 22.9635 28.9061 22.8087C28.9061 22.6539 28.7802 22.5279 28.6254 22.5279H26.8619C26.7071 22.5279 26.5812 22.6539 26.5812 22.8087V24.4393C26.5812 24.5942 26.7071 24.7201 26.8619 24.7201ZM30.7061 24.7201H32.4843C32.6391 24.7201 32.7651 24.5942 32.7651 24.4393V22.8087C32.7651 22.6539 32.6391 22.5279 32.4843 22.5279H30.7061C30.5513 22.5279 30.4253 22.6539 30.4253 22.8087V24.4393C30.4253 24.5942 30.5513 24.7201 30.7061 24.7201ZM32.2035 23.0858V24.1549H30.9906V23.0858H32.2035Z" fill="white" stroke="white" stroke-width="0.2"/>
<path d="M27.2936 25.716H32.0527C32.4477 25.716 32.7651 25.3941 32.7651 25.0036V24.5092C32.7651 24.3544 32.6391 24.2284 32.4843 24.2284C32.3295 24.2284 32.2035 24.3544 32.2035 24.5092V25.0036C32.2035 25.0858 32.1367 25.1544 32.0527 25.1544H27.2936C27.2086 25.1544 27.1427 25.0885 27.1427 25.0036V24.5092C27.1427 24.3544 27.0168 24.2284 26.8619 24.2284C26.7071 24.2284 26.5812 24.3544 26.5812 24.5092V25.0036C26.5812 25.3941 26.8985 25.716 27.2936 25.716ZM32.2035 22.7384C32.2035 22.8932 32.3295 23.0192 32.4843 23.0192C32.6391 23.0192 32.7651 22.8932 32.7651 22.7384V22.2403C32.7651 21.8498 32.4477 21.5279 32.0527 21.5279H27.2936C26.903 21.5279 26.5812 21.8453 26.5812 22.2403V22.7384C26.5812 22.8932 26.7071 23.0192 26.8619 23.0192C27.0168 23.0192 27.1427 22.8932 27.1427 22.7384V22.2403C27.1427 22.1554 27.2086 22.0895 27.2936 22.0895H32.0527C32.1376 22.0895 32.2035 22.1554 32.2035 22.2403V22.7384Z" fill="white" stroke="white" stroke-width="0.2"/>
<path d="M28.6955 24.7204H30.6507C30.8056 24.7204 30.9315 24.5945 30.9315 24.4396C30.9315 24.2848 30.8056 24.1589 30.6507 24.1589H28.9799V23.0898H30.6507C30.8056 23.0898 30.9315 22.9638 30.9315 22.809C30.9315 22.6542 30.8056 22.5282 30.6507 22.5282H28.6955C28.5406 22.5282 28.4147 22.6542 28.4147 22.809V24.4396C28.4147 24.5945 28.5406 24.7204 28.6955 24.7204ZM11.3155 18.0983H34.565C34.7198 18.0983 34.8458 17.9723 34.8458 17.8175C34.8458 17.6627 34.7198 17.5367 34.565 17.5367H11.3155C11.1607 17.5367 11.0348 17.6627 11.0348 17.8175C11.0348 17.9723 11.1607 18.0983 11.3155 18.0983ZM11.3155 20.12H34.565C34.7198 20.12 34.8458 19.994 34.8458 19.8392C34.8458 19.6843 34.7198 19.5584 34.565 19.5584H11.3155C11.1607 19.5584 11.0348 19.6843 11.0348 19.8392C11.0348 19.994 11.1607 20.12 11.3155 20.12ZM13.9902 23.9051H23.1579C23.3155 23.9051 23.435 23.7765 23.435 23.6243C23.435 23.4695 23.3091 23.3436 23.1543 23.3436H13.9902C13.8354 23.3436 13.7095 23.4695 13.7095 23.6243C13.7095 23.7792 13.8354 23.9051 13.9902 23.9051ZM18.9264 28.4059H22.5013C22.6561 28.4059 22.782 28.28 22.782 28.1252C22.782 27.9703 22.6561 27.8444 22.5013 27.8444H18.9264C18.7716 27.8444 18.6456 27.9703 18.6456 28.1252C18.6456 28.28 18.7716 28.4059 18.9264 28.4059ZM24.1282 28.4059H27.7031C27.8579 28.4059 27.9838 28.28 27.9838 28.1252C27.9838 27.9703 27.8579 27.8444 27.7031 27.8444H24.1282C23.9734 27.8444 23.8474 27.9703 23.8474 28.1252C23.8474 28.28 23.9734 28.4059 24.1282 28.4059ZM29.33 28.4059H32.9049C33.0597 28.4059 33.1856 28.28 33.1856 28.1252C33.1856 27.9703 33.0597 27.8444 32.9049 27.8444H29.33C29.1752 27.8444 29.0492 27.9703 29.0492 28.1252C29.0492 28.28 29.1752 28.4059 29.33 28.4059Z" fill="white" stroke="white" stroke-width="0.2"/>
</g>
<defs>
<linearGradient id="paint0_linear_1310_11425" x1="54.5199" y1="-13.9624" x2="-8.6434" y2="50.5306" gradientUnits="userSpaceOnUse">
<stop stop-color="#7B1931"/>
<stop offset="1" stop-color="#E05226"/>
</linearGradient>
<clipPath id="clip0_1310_11425">
<rect width="23.611" height="23.611" fill="white" transform="translate(11.1348 11.4531)"/>
</clipPath>
</defs>
</svg>
