<svg width="51" height="51" viewBox="0 0 51 51" fill="none" xmlns="http://www.w3.org/2000/svg">
<path d="M42.3655 8.63479C41.911 8.18033 41.1031 8.18033 40.6486 8.63479L25.5001 23.7833L10.3516 8.63479C9.89716 8.18033 9.08924 8.18033 8.63479 8.63479C8.18033 9.08924 8.18033 9.89716 8.63479 10.3516L23.7833 25.5001L8.63479 40.6486C8.18033 41.1031 8.18033 41.911 8.63479 42.3655C8.88726 42.618 9.19023 42.7189 9.4932 42.7189C9.79617 42.7189 10.0991 42.618 10.3516 42.3655L25.5001 27.217L40.6486 42.3655C40.9011 42.618 41.2041 42.7189 41.5071 42.7189C41.81 42.7189 42.113 42.618 42.3655 42.3655C42.8199 41.911 42.8199 41.1031 42.3655 40.6486L27.217 25.5001L42.3655 10.3516C42.8199 9.89716 42.8199 9.13974 42.3655 8.63479Z" fill="white"/>
</svg>
