<svg width="14" height="14" viewBox="0 0 14 14" fill="none" xmlns="http://www.w3.org/2000/svg">
<path d="M11.0671 0.501203L7.00007 4.56842C5.64447 3.21327 4.28844 1.8568 2.93263 0.501203C1.36419 -1.06723 -1.067 1.36483 0.500127 2.9337C1.85616 4.28842 3.21263 5.64511 4.56713 7.0007C3.21201 8.35692 1.85634 9.71258 0.500127 11.0677C-1.067 12.6357 1.36441 15.0671 2.93263 13.5002C4.28822 12.1442 5.64425 10.7879 6.99985 9.43277L11.0668 13.5002C12.6353 15.0682 15.0671 12.6359 13.4993 11.0677C12.1433 9.71167 10.7877 8.35608 9.43125 7.00027C10.7875 5.64423 12.1431 4.2882 13.4993 2.93239C15.0673 1.36483 12.6355 -1.06723 11.0668 0.502078" fill="#BF1A24"/>
</svg>
