<svg width="42" height="42" viewBox="0 0 42 42" fill="none" xmlns="http://www.w3.org/2000/svg">
<ellipse cx="20.8624" cy="20.7381" rx="20.8624" ry="20.7381" fill="url(#paint0_linear_1596_10019)"/>
<path d="M21 27C19.35 27 18 25.65 18 24V22.125C18 21.9 18.15 21.75 18.375 21.75C18.6 21.75 18.75 21.9 18.75 22.125V24C18.75 25.275 19.725 26.25 21 26.25C22.275 26.25 23.25 25.275 23.25 24V22.125C23.25 21.9 23.4 21.75 23.625 21.75C23.85 21.75 24 21.9 24 22.125V24C24 25.65 22.65 27 21 27Z" fill="white"/>
<path d="M21 23.25C18.075 23.25 15.75 20.925 15.75 18V16.125C15.75 15.9 15.9 15.75 16.125 15.75C16.35 15.75 16.5 15.9 16.5 16.125V18C16.5 20.475 18.525 22.5 21 22.5C23.475 22.5 25.5 20.475 25.5 18V16.125C25.5 15.9 25.65 15.75 25.875 15.75C26.1 15.75 26.25 15.9 26.25 16.125V18C26.25 20.925 23.925 23.25 21 23.25ZM30.375 33H11.625C11.4 33 11.25 32.85 11.25 32.625V29.325C11.25 27.525 12.375 25.95 14.1 25.425L18.3 24H18.6C18.675 24.075 18.75 24.15 18.75 24.3C18.9 25.425 19.875 26.175 21 26.175C22.125 26.175 23.025 25.35 23.25 24.3C23.25 24.225 23.325 24.075 23.4 24C23.475 23.925 23.625 23.925 23.7 24L27.9 25.425C29.625 25.95 30.75 27.525 30.75 29.325V32.625C30.75 32.85 30.6 33 30.375 33V33ZM12 32.25H30V29.325C30 27.9 29.1 26.55 27.675 26.1L23.85 24.825C23.475 26.1 22.35 26.925 21 26.925C19.65 26.925 18.525 26.025 18.15 24.825L14.325 26.1C12.9 26.55 12 27.9 12 29.325V32.25V32.25Z" fill="white"/>
<path d="M30.375 33H25.875C25.65 33 25.5 32.85 25.5 32.625V31.875C25.5 29.4 27.375 27.3 29.775 27.075C29.925 27.075 30.075 27.15 30.15 27.225C30.525 27.9 30.75 28.575 30.75 29.325V32.625C30.75 32.85 30.6 33 30.375 33ZM26.25 32.25H30V29.325C30 28.8 29.85 28.275 29.625 27.825C27.675 28.2 26.25 29.85 26.25 31.875V32.25ZM16.125 33H11.625C11.4 33 11.25 32.85 11.25 32.625V29.325C11.25 28.575 11.475 27.825 11.85 27.225C11.925 27.075 12.075 27 12.225 27C14.7 27.3 16.5 29.4 16.5 31.8V32.55C16.5 32.85 16.35 33 16.125 33ZM12 32.25H15.75V31.875C15.75 29.85 14.325 28.2 12.375 27.825C12.15 28.275 12 28.8 12 29.325V32.25ZM25.875 16.5H25.5C24.9 16.5 24.375 15.975 24.375 15.375V13.875C24.375 13.65 24.225 13.5 24 13.5H18C17.775 13.5 17.625 13.65 17.625 13.875V15.375C17.625 15.975 17.1 16.5 16.5 16.5H16.125C15.9 16.5 15.75 16.35 15.75 16.125C15.75 15.9 15.9 15.75 16.125 15.75H16.5C16.725 15.75 16.875 15.6 16.875 15.375V13.875C16.875 13.275 17.4 12.75 18 12.75H24C24.6 12.75 25.125 13.275 25.125 13.875V15.375C25.125 15.6 25.275 15.75 25.5 15.75H25.875C26.1 15.75 26.25 15.9 26.25 16.125C26.25 16.35 26.1 16.5 25.875 16.5Z" fill="white"/>
<path d="M25.875 16.5H25.8C25.575 16.425 25.5 16.275 25.5 16.05L26.175 12.975C26.325 12.225 26.175 11.4 25.65 10.8C25.2 10.125 24.45 9.75 23.625 9.75H19.875C19.275 9.75 18.75 10.275 18.75 10.875C18.75 11.1 18.6 11.25 18.375 11.25C18.15 11.25 18 11.1 18 10.875C18 9.825 18.825 9 19.875 9H23.625C24.675 9 25.65 9.45 26.25 10.275C26.85 11.1 27.15 12.15 26.925 13.125L26.25 16.2C26.175 16.35 26.025 16.5 25.875 16.5Z" fill="white"/>
<path d="M16.5002 16.5H16.1252C15.9752 16.5 15.8252 16.35 15.7502 16.2L14.9252 13.05C14.7002 12.225 14.9252 11.475 15.3752 10.8C15.8252 10.125 16.7252 9.75 17.4752 9.75H17.6252C18.2252 9.75 18.7502 10.275 18.7502 10.875C18.7502 11.1 18.6002 11.25 18.3752 11.25C18.1502 11.25 18.0002 11.1 18.0002 10.875C18.0002 10.65 17.8502 10.5 17.6252 10.5H17.4752C16.8752 10.5 16.3502 10.8 15.9752 11.25C15.6002 11.7 15.5252 12.3 15.6752 12.825L16.4252 15.75H16.5002C16.7252 15.75 16.8752 15.9 16.8752 16.125C16.8752 16.35 16.7252 16.5 16.5002 16.5ZM27.3752 18.75H25.8752C25.6502 18.75 25.5002 18.6 25.5002 18.375V16.125C25.5002 15.9 25.6502 15.75 25.8752 15.75H26.6252C27.2252 15.75 27.7502 16.275 27.7502 16.875V18.375C27.7502 18.6 27.6002 18.75 27.3752 18.75ZM26.2502 18H27.0002V16.875C27.0002 16.65 26.8502 16.5 26.6252 16.5H26.2502V18Z" fill="white"/>
<path d="M25.125 21H22.875C22.65 21 22.5 20.85 22.5 20.625C22.5 20.4 22.65 20.25 22.875 20.25H25.125C26.175 20.25 27 19.425 27 18.375V16.875C27 16.65 27.15 16.5 27.375 16.5C27.6 16.5 27.75 16.65 27.75 16.875V18.375C27.75 19.8 26.55 21 25.125 21ZM16.125 18.75H15.375C14.775 18.75 14.25 18.225 14.25 17.625V16.875C14.25 16.275 14.775 15.75 15.375 15.75H16.125C16.35 15.75 16.5 15.9 16.5 16.125V18.375C16.5 18.6 16.35 18.75 16.125 18.75ZM15.375 16.5C15.15 16.5 15 16.65 15 16.875V17.625C15 17.85 15.15 18 15.375 18H15.75V16.5H15.375Z" fill="white"/>
<path d="M22.125 21.75H21.375C20.775 21.75 20.25 21.225 20.25 20.625C20.25 20.025 20.775 19.5 21.375 19.5H22.125C22.725 19.5 23.25 20.025 23.25 20.625C23.25 21.225 22.725 21.75 22.125 21.75ZM21.375 20.25C21.15 20.25 21 20.4 21 20.625C21 20.85 21.15 21 21.375 21H22.125C22.35 21 22.5 20.85 22.5 20.625C22.5 20.4 22.35 20.25 22.125 20.25H21.375Z" fill="white"/>
<defs>
<linearGradient id="paint0_linear_1596_10019" x1="48.8777" y1="-12.4429" x2="-7.40348" y2="45.3676" gradientUnits="userSpaceOnUse">
<stop stop-color="#7B1931"/>
<stop offset="1" stop-color="#E05226"/>
</linearGradient>
</defs>
</svg>
