<svg width="24" height="24" viewBox="0 0 24 24" fill="none" xmlns="http://www.w3.org/2000/svg">
<path d="M12 18C10.35 18 9 16.65 9 15V13.125C9 12.9 9.15 12.75 9.375 12.75C9.6 12.75 9.75 12.9 9.75 13.125V15C9.75 16.275 10.725 17.25 12 17.25C13.275 17.25 14.25 16.275 14.25 15V13.125C14.25 12.9 14.4 12.75 14.625 12.75C14.85 12.75 15 12.9 15 13.125V15C15 16.65 13.65 18 12 18Z" fill="white"/>
<path d="M12 14.25C9.075 14.25 6.75 11.925 6.75 9V7.125C6.75 6.9 6.9 6.75 7.125 6.75C7.35 6.75 7.5 6.9 7.5 7.125V9C7.5 11.475 9.525 13.5 12 13.5C14.475 13.5 16.5 11.475 16.5 9V7.125C16.5 6.9 16.65 6.75 16.875 6.75C17.1 6.75 17.25 6.9 17.25 7.125V9C17.25 11.925 14.925 14.25 12 14.25ZM21.375 24H2.625C2.4 24 2.25 23.85 2.25 23.625V20.325C2.25 18.525 3.375 16.95 5.1 16.425L9.3 15H9.6C9.675 15.075 9.75 15.15 9.75 15.3C9.9 16.425 10.875 17.175 12 17.175C13.125 17.175 14.025 16.35 14.25 15.3C14.25 15.225 14.325 15.075 14.4 15C14.475 14.925 14.625 14.925 14.7 15L18.9 16.425C20.625 16.95 21.75 18.525 21.75 20.325V23.625C21.75 23.85 21.6 24 21.375 24ZM3 23.25H21V20.325C21 18.9 20.1 17.55 18.675 17.1L14.85 15.825C14.475 17.1 13.35 17.925 12 17.925C10.65 17.925 9.525 17.025 9.15 15.825L5.325 17.1C3.9 17.55 3 18.9 3 20.325V23.25Z" fill="white"/>
<path d="M21.375 24H16.875C16.65 24 16.5 23.85 16.5 23.625V22.875C16.5 20.4 18.375 18.3 20.775 18.075C20.925 18.075 21.075 18.15 21.15 18.225C21.525 18.9 21.75 19.575 21.75 20.325V23.625C21.75 23.85 21.6 24 21.375 24ZM17.25 23.25H21V20.325C21 19.8 20.85 19.275 20.625 18.825C18.675 19.2 17.25 20.85 17.25 22.875V23.25ZM7.125 24H2.625C2.4 24 2.25 23.85 2.25 23.625V20.325C2.25 19.575 2.475 18.825 2.85 18.225C2.925 18.075 3.075 18 3.225 18C5.7 18.3 7.5 20.4 7.5 22.8V23.55C7.5 23.85 7.35 24 7.125 24ZM3 23.25H6.75V22.875C6.75 20.85 5.325 19.2 3.375 18.825C3.15 19.275 3 19.8 3 20.325V23.25ZM16.875 7.5H16.5C15.9 7.5 15.375 6.975 15.375 6.375V4.875C15.375 4.65 15.225 4.5 15 4.5H9C8.775 4.5 8.625 4.65 8.625 4.875V6.375C8.625 6.975 8.1 7.5 7.5 7.5H7.125C6.9 7.5 6.75 7.35 6.75 7.125C6.75 6.9 6.9 6.75 7.125 6.75H7.5C7.725 6.75 7.875 6.6 7.875 6.375V4.875C7.875 4.275 8.4 3.75 9 3.75H15C15.6 3.75 16.125 4.275 16.125 4.875V6.375C16.125 6.6 16.275 6.75 16.5 6.75H16.875C17.1 6.75 17.25 6.9 17.25 7.125C17.25 7.35 17.1 7.5 16.875 7.5Z" fill="white"/>
<path d="M16.875 7.5H16.8C16.575 7.425 16.5 7.275 16.5 7.05L17.175 3.975C17.325 3.225 17.175 2.4 16.65 1.8C16.2 1.125 15.45 0.75 14.625 0.75H10.875C10.275 0.75 9.75 1.275 9.75 1.875C9.75 2.1 9.6 2.25 9.375 2.25C9.15 2.25 9 2.1 9 1.875C9 0.825 9.825 0 10.875 0H14.625C15.675 0 16.65 0.45 17.25 1.275C17.85 2.1 18.15 3.15 17.925 4.125L17.25 7.2C17.175 7.35 17.025 7.5 16.875 7.5Z" fill="white"/>
<path d="M7.50018 7.5H7.12518C6.97518 7.5 6.82518 7.35 6.75018 7.2L5.92518 4.05C5.70018 3.225 5.92518 2.475 6.37518 1.8C6.82518 1.125 7.72518 0.75 8.47518 0.75H8.62518C9.22518 0.75 9.75018 1.275 9.75018 1.875C9.75018 2.1 9.60018 2.25 9.37518 2.25C9.15018 2.25 9.00018 2.1 9.00018 1.875C9.00018 1.65 8.85018 1.5 8.62518 1.5H8.47518C7.87518 1.5 7.35018 1.8 6.97518 2.25C6.60018 2.7 6.52518 3.3 6.67518 3.825L7.42518 6.75H7.50018C7.72518 6.75 7.87518 6.9 7.87518 7.125C7.87518 7.35 7.72518 7.5 7.50018 7.5ZM18.3752 9.75H16.8752C16.6502 9.75 16.5002 9.6 16.5002 9.375V7.125C16.5002 6.9 16.6502 6.75 16.8752 6.75H17.6252C18.2252 6.75 18.7502 7.275 18.7502 7.875V9.375C18.7502 9.6 18.6002 9.75 18.3752 9.75ZM17.2502 9H18.0002V7.875C18.0002 7.65 17.8502 7.5 17.6252 7.5H17.2502V9Z" fill="white"/>
<path d="M16.125 12H13.875C13.65 12 13.5 11.85 13.5 11.625C13.5 11.4 13.65 11.25 13.875 11.25H16.125C17.175 11.25 18 10.425 18 9.375V7.875C18 7.65 18.15 7.5 18.375 7.5C18.6 7.5 18.75 7.65 18.75 7.875V9.375C18.75 10.8 17.55 12 16.125 12ZM7.125 9.75H6.375C5.775 9.75 5.25 9.225 5.25 8.625V7.875C5.25 7.275 5.775 6.75 6.375 6.75H7.125C7.35 6.75 7.5 6.9 7.5 7.125V9.375C7.5 9.6 7.35 9.75 7.125 9.75ZM6.375 7.5C6.15 7.5 6 7.65 6 7.875V8.625C6 8.85 6.15 9 6.375 9H6.75V7.5H6.375Z" fill="white"/>
<path d="M13.125 12.75H12.375C11.775 12.75 11.25 12.225 11.25 11.625C11.25 11.025 11.775 10.5 12.375 10.5H13.125C13.725 10.5 14.25 11.025 14.25 11.625C14.25 12.225 13.725 12.75 13.125 12.75ZM12.375 11.25C12.15 11.25 12 11.4 12 11.625C12 11.85 12.15 12 12.375 12H13.125C13.35 12 13.5 11.85 13.5 11.625C13.5 11.4 13.35 11.25 13.125 11.25H12.375Z" fill="white"/>
</svg>
