<svg width="26" height="25" viewBox="0 0 26 25" fill="none" xmlns="http://www.w3.org/2000/svg">
<path fill-rule="evenodd" clip-rule="evenodd" d="M7.92455 0.401954C7.66259 0.482497 7.40498 0.64878 7.22306 0.854839C6.86604 1.25911 6.88201 1.04767 6.88201 5.37221C6.88201 9.12298 6.88476 9.24301 6.97702 9.48875C7.10265 9.82349 7.43399 10.1533 7.77087 10.2789C8.02321 10.3731 8.10737 10.3742 14.0768 10.3618L20.1269 10.3493L20.3473 10.2202C20.4686 10.1491 20.654 9.99332 20.7594 9.87389C21.1173 9.46858 21.1021 9.68149 21.0876 5.2911L21.0747 1.37381L20.9474 1.13336C20.806 0.866081 20.5812 0.649016 20.2796 0.488355L20.0795 0.381782L14.0613 0.373657C10.7512 0.369217 7.9897 0.381924 7.92455 0.401954ZM19.9068 1.37027C20.0819 1.4605 20.1506 1.62867 20.1506 1.96653V2.24774H13.9902H7.82977V1.93757C7.82977 1.58374 7.87346 1.47538 8.05605 1.3766C8.24707 1.27324 19.7067 1.26714 19.9068 1.37027ZM20.1506 3.66493V4.13732H13.9902H7.82977V3.66493V3.19253H13.9902H20.1506V3.66493ZM20.1506 7.11704V9.15198L20.0121 9.29006L19.8736 9.42814H13.9902H8.1068L7.96828 9.29006L7.82977 9.15198V7.11704V5.08211H13.9902H20.1506V7.11704ZM14.7668 7.58306C14.7118 7.60621 14.6191 7.68538 14.5609 7.75903C14.3361 8.04332 14.5543 8.48335 14.92 8.48335C15.1359 8.48335 15.2519 8.41845 15.3403 8.2481C15.4457 8.04488 15.428 7.88842 15.2815 7.72814C15.1416 7.57513 14.9285 7.51504 14.7668 7.58306ZM16.6623 7.58358C16.5204 7.64258 16.3596 7.86163 16.3596 7.99608C16.3596 8.14772 16.4806 8.37428 16.5939 8.4347C16.6491 8.46413 17.1277 8.48335 17.8054 8.48335H18.9258L19.0644 8.34527C19.2534 8.15679 19.2535 7.9273 19.0647 7.71647L18.9265 7.56218L17.8445 7.55212C17.2493 7.54655 16.7174 7.56072 16.6623 7.58358ZM22.7053 10.507C22.3355 10.6287 22.0952 10.8083 21.5479 11.3721C21.2869 11.641 20.6195 12.3252 20.0649 12.8925L19.0564 13.924L18.8418 13.7267C18.5656 13.4729 18.1882 13.3023 17.7897 13.2511C17.6157 13.2287 16.3026 13.2097 14.8718 13.2089L12.2704 13.2073L11.8275 13.0659C11.1593 12.8525 10.6446 12.7768 9.86745 12.7776C8.52907 12.7788 7.45417 13.0833 6.41851 13.7545C5.88743 14.0986 5.17121 14.8118 4.82779 15.3385L4.56247 15.7454L4.23459 15.7688C3.67082 15.809 3.58045 15.8749 2.17876 17.2692L0.911133 18.5302V18.7551V18.98L3.64267 21.7269C5.14501 23.2378 6.41917 24.4998 6.4741 24.5313C6.60825 24.6084 6.76506 24.6061 6.91992 24.5249C6.99029 24.488 7.61548 23.8875 8.30919 23.1904C9.7477 21.745 9.75031 21.741 9.71846 21.0571L9.70159 20.6946L10.0595 20.364C10.6353 19.8321 10.3376 19.8675 14.2284 19.8678C16.278 19.868 17.7238 19.8489 17.9668 19.8185C18.7621 19.7191 19.5707 19.3724 20.1852 18.8672C20.5351 18.5795 24.876 13.3864 25.015 13.0892C25.1104 12.8851 25.1255 12.7791 25.1258 12.3098C25.1263 11.8104 25.1154 11.7436 24.9916 11.4831C24.809 11.0984 24.4855 10.7785 24.0953 10.5965C23.6875 10.4062 23.122 10.3699 22.7053 10.507ZM23.7239 11.472C24.0309 11.6471 24.1932 11.8889 24.2161 12.2057C24.2291 12.3844 24.2108 12.5379 24.1631 12.6519C24.0752 12.8616 20.0799 17.6458 19.6516 18.0542C19.3072 18.3826 18.8641 18.6321 18.3491 18.7878C17.9972 18.8942 17.9657 18.8953 14.2982 18.9227C11.738 18.9419 10.5553 18.9668 10.4501 19.0038C10.122 19.1191 9.72344 19.3683 9.40826 19.655L9.07802 19.9555L7.22192 18.1048L5.36579 16.254L5.59424 15.8998C6.50224 14.4921 8.0079 13.7238 9.86025 13.723C10.5835 13.7227 11.0361 13.7934 11.6013 13.9948L11.9762 14.1285L14.8906 14.1521C17.7967 14.1757 17.8055 14.176 18.0036 14.2816C18.6863 14.6454 18.6863 15.5956 18.0036 15.9594C17.8081 16.0635 17.7695 16.0657 15.6328 16.0889L13.4606 16.1125L13.3463 16.2451C13.1851 16.432 13.1939 16.6591 13.3702 16.8558L13.5085 17.0101L15.4824 17.0239C17.5972 17.0387 17.9648 17.0138 18.3708 16.8285C19.0285 16.5283 19.5385 15.7013 19.4804 15.029C19.4672 14.8764 19.5454 14.7874 21.0668 13.223C22.0077 12.2556 22.7472 11.5337 22.8616 11.4712C23.122 11.329 23.4737 11.3293 23.7239 11.472ZM11.4733 16.0653C11.2237 16.2005 11.1837 16.5594 11.3933 16.7832C11.5987 17.0026 11.9864 16.9575 12.1206 16.6987C12.3525 16.2518 11.9165 15.8252 11.4733 16.0653ZM6.65408 18.862L8.77753 20.9804L8.77819 21.1919L8.7789 21.4033L7.76234 22.4072C7.20321 22.9593 6.72838 23.411 6.7071 23.411C6.68583 23.411 5.62358 22.3692 4.34657 21.0958L2.02475 18.7805L3.07614 17.7352L4.12749 16.6898L4.32903 16.7167C4.52091 16.7424 4.6326 16.8454 6.65408 18.862Z" fill="white"/>
</svg>
