<svg width="49" height="49" viewBox="0 0 49 49" fill="none" xmlns="http://www.w3.org/2000/svg">
<path d="M24.2147 48.4294C37.5881 48.4294 48.4294 37.5881 48.4294 24.2147C48.4294 10.8413 37.5881 0 24.2147 0C10.8413 0 0 10.8413 0 24.2147C0 37.5881 10.8413 48.4294 24.2147 48.4294Z" fill="url(#paint0_linear_976_7887)"/>
<path fill-rule="evenodd" clip-rule="evenodd" d="M18.7751 12.4832C18.5132 12.5637 18.2556 12.73 18.0736 12.936C17.7166 13.3403 17.7326 13.1289 17.7326 17.4534C17.7326 21.2042 17.7353 21.3242 17.8276 21.57C17.9532 21.9047 18.2846 22.2345 18.6215 22.3601C18.8738 22.4543 18.958 22.4554 24.9274 22.443L30.9775 22.4305L31.1979 22.3014C31.3191 22.2303 31.5046 22.0745 31.61 21.9551C31.9679 21.5498 31.9527 21.7627 31.9382 17.3723L31.9253 13.455L31.798 13.2146C31.6565 12.9473 31.4318 12.7302 31.1302 12.5696L30.9301 12.463L24.9119 12.4549C21.6018 12.4504 18.8403 12.4631 18.7751 12.4832ZM30.7574 13.4515C30.9325 13.5417 31.0012 13.7099 31.0012 14.0477V14.3289H24.8408H18.6804V14.0188C18.6804 13.665 18.724 13.5566 18.9066 13.4578C19.0977 13.3544 30.5573 13.3484 30.7574 13.4515ZM31.0012 15.7461V16.2185H24.8408H18.6804V15.7461V15.2737H24.8408H31.0012V15.7461ZM31.0012 19.1983V21.2332L30.8627 21.3713L30.7242 21.5093H24.8408H18.9574L18.8189 21.3713L18.6804 21.2332V19.1983V17.1633H24.8408H31.0012V19.1983ZM25.6174 19.6643C25.5624 19.6874 25.4697 19.7666 25.4115 19.8402C25.1867 20.1245 25.4048 20.5646 25.7706 20.5646C25.9865 20.5646 26.1025 20.4997 26.1909 20.3293C26.2963 20.1261 26.2786 19.9696 26.1321 19.8093C25.9922 19.6563 25.7791 19.5962 25.6174 19.6643ZM27.5129 19.6648C27.371 19.7238 27.2102 19.9428 27.2102 20.0773C27.2102 20.2289 27.3312 20.4555 27.4445 20.5159C27.4997 20.5453 27.9782 20.5646 28.656 20.5646H29.7764L29.9149 20.4265C30.104 20.238 30.1041 20.0085 29.9153 19.7977L29.7771 19.6434L28.695 19.6333C28.0999 19.6278 27.568 19.6419 27.5129 19.6648ZM33.5559 22.5883C33.1861 22.7099 32.9458 22.8895 32.3985 23.4533C32.1375 23.7222 31.4701 24.4064 30.9154 24.9737L29.907 26.0052L29.6924 25.808C29.4161 25.5541 29.0388 25.3836 28.6403 25.3323C28.4662 25.3099 27.1532 25.2909 25.7223 25.2901L23.1209 25.2885L22.6781 25.1471C22.0099 24.9337 21.4952 24.858 20.718 24.8588C19.3797 24.86 18.3048 25.1645 17.2691 25.8357C16.738 26.1798 16.0218 26.893 15.6784 27.4197L15.4131 27.8266L15.0852 27.85C14.5214 27.8902 14.431 27.9561 13.0293 29.3504L11.7617 30.6115V30.8363V31.0612L14.4933 33.8081C15.9956 35.319 17.2698 36.581 17.3247 36.6125C17.4588 36.6896 17.6156 36.6873 17.7705 36.6061C17.8409 36.5692 18.4661 35.9687 19.1598 35.2716C20.5983 33.8262 20.6009 33.8222 20.569 33.1383L20.5522 32.7758L20.9101 32.4452C21.4859 31.9133 21.1882 31.9488 25.079 31.949C27.1286 31.9492 28.5743 31.9301 28.8174 31.8997C29.6127 31.8003 30.4212 31.4536 31.0358 30.9484C31.3857 30.6607 35.7266 25.4676 35.8656 25.1704C35.961 24.9663 35.9761 24.8603 35.9764 24.391C35.9769 23.8916 35.966 23.8248 35.8422 23.5643C35.6595 23.1796 35.3361 22.8597 34.9459 22.6777C34.5381 22.4874 33.9726 22.4511 33.5559 22.5883ZM34.5745 23.5532C34.8815 23.7283 35.0437 23.9701 35.0667 24.2869C35.0797 24.4656 35.0614 24.6191 35.0136 24.7331C34.9257 24.9429 30.9305 29.727 30.5022 30.1354C30.1578 30.4638 29.7147 30.7133 29.1997 30.869C28.8478 30.9754 28.8163 30.9765 25.1488 31.0039C22.5886 31.0231 21.4059 31.048 21.3007 31.085C20.9726 31.2003 20.574 31.4495 20.2588 31.7362L19.9286 32.0367L18.0725 30.186L16.2164 28.3352L16.4448 27.981C17.3528 26.5733 18.8585 25.805 20.7108 25.8042C21.4341 25.8039 21.8867 25.8746 22.4519 26.076L22.8268 26.2097L25.7412 26.2333C28.6473 26.2569 28.6561 26.2572 28.8542 26.3628C29.5369 26.7266 29.5369 27.6768 28.8542 28.0406C28.6587 28.1447 28.6201 28.1469 26.4833 28.1701L24.3112 28.1937L24.1969 28.3263C24.0357 28.5132 24.0445 28.7403 24.2208 28.937L24.359 29.0913L26.333 29.1051C28.4478 29.1199 28.8154 29.095 29.2214 28.9097C29.8791 28.6095 30.3891 27.7825 30.331 27.1102C30.3178 26.9576 30.396 26.8686 31.9174 25.3042C32.8583 24.3368 33.5978 23.615 33.7122 23.5525C33.9726 23.4102 34.3242 23.4106 34.5745 23.5532ZM22.3239 28.1465C22.0743 28.2817 22.0343 28.6406 22.2439 28.8644C22.4493 29.0838 22.8369 29.0388 22.9712 28.7799C23.2031 28.333 22.7671 27.9064 22.3239 28.1465ZM17.5047 30.9432L19.6281 33.0616L19.6288 33.2731L19.6295 33.4846L18.6129 34.4884C18.0538 35.0405 17.579 35.4922 17.5577 35.4922C17.5364 35.4922 16.4742 34.4504 15.1972 33.177L12.8753 30.8617L13.9267 29.8164L14.9781 28.771L15.1796 28.7979C15.3715 28.8236 15.4832 28.9267 17.5047 30.9432Z" fill="white"/>
<defs>
<linearGradient id="paint0_linear_976_7887" x1="56.7316" y1="-14.5288" x2="-8.99404" y2="52.5805" gradientUnits="userSpaceOnUse">
<stop stop-color="#7B1931"/>
<stop offset="1" stop-color="#E05226"/>
</linearGradient>
</defs>
</svg>
