<svg width="49" height="49" viewBox="0 0 49 49" fill="none" xmlns="http://www.w3.org/2000/svg">
<path d="M24.2147 48.4294C37.5881 48.4294 48.4294 37.5881 48.4294 24.2147C48.4294 10.8413 37.5881 0 24.2147 0C10.8413 0 0 10.8413 0 24.2147C0 37.5881 10.8413 48.4294 24.2147 48.4294Z" fill="url(#paint0_linear_976_7886)"/>
<path fill-rule="evenodd" clip-rule="evenodd" d="M26.3037 12.5631C25.6858 12.715 25.5423 12.7271 25.0002 12.6729C24.5394 12.6268 24.3 12.6847 24.0434 12.9045C23.7025 13.1964 23.5885 13.7533 23.7812 14.1851C23.8348 14.3051 24.0757 14.7523 24.3166 15.1789C24.6723 15.8086 24.7431 15.9703 24.6937 16.0389C24.5521 16.235 24.4253 16.5678 24.4243 16.7462C24.4236 16.8515 24.4833 17.0608 24.557 17.2111L24.6908 17.4844L24.3401 17.963C22.585 20.3576 21.2351 22.9709 20.9738 24.4795C20.9379 24.6871 20.9031 24.8646 20.8964 24.8739C20.8899 24.8833 20.6595 24.781 20.3844 24.6467C19.4088 24.1701 18.482 23.9213 17.5058 23.8739L16.919 23.8453L16.8551 23.5309C16.7707 23.1148 16.5328 22.7973 16.1624 22.6061L15.8751 22.4579L13.9643 22.459C11.8402 22.4603 11.8173 22.4637 11.4547 22.8328C11.0723 23.222 11.1014 22.7699 11.0856 28.5644L11.0713 33.7813L11.1858 34.0521C11.2515 34.2075 11.3924 34.4033 11.5165 34.5113C11.8994 34.8449 12.0618 34.8659 14.1042 34.8472L15.9206 34.8305L16.1965 34.6749C16.3483 34.5893 16.5353 34.427 16.6121 34.3142C16.7291 34.1424 16.7702 34.1166 16.8659 34.1549C16.9287 34.1799 18.0052 34.6782 19.258 35.2621C20.5109 35.846 21.6973 36.3823 21.8944 36.4538C22.8405 36.7971 23.9412 36.7258 24.8379 36.263C25.0031 36.1778 25.9726 35.5037 26.9924 34.7652C28.0122 34.0266 30.4549 32.2593 32.4207 30.8379C34.3864 29.4163 36.0988 28.1489 36.2259 28.0213C37.021 27.223 36.807 25.8433 35.8076 25.3244C35.2626 25.0415 34.9807 25.0389 34.1659 25.3094C33.7991 25.4312 33.4833 25.5308 33.464 25.5308C33.4447 25.5308 33.4284 25.3549 33.4277 25.1399C33.4233 23.6213 32.1899 21.003 30.1249 18.1284C29.8734 17.7783 29.6677 17.4695 29.6677 17.4423C29.6677 17.4151 29.7152 17.3134 29.7734 17.2163C29.9279 16.9584 29.9164 16.5146 29.7473 16.2137L29.6164 15.9805L30.1149 15.1172C30.3899 14.6409 30.6287 14.162 30.6475 14.049C30.7241 13.5875 30.4115 13.0616 29.9552 12.8843C29.7712 12.8128 29.6533 12.8024 29.4156 12.8368C28.8389 12.9202 28.5602 12.8885 28.0425 12.6809C27.3845 12.4168 27.0037 12.391 26.3037 12.5631ZM27.893 13.4177C28.5214 13.6644 28.7354 13.6943 29.2806 13.6118C29.73 13.5438 29.7371 13.5445 29.8342 13.6665C29.8882 13.7345 29.9325 13.8316 29.9325 13.8823C29.9325 13.933 29.7035 14.3671 29.4235 14.8468L28.9145 15.719L27.1853 15.7176L25.4561 15.7163L24.9396 14.7845C24.6555 14.272 24.4231 13.7912 24.4231 13.7159C24.4231 13.448 24.5566 13.3972 25.169 13.4322C25.6447 13.4594 25.8015 13.4447 26.3037 13.3259C27.0189 13.1567 27.2644 13.1709 27.893 13.4177ZM29.0849 16.5815C29.1432 16.6408 29.1909 16.7136 29.1909 16.7433C29.1909 16.7729 29.1432 16.8457 29.0849 16.905C28.9832 17.0086 28.9084 17.0128 27.1896 17.0128C25.6558 17.0128 25.3834 17.0009 25.2825 16.9289C25.1447 16.8307 25.1305 16.678 25.248 16.5584C25.3205 16.4847 25.5677 16.4737 27.1551 16.4737C28.9084 16.4737 28.9831 16.4779 29.0849 16.5815ZM29.4324 18.4273C31.6576 21.5271 32.8838 24.1874 32.7083 25.5341C32.6763 25.7796 32.6527 25.8205 32.5074 25.8819C32.3391 25.9531 27.7247 27.5794 27.691 27.5794C27.6808 27.5794 27.6829 27.4494 27.6959 27.2906C27.7408 26.7394 27.4434 26.0655 27.016 25.7505L26.7962 25.5885L27.0532 25.6183C27.4001 25.6585 28.0282 25.5175 28.4349 25.3082C28.843 25.0982 29.3366 24.6048 29.5542 24.1891C30.1149 23.1187 29.9309 21.8576 29.0885 20.9963C28.5448 20.4405 27.9652 20.1936 27.2043 20.1936C26.4668 20.1936 25.8798 20.4348 25.3445 20.958C24.1079 22.1664 24.3166 24.2612 25.7667 25.1971L26.0099 25.3541L25.2298 25.388C23.7078 25.4541 21.9181 25.4439 21.7611 25.3681C21.5916 25.2864 21.5848 25.2132 21.6905 24.6143C21.9458 23.1677 23.1986 20.7785 24.9801 18.3411L25.3993 17.7676H27.1791H28.9589L29.4324 18.4273ZM27.8865 21.0607C28.2655 21.2047 28.5373 21.4165 28.7733 21.7518C29.4984 22.7823 29.0782 24.2668 27.9302 24.7305C27.4804 24.9121 26.8342 24.9041 26.4269 24.7119C26.007 24.5138 25.6739 24.1824 25.4694 23.7592C25.3117 23.4329 25.2972 23.3597 25.2972 22.89C25.2972 22.4475 25.3163 22.3362 25.4363 22.0805C25.8871 21.1193 26.9146 20.6917 27.8865 21.0607ZM27.0189 21.5953C27.0189 21.6582 26.9836 21.7031 26.9341 21.7031C26.8875 21.7031 26.7683 21.7856 26.6693 21.8864C26.5134 22.045 26.4893 22.1049 26.4903 22.3312C26.4918 22.6669 26.58 22.7788 27.0454 23.0362C27.3741 23.2179 27.4181 23.261 27.4328 23.4152C27.4465 23.5589 27.4251 23.6004 27.3102 23.6537C27.1755 23.7162 27.0677 23.7005 26.6416 23.5562C26.5799 23.5353 26.5381 23.5779 26.4938 23.7068C26.4385 23.8675 26.444 23.8965 26.5459 23.9808C26.6085 24.0328 26.7039 24.0752 26.7577 24.0752C26.8116 24.0752 26.9129 24.138 26.9828 24.2147C27.1405 24.3878 27.3548 24.378 27.3802 24.1965C27.3895 24.1297 27.4293 24.0752 27.4688 24.0752C27.5824 24.0752 27.8465 23.8232 27.9187 23.6459C28.0636 23.2899 27.8099 22.8235 27.3758 22.6476C26.96 22.4791 26.8379 22.2453 27.1018 22.123C27.2064 22.0745 27.2944 22.0754 27.4844 22.1272C27.7046 22.1871 27.7385 22.1841 27.7988 22.1002C27.9205 21.9308 27.879 21.8107 27.6678 21.7215C27.5586 21.6753 27.4501 21.6038 27.4268 21.5625C27.4035 21.5212 27.3023 21.4875 27.2017 21.4875C27.0542 21.4875 27.0189 21.5083 27.0189 21.5953ZM15.9403 23.3256C16.0059 23.3878 16.0819 23.4985 16.1092 23.5717C16.139 23.6512 16.159 25.7041 16.159 28.6638C16.159 34.1145 16.175 33.8461 15.839 34.0229C15.7023 34.0949 15.4271 34.1046 13.9019 34.0912L12.1241 34.0757L11.9695 33.8996L11.815 33.7236V28.6257V23.5278L11.9699 23.3702L12.1247 23.2126H13.973C15.7761 23.2126 15.8241 23.2154 15.9403 23.3256ZM17.7644 24.6411C18.6624 24.7109 19.5029 25.0097 20.8738 25.7465L21.6949 26.1878L23.9241 26.1569L26.1533 26.1261L26.3844 26.2462C26.5114 26.3123 26.6883 26.4596 26.7774 26.5736C26.9244 26.7616 26.9394 26.8169 26.9394 27.1708C26.9394 27.5171 26.9224 27.5836 26.7876 27.7634C26.7041 27.8748 26.5625 28.0114 26.4729 28.0668C26.3833 28.1222 25.3192 28.4133 24.1084 28.7135C22.8975 29.0137 21.833 29.2823 21.7428 29.3103C21.4155 29.4121 21.3707 29.8425 21.672 29.9895C21.7879 30.046 22.1179 29.977 24.1695 29.4671C25.7243 29.0807 26.6301 28.8296 26.8159 28.7336C27.2152 28.5272 34.8356 25.8543 35.0246 25.8543C35.2088 25.8543 35.5295 25.9824 35.6708 26.1124C36.0635 26.4738 36.0648 27.1666 35.6736 27.5334C35.3446 27.8419 24.7477 35.4734 24.4449 35.6198C24.0739 35.7994 23.5088 35.9338 23.1252 35.9338C22.5484 35.9338 22.1934 35.7987 19.5424 34.5708L16.9271 33.3593L16.9136 29.0036C16.9028 25.5548 16.9139 24.6391 16.9665 24.6051C17.0031 24.5815 17.1046 24.5727 17.192 24.5856C17.2794 24.5985 17.537 24.6234 17.7644 24.6411Z" fill="white"/>
<defs>
<linearGradient id="paint0_linear_976_7886" x1="56.7316" y1="-14.5288" x2="-8.99404" y2="52.5805" gradientUnits="userSpaceOnUse">
<stop stop-color="#7B1931"/>
<stop offset="1" stop-color="#E05226"/>
</linearGradient>
</defs>
</svg>
