<svg width="27" height="25" viewBox="0 0 27 25" fill="none" xmlns="http://www.w3.org/2000/svg">
<path fill-rule="evenodd" clip-rule="evenodd" d="M16.1738 0.481904C15.5559 0.633826 15.4124 0.645902 14.8703 0.591667C14.4096 0.545573 14.1702 0.603527 13.9135 0.823323C13.5726 1.1152 13.4586 1.6721 13.6513 2.10387C13.7049 2.22388 13.9458 2.67113 14.1867 3.09767C14.5424 3.72736 14.6132 3.88909 14.5638 3.95766C14.4222 4.15379 14.2955 4.48659 14.2944 4.66498C14.2938 4.77032 14.3535 4.97955 14.4271 5.12991L14.5609 5.40324L14.2102 5.88175C12.4551 8.27643 11.1052 10.8897 10.8439 12.3983C10.808 12.6059 10.7732 12.7833 10.7666 12.7927C10.76 12.8021 10.5296 12.6998 10.2546 12.5655C9.27891 12.0889 8.35216 11.8401 7.37588 11.7927L6.78907 11.7641L6.72524 11.4497C6.6408 11.0336 6.40294 10.7161 6.03248 10.5249L5.7452 10.3766L3.83438 10.3778C1.71034 10.3791 1.68746 10.3825 1.32484 10.7516C0.942413 11.1408 0.971549 10.6887 0.95571 16.4832L0.941406 21.7001L1.05589 21.9709C1.12157 22.1263 1.26254 22.3221 1.38661 22.4301C1.76951 22.7637 1.93188 22.7847 3.97429 22.766L5.7907 22.7493L6.0666 22.5937C6.21837 22.5081 6.40538 22.3458 6.48219 22.233C6.59921 22.0612 6.64027 22.0354 6.73599 22.0736C6.79882 22.0987 7.87528 22.597 9.12814 23.1809C10.381 23.7648 11.5674 24.3011 11.7646 24.3726C12.7106 24.7159 13.8114 24.6446 14.708 24.1818C14.8732 24.0965 15.8428 23.4225 16.8625 22.684C17.8823 21.9454 20.325 20.1781 22.2908 18.7567C24.2565 17.3351 25.9689 16.0677 26.096 15.9401C26.8911 15.1417 26.6771 13.7621 25.6777 13.2432C25.1327 12.9603 24.8508 12.9577 24.036 13.2282C23.6693 13.35 23.3534 13.4496 23.3341 13.4496C23.3148 13.4496 23.2985 13.2737 23.2978 13.0587C23.2934 11.5401 22.06 8.92175 19.9951 6.04715C19.7435 5.69705 19.5378 5.3883 19.5378 5.36108C19.5378 5.33385 19.5853 5.23218 19.6435 5.13508C19.798 4.87723 19.7865 4.43338 19.6174 4.13244L19.4865 3.89933L19.985 3.03594C20.26 2.55969 20.4988 2.08075 20.5176 1.9678C20.5942 1.50632 20.2817 0.98042 19.8253 0.803053C19.6413 0.731566 19.5234 0.721162 19.2857 0.755557C18.709 0.838957 18.4303 0.807312 17.9127 0.599646C17.2546 0.335589 16.8738 0.30982 16.1738 0.481904ZM17.7631 1.33645C18.3915 1.58315 18.6056 1.61312 19.1507 1.53058C19.6001 1.46255 19.6072 1.46325 19.7043 1.58525C19.7584 1.65329 19.8026 1.75038 19.8026 1.80111C19.8026 1.85184 19.5736 2.28588 19.2936 2.76558L18.7846 3.63775L17.0554 3.63641L15.3262 3.63506L14.8097 2.70326C14.5256 2.19078 14.2932 1.70995 14.2932 1.63474C14.2932 1.3668 14.4267 1.31602 15.0391 1.35101C15.5148 1.37818 15.6716 1.36351 16.1738 1.24469C16.8891 1.07552 17.1345 1.0897 17.7631 1.33645ZM18.955 4.50033C19.0133 4.55964 19.061 4.63242 19.061 4.66207C19.061 4.69172 19.0133 4.7645 18.955 4.8238C18.8533 4.92736 18.7785 4.93162 17.0597 4.93162C15.526 4.93162 15.2536 4.91965 15.1526 4.84768C15.0148 4.74946 15.0006 4.59683 15.1181 4.47721C15.1906 4.40351 15.4378 4.39251 17.0252 4.39251C18.7785 4.39251 18.8532 4.39666 18.955 4.50033ZM19.3026 6.34609C21.5277 9.44593 22.754 12.1062 22.5784 13.4529C22.5464 13.6984 22.5228 13.7393 22.3776 13.8007C22.2092 13.8719 17.5948 15.4982 17.5611 15.4982C17.5509 15.4982 17.5531 15.3682 17.566 15.2094C17.611 14.6582 17.3135 13.9843 16.8862 13.6693L16.6664 13.5073L16.9233 13.5371C17.2702 13.5773 17.8983 13.4363 18.305 13.227C18.7131 13.017 19.2067 12.5236 19.4244 12.1079C19.985 11.0375 19.801 9.7764 18.9586 8.91512C18.4149 8.35929 17.8354 8.11238 17.0744 8.11238C16.3369 8.11238 15.7499 8.35363 15.2146 8.87679C13.978 10.0852 14.1867 12.18 15.6368 13.1159L15.88 13.2729L15.0999 13.3068C13.5779 13.3729 11.7882 13.3627 11.6312 13.2869C11.4618 13.2052 11.4549 13.132 11.5606 12.5331C11.8159 11.0864 13.0688 8.69732 14.8503 6.25994L15.2695 5.68638H17.0492H18.829L19.3026 6.34609ZM17.7566 8.97954C18.1356 9.12348 18.4074 9.33525 18.6434 9.67057C19.3685 10.7011 18.9483 12.1856 17.8003 12.6493C17.3505 12.8309 16.7043 12.8229 16.297 12.6307C15.8771 12.4326 15.544 12.1012 15.3395 11.678C15.1818 11.3517 15.1673 11.2785 15.1673 10.8087C15.1673 10.3663 15.1864 10.255 15.3064 9.99927C15.7572 9.03809 16.7847 8.61047 17.7566 8.97954ZM16.889 9.51407C16.889 9.57698 16.8537 9.62189 16.8043 9.62189C16.7576 9.62189 16.6384 9.70438 16.5394 9.80519C16.3835 9.9638 16.3594 10.0237 16.3604 10.25C16.362 10.5857 16.4501 10.6976 16.9155 10.955C17.2442 11.1367 17.2882 11.1798 17.3029 11.334C17.3166 11.4777 17.2952 11.5192 17.1803 11.5725C17.0457 11.635 16.9379 11.6192 16.5117 11.475C16.45 11.4541 16.4082 11.4967 16.3639 11.6256C16.3086 11.7863 16.3141 11.8153 16.416 11.8996C16.4787 11.9516 16.574 11.994 16.6278 11.994C16.6817 11.994 16.783 12.0568 16.8529 12.1335C17.0106 12.3066 17.2249 12.2967 17.2503 12.1153C17.2596 12.0485 17.2995 11.994 17.3389 11.994C17.4526 11.994 17.7166 11.742 17.7888 11.5647C17.9337 11.2087 17.68 10.7423 17.2459 10.5664C16.8301 10.3979 16.708 10.1641 16.9719 10.0418C17.0765 9.99329 17.1645 9.9942 17.3546 10.046C17.5747 10.1059 17.6086 10.1029 17.669 10.0189C17.7906 9.84956 17.7491 9.7295 17.538 9.64028C17.4287 9.59413 17.3202 9.52259 17.2969 9.48129C17.2736 9.44 17.1724 9.40625 17.0718 9.40625C16.9243 9.40625 16.889 9.42706 16.889 9.51407ZM5.81046 11.2444C5.87599 11.3066 5.95201 11.4173 5.97935 11.4905C6.00907 11.57 6.02909 13.6229 6.02909 16.5826C6.02909 22.0333 6.04514 21.7649 5.70907 21.9417C5.57239 22.0137 5.29719 22.0234 3.77198 22.01L1.99418 21.9945L1.83965 21.8184L1.68513 21.6424V16.5445V11.4466L1.83997 11.289L1.99482 11.1314H3.84307C5.64624 11.1314 5.69418 11.1342 5.81046 11.2444ZM7.63456 12.5599C8.53254 12.6297 9.37305 12.9285 10.7439 13.6653L11.565 14.1066L13.7942 14.0757L16.0234 14.0449L16.2545 14.165C16.3816 14.2311 16.5584 14.3784 16.6475 14.4924C16.7946 14.6804 16.8095 14.7357 16.8095 15.0896C16.8095 15.4359 16.7925 15.5024 16.6577 15.6822C16.5742 15.7936 16.4326 15.9301 16.343 15.9856C16.2534 16.041 15.1894 16.3321 13.9785 16.6323C12.7676 16.9325 11.7031 17.2011 11.6129 17.2291C11.2857 17.3309 11.2408 17.7613 11.5421 17.9083C11.658 17.9648 11.988 17.8958 14.0396 17.3859C15.5945 16.9995 16.5002 16.7484 16.686 16.6524C17.0853 16.446 24.7057 13.7731 24.8947 13.7731C25.0789 13.7731 25.3996 13.9012 25.5409 14.0312C25.9336 14.3925 25.935 15.0854 25.5437 15.4522C25.2148 15.7607 14.6178 23.3922 14.3151 23.5386C13.9441 23.7181 13.3789 23.8525 12.9953 23.8525C12.4185 23.8525 12.0635 23.7175 9.41257 22.4896L6.79723 21.2781L6.78367 16.9224C6.77292 13.4736 6.78399 12.5579 6.83665 12.5239C6.87325 12.5003 6.9747 12.4915 7.06211 12.5044C7.14952 12.5172 7.40714 12.5422 7.63456 12.5599Z" fill="white"/>
</svg>
