<svg width="11" height="19" viewBox="0 0 11 19" fill="none" xmlns="http://www.w3.org/2000/svg">
<path d="M5.9668 14.9844C7.08008 14.9323 7.84831 14.5254 8.27148 13.7637C8.49284 13.373 8.60352 12.9206 8.60352 12.4062C8.60352 11.5924 8.30404 10.974 7.70508 10.5508C7.36003 10.3034 6.7806 10.069 5.9668 9.84766V14.9844ZM2.65625 5.56055C2.65625 6.20508 2.86784 6.70964 3.29102 7.07422C3.7207 7.4388 4.29688 7.69271 5.01953 7.83594V3.24609C4.16667 3.27865 3.55794 3.53906 3.19336 4.02734C2.83529 4.51562 2.65625 5.02669 2.65625 5.56055ZM0.898438 5.67773C0.898438 4.68815 1.25977 3.79622 1.98242 3.00195C2.71159 2.20768 3.73047 1.80404 5.03906 1.79102V0.492188H5.9668V1.77148C7.26237 1.86263 8.25521 2.24674 8.94531 2.92383C9.64193 3.5944 10.0065 4.48307 10.0391 5.58984H8.33008C8.28451 5.09505 8.15104 4.66862 7.92969 4.31055C7.51953 3.65299 6.86523 3.30794 5.9668 3.27539V8.02148C7.47721 8.44466 8.5026 8.8418 9.04297 9.21289C9.92188 9.82487 10.3613 10.7298 10.3613 11.9277C10.3613 13.6595 9.79818 14.89 8.67188 15.6191C8.04688 16.0228 7.14518 16.2897 5.9668 16.4199V18.3145H5.03906V16.4199C3.14453 16.2962 1.85872 15.6257 1.18164 14.4082C0.810547 13.7507 0.625 12.862 0.625 11.7422H2.35352C2.4056 12.6341 2.54557 13.2852 2.77344 13.6953C3.17708 14.431 3.92578 14.8444 5.01953 14.9355V9.61328C3.61328 9.34635 2.57487 8.90039 1.9043 8.27539C1.23372 7.65039 0.898438 6.78451 0.898438 5.67773Z" fill="#C1C1C1"/>
</svg>
