<svg width="14" height="16" viewBox="0 0 14 16" fill="none" xmlns="http://www.w3.org/2000/svg">
<path d="M0.9375 9.88281L1.34766 8.49609H3.26172C3.2487 8.22917 3.24219 7.95573 3.24219 7.67578C3.24219 7.4349 3.2487 7.19401 3.26172 6.95312H0.9375L1.34766 5.56641H3.41797C3.63932 4.375 4.05273 3.3431 4.6582 2.4707C5.67383 0.999349 7.07682 0.263672 8.86719 0.263672C10.3906 0.263672 11.5723 0.742188 12.4121 1.69922C13.2585 2.65625 13.7272 3.74349 13.8184 4.96094H12.2266C12.0508 4.03646 11.6927 3.30404 11.1523 2.76367C10.612 2.22331 9.85677 1.95312 8.88672 1.95312C7.69531 1.95312 6.73503 2.45117 6.00586 3.44727C5.60221 3.99414 5.3125 4.70052 5.13672 5.56641H10.5859L10.1758 6.95312H4.94141C4.92188 7.28516 4.91211 7.63672 4.91211 8.00781C4.91211 8.17708 4.91536 8.33984 4.92188 8.49609H10.5859L10.1758 9.88281H5.06836C5.22461 10.7357 5.5013 11.4746 5.89844 12.0996C6.55599 13.1413 7.53906 13.6621 8.84766 13.6621C10.0521 13.6621 10.9701 13.112 11.6016 12.0117C11.9336 11.4323 12.181 10.6706 12.3438 9.72656H13.9355C13.7923 11.237 13.3203 12.5033 12.5195 13.5254C11.5625 14.7559 10.2734 15.3711 8.65234 15.3711C7.2526 15.3711 6.07747 14.8665 5.12695 13.8574C4.22852 12.9069 3.65234 11.582 3.39844 9.88281H0.9375Z" fill="#C1C1C1"/>
</svg>
