<svg width="49" height="49" viewBox="0 0 49 49" fill="none" xmlns="http://www.w3.org/2000/svg">
<path d="M24.2147 48.4294C37.5881 48.4294 48.4294 37.5881 48.4294 24.2147C48.4294 10.8413 37.5881 0 24.2147 0C10.8413 0 0 10.8413 0 24.2147C0 37.5881 10.8413 48.4294 24.2147 48.4294Z" fill="url(#paint0_linear_976_7888)"/>
<path d="M12.2441 32.3294H26.2887V37.059L29.1944 35.3156L32.1002 37.059V32.3294H35.4903V13.9262H12.2441V32.3294ZM31.26 29.043C31.2164 29.0871 31.1699 29.1278 31.1239 29.1689C31.0977 29.1922 31.0735 29.2169 31.0464 29.2391C31.0164 29.2643 30.9844 29.2856 30.9534 29.3094C30.5361 29.6301 30.039 29.8305 29.516 29.8891L29.4894 29.8929C29.2926 29.9125 29.0944 29.9125 28.8976 29.8929L28.8709 29.8891C28.3479 29.8304 27.8509 29.63 27.4335 29.3094C27.4026 29.2856 27.3706 29.2638 27.3406 29.2391C27.3139 29.2169 27.2892 29.1922 27.2631 29.1689C27.2171 29.1278 27.1711 29.0871 27.127 29.043C26.5885 28.5003 26.2865 27.7667 26.2867 27.0022C26.2867 25.3997 27.59 24.0964 29.1925 24.0964C30.795 24.0964 32.0983 25.3997 32.0983 27.0022C32.1002 27.7667 31.7987 28.5006 31.26 29.043ZM31.1316 35.3485L29.1944 34.1862L27.2573 35.3485V30.3583C27.2737 30.368 27.2921 30.3743 27.3091 30.3835C27.4374 30.4552 27.5696 30.5211 27.7062 30.5782L27.7246 30.585C28.6662 30.9741 29.7236 30.9741 30.6652 30.585L30.6837 30.5782C30.8202 30.5211 30.9524 30.4557 31.0808 30.3835C31.0977 30.3743 31.1161 30.368 31.1326 30.3583V35.3485H31.1316ZM13.2127 14.8948H34.5217V31.3608H32.1002V29.5564C32.7241 28.8518 33.0687 27.9433 33.0688 27.0022C33.0688 24.866 31.3307 23.1278 29.1944 23.1278C27.0582 23.1278 25.3201 24.866 25.3201 27.0022C25.3201 27.9809 25.6877 28.8735 26.2887 29.5564V31.3608H13.2127V14.8948Z" fill="white"/>
<path d="M17.5719 15.9007H30.1635V16.8693H17.5719V15.9007ZM19.9933 18.8065H27.742V19.7751H19.9933V18.8065ZM15.1504 27.5238H20.4776V28.4924H15.1504V27.5238Z" fill="white"/>
<defs>
<linearGradient id="paint0_linear_976_7888" x1="56.7316" y1="-14.5288" x2="-8.99404" y2="52.5805" gradientUnits="userSpaceOnUse">
<stop stop-color="#7B1931"/>
<stop offset="1" stop-color="#E05226"/>
</linearGradient>
</defs>
</svg>
