<svg width="25" height="25" viewBox="0 0 25 25" fill="none" xmlns="http://www.w3.org/2000/svg">
<g clip-path="url(#clip0_1933_3940)">
<path d="M1.22363 20.2482H15.2682V24.9778L18.1739 23.2344L21.0797 24.9778V20.2482H24.4698V1.84503H1.22363V20.2482ZM20.2395 16.9618C20.1959 17.0059 20.1494 17.0465 20.1034 17.0877C20.0772 17.111 20.053 17.1357 20.0259 17.1579C19.9959 17.1831 19.9639 17.2044 19.9329 17.2282C19.5156 17.5489 19.0185 17.7493 18.4955 17.8079L18.4689 17.8117C18.2721 17.8313 18.0738 17.8313 17.8771 17.8117L17.8504 17.8079C17.3274 17.7492 16.8304 17.5488 16.413 17.2282C16.382 17.2044 16.3501 17.1826 16.3201 17.1579C16.2934 17.1357 16.2687 17.111 16.2426 17.0877C16.1966 17.0465 16.1506 17.0059 16.1065 16.9618C15.568 16.4191 15.266 15.6855 15.2662 14.921C15.2662 13.3185 16.5695 12.0152 18.172 12.0152C19.7745 12.0152 21.0778 13.3185 21.0778 14.921C21.0797 15.6854 20.7782 16.4194 20.2395 16.9618ZM20.1111 23.2673L18.1739 22.105L16.2368 23.2673V18.2771C16.2532 18.2868 16.2716 18.2931 16.2886 18.3023C16.4169 18.374 16.5491 18.4399 16.6857 18.497L16.7041 18.5038C17.6457 18.8929 18.7031 18.8929 19.6447 18.5038L19.6631 18.497C19.7997 18.4399 19.9319 18.3745 20.0603 18.3023C20.0772 18.2931 20.0956 18.2868 20.1121 18.2771V23.2673H20.1111ZM2.19222 2.81362H23.5012V19.2796H21.0797V17.4751C21.7036 16.7706 22.0481 15.8621 22.0483 14.921C22.0483 12.7848 20.3102 11.0466 18.1739 11.0466C16.0377 11.0466 14.2996 12.7848 14.2996 14.921C14.2996 15.8997 14.6672 16.7923 15.2682 17.4751V19.2796H2.19222V2.81362Z" fill="white"/>
<path d="M6.55135 3.81949H19.143V4.78808H6.55135V3.81949ZM8.97283 6.72525H16.7215V7.69384H8.97283V6.72525ZM4.12988 15.4426H9.45712V16.4111H4.12988V15.4426Z" fill="white"/>
</g>
<defs>
<clipPath id="clip0_1933_3940">
<rect width="24.2147" height="24.2147" fill="white" transform="translate(0.740234 0.372772)"/>
</clipPath>
</defs>
</svg>
