<svg width="48" height="47" viewBox="0 0 48 47" fill="none" xmlns="http://www.w3.org/2000/svg">
<ellipse cx="23.5714" cy="23.4309" rx="23.5714" ry="23.4309" fill="url(#paint0_linear_1310_11452)"/>
<g clip-path="url(#clip0_1310_11452)">
<path d="M14.1554 32.0401H32.8839C33.5732 32.0401 34.1339 31.4795 34.1339 30.7901V13.2115C34.1339 12.5222 33.5732 11.9615 32.8839 11.9615H14.1554C13.4661 11.9615 12.9054 12.5222 12.9054 13.2115V30.7901C12.9054 31.4795 13.4661 32.0401 14.1554 32.0401ZM13.4339 13.2115C13.4339 12.8138 13.7577 12.4901 14.1554 12.4901H32.8839C33.2816 12.4901 33.6054 12.8138 33.6054 13.2115V30.7901C33.6054 31.1878 33.2816 31.5115 32.8839 31.5115H14.1554C13.7577 31.5115 13.4339 31.1878 13.4339 30.7901V13.2115Z" fill="white" stroke="white" stroke-width="0.2"/>
<path d="M29.2695 33.1903H31.2409C31.387 33.1903 31.5052 33.0719 31.5052 32.926V31.776C31.5052 31.6301 31.387 31.5117 31.2409 31.5117H29.2695C29.1234 31.5117 29.0052 31.6301 29.0052 31.776V32.926C29.0052 33.0719 29.1234 33.1903 29.2695 33.1903ZM30.9766 32.0403V32.6617H29.5338V32.0403H30.9766ZM15.7981 33.1903H17.7695C17.9156 33.1903 18.0338 33.0719 18.0338 32.926V31.776C18.0338 31.6301 17.9156 31.5117 17.7695 31.5117H15.7981C15.652 31.5117 15.5338 31.6301 15.5338 31.776V32.926C15.5338 33.0719 15.652 33.1903 15.7981 33.1903ZM17.5052 32.0403V32.6617H16.0624V32.0403H17.5052ZM16.4552 29.7485H30.9124C31.4205 29.7485 31.8338 29.3352 31.8338 28.827V15.1749C31.8338 14.6668 31.4205 14.2535 30.9124 14.2535H16.4552C15.9471 14.2535 15.5338 14.6668 15.5338 15.1749V16.826C15.5338 16.9719 15.652 17.0903 15.7981 17.0903C15.9441 17.0903 16.0624 16.9719 16.0624 16.826V15.1749C16.0624 14.9584 16.2387 14.7821 16.4552 14.7821H30.9124C31.1289 14.7821 31.3052 14.9584 31.3052 15.1749V28.827C31.3052 29.0436 31.1289 29.2199 30.9124 29.2199H16.4552C16.2387 29.2199 16.0624 29.0436 16.0624 28.827V27.176C16.0624 27.0301 15.9441 26.9117 15.7981 26.9117C15.652 26.9117 15.5338 27.0301 15.5338 27.176V28.827C15.5338 29.3352 15.9471 29.7485 16.4552 29.7485Z" fill="white" stroke="white" stroke-width="0.2"/>
<path d="M15.5338 25.8623C15.5338 26.0082 15.652 26.1266 15.7981 26.1266C15.9441 26.1266 16.0624 26.0082 16.0624 25.8623V18.1408C16.0624 17.9949 15.9441 17.8766 15.7981 17.8766C15.652 17.8766 15.5338 17.9949 15.5338 18.1408V25.8623Z" fill="white" stroke="white" stroke-width="0.2"/>
<path d="M19.691 24.7025L19.6912 24.7028C19.7408 24.7713 19.8203 24.8121 19.9053 24.8121H22.2053C22.2903 24.8121 22.3697 24.7713 22.4194 24.7028L22.4196 24.7025C22.4691 24.6338 22.4827 24.5455 22.4562 24.4649L22.4562 24.4649L22.0259 23.1626C22.4053 22.8658 22.6338 22.4069 22.6338 21.9193C22.6338 21.0488 21.9258 20.3407 21.0553 20.3407C20.1847 20.3407 19.4767 21.0488 19.4767 21.9193C19.4767 22.4069 19.7053 22.8658 20.0847 23.1626L19.6544 24.4649L19.6544 24.4649C19.6278 24.5455 19.6415 24.6338 19.691 24.7025ZM19.9053 24.7121C19.8525 24.7121 19.8031 24.6868 19.7721 24.6441L22.3612 24.4962C22.3777 24.5464 22.3692 24.6013 22.3384 24.6441C22.3075 24.6868 22.2581 24.7121 22.2053 24.7121H19.9053ZM21.8396 24.2835H20.271L20.649 23.1392L20.649 23.1392C20.6882 23.0205 20.639 22.8904 20.5306 22.8276C20.2065 22.6398 20.0053 22.2914 20.0053 21.9193C20.0053 21.3404 20.4765 20.8693 21.0553 20.8693C21.6341 20.8693 22.1053 21.3404 22.1053 21.9193C22.1053 22.2914 21.904 22.6398 21.58 22.8276C21.4715 22.8904 21.4223 23.0205 21.4615 23.1392L21.4615 23.1392L21.8396 24.2835ZM14.9767 18.405H16.6196C17.1277 18.405 17.541 17.9917 17.541 17.4835C17.541 16.9754 17.1277 16.5621 16.6196 16.5621H14.9767C14.4686 16.5621 14.0553 16.9754 14.0553 17.4835C14.0553 17.9917 14.4686 18.405 14.9767 18.405ZM14.5838 17.4835C14.5838 17.267 14.7602 17.0907 14.9767 17.0907H16.6196C16.8361 17.0907 17.0124 17.267 17.0124 17.4835C17.0124 17.7001 16.8361 17.8764 16.6196 17.8764H14.9767C14.7602 17.8764 14.5838 17.7001 14.5838 17.4835ZM14.9767 27.4407H16.6196C17.1277 27.4407 17.541 27.0274 17.541 26.5193C17.541 26.0111 17.1277 25.5978 16.6196 25.5978H14.9767C14.4686 25.5978 14.0553 26.0111 14.0553 26.5193C14.0553 27.0274 14.4686 27.4407 14.9767 27.4407ZM14.5838 26.5193C14.5838 26.3027 14.7602 26.1264 14.9767 26.1264H16.6196C16.8361 26.1264 17.0124 26.3027 17.0124 26.5193C17.0124 26.7358 16.8361 26.9121 16.6196 26.9121H14.9767C14.7602 26.9121 14.5838 26.7358 14.5838 26.5193ZM28.0196 25.205C28.0196 25.7131 28.4329 26.1264 28.941 26.1264C29.4491 26.1264 29.8624 25.7131 29.8624 25.205V19.9478C29.8624 19.4397 29.4491 19.0264 28.941 19.0264C28.4329 19.0264 28.0196 19.4397 28.0196 19.9478V25.205ZM28.5481 19.9478C28.5481 19.7313 28.7244 19.555 28.941 19.555C29.1575 19.555 29.3338 19.7313 29.3338 19.9478V25.205C29.3338 25.4215 29.1575 25.5978 28.941 25.5978C28.7244 25.5978 28.5481 25.4215 28.5481 25.205V19.9478Z" fill="white" stroke="white" stroke-width="0.2"/>
</g>
<defs>
<linearGradient id="paint0_linear_1310_11452" x1="55.2243" y1="-14.0585" x2="-8.36481" y2="51.2585" gradientUnits="userSpaceOnUse">
<stop stop-color="#7B1931"/>
<stop offset="1" stop-color="#E05226"/>
</linearGradient>
<clipPath id="clip0_1310_11452">
<rect width="23" height="23" fill="white" transform="translate(12.0195 11.0762)"/>
</clipPath>
</defs>
</svg>
