<svg width="42" height="42" viewBox="0 0 42 42" fill="none" xmlns="http://www.w3.org/2000/svg">
<circle cx="20.5963" cy="20.5963" r="20.5963" fill="url(#paint0_linear_1596_9685)"/>
<path d="M16.1553 25.6172H15.6553C15.3791 25.6172 15.1553 25.953 15.1553 26.3672V30.8672C15.1553 31.2814 15.3791 31.6172 15.6553 31.6172H16.1553C16.4314 31.6172 16.6553 31.2814 16.6553 30.8672V26.3672C16.6553 25.953 16.4314 25.6172 16.1553 25.6172Z" fill="white"/>
<path d="M11.6553 27.8672H11.1553C10.8791 27.8672 10.6553 28.203 10.6553 28.6172V30.8672C10.6553 31.2814 10.8791 31.6172 11.1553 31.6172H11.6553C11.9314 31.6172 12.1553 31.2814 12.1553 30.8672V28.6172C12.1553 28.203 11.9314 27.8672 11.6553 27.8672Z" fill="white"/>
<path d="M20.6553 23.3672H20.1553C19.8791 23.3672 19.6553 23.703 19.6553 24.1172V30.8672C19.6553 31.2814 19.8791 31.6172 20.1553 31.6172H20.6553C20.9314 31.6172 21.1553 31.2814 21.1553 30.8672V24.1172C21.1553 23.703 20.9314 23.3672 20.6553 23.3672Z" fill="white"/>
<path d="M25.1553 21.1172H24.6553C24.3791 21.1172 24.1553 21.453 24.1553 21.8672V30.8672C24.1553 31.2814 24.3791 31.6172 24.6553 31.6172H25.1553C25.4314 31.6172 25.6553 31.2814 25.6553 30.8672V21.8672C25.6553 21.453 25.4314 21.1172 25.1553 21.1172Z" fill="white"/>
<path d="M29.6553 18.8672H29.1553C28.8791 18.8672 28.6553 19.203 28.6553 19.6172V30.8672C28.6553 31.2814 28.8791 31.6172 29.1553 31.6172H29.6553C29.9314 31.6172 30.1553 31.2814 30.1553 30.8672V19.6172C30.1553 19.203 29.9314 18.8672 29.6553 18.8672Z" fill="white"/>
<path d="M12.4815 15.4398C12.7554 16.0165 13.1872 16.5037 13.7268 16.8449C14.2665 17.186 14.8918 17.3671 15.5303 17.3671C16.1687 17.3671 16.7941 17.186 17.3337 16.8449C17.8734 16.5037 18.3052 16.0165 18.579 15.4398C18.7402 15.1021 18.8429 14.7394 18.8828 14.3673C18.898 14.2429 18.9055 14.1176 18.9053 13.9923C18.9061 13.8303 18.8936 13.6685 18.8678 13.5085C18.8384 13.2898 18.7856 13.0748 18.7103 12.8673C18.4799 12.2055 18.0493 11.6317 17.4781 11.2257C16.907 10.8197 16.2236 10.6016 15.5228 10.6016C14.822 10.6016 14.1386 10.8197 13.5674 11.2257C12.9962 11.6317 12.5656 12.2055 12.3353 12.8673C12.26 13.0748 12.2072 13.2898 12.1778 13.5085C12.1759 13.541 12.1759 13.5736 12.1778 13.606C12.1608 13.7341 12.1533 13.8632 12.1553 13.9923C12.1551 14.1176 12.1626 14.2429 12.1778 14.3673C12.2176 14.7394 12.3203 15.1021 12.4815 15.4398V15.4398ZM15.7178 14.3673H15.3428C15.1103 14.3675 14.886 14.2814 14.7135 14.1255C14.5409 13.9697 14.4324 13.7553 14.4091 13.524C14.3857 13.2927 14.4491 13.061 14.587 12.8738C14.7249 12.6866 14.9274 12.5573 15.1553 12.511V12.1173C15.1553 12.0178 15.1948 11.9225 15.2651 11.8521C15.3354 11.7818 15.4308 11.7423 15.5303 11.7423C15.6297 11.7423 15.7251 11.7818 15.7954 11.8521C15.8658 11.9225 15.9053 12.0178 15.9053 12.1173V12.4923H16.2803C16.3797 12.4923 16.4751 12.5318 16.5454 12.6021C16.6158 12.6725 16.6553 12.7678 16.6553 12.8673C16.6553 12.9668 16.6158 13.0621 16.5454 13.1325C16.4751 13.2028 16.3797 13.2423 16.2803 13.2423H15.3428C15.293 13.2423 15.2454 13.2621 15.2102 13.2972C15.175 13.3324 15.1553 13.3801 15.1553 13.4298C15.1553 13.4795 15.175 13.5272 15.2102 13.5624C15.2454 13.5975 15.293 13.6173 15.3428 13.6173H15.7178C15.9664 13.5924 16.2147 13.6674 16.4081 13.8256C16.6015 13.9838 16.7242 14.2124 16.749 14.461C16.7739 14.7097 16.699 14.958 16.5407 15.1514C16.3825 15.3448 16.1539 15.4674 15.9053 15.4923V15.8673C15.9053 15.9668 15.8658 16.0621 15.7954 16.1325C15.7251 16.2028 15.6297 16.2423 15.5303 16.2423C15.4308 16.2423 15.3354 16.2028 15.2651 16.1325C15.1948 16.0621 15.1553 15.9668 15.1553 15.8673V15.4923H14.7803C14.6808 15.4923 14.5854 15.4528 14.5151 15.3825C14.4448 15.3121 14.4053 15.2168 14.4053 15.1173C14.4053 15.0178 14.4448 14.9225 14.5151 14.8521C14.5854 14.7818 14.6808 14.7423 14.7803 14.7423H15.7178C15.7675 14.7423 15.8152 14.7225 15.8504 14.6874C15.8855 14.6522 15.9053 14.6045 15.9053 14.5548C15.9053 14.5051 15.8855 14.4574 15.8504 14.4222C15.8152 14.3871 15.7675 14.3673 15.7178 14.3673ZM31.5653 11.8735L31.509 11.821C31.4508 11.7754 31.3803 11.748 31.3065 11.7423H29.7803C29.6808 11.7423 29.5854 11.7818 29.5151 11.8521C29.4448 11.9225 29.4053 12.0178 29.4053 12.1173C29.4053 12.2168 29.4448 12.3121 29.5151 12.3825C29.5854 12.4528 29.6808 12.4923 29.7803 12.4923H30.3615L28.3778 14.4423C23.7498 18.9859 17.5157 21.5194 11.0303 21.4923H10.2803C10.1808 21.4923 10.0854 21.5318 10.0151 21.6021C9.94478 21.6725 9.90527 21.7678 9.90527 21.8673C9.90527 21.9668 9.94478 22.0621 10.0151 22.1325C10.0854 22.2028 10.1808 22.2423 10.2803 22.2423H11.4578C17.9928 22.162 24.2436 19.5579 28.9028 14.9748L30.9053 13.0098V13.6173C30.9053 13.7168 30.9448 13.8121 31.0151 13.8825C31.0854 13.9528 31.1808 13.9923 31.2803 13.9923C31.3797 13.9923 31.4751 13.9528 31.5454 13.8825C31.6158 13.8121 31.6553 13.7168 31.6553 13.6173V12.1173C31.6553 12.0279 31.6234 11.9415 31.5653 11.8735V11.8735Z" fill="white"/>
<defs>
<linearGradient id="paint0_linear_1596_9685" x1="48.2542" y1="-12.3578" x2="-7.65006" y2="44.7234" gradientUnits="userSpaceOnUse">
<stop stop-color="#7B1931"/>
<stop offset="1" stop-color="#E05226"/>
</linearGradient>
</defs>
</svg>
