<svg width="42" height="42" viewBox="0 0 42 42" fill="none" xmlns="http://www.w3.org/2000/svg">
<ellipse cx="20.8624" cy="20.7381" rx="20.8624" ry="20.7381" fill="url(#paint0_linear_1596_10023)"/>
<g clip-path="url(#clip0_1596_10023)">
<path d="M21.624 15.7363H20.874C20.6751 15.7363 20.4843 15.6573 20.3437 15.5167C20.203 15.376 20.124 15.1852 20.124 14.9863C20.124 14.8869 20.0845 14.7915 20.0142 14.7212C19.9439 14.6508 19.8485 14.6113 19.749 14.6113C19.6496 14.6113 19.5542 14.6508 19.4839 14.7212C19.4135 14.7915 19.374 14.8869 19.374 14.9863C19.374 15.3842 19.5321 15.7657 19.8134 16.047C20.0947 16.3283 20.4762 16.4863 20.874 16.4863V16.8613C20.874 16.9608 20.9135 17.0562 20.9839 17.1265C21.0542 17.1968 21.1496 17.2363 21.249 17.2363C21.3485 17.2363 21.4439 17.1968 21.5142 17.1265C21.5845 17.0562 21.624 16.9608 21.624 16.8613V16.4863C22.0218 16.4863 22.4034 16.3283 22.6847 16.047C22.966 15.7657 23.124 15.3842 23.124 14.9863C23.124 14.5885 22.966 14.207 22.6847 13.9257C22.4034 13.6444 22.0218 13.4863 21.624 13.4863H20.874C20.6751 13.4863 20.4843 13.4073 20.3437 13.2667C20.203 13.126 20.124 12.9352 20.124 12.7363C20.124 12.5374 20.203 12.3467 20.3437 12.206C20.4843 12.0653 20.6751 11.9863 20.874 11.9863H21.624C21.8229 11.9863 22.0137 12.0653 22.1544 12.206C22.295 12.3467 22.374 12.5374 22.374 12.7363C22.374 12.8358 22.4135 12.9312 22.4839 13.0015C22.5542 13.0718 22.6496 13.1113 22.749 13.1113C22.8485 13.1113 22.9439 13.0718 23.0142 13.0015C23.0845 12.9312 23.124 12.8358 23.124 12.7363C23.124 12.3385 22.966 11.957 22.6847 11.6757C22.4034 11.3944 22.0218 11.2363 21.624 11.2363V10.8613C21.624 10.7619 21.5845 10.6665 21.5142 10.5962C21.4439 10.5258 21.3485 10.4863 21.249 10.4863C21.1496 10.4863 21.0542 10.5258 20.9839 10.5962C20.9135 10.6665 20.874 10.7619 20.874 10.8613V11.2363C20.4762 11.2363 20.0947 11.3944 19.8134 11.6757C19.5321 11.957 19.374 12.3385 19.374 12.7363C19.374 13.1342 19.5321 13.5157 19.8134 13.797C20.0947 14.0783 20.4762 14.2363 20.874 14.2363H21.624C21.8229 14.2363 22.0137 14.3153 22.1544 14.456C22.295 14.5967 22.374 14.7874 22.374 14.9863C22.374 15.1852 22.295 15.376 22.1544 15.5167C22.0137 15.6573 21.8229 15.7363 21.624 15.7363ZM21.249 18.7363C22.2132 18.7363 23.1557 18.4504 23.9574 17.9147C24.7591 17.3791 25.384 16.6177 25.7529 15.7269C26.1219 14.8361 26.2185 13.8559 26.0304 12.9103C25.8422 11.9646 25.3779 11.096 24.6962 10.4142C24.0144 9.7324 23.1457 9.26811 22.2001 9.08C21.2544 8.8919 20.2742 8.98844 19.3834 9.35742C18.4927 9.72639 17.7313 10.3512 17.1956 11.1529C16.6599 11.9546 16.374 12.8971 16.374 13.8613C16.3756 15.1538 16.8897 16.3928 17.8036 17.3067C18.7175 18.2206 19.9566 18.7347 21.249 18.7363V18.7363ZM21.249 9.73633C22.0649 9.73633 22.8624 9.97826 23.5408 10.4315C24.2191 10.8848 24.7478 11.529 25.06 12.2828C25.3722 13.0365 25.4539 13.8659 25.2948 14.6661C25.1356 15.4662 24.7427 16.2013 24.1658 16.7781C23.5889 17.355 22.8539 17.7479 22.0538 17.9071C21.2536 18.0662 20.4242 17.9845 19.6705 17.6723C18.9167 17.3601 18.2725 16.8314 17.8192 16.1531C17.366 15.4747 17.124 14.6772 17.124 13.8613C17.1252 12.7677 17.5602 11.7192 18.3335 10.9458C19.1069 10.1725 20.1554 9.73752 21.249 9.73633V9.73633ZM32.499 20.0863H29.499C29.2453 20.0869 28.9991 20.1732 28.8006 20.3313C28.6021 20.4893 28.4629 20.7099 28.4055 20.9571L24.1883 19.6626C23.6446 19.4968 23.062 19.511 22.527 19.7031L21.8993 19.9281L18.957 19.2823C18.3355 19.1457 17.6881 19.1878 17.0895 19.4038L13.2863 20.7748C13.2003 20.5707 13.0561 20.3965 12.8716 20.274C12.6871 20.1515 12.4705 20.0863 12.249 20.0863H9.24902C9.14957 20.0863 9.05418 20.1258 8.98386 20.1962C8.91353 20.2665 8.87402 20.3619 8.87402 20.4613V27.9613C8.87402 28.0608 8.91353 28.1562 8.98386 28.2265C9.05418 28.2968 9.14957 28.3363 9.24902 28.3363H12.249C12.4342 28.3361 12.6164 28.2902 12.7795 28.2027C12.9427 28.1152 13.0817 27.9887 13.1843 27.8346C14.5715 29.5934 16.3338 31.0204 18.3428 32.0113L19.9613 32.8078C20.2072 32.93 20.4809 32.9853 20.755 32.968C21.029 32.9507 21.2937 32.8616 21.5223 32.7095C21.751 32.5574 21.9355 32.3478 22.0574 32.1018C22.1792 31.8557 22.2341 31.5819 22.2165 31.3078C22.3181 31.3341 22.4222 31.3494 22.527 31.3536C22.6298 31.3534 22.7323 31.3429 22.833 31.3221C23.1614 31.2554 23.4576 31.0798 23.6738 30.8238C23.8899 30.5677 24.0133 30.2462 24.024 29.9113C24.2373 30.0313 24.4769 30.0965 24.7215 30.1011C24.8241 30.1009 24.9263 30.0904 25.0268 30.0696C25.3764 29.9986 25.6889 29.8045 25.9076 29.5227C26.1263 29.2408 26.2366 28.8899 26.2185 28.5336C26.5089 28.6059 26.8147 28.5833 27.0913 28.4691C27.3678 28.3549 27.6005 28.1551 27.7553 27.8991C27.8679 27.7289 27.9445 27.5375 27.9803 27.3366H28.3868C28.4175 27.6106 28.5477 27.8637 28.7527 28.048C28.9578 28.2323 29.2233 28.3349 29.499 28.3363H32.499C32.5985 28.3363 32.6939 28.2968 32.7642 28.2265C32.8345 28.1562 32.874 28.0608 32.874 27.9613V20.4613C32.874 20.3619 32.8345 20.2665 32.7642 20.1962C32.6939 20.1258 32.5985 20.0863 32.499 20.0863ZM12.624 27.2113C12.624 27.3108 12.5845 27.4062 12.5142 27.4765C12.4439 27.5468 12.3485 27.5863 12.249 27.5863H9.62402V20.8363H12.249C12.3485 20.8363 12.4439 20.8758 12.5142 20.9462C12.5845 21.0165 12.624 21.1119 12.624 21.2113V27.2113ZM27.1298 27.4896C27.0757 27.5719 27.0059 27.6427 26.9244 27.698C26.8429 27.7533 26.7513 27.792 26.6548 27.812C26.5584 27.8319 26.4589 27.8326 26.3622 27.8141C26.2655 27.7956 26.1733 27.7582 26.091 27.7041L22.6088 25.4113L22.4483 25.6551C22.4237 25.6716 22.4026 25.6929 22.3863 25.7176C22.3699 25.7423 22.3586 25.77 22.353 25.7991L22.1963 26.0376L22.4835 26.2266C22.4873 26.2266 22.4895 26.2333 22.4933 26.2363L25.137 27.9778C25.2995 28.0888 25.4119 28.2591 25.45 28.4522C25.488 28.6452 25.4487 28.8455 25.3405 29.0098C25.2322 29.1741 25.0638 29.2893 24.8714 29.3306C24.679 29.3718 24.4781 29.3358 24.312 29.2303L23.3655 28.6071L23.355 28.5988L21.054 27.0838H21.048L20.8298 26.9398C20.7467 26.8871 20.6463 26.8691 20.5501 26.8897C20.4539 26.9103 20.3697 26.9679 20.3155 27.0501C20.2614 27.1323 20.2418 27.2324 20.2608 27.3289C20.2798 27.4254 20.336 27.5106 20.4173 27.5661L22.947 29.2318C23.0688 29.3144 23.1636 29.4309 23.2196 29.567C23.2756 29.703 23.2904 29.8525 23.2621 29.9969C23.2338 30.1412 23.1637 30.2741 23.0605 30.3789C22.9572 30.4837 22.8254 30.5558 22.6815 30.5863C22.4868 30.6262 22.2842 30.587 22.1183 30.4776L19.5788 28.8051C19.5377 28.777 19.4914 28.7574 19.4426 28.7474C19.3939 28.7374 19.3436 28.7372 19.2948 28.7469C19.246 28.7565 19.1995 28.7757 19.1582 28.8035C19.1169 28.8312 19.0815 28.8669 19.0542 28.9085C19.0268 28.9501 19.008 28.9967 18.9988 29.0456C18.9896 29.0945 18.9902 29.1447 19.0007 29.1934C19.0111 29.2421 19.0311 29.2882 19.0596 29.329C19.088 29.3699 19.1243 29.4046 19.1663 29.4313L19.2983 29.5183C19.302 29.5183 19.3043 29.5258 19.3088 29.5288L21.1088 30.7131C21.2927 30.8234 21.4261 31.0014 21.4805 31.2089C21.5348 31.4164 21.5057 31.637 21.3994 31.8233C21.2931 32.0096 21.118 32.1469 20.9118 32.2057C20.7055 32.2646 20.4844 32.2403 20.2958 32.1381L18.6735 31.3363C16.5637 30.2952 14.7433 28.7495 13.374 26.8363V21.5398L17.343 20.1103C17.8087 19.9428 18.3123 19.9101 18.7958 20.0158L20.5755 20.4066L19.2885 20.8708C18.8932 21.0062 18.5678 21.2931 18.384 21.6683C18.2001 22.0436 18.1729 22.4765 18.3083 22.8718C18.4436 23.2672 18.7305 23.5925 19.1058 23.7764C19.481 23.9602 19.9139 23.9874 20.3093 23.8521L22.092 23.2738L26.916 26.4501C27.0053 26.509 27.0809 26.5863 27.1378 26.6769C27.1947 26.7674 27.2316 26.8691 27.246 26.9751C27.2467 26.9934 27.2484 27.0117 27.2513 27.0298C27.2619 27.192 27.2192 27.3532 27.1298 27.4888V27.4896ZM28.374 26.5888H27.924C27.817 26.2747 27.6079 26.0054 27.33 25.8238L22.356 22.5478C22.3091 22.5169 22.2558 22.497 22.2001 22.4895C22.1444 22.4819 22.0877 22.487 22.0343 22.5043L20.0798 23.1388C19.928 23.1882 19.7652 23.1925 19.6111 23.1513C19.4569 23.11 19.318 23.0249 19.2113 22.9063C19.1204 22.8058 19.0557 22.6845 19.0228 22.553C18.99 22.4216 18.99 22.284 19.0229 22.1526C19.0558 22.0211 19.1206 21.8998 19.2115 21.7994C19.3025 21.6989 19.4168 21.6224 19.5443 21.5766L22.7835 20.4081C23.1656 20.2708 23.5818 20.2608 23.97 20.3796L28.374 21.7326V26.5888ZM32.124 27.5863H29.499C29.3996 27.5863 29.3042 27.5468 29.2339 27.4765C29.1635 27.4062 29.124 27.3108 29.124 27.2113V21.2113C29.124 21.1119 29.1635 21.0165 29.2339 20.9462C29.3042 20.8758 29.3996 20.8363 29.499 20.8363H32.124V27.5863Z" fill="white"/>
</g>
<defs>
<linearGradient id="paint0_linear_1596_10023" x1="48.8777" y1="-12.4429" x2="-7.40348" y2="45.3676" gradientUnits="userSpaceOnUse">
<stop stop-color="#7B1931"/>
<stop offset="1" stop-color="#E05226"/>
</linearGradient>
<clipPath id="clip0_1596_10023">
<rect width="24" height="24" fill="white" transform="translate(8.87402 8.98633)"/>
</clipPath>
</defs>
</svg>
