<svg width="42" height="42" viewBox="0 0 42 42" fill="none" xmlns="http://www.w3.org/2000/svg">
<path d="M39.858 34.9317H2.19727C1.78949 34.9317 1.45898 34.6012 1.45898 34.1934C1.45898 33.7856 1.78949 33.4551 2.19727 33.4551H39.858C40.2658 33.4551 40.5963 33.7856 40.5963 34.1934C40.5963 34.6012 40.2658 34.9317 39.858 34.9317ZM39.858 21.7173H2.19727C1.78949 21.7173 1.45898 21.3868 1.45898 20.979C1.45898 20.5712 1.78949 20.2407 2.19727 20.2407H39.858C40.2658 20.2407 40.5963 20.5712 40.5963 20.979C40.5963 21.3868 40.2658 21.7173 39.858 21.7173ZM39.858 8.50293H2.19727C1.78949 8.50293 1.45898 8.17243 1.45898 7.76465C1.45898 7.35687 1.78949 7.02637 2.19727 7.02637H39.858C40.2658 7.02637 40.5963 7.35687 40.5963 7.76465C40.5963 8.17243 40.2658 8.50293 39.858 8.50293Z" fill="white"/>
</svg>
