<svg width="48" height="47" viewBox="0 0 48 47" fill="none" xmlns="http://www.w3.org/2000/svg">
<ellipse cx="23.5714" cy="23.4309" rx="23.5714" ry="23.4309" fill="url(#paint0_linear_1310_11445)"/>
<g clip-path="url(#clip0_1310_11445)">
<path d="M23.7908 22.3414C22.7089 22.3414 21.6512 22.0206 20.7516 21.4195C19.8519 20.8183 19.1508 19.964 18.7367 18.9644C18.3227 17.9648 18.2143 16.8648 18.4254 15.8037C18.6365 14.7425 19.1575 13.7677 19.9226 13.0027C20.6877 12.2376 21.6624 11.7166 22.7236 11.5055C23.7847 11.2944 24.8847 11.4028 25.8843 11.8168C26.8839 12.2309 27.7383 12.932 28.3394 13.8316C28.9405 14.7313 29.2613 15.7889 29.2613 16.8709C29.2593 18.3211 28.6823 19.7114 27.6568 20.7369C26.6313 21.7624 25.2411 22.3394 23.7908 22.3414ZM23.7908 11.7816C22.7823 11.7809 21.7961 12.0793 20.9573 12.6393C20.1184 13.1992 19.4646 13.9954 19.0784 14.9271C18.6923 15.8589 18.5913 16.8842 18.7881 17.8733C18.985 18.8625 19.4709 19.771 20.1843 20.4839C20.8977 21.1968 21.8066 21.682 22.7959 21.8781C23.7852 22.0743 24.8105 21.9724 25.7419 21.5856C26.6733 21.1988 27.4691 20.5443 28.0284 19.7051C28.5877 18.8658 28.8854 17.8795 28.8839 16.8709C28.8809 15.5214 28.3432 14.2281 27.3886 13.2742C26.434 12.3203 25.1403 11.7836 23.7908 11.7816V11.7816Z" fill="white"/>
<path d="M24.567 17.1418H23.127V17.8938H25.207V18.3578H23.127V19.3818H22.567V18.3578H21.847V17.8938H22.567V17.1418H21.847V16.6138H22.567V13.7818H24.567C25.0257 13.7818 25.4203 13.9472 25.751 14.2778C26.0817 14.6085 26.247 15.0032 26.247 15.4618C26.247 15.9205 26.0817 16.3152 25.751 16.6458C25.4203 16.9765 25.0257 17.1418 24.567 17.1418ZM24.567 14.3098H23.127V16.6138H24.567C24.8763 16.6138 25.1403 16.5018 25.359 16.2778C25.5777 16.0432 25.687 15.7712 25.687 15.4618C25.687 15.1472 25.5777 14.8752 25.359 14.6458C25.1403 14.4218 24.8763 14.3098 24.567 14.3098Z" fill="white"/>
<path d="M17.2874 35.1432C16.2054 35.1432 15.1478 34.8223 14.2482 34.2212C13.3485 33.6201 12.6474 32.7657 12.2333 31.7661C11.8193 30.7665 11.7109 29.6666 11.922 28.6054C12.1331 27.5442 12.6541 26.5695 13.4192 25.8044C14.1842 25.0394 15.159 24.5183 16.2202 24.3073C17.2813 24.0962 18.3813 24.2045 19.3809 24.6186C20.3805 25.0326 21.2348 25.7338 21.836 26.6334C22.4371 27.533 22.7579 28.5907 22.7579 29.6727C22.7569 31.1232 22.1802 32.5141 21.1545 33.5398C20.1288 34.5655 18.738 35.1421 17.2874 35.1432ZM17.2874 24.5796C16.279 24.5788 15.293 24.8772 14.4543 25.437C13.6155 25.9967 12.9616 26.7927 12.5754 27.7242C12.1891 28.6557 12.0879 29.6808 12.2844 30.6699C12.481 31.6589 12.9665 32.5675 13.6795 33.2805C14.3926 33.9936 15.3011 34.4791 16.2902 34.6756C17.2792 34.8722 18.3044 34.7709 19.2358 34.3847C20.1673 33.9984 20.9633 33.3445 21.5231 32.5058C22.0829 31.667 22.3812 30.681 22.3805 29.6727C22.3775 28.3228 21.8399 27.0291 20.8854 26.0746C19.9309 25.1201 18.6372 24.5826 17.2874 24.5796ZM30.2946 35.1432C29.2127 35.1432 28.155 34.8223 27.2554 34.2212C26.3557 33.6201 25.6546 32.7657 25.2405 31.7661C24.8265 30.7665 24.7181 29.6666 24.9292 28.6054C25.1403 27.5442 25.6613 26.5695 26.4264 25.8044C27.1914 25.0394 28.1662 24.5183 29.2274 24.3073C30.2885 24.0962 31.3885 24.2045 32.3881 24.6186C33.3877 25.0326 34.2421 25.7338 34.8432 26.6334C35.4443 27.533 35.7651 28.5907 35.7651 29.6727C35.7641 31.1232 35.1874 32.5141 34.1617 33.5398C33.136 34.5655 31.7452 35.1421 30.2946 35.1432ZM30.2946 24.5796C29.2864 24.5796 28.3008 24.8786 27.4625 25.4388C26.6243 25.999 25.971 26.7953 25.5853 27.7268C25.1997 28.6584 25.0989 29.6834 25.2959 30.6722C25.4929 31.661 25.9787 32.5692 26.6919 33.2819C27.4051 33.9945 28.3136 34.4797 29.3026 34.6759C30.2915 34.8721 31.3165 34.7707 32.2478 34.3843C33.179 33.9979 33.9748 33.3441 34.5344 32.5054C35.094 31.6667 35.3923 30.6809 35.3915 29.6727C35.3895 28.3218 34.8517 27.027 33.8962 26.0722C32.9407 25.1174 31.6454 24.5806 30.2946 24.5796Z" fill="white"/>
<path d="M18.7815 30.5225C18.7846 30.7056 18.7496 30.8874 18.6786 31.0562C18.6079 31.2129 18.5054 31.3531 18.3774 31.4679C18.2421 31.5873 18.0856 31.6804 17.9161 31.7424C17.7209 31.8129 17.517 31.8565 17.31 31.872L17.2376 32.6078C17.2374 32.6258 17.2319 32.6434 17.2217 32.6584C17.2115 32.6733 17.1971 32.6849 17.1804 32.6916C17.151 32.703 17.1202 32.7107 17.0889 32.7145H16.9479H16.7687C16.7331 32.7093 16.6984 32.699 16.6657 32.684C16.6546 32.6794 16.6445 32.6727 16.636 32.6642C16.6275 32.6557 16.6208 32.6456 16.6162 32.6345C16.6086 32.6122 16.6086 32.5881 16.6162 32.5658L16.6886 31.8644C16.5947 31.8532 16.5017 31.8354 16.4103 31.811C16.3298 31.7931 16.2508 31.7689 16.174 31.7386C16.1103 31.7154 16.0479 31.6887 15.9872 31.6585C15.9454 31.6374 15.9069 31.6105 15.8728 31.5785C15.8426 31.5455 15.8227 31.5044 15.8156 31.4603C15.7968 31.3829 15.7865 31.3036 15.7851 31.2239C15.7851 31.1477 15.7851 31.0829 15.7851 31.0333C15.7864 30.993 15.7942 30.9531 15.808 30.9152C15.8168 30.8917 15.8328 30.8717 15.8538 30.858C15.8723 30.8519 15.8924 30.8519 15.9109 30.858C15.9588 30.8631 16.0047 30.8802 16.0444 30.9075C16.1159 30.9496 16.1897 30.9878 16.2655 31.0219C16.37 31.0694 16.4784 31.1076 16.5895 31.1363C16.7365 31.1736 16.8877 31.1916 17.0393 31.1896C17.2502 31.2061 17.4606 31.1525 17.6379 31.0371C17.6977 30.9932 17.7465 30.9358 17.7803 30.8696C17.814 30.8034 17.8318 30.7302 17.8323 30.6559C17.8372 30.5586 17.8075 30.4627 17.7484 30.3853C17.6866 30.3077 17.6102 30.243 17.5235 30.1947C17.4216 30.1389 17.3158 30.0905 17.2071 30.0498L16.8259 29.9164C16.7039 29.8668 16.5819 29.8096 16.4446 29.7486C16.3276 29.6852 16.2209 29.6042 16.1282 29.5085C16.029 29.4112 15.9511 29.2943 15.8995 29.1654C15.8409 29.0108 15.8125 28.8465 15.8156 28.6812C15.8235 28.5046 15.869 28.3318 15.9491 28.1742C16.0043 28.0313 16.0887 27.9015 16.1968 27.793C16.3064 27.6842 16.4358 27.5975 16.5781 27.5376C16.7553 27.4694 16.9415 27.427 17.1308 27.4118L17.1995 26.7217C17.1956 26.7055 17.1956 26.6885 17.1995 26.6722C17.2109 26.658 17.2252 26.6463 17.2414 26.6379L17.3291 26.615H17.4739H17.6531C17.6899 26.6203 17.7258 26.6305 17.7598 26.6455C17.771 26.6501 17.7811 26.6568 17.7896 26.6653C17.7981 26.6738 17.8048 26.6839 17.8094 26.6951C17.813 26.7178 17.813 26.741 17.8094 26.7637L17.7408 27.4156C17.8056 27.4156 17.8704 27.4384 17.9428 27.4537C18.0103 27.4677 18.0765 27.4868 18.1411 27.5109C18.1996 27.5301 18.2569 27.553 18.3126 27.5795C18.3502 27.5954 18.3849 27.6173 18.4155 27.6443C18.4331 27.6614 18.4484 27.6806 18.4613 27.7015C18.4734 27.724 18.4812 27.7485 18.4842 27.7739C18.4883 27.8081 18.4883 27.8427 18.4842 27.8768C18.4842 27.9188 18.4842 27.9645 18.4842 28.0179C18.4842 28.0713 18.4842 28.1475 18.4842 28.1933C18.4814 28.2294 18.475 28.2651 18.4651 28.3C18.4601 28.3181 18.4494 28.3342 18.4346 28.3457C18.4209 28.3497 18.4064 28.3497 18.3927 28.3457C18.3471 28.3404 18.3031 28.3261 18.2631 28.3038C18.2059 28.2733 18.1334 28.239 18.0496 28.2047C17.955 28.1672 17.8582 28.1354 17.7598 28.1094C17.6431 28.0777 17.5225 28.0623 17.4015 28.0636C17.2988 28.0617 17.1963 28.0733 17.0965 28.0979C17.0205 28.1161 16.9491 28.1499 16.8869 28.1971C16.8354 28.2347 16.7957 28.2863 16.7725 28.3457C16.746 28.4044 16.733 28.4682 16.7344 28.5325C16.731 28.6308 16.7605 28.7274 16.8182 28.807C16.8816 28.8836 16.9593 28.947 17.047 28.9938C17.1507 29.0511 17.2591 29.0995 17.371 29.1387L17.7522 29.2759C17.8821 29.3251 18.0094 29.3811 18.1334 29.4437C18.2519 29.513 18.3597 29.599 18.4537 29.6991C18.5512 29.7963 18.6288 29.9115 18.6824 30.0384C18.7488 30.1911 18.7825 30.356 18.7815 30.5225V30.5225ZM32.109 31.4565C32.112 31.545 32.1031 31.6335 32.0823 31.7195C32.0638 31.7739 32.0354 31.8243 31.9984 31.8682C31.9519 31.9096 31.9007 31.9454 31.8459 31.975C31.7676 32.015 31.686 32.0481 31.6019 32.0741C31.4936 32.1082 31.3827 32.1337 31.2703 32.1503C31.1342 32.173 30.9964 32.1832 30.8586 32.1808C30.6003 32.1873 30.3427 32.1512 30.0961 32.0741C29.8901 32.0088 29.6995 31.9025 29.5357 31.7615C29.3757 31.6215 29.2459 31.4502 29.1545 31.2583C29.0536 31.0428 28.983 30.8145 28.9448 30.5797H28.5865C28.5484 30.5797 28.5179 30.553 28.495 30.5073C28.4675 30.4277 28.4558 30.3435 28.4607 30.2595C28.4583 30.2112 28.4583 30.1629 28.4607 30.1146C28.4552 30.0831 28.4552 30.0508 28.4607 30.0193C28.4658 29.9991 28.4763 29.9806 28.4912 29.9659C28.5062 29.9536 28.5251 29.9468 28.5446 29.9469H28.8762V29.8287C28.8762 29.7867 28.8762 29.7486 28.8762 29.7067C28.8762 29.6648 28.8762 29.6076 28.8762 29.558V29.417H28.5446C28.5064 29.417 28.4797 29.3941 28.4607 29.3483C28.4379 29.2691 28.4289 29.1866 28.434 29.1044C28.4295 29.0536 28.4295 29.0026 28.434 28.9519C28.4385 28.9194 28.4461 28.8875 28.4569 28.8566C28.4667 28.8369 28.4811 28.8199 28.4988 28.807C28.5149 28.8015 28.5323 28.8015 28.5484 28.807H28.9296C28.9742 28.5785 29.0485 28.3568 29.1507 28.1475C29.2448 27.9538 29.3741 27.7793 29.5319 27.6329C29.6891 27.4863 29.8746 27.3734 30.0771 27.3012C30.3144 27.2173 30.565 27.1773 30.8166 27.183C31.0565 27.1817 31.2954 27.2151 31.5257 27.2821C31.6076 27.3075 31.6878 27.3381 31.7659 27.3736L31.9031 27.4537C31.9286 27.473 31.9494 27.4977 31.9641 27.5261C31.9778 27.554 31.988 27.5834 31.9946 27.6138C31.9946 27.6481 31.9946 27.6939 32.0137 27.7472C32.0327 27.8006 32.0137 27.8654 32.0137 27.9455C32.0137 28.0255 32.0137 28.0675 32.0137 28.1094C32.0084 28.1445 31.9995 28.1791 31.987 28.2123C31.9839 28.2235 31.9786 28.2341 31.9714 28.2432C31.9642 28.2524 31.9552 28.26 31.945 28.2657C31.9277 28.2712 31.909 28.2712 31.8917 28.2657C31.8564 28.2551 31.8238 28.2369 31.7964 28.2123C31.743 28.178 31.6782 28.1399 31.5981 28.0979C31.5069 28.0543 31.4126 28.0173 31.316 27.9874C31.192 27.9523 31.0636 27.9356 30.9348 27.9378C30.8053 27.9333 30.676 27.9526 30.5536 27.995C30.4504 28.0309 30.3566 28.0895 30.2791 28.1666C30.2012 28.2427 30.139 28.3333 30.0961 28.4334C30.0452 28.5481 30.0081 28.6684 29.9856 28.7918H31.0339C31.0501 28.7868 31.0673 28.7868 31.0835 28.7918C31.101 28.8039 31.1143 28.8213 31.1216 28.8413C31.1338 28.8721 31.1427 28.904 31.1483 28.9366C31.1483 28.9786 31.1483 29.0281 31.1483 29.0891C31.1539 29.1719 31.1422 29.255 31.114 29.3331C31.1084 29.3523 31.0969 29.3692 31.0812 29.3815C31.0655 29.3939 31.0463 29.4009 31.0263 29.4017H29.9208C29.9208 29.4437 29.9208 29.4856 29.9208 29.5275C29.9208 29.5695 29.9208 29.6114 29.9208 29.6609C29.9208 29.7105 29.9208 29.7524 29.9208 29.7944C29.9208 29.8363 29.9208 29.8859 29.9208 29.9316H31.0339C31.052 29.9329 31.0692 29.9396 31.0835 29.9507C31.1019 29.9636 31.1153 29.9824 31.1216 30.004C31.1346 30.0345 31.1436 30.0666 31.1483 30.0993C31.1507 30.1476 31.1507 30.196 31.1483 30.2442C31.1531 30.3283 31.1415 30.4124 31.114 30.492C31.1086 30.5116 31.0972 30.5291 31.0816 30.542C31.0659 30.555 31.0466 30.5628 31.0263 30.5644H29.9932C30.0102 30.6833 30.0448 30.799 30.0961 30.9075C30.1398 31.0048 30.2035 31.0918 30.2829 31.163C30.3669 31.2374 30.4656 31.2932 30.5726 31.3269C30.7049 31.3661 30.8426 31.3841 30.9805 31.3802C31.1094 31.3828 31.2379 31.3661 31.3618 31.3307C31.4592 31.3001 31.5537 31.2605 31.6439 31.2125C31.7239 31.1706 31.7925 31.1325 31.8459 31.0981C31.8839 31.0672 31.9305 31.0485 31.9793 31.0448C31.9967 31.0392 32.0154 31.0392 32.0327 31.0448C32.0522 31.0591 32.0669 31.0791 32.0746 31.102C32.0881 31.1413 32.0958 31.1824 32.0975 31.2239C32.1073 31.3011 32.1111 31.3788 32.109 31.4565ZM15.0761 23.3403H15.0227C14.9746 23.3285 14.9329 23.2985 14.9066 23.2565C14.8802 23.2145 14.8713 23.1639 14.8816 23.1154C15.2393 21.5451 16.0076 20.0979 17.108 18.922C17.1238 18.8998 17.1441 18.8812 17.1677 18.8675C17.1913 18.8538 17.2175 18.8454 17.2447 18.8427C17.2718 18.84 17.2992 18.8432 17.325 18.852C17.3508 18.8609 17.3744 18.8751 17.3942 18.8938C17.414 18.9125 17.4296 18.9353 17.4399 18.9606C17.4502 18.9858 17.4549 19.013 17.4538 19.0402C17.4527 19.0674 17.4457 19.0941 17.4334 19.1185C17.4211 19.1428 17.4037 19.1642 17.3824 19.1812C16.3283 20.3054 15.5916 21.6894 15.2476 23.1917C15.2399 23.2321 15.2188 23.2688 15.1877 23.2958C15.1565 23.3228 15.1172 23.3385 15.0761 23.3403ZM32.5054 23.3403C32.4628 23.3413 32.4212 23.3273 32.3878 23.3009C32.3544 23.2744 32.3313 23.2371 32.3224 23.1955C31.9804 21.6925 31.2434 20.3081 30.1876 19.185C30.1706 19.1673 30.1572 19.1463 30.1483 19.1234C30.1394 19.1004 30.1351 19.076 30.1356 19.0514C30.1361 19.0268 30.1415 19.0025 30.1514 18.98C30.1613 18.9575 30.1756 18.9371 30.1933 18.9201C30.2111 18.9031 30.2321 18.8897 30.255 18.8808C30.2779 18.8719 30.3024 18.8675 30.327 18.8681C30.3516 18.8686 30.3758 18.874 30.3984 18.8839C30.4209 18.8938 30.4413 18.908 30.4583 18.9258C31.5607 20.1009 32.3304 21.5483 32.6884 23.1192C32.6986 23.1682 32.6892 23.2193 32.6621 23.2614C32.635 23.3034 32.5924 23.3332 32.5435 23.3441L32.5054 23.3403ZM23.7907 35.7986C23.3916 35.7991 22.993 35.7723 22.5975 35.7185C22.1437 35.6604 21.6951 35.5673 21.2556 35.4402C21.2081 35.4261 21.1682 35.3936 21.1446 35.35C21.121 35.3064 21.1157 35.2552 21.1298 35.2077C21.144 35.1602 21.1764 35.1202 21.22 35.0966C21.2637 35.073 21.3149 35.0677 21.3624 35.0819C21.7832 35.2025 22.2127 35.2904 22.6471 35.3449C23.4062 35.446 24.1753 35.446 24.9344 35.3449C25.3705 35.2897 25.8015 35.1992 26.2229 35.0743C26.2735 35.0606 26.3274 35.0676 26.3728 35.0937C26.4182 35.1198 26.4513 35.1629 26.465 35.2134C26.4786 35.264 26.4717 35.3179 26.4456 35.3633C26.4195 35.4087 26.3764 35.4418 26.3259 35.4555C25.8861 35.5824 25.4376 35.6767 24.984 35.7376C24.5878 35.7823 24.1894 35.8027 23.7907 35.7986V35.7986Z" fill="white"/>
</g>
<defs>
<linearGradient id="paint0_linear_1310_11445" x1="55.2243" y1="-14.0585" x2="-8.36481" y2="51.2585" gradientUnits="userSpaceOnUse">
<stop stop-color="#7B1931"/>
<stop offset="1" stop-color="#E05226"/>
</linearGradient>
<clipPath id="clip0_1310_11445">
<rect width="24.3981" height="24.3981" fill="white" transform="translate(11.5918 11.4004)"/>
</clipPath>
</defs>
</svg>
