<svg width="25" height="26" viewBox="0 0 25 26" fill="none" xmlns="http://www.w3.org/2000/svg">
<g clip-path="url(#clip0_1933_5367)">
<path d="M12.2732 11.6812C11.1913 11.6812 10.1336 11.3604 9.23399 10.7593C8.33437 10.1582 7.6332 9.30381 7.21915 8.30421C6.8051 7.30461 6.69677 6.20467 6.90785 5.1435C7.11893 4.08232 7.63995 3.10757 8.40501 2.34251C9.17007 1.57745 10.1448 1.05643 11.206 0.845351C12.2672 0.63427 13.3671 0.742605 14.3667 1.15665C15.3663 1.5707 16.2207 2.27187 16.8218 3.17149C17.4229 4.07111 17.7437 5.12878 17.7437 6.21074C17.7417 7.66099 17.1647 9.05126 16.1392 10.0767C15.1138 11.1022 13.7235 11.6792 12.2732 11.6812ZM12.2732 1.12146C11.2647 1.1207 10.2786 1.41918 9.43972 1.97912C8.60087 2.53905 7.947 3.33527 7.56087 4.26698C7.17474 5.1987 7.0737 6.22403 7.27055 7.21319C7.46741 8.20235 7.9533 9.11088 8.66672 9.82377C9.38015 10.5367 10.289 11.0219 11.2783 11.218C12.2677 11.4141 13.2929 11.3123 14.2243 10.9255C15.1558 10.5386 15.9515 9.88416 16.5108 9.0449C17.0701 8.20563 17.3678 7.2193 17.3663 6.21074C17.3633 4.86125 16.8256 3.56795 15.871 2.61407C14.9164 1.66019 13.6227 1.12347 12.2732 1.12146Z" fill="white"/>
<path d="M13.0499 6.48168H11.6099V7.23368H13.6899V7.69768H11.6099V8.72168H11.0499V7.69768H10.3299V7.23368H11.0499V6.48168H10.3299V5.95368H11.0499V3.12168H13.0499C13.5086 3.12168 13.9033 3.28701 14.2339 3.61768C14.5646 3.94835 14.7299 4.34301 14.7299 4.80168C14.7299 5.26035 14.5646 5.65501 14.2339 5.98568C13.9033 6.31635 13.5086 6.48168 13.0499 6.48168ZM13.0499 3.64968H11.6099V5.95368H13.0499C13.3593 5.95368 13.6233 5.84168 13.8419 5.61768C14.0606 5.38301 14.1699 5.11101 14.1699 4.80168C14.1699 4.48701 14.0606 4.21501 13.8419 3.98568C13.6233 3.76168 13.3593 3.64968 13.0499 3.64968Z" fill="white"/>
<path d="M5.76933 24.483C4.68737 24.483 3.6297 24.1622 2.73008 23.5611C1.83046 22.9599 1.1293 22.1056 0.715248 21.106C0.301198 20.1064 0.192864 19.0064 0.403945 17.9453C0.615025 16.8841 1.13604 15.9093 1.9011 15.1443C2.66617 14.3792 3.64092 13.8582 4.70209 13.6471C5.76326 13.436 6.8632 13.5444 7.8628 13.9584C8.86241 14.3725 9.71678 15.0736 10.3179 15.9732C10.919 16.8729 11.2398 17.9305 11.2398 19.0125C11.2388 20.4631 10.6621 21.8539 9.63645 22.8796C8.61075 23.9053 7.21989 24.482 5.76933 24.483ZM5.76933 13.9194C4.76093 13.9186 3.77497 14.217 2.93621 14.7768C2.09744 15.3366 1.44357 16.1326 1.05732 17.064C0.671078 17.9955 0.569821 19.0207 0.766365 20.0097C0.962909 20.9988 1.44842 21.9073 2.16146 22.6204C2.87451 23.3334 3.78304 23.8189 4.7721 24.0155C5.76116 24.212 6.78629 24.1107 7.71778 23.7245C8.64928 23.3383 9.44527 22.6844 10.005 21.8456C10.5648 21.0069 10.8632 20.0209 10.8624 19.0125C10.8594 17.6627 10.3218 16.369 9.36736 15.4145C8.41287 14.46 7.11918 13.9224 5.76933 13.9194ZM18.7765 24.483C17.6946 24.483 16.6369 24.1622 15.7373 23.5611C14.8377 22.9599 14.1365 22.1056 13.7225 21.106C13.3084 20.1064 13.2001 19.0064 13.4112 17.9453C13.6222 16.8841 14.1433 15.9093 14.9083 15.1443C15.6734 14.3792 16.6481 13.8582 17.7093 13.6471C18.7705 13.436 19.8704 13.5444 20.87 13.9584C21.8696 14.3725 22.724 15.0736 23.3251 15.9732C23.9262 16.8729 24.247 17.9305 24.247 19.0125C24.246 20.4631 23.6694 21.8539 22.6437 22.8796C21.618 23.9053 20.2271 24.482 18.7765 24.483ZM18.7765 13.9194C17.7683 13.9194 16.7827 14.2184 15.9445 14.7787C15.1062 15.3389 14.4529 16.1351 14.0673 17.0667C13.6816 17.9982 13.5809 19.0233 13.7779 20.0121C13.9748 21.0009 14.4606 21.909 15.1738 22.6217C15.887 23.3344 16.7956 23.8195 17.7845 24.0157C18.7735 24.212 19.7984 24.1105 20.7297 23.7241C21.661 23.3378 22.4567 22.6839 23.0163 21.8452C23.5759 21.0065 23.8742 20.0207 23.8735 19.0125C23.8714 17.6617 23.3337 16.3668 22.3781 15.412C21.4226 14.4572 20.1274 13.9204 18.7765 13.9194Z" fill="white"/>
<path d="M7.26443 19.8623C7.26754 20.0455 7.23249 20.2272 7.1615 20.3961C7.09085 20.5528 6.98828 20.693 6.86033 20.8078C6.72496 20.9271 6.56854 21.0202 6.39906 21.0822C6.20383 21.1528 5.99991 21.1964 5.79292 21.2119L5.72049 21.9476C5.7203 21.9657 5.71477 21.9833 5.70459 21.9982C5.69442 22.0131 5.68005 22.0247 5.66331 22.0315C5.63387 22.0429 5.60314 22.0506 5.57181 22.0544H5.43076H5.25159C5.21601 22.0491 5.18136 22.0388 5.14866 22.0239C5.13755 22.0193 5.12745 22.0125 5.11895 22.004C5.11044 21.9955 5.1037 21.9854 5.0991 21.9743C5.09155 21.9521 5.09155 21.9279 5.0991 21.9057L5.17153 21.2042C5.07762 21.193 4.98463 21.1752 4.89324 21.1509C4.81269 21.1329 4.73366 21.1087 4.65689 21.0784C4.59318 21.0552 4.53082 21.0285 4.47009 20.9984C4.42835 20.9773 4.38984 20.9503 4.35572 20.9183C4.32552 20.8854 4.30564 20.8443 4.29854 20.8001C4.27968 20.7227 4.26945 20.6435 4.26804 20.5638C4.26804 20.4875 4.26804 20.4227 4.26804 20.3732C4.26936 20.3328 4.27708 20.2929 4.29091 20.255C4.29972 20.2316 4.31574 20.2116 4.33666 20.1978C4.35523 20.1917 4.37527 20.1917 4.39384 20.1978C4.44175 20.203 4.48761 20.22 4.52727 20.2474C4.59884 20.2895 4.67265 20.3277 4.74838 20.3617C4.85286 20.4092 4.96128 20.4475 5.07241 20.4761C5.21938 20.5135 5.37062 20.5314 5.52225 20.5295C5.7331 20.5459 5.94349 20.4923 6.12077 20.377C6.18065 20.333 6.22942 20.2756 6.26318 20.2094C6.29694 20.1432 6.31475 20.0701 6.31519 19.9958C6.32014 19.8985 6.29042 19.8026 6.23132 19.7251C6.16946 19.6475 6.09306 19.5828 6.0064 19.5345C5.9045 19.4788 5.79876 19.4304 5.68999 19.3896L5.30877 19.2562C5.18678 19.2066 5.06479 19.1495 4.92755 19.0885C4.81046 19.025 4.70376 18.944 4.61114 18.8483C4.51195 18.751 4.43406 18.6342 4.38241 18.5052C4.32384 18.3506 4.29537 18.1863 4.29854 18.0211C4.30645 17.8445 4.35194 17.6716 4.43197 17.514C4.48726 17.3712 4.57164 17.2413 4.67976 17.1328C4.78929 17.024 4.91871 16.9373 5.06098 16.8774C5.23826 16.8092 5.42441 16.7668 5.61375 16.7516L5.68237 16.0616C5.67848 16.0453 5.67848 16.0283 5.68237 16.012C5.69385 15.9978 5.70812 15.9862 5.7243 15.9777L5.81198 15.9548H5.95684H6.13602C6.17282 15.9601 6.20873 15.9704 6.24276 15.9853C6.25387 15.9899 6.26397 15.9967 6.27247 16.0052C6.28098 16.0137 6.28772 16.0238 6.29232 16.0349C6.29595 16.0576 6.29595 16.0808 6.29232 16.1035L6.2237 16.7554C6.28851 16.7554 6.35331 16.7783 6.42574 16.7935C6.49318 16.8075 6.55945 16.8266 6.62398 16.8507C6.68255 16.8699 6.73985 16.8929 6.79553 16.9193C6.83308 16.9353 6.86784 16.9572 6.89846 16.9841C6.91597 17.0013 6.93134 17.0205 6.9442 17.0413C6.95634 17.0638 6.9641 17.0884 6.96708 17.1138C6.97123 17.1479 6.97123 17.1825 6.96708 17.2167C6.96708 17.2586 6.96708 17.3044 6.96708 17.3577C6.96708 17.4111 6.96708 17.4873 6.96708 17.5331C6.96429 17.5692 6.9579 17.605 6.94802 17.6398C6.94302 17.658 6.93233 17.674 6.91752 17.6856C6.90381 17.6895 6.88929 17.6895 6.87558 17.6856C6.83005 17.6802 6.78602 17.666 6.74597 17.6437C6.68879 17.6132 6.61635 17.5788 6.53249 17.5445C6.43787 17.5071 6.34113 17.4753 6.24276 17.4492C6.12598 17.4176 6.0054 17.4022 5.88441 17.4035C5.78169 17.4016 5.67916 17.4131 5.57944 17.4378C5.50344 17.456 5.43204 17.4897 5.36977 17.5369C5.31828 17.5746 5.27861 17.6262 5.2554 17.6856C5.2289 17.7442 5.21587 17.808 5.21728 17.8724C5.21394 17.9707 5.24345 18.0672 5.30115 18.1469C5.36449 18.2234 5.44219 18.2869 5.52988 18.3337C5.63366 18.3909 5.74205 18.4394 5.85391 18.4785L6.23513 18.6158C6.36505 18.665 6.49229 18.721 6.61635 18.7835C6.7348 18.8528 6.84265 18.9388 6.93658 19.0389C7.03406 19.1361 7.11175 19.2514 7.16531 19.3782C7.23167 19.5309 7.26542 19.6958 7.26443 19.8623ZM20.5919 20.7963C20.5949 20.8848 20.586 20.9733 20.5652 21.0594C20.5467 21.1137 20.5183 21.1641 20.4813 21.2081C20.4348 21.2495 20.3837 21.2853 20.3288 21.3148C20.2505 21.3548 20.1689 21.388 20.0848 21.4139C19.9765 21.4481 19.8656 21.4736 19.7532 21.4902C19.6172 21.5128 19.4793 21.523 19.3415 21.5207C19.0832 21.5271 18.8256 21.4911 18.579 21.4139C18.373 21.3487 18.1824 21.2423 18.0186 21.1013C17.8586 20.9613 17.7288 20.7901 17.6374 20.5981C17.5365 20.3827 17.4659 20.1543 17.4277 19.9195H17.0694C17.0313 19.9195 17.0008 19.8928 16.9779 19.8471C16.9504 19.7675 16.9387 19.6834 16.9436 19.5993C16.9412 19.551 16.9412 19.5027 16.9436 19.4544C16.9381 19.4229 16.9381 19.3907 16.9436 19.3591C16.9487 19.3389 16.9592 19.3204 16.9741 19.3058C16.9891 19.2934 17.008 19.2867 17.0275 19.2867H17.3591V19.1685C17.3591 19.1266 17.3591 19.0885 17.3591 19.0465C17.3591 19.0046 17.3591 18.9474 17.3591 18.8979V18.7568H17.0275C16.9893 18.7568 16.9627 18.7339 16.9436 18.6882C16.9208 18.609 16.9118 18.5265 16.9169 18.4442C16.9124 18.3935 16.9124 18.3425 16.9169 18.2917C16.9214 18.2593 16.9291 18.2274 16.9398 18.1964C16.9496 18.1768 16.964 18.1598 16.9817 18.1469C16.9978 18.1413 17.0152 18.1413 17.0313 18.1469H17.4125C17.4571 17.9183 17.5314 17.6966 17.6336 17.4873C17.7277 17.2937 17.857 17.1192 18.0148 16.9727C18.172 16.8261 18.3575 16.7132 18.56 16.641C18.7973 16.5572 19.0479 16.5171 19.2995 16.5229C19.5394 16.5215 19.7783 16.5549 20.0086 16.622C20.0905 16.6473 20.1707 16.6779 20.2488 16.7135L20.386 16.7935C20.4115 16.8128 20.4324 16.8376 20.447 16.866C20.4607 16.8938 20.4709 16.9233 20.4775 16.9536C20.4775 16.988 20.4775 17.0337 20.4966 17.0871C20.5156 17.1404 20.4966 17.2052 20.4966 17.2853C20.4966 17.3654 20.4966 17.4073 20.4966 17.4492C20.4914 17.4844 20.4824 17.5189 20.4699 17.5522C20.4668 17.5634 20.4615 17.5739 20.4543 17.5831C20.4471 17.5922 20.4381 17.5999 20.4279 17.6055C20.4106 17.6111 20.3919 17.6111 20.3746 17.6055C20.3393 17.5949 20.3067 17.5767 20.2793 17.5522C20.2259 17.5178 20.1611 17.4797 20.081 17.4378C19.9898 17.3941 19.8955 17.3572 19.7989 17.3272C19.675 17.2922 19.5465 17.2755 19.4177 17.2777C19.2882 17.2731 19.159 17.2925 19.0365 17.3349C18.9333 17.3707 18.8395 17.4294 18.762 17.5064C18.6841 17.5825 18.622 17.6732 18.579 17.7733C18.5281 17.8879 18.491 18.0082 18.4685 18.1316H19.5168C19.533 18.1266 19.5502 18.1266 19.5664 18.1316C19.5839 18.1438 19.5972 18.1611 19.6045 18.1812C19.6167 18.2119 19.6256 18.2439 19.6312 18.2765C19.6312 18.3184 19.6312 18.368 19.6312 18.429C19.6368 18.5118 19.6251 18.5949 19.5969 18.6729C19.5913 18.6921 19.5798 18.7091 19.5641 18.7214C19.5484 18.7337 19.5292 18.7408 19.5092 18.7416H18.4037C18.4037 18.7835 18.4037 18.8254 18.4037 18.8674C18.4037 18.9093 18.4037 18.9512 18.4037 19.0008C18.4037 19.0504 18.4037 19.0923 18.4037 19.1342C18.4037 19.1762 18.4037 19.2257 18.4037 19.2715H19.5168C19.5349 19.2728 19.5521 19.2794 19.5664 19.2905C19.5848 19.3035 19.5982 19.3223 19.6045 19.3439C19.6175 19.3744 19.6265 19.4064 19.6312 19.4392C19.6336 19.4875 19.6336 19.5358 19.6312 19.5841C19.6361 19.6681 19.6244 19.7523 19.5969 19.8319C19.5915 19.8515 19.5802 19.8689 19.5645 19.8819C19.5488 19.8948 19.5295 19.9027 19.5092 19.9043H18.4761C18.4931 20.0232 18.5278 20.1388 18.579 20.2474C18.6227 20.3446 18.6864 20.4317 18.7658 20.5028C18.8498 20.5772 18.9485 20.6331 19.0556 20.6667C19.1879 20.7059 19.3255 20.7239 19.4635 20.7201C19.5923 20.7227 19.7208 20.706 19.8447 20.6705C19.9422 20.6399 20.0366 20.6004 20.1268 20.5524C20.2068 20.5104 20.2755 20.4723 20.3288 20.438C20.3668 20.407 20.4134 20.3884 20.4623 20.3846C20.4796 20.3791 20.4983 20.3791 20.5156 20.3846C20.5351 20.3989 20.5498 20.4189 20.5576 20.4418C20.571 20.4812 20.5787 20.5222 20.5804 20.5638C20.5902 20.6409 20.594 20.7186 20.5919 20.7963ZM3.55897 12.6802H3.5056C3.45746 12.6684 3.41581 12.6383 3.38948 12.5963C3.36315 12.5543 3.35421 12.5037 3.36455 12.4553C3.72216 10.8849 4.49047 9.43779 5.59087 8.26184C5.60667 8.23961 5.62704 8.22104 5.65063 8.20736C5.67421 8.19368 5.70045 8.18523 5.72758 8.18256C5.75472 8.17989 5.7821 8.18307 5.8079 8.19189C5.8337 8.20071 5.8573 8.21496 5.87712 8.23367C5.89694 8.25239 5.91252 8.27515 5.9228 8.3004C5.93307 8.32565 5.93781 8.35281 5.9367 8.38005C5.93558 8.40729 5.92864 8.43398 5.91633 8.4583C5.90402 8.48263 5.88664 8.50403 5.86535 8.52107C4.81122 9.64529 4.07451 11.0293 3.73052 12.5315C3.72284 12.572 3.70172 12.6087 3.67059 12.6357C3.63946 12.6626 3.60013 12.6783 3.55897 12.6802ZM20.9883 12.6802C20.9457 12.6811 20.9042 12.6671 20.8708 12.6407C20.8373 12.6143 20.8142 12.577 20.8054 12.5353C20.4633 11.0324 19.7263 9.64791 18.6705 8.52488C18.6535 8.50711 18.6401 8.48616 18.6312 8.46322C18.6223 8.44029 18.618 8.41582 18.6185 8.39122C18.619 8.36662 18.6244 8.34236 18.6343 8.31983C18.6442 8.29731 18.6585 8.27695 18.6762 8.25993C18.694 8.24291 18.715 8.22956 18.7379 8.22063C18.7608 8.21171 18.7853 8.20739 18.8099 8.20792C18.8345 8.20845 18.8588 8.21382 18.8813 8.22373C18.9038 8.23363 18.9242 8.24788 18.9412 8.26565C20.0436 9.44074 20.8133 10.8881 21.1713 12.4591C21.1815 12.5081 21.1721 12.5591 21.145 12.6012C21.1179 12.6433 21.0753 12.673 21.0265 12.684L20.9883 12.6802ZM12.2737 25.1384C11.8746 25.1389 11.4759 25.1122 11.0804 25.0584C10.6267 25.0002 10.178 24.9072 9.73854 24.7801C9.69102 24.7659 9.65107 24.7335 9.62748 24.6899C9.60389 24.6463 9.59859 24.5951 9.61274 24.5475C9.6269 24.5 9.65935 24.4601 9.70296 24.4365C9.74657 24.4129 9.79776 24.4076 9.84528 24.4217C10.2661 24.5423 10.6956 24.6302 11.13 24.6848C11.8891 24.7858 12.6582 24.7858 13.4173 24.6848C13.8534 24.6296 14.2844 24.5391 14.7058 24.4141C14.7564 24.4005 14.8103 24.4074 14.8557 24.4335C14.9011 24.4596 14.9343 24.5027 14.9479 24.5533C14.9616 24.6038 14.9546 24.6577 14.9285 24.7031C14.9024 24.7485 14.8593 24.7817 14.8088 24.7953C14.369 24.9223 13.9205 25.0166 13.4669 25.0774C13.0708 25.1222 12.6723 25.1425 12.2737 25.1384Z" fill="white"/>
</g>
<defs>
<clipPath id="clip0_1933_5367">
<rect width="24.3981" height="24.3981" fill="white" transform="translate(0.0742188 0.740234)"/>
</clipPath>
</defs>
</svg>
