<svg width="32" height="32" viewBox="0 0 32 32" fill="none" xmlns="http://www.w3.org/2000/svg">
<path fill-rule="evenodd" clip-rule="evenodd" d="M31 16C31 24.2843 24.2843 31 16 31C7.71573 31 1 24.2843 1 16C1 7.71573 7.71573 1 16 1C24.2843 1 31 7.71573 31 16ZM32 16C32 24.8366 24.8366 32 16 32C7.16344 32 0 24.8366 0 16C0 7.16344 7.16344 0 16 0C24.8366 0 32 7.16344 32 16ZM16.3536 20.3536L19.5355 17.1716C19.7308 16.9763 19.7308 16.6597 19.5355 16.4645C19.3403 16.2692 19.0237 16.2692 18.8284 16.4645L16.5 18.7929V11H15.5V18.7929L13.1716 16.4645C12.9763 16.2692 12.6597 16.2692 12.4645 16.4645C12.2692 16.6597 12.2692 16.9763 12.4645 17.1716L15.6464 20.3536C15.8417 20.5488 16.1583 20.5488 16.3536 20.3536Z" fill="#4C4C4C"/>
</svg>
