<svg width="47" height="47" viewBox="0 0 47 47" fill="none" xmlns="http://www.w3.org/2000/svg">
<circle cx="23.2707" cy="23.2707" r="23.2707" fill="url(#paint0_linear_1310_11438)"/>
<path d="M31.9126 14.773C32.5213 14.773 33.0193 15.271 33.0193 15.8798V28.0542C33.0193 28.6629 32.5213 29.161 31.9126 29.161H14.7577C14.149 29.161 13.6509 28.6629 13.6509 28.0542V15.8798C13.6509 15.271 14.149 14.773 14.7577 14.773H31.9126ZM31.9126 14.0352H14.7577C13.7432 14.0352 12.9131 14.8652 12.9131 15.8798V28.0542C12.9131 29.0687 13.7432 29.8988 14.7577 29.8988H31.9126C32.9271 29.8988 33.7572 29.0687 33.7572 28.0542V15.8798C33.7572 14.8652 32.9271 14.0352 31.9126 14.0352Z" fill="white"/>
<path d="M23.4274 28.2386C23.733 28.2386 23.9808 27.9908 23.9808 27.6852C23.9808 27.3796 23.733 27.1318 23.4274 27.1318C23.1218 27.1318 22.874 27.3796 22.874 27.6852C22.874 27.9908 23.1218 28.2386 23.4274 28.2386Z" fill="white"/>
<path d="M26.84 32.2972H23.7964V30.7293C23.7964 30.5264 23.6304 30.3604 23.4274 30.3604C23.2245 30.3604 23.0585 30.5264 23.0585 30.7293V32.2972H20.0149C19.812 32.2972 19.646 32.4632 19.646 32.6661C19.646 32.869 19.812 33.035 20.0149 33.035H26.84C27.0429 33.035 27.2089 32.869 27.2089 32.6661C27.2089 32.4632 27.0429 32.2972 26.84 32.2972Z" fill="white"/>
<path d="M31.3594 16.4334V25.8409H15.3113V16.4334H31.3594ZM31.7283 16.0645H14.9424V26.2098H31.7283V16.0645Z" fill="white"/>
<defs>
<linearGradient id="paint0_linear_1310_11438" x1="54.5199" y1="-13.9624" x2="-8.6434" y2="50.5306" gradientUnits="userSpaceOnUse">
<stop stop-color="#7B1931"/>
<stop offset="1" stop-color="#E05226"/>
</linearGradient>
</defs>
</svg>
