<svg width="25" height="24" viewBox="0 0 25 24" fill="none" xmlns="http://www.w3.org/2000/svg">
<path d="M21.1557 3.42144C21.7645 3.42144 22.2625 3.91948 22.2625 4.5282V16.7026C22.2625 17.3114 21.7645 17.8094 21.1557 17.8094H4.00086C3.39214 17.8094 2.89409 17.3114 2.89409 16.7026V4.5282C2.89409 3.91948 3.39214 3.42144 4.00086 3.42144H21.1557ZM21.1557 2.68359H4.00086C2.98632 2.68359 2.15625 3.51367 2.15625 4.5282V16.7026C2.15625 17.7172 2.98632 18.5472 4.00086 18.5472H21.1557C22.1703 18.5472 23.0004 17.7172 23.0004 16.7026V4.5282C23.0004 3.51367 22.1703 2.68359 21.1557 2.68359Z" fill="white"/>
<path d="M12.6706 16.887C12.9762 16.887 13.224 16.6393 13.224 16.3337C13.224 16.028 12.9762 15.7803 12.6706 15.7803C12.3649 15.7803 12.1172 16.028 12.1172 16.3337C12.1172 16.6393 12.3649 16.887 12.6706 16.887Z" fill="white"/>
<path d="M16.0836 20.9456H13.04V19.3777C13.04 19.1748 12.874 19.0088 12.6711 19.0088C12.4682 19.0088 12.3022 19.1748 12.3022 19.3777V20.9456H9.25857C9.05566 20.9456 8.88965 21.1116 8.88965 21.3146C8.88965 21.5175 9.05566 21.6835 9.25857 21.6835H16.0836C16.2865 21.6835 16.4526 21.5175 16.4526 21.3146C16.4526 21.1116 16.2865 20.9456 16.0836 20.9456Z" fill="white"/>
<path d="M20.6026 5.08181V14.4893H4.55447V5.08181H20.6026ZM20.9715 4.71289H4.18555V14.8583H20.9715V4.71289Z" fill="white"/>
</svg>
