<svg width="21" height="21" viewBox="0 0 21 21" fill="none" xmlns="http://www.w3.org/2000/svg">
<path d="M10.5 0C4.70101 0 0 4.70101 0 10.5C0 16.299 4.70101 21 10.5 21C16.299 21 21 16.299 21 10.5C21 4.70101 16.299 0 10.5 0ZM6.72656 4.17077C6.9429 4.15802 7.13844 4.28733 7.28668 4.51684L8.72223 7.23924C8.87337 7.56184 8.78749 7.90725 8.56201 8.13774L7.90449 8.79527C7.8639 8.85089 7.8372 8.91352 7.83655 8.9824C8.08871 9.95846 8.8536 10.8588 9.52847 11.478C10.2033 12.0971 10.9286 12.9354 11.8702 13.134C11.9866 13.1664 12.1291 13.1781 12.2124 13.1007L12.9763 12.3226C13.24 12.1228 13.6215 12.0259 13.903 12.1893H13.9158L16.5062 13.7185C16.8864 13.9568 16.9258 14.4175 16.6536 14.6977L14.8695 16.4678C14.606 16.738 14.2559 16.8288 13.9159 16.8292C12.4118 16.7842 10.9906 16.0459 9.82328 15.2873C7.9072 13.8934 6.14962 12.1645 5.04621 10.0757C4.62303 9.19987 4.12591 8.08232 4.17335 7.1047C4.17758 6.73692 4.27709 6.37662 4.53609 6.13956L6.32026 4.35538C6.45925 4.23712 6.59675 4.17844 6.72656 4.17077Z" fill="white"/>
</svg>
