<svg width="42" height="42" viewBox="0 0 42 42" fill="none" xmlns="http://www.w3.org/2000/svg">
<ellipse cx="20.8624" cy="20.7381" rx="20.8624" ry="20.7381" fill="url(#paint0_linear_1596_9690)"/>
<path d="M30.3799 24.5438C30.5299 24.2475 30.4999 24.1388 30.4999 23.1863C30.4999 22.9048 30.3881 22.6349 30.1891 22.4358C29.99 22.2368 29.7201 22.125 29.4386 22.125H29.1124C32.3749 19.8337 30.7774 14.625 26.7499 14.625C26.0537 14.6247 25.3687 14.8007 24.7588 15.1365C24.1489 15.4723 23.6339 15.957 23.2619 16.5454C22.8898 17.1339 22.6727 17.807 22.6308 18.5019C22.5889 19.1969 22.7236 19.8911 23.0224 20.52C23.9336 22.4437 25.4186 22.125 23.3111 22.125C23.0297 22.125 22.7597 22.2368 22.5607 22.4358C22.3617 22.6349 22.2499 22.9048 22.2499 23.1863C22.2499 23.9363 22.1299 24.5662 22.7449 24.9562C22.6671 25.1044 22.6259 25.269 22.6249 25.4363C22.6249 26.3625 22.6249 26.4038 22.6774 26.625C22.5331 26.6125 22.3878 26.629 22.25 26.6734C22.1122 26.7179 21.9847 26.7894 21.8749 26.8837C21.7651 26.7894 21.6375 26.7179 21.4997 26.6734C21.3619 26.629 21.2166 26.6125 21.0724 26.625C21.1399 26.4038 21.1249 26.3888 21.1249 25.4363C21.1238 25.269 21.0827 25.1044 21.0049 24.9562C21.6199 24.5812 21.4999 23.9475 21.4999 23.1863C21.4999 22.9048 21.3881 22.6349 21.1891 22.4358C20.99 22.2368 20.7201 22.125 20.4386 22.125C20.2249 22.125 20.3749 22.1737 20.3749 21.8137C20.3749 20.8687 20.3749 20.8275 20.3149 20.5912C20.5453 20.5351 20.7503 20.4034 20.8971 20.2172C21.0439 20.0309 21.1241 19.8009 21.1249 19.5638V18.6862C21.1249 18.4048 21.0131 18.1349 20.8141 17.9358C20.615 17.7368 20.3451 17.625 20.0636 17.625H19.3624C22.6699 15.315 21.0161 10.125 16.9999 10.125C16.3037 10.1247 15.6187 10.3007 15.0088 10.6365C14.3989 10.9723 13.8839 11.457 13.5119 12.0454C13.1398 12.6339 12.9227 13.307 12.8808 14.0019C12.8389 14.6969 12.9736 15.3911 13.2724 16.02C14.1424 17.8538 15.4624 17.625 13.9361 17.625C13.6547 17.625 13.3847 17.7368 13.1857 17.9358C12.9867 18.1349 12.8749 18.4048 12.8749 18.6862C12.8749 19.6312 12.8561 19.6725 12.9349 19.9088C12.7045 19.9649 12.4995 20.0966 12.3527 20.2828C12.2059 20.4691 12.1257 20.6991 12.1249 20.9362V21.8137C12.1252 21.9631 12.1567 22.1107 12.2176 22.2472C12.2784 22.3836 12.3672 22.5057 12.4781 22.6057C12.5891 22.7057 12.7197 22.7813 12.8617 22.8277C13.0037 22.8741 13.1538 22.8902 13.3024 22.875C12.6445 22.8861 11.9985 23.0525 11.4172 23.3608C10.8359 23.669 10.3357 24.1104 9.95738 24.6487C9.90672 24.7304 9.88932 24.8284 9.90878 24.9225C9.92824 25.0165 9.98307 25.0996 10.062 25.1544C10.1409 25.2093 10.2378 25.2317 10.3328 25.2172C10.4277 25.2026 10.5135 25.1522 10.5724 25.0762C11.0079 24.4482 11.6437 23.9865 12.3758 23.7669C13.1078 23.5472 13.8928 23.5825 14.6021 23.867C15.3115 24.1515 15.9033 24.6683 16.2807 25.333C16.6581 25.9976 16.7987 26.7706 16.6796 27.5256C16.5604 28.2806 16.1885 28.9727 15.6248 29.4888C15.0611 30.0049 14.3388 30.3144 13.5763 30.3666C12.8138 30.4188 12.0562 30.2106 11.4273 29.7762C10.7985 29.3417 10.3358 28.7067 10.1149 27.975C10.087 27.8795 10.0224 27.799 9.9352 27.7512C9.84799 27.7034 9.74536 27.6922 9.64988 27.72C9.55441 27.7478 9.4739 27.8125 9.42608 27.8997C9.37826 27.9869 9.36704 28.0895 9.39488 28.185C9.66343 29.091 10.2349 29.8774 11.0138 30.4125C11.7926 30.9477 12.7316 31.1992 13.6736 31.125C13.7391 31.3424 13.873 31.5329 14.0554 31.668C14.2379 31.8031 14.4591 31.8757 14.6861 31.875H20.8136C21.0951 31.875 21.365 31.7632 21.5641 31.5642C21.7631 31.3651 21.8749 31.0952 21.8749 30.8137C21.8749 29.9062 21.9086 29.76 21.7549 29.4562C21.7973 29.4296 21.8374 29.3995 21.8749 29.3663C22.0654 29.5316 22.3088 29.6234 22.5611 29.625C22.7749 29.625 22.6249 29.5763 22.6249 29.9363V30.8137C22.6249 31.0952 22.7367 31.3651 22.9357 31.5642C23.1347 31.7632 23.4047 31.875 23.6861 31.875H29.8136C30.0951 31.875 30.365 31.7632 30.5641 31.5642C30.7631 31.3651 30.8749 31.0952 30.8749 30.8137V29.9363C30.8749 29.6548 30.7631 29.3849 30.5641 29.1858C30.365 28.9868 30.0951 28.875 29.8136 28.875C29.5999 28.875 29.7499 28.9237 29.7499 28.5637C29.7499 27.6375 29.7499 27.5962 29.6974 27.375C29.8459 27.3896 29.9957 27.3731 30.1375 27.3265C30.2792 27.2799 30.4096 27.2042 30.5204 27.1043C30.6312 27.0045 30.72 26.8826 30.781 26.7464C30.8421 26.6103 30.874 26.4629 30.8749 26.3137C30.8749 25.5487 30.9949 24.9338 30.3799 24.5438ZM23.7011 20.1975C23.4314 19.6118 23.3302 18.9625 23.4086 18.3225C23.9186 14.715 28.7936 14.3663 29.9299 17.625C30.209 18.4382 30.1672 19.3273 29.8131 20.1107C29.459 20.8942 28.8192 21.5129 28.0244 21.8407C27.2296 22.1685 26.3396 22.1806 25.5362 21.8745C24.7327 21.5685 24.0764 20.9673 23.7011 20.1938V20.1975ZM22.9999 23.1975C22.9999 23.115 23.0327 23.0358 23.091 22.9774C23.1494 22.919 23.2286 22.8862 23.3111 22.8862H29.4386C29.5212 22.8862 29.6004 22.919 29.6587 22.9774C29.7171 23.0358 29.7499 23.115 29.7499 23.1975V24.075C29.7499 24.1575 29.7171 24.2367 29.6587 24.2951C29.6004 24.3535 29.5212 24.3862 29.4386 24.3862H23.3111C23.2286 24.3862 23.1494 24.3535 23.091 24.2951C23.0327 24.2367 22.9999 24.1575 22.9999 24.075V23.1975ZM21.4999 27.6975V28.575C21.4999 28.6575 21.4671 28.7367 21.4087 28.7951C21.3504 28.8535 21.2712 28.8862 21.1886 28.8862H16.9999C17.2288 28.4485 17.3725 27.9713 17.4236 27.48C17.4236 27.3412 17.0224 27.3862 21.1736 27.3862C21.2148 27.3842 21.256 27.3904 21.2948 27.4045C21.3335 27.4185 21.3691 27.4401 21.3995 27.468C21.4299 27.4959 21.4544 27.5296 21.4716 27.5671C21.4888 27.6045 21.4984 27.645 21.4999 27.6863V27.6975ZM17.4499 26.625C17.397 26.1009 17.2443 25.5917 16.9999 25.125H20.0486C20.1312 25.125 20.2104 25.1578 20.2687 25.2162C20.3271 25.2745 20.3599 25.3537 20.3599 25.4363V26.3137C20.3599 26.3963 20.3271 26.4755 20.2687 26.5338C20.2104 26.5922 20.1312 26.625 20.0486 26.625H17.4499ZM13.9511 15.6975C13.6814 15.1118 13.5802 14.4625 13.6586 13.8225C14.1686 10.215 19.0436 9.86625 20.1799 13.125C20.459 13.9382 20.4172 14.8273 20.0631 15.6107C19.709 16.3942 19.0692 17.0129 18.2744 17.3407C17.4796 17.6685 16.5896 17.6806 15.7862 17.3745C14.9827 17.0685 14.3264 16.4673 13.9511 15.6938V15.6975ZM13.6249 18.6975C13.6249 18.615 13.6577 18.5358 13.716 18.4774C13.7744 18.419 13.8536 18.3863 13.9361 18.3863H20.0636C20.1462 18.3863 20.2253 18.419 20.2837 18.4774C20.3421 18.5358 20.3749 18.615 20.3749 18.6975V19.575C20.3749 19.6575 20.3421 19.7367 20.2837 19.7951C20.2253 19.8535 20.1462 19.8863 20.0636 19.8863H13.9361C13.8536 19.8863 13.7744 19.8535 13.716 19.7951C13.6577 19.7367 13.6249 19.6575 13.6249 19.575V18.6975ZM12.8749 21.825V20.9362C12.8749 20.8537 12.9077 20.7745 12.966 20.7162C13.0244 20.6578 13.1036 20.625 13.1861 20.625H19.3136C19.3962 20.625 19.4754 20.6578 19.5337 20.7162C19.5921 20.7745 19.6249 20.8537 19.6249 20.9362V21.8137C19.6249 21.8963 19.5921 21.9755 19.5337 22.0338C19.4754 22.0922 19.3962 22.125 19.3136 22.125H13.1861C13.1036 22.125 13.0244 22.0922 12.966 22.0338C12.9077 21.9755 12.8749 21.8963 12.8749 21.8137V21.825ZM14.1161 22.95C14.2511 22.8375 13.8386 22.875 20.4386 22.875C20.5212 22.875 20.6003 22.9078 20.6587 22.9662C20.7171 23.0245 20.7499 23.1037 20.7499 23.1863V24.0637C20.7499 24.1463 20.7171 24.2255 20.6587 24.2838C20.6003 24.3422 20.5212 24.375 20.4386 24.375H16.5236C15.9116 23.6341 15.0601 23.1301 14.1161 22.95V22.95ZM21.1249 30.8137C21.1249 30.8963 21.0921 30.9755 21.0337 31.0338C20.9754 31.0922 20.8962 31.125 20.8136 31.125C14.1611 31.125 14.5624 31.1887 14.4386 30.975C15.2538 30.7477 15.98 30.2766 16.5199 29.625H20.8136C20.8962 29.625 20.9754 29.6578 21.0337 29.7162C21.0921 29.7745 21.1249 29.8537 21.1249 29.9363V30.8137ZM30.1249 29.9363V30.8137C30.1249 30.8963 30.0921 30.9755 30.0337 31.0338C29.9754 31.0922 29.8962 31.125 29.8136 31.125H23.6861C23.6036 31.125 23.5244 31.0922 23.466 31.0338C23.4077 30.9755 23.3749 30.8963 23.3749 30.8137V29.9363C23.3749 29.8537 23.4077 29.7745 23.466 29.7162C23.5244 29.6578 23.6036 29.625 23.6861 29.625H29.8136C29.8962 29.625 29.9754 29.6578 30.0337 29.7162C30.0921 29.7745 30.1249 29.8537 30.1249 29.9363V29.9363ZM28.9999 27.6863V28.5637C28.9999 28.6463 28.9671 28.7255 28.9087 28.7838C28.8504 28.8422 28.7712 28.875 28.6886 28.875H22.5611C22.4789 28.874 22.4003 28.8409 22.3421 28.7828C22.284 28.7246 22.2509 28.646 22.2499 28.5637V27.6863C22.2499 27.6037 22.2827 27.5245 22.341 27.4662C22.3994 27.4078 22.4786 27.375 22.5611 27.375H28.6886C28.7712 27.375 28.8504 27.4078 28.9087 27.4662C28.9671 27.5245 28.9999 27.6037 28.9999 27.6863V27.6863ZM30.1249 26.3137C30.1249 26.3963 30.0921 26.4755 30.0337 26.5338C29.9754 26.5922 29.8962 26.625 29.8136 26.625H23.6861C23.6036 26.625 23.5244 26.5922 23.466 26.5338C23.4077 26.4755 23.3749 26.3963 23.3749 26.3137V25.4363C23.3749 25.3537 23.4077 25.2745 23.466 25.2162C23.5244 25.1578 23.6036 25.125 23.6861 25.125H29.8136C29.8962 25.125 29.9754 25.1578 30.0337 25.2162C30.0921 25.2745 30.1249 25.3537 30.1249 25.4363V26.3137Z" fill="white" stroke="#AA332B" stroke-width="0.2"/>
<path d="M13.4375 27.75H12.5C12.4005 27.75 12.3051 27.7895 12.2348 27.8598C12.1645 27.9302 12.125 28.0255 12.125 28.125C12.125 28.2245 12.1645 28.3198 12.2348 28.3902C12.3051 28.4605 12.4005 28.5 12.5 28.5H12.875V28.875C12.875 28.9745 12.9145 29.0698 12.9848 29.1402C13.0551 29.2105 13.1505 29.25 13.25 29.25C13.3494 29.25 13.4448 29.2105 13.5151 29.1402C13.5855 29.0698 13.625 28.9745 13.625 28.875V28.5C13.8736 28.4751 14.1022 28.3525 14.2604 28.1591C14.4186 27.9657 14.4936 27.7174 14.4687 27.4688C14.4438 27.2201 14.3212 26.9915 14.1278 26.8333C13.9344 26.6751 13.6861 26.6001 13.4375 26.625C13.19 26.625 12.875 26.685 12.875 26.4375C12.875 26.3878 12.8947 26.3401 12.9299 26.3049C12.965 26.2698 13.0127 26.25 13.0625 26.25H14C14.0994 26.25 14.1948 26.2105 14.2651 26.1402C14.3355 26.0698 14.375 25.9745 14.375 25.875C14.375 25.7755 14.3355 25.6802 14.2651 25.6098C14.1948 25.5395 14.0994 25.5 14 25.5H13.625V25.125C13.625 25.0255 13.5855 24.9302 13.5151 24.8598C13.4448 24.7895 13.3494 24.75 13.25 24.75C13.1505 24.75 13.0551 24.7895 12.9848 24.8598C12.9145 24.9302 12.875 25.0255 12.875 25.125V25.5C12.6263 25.5249 12.3977 25.6475 12.2395 25.8409C12.0813 26.0343 12.0063 26.2826 12.0312 26.5312C12.0561 26.7799 12.1787 27.0085 12.3721 27.1667C12.5655 27.3249 12.8138 27.3999 13.0625 27.375H13.4375C13.4872 27.375 13.5349 27.3948 13.57 27.4299C13.6052 27.4651 13.625 27.5128 13.625 27.5625C13.625 27.6122 13.6052 27.6599 13.57 27.6951C13.5349 27.7302 13.4872 27.75 13.4375 27.75ZM9.99496 26.625C10.0013 26.5175 10.0176 26.4108 10.0437 26.3063C10.0633 26.2113 10.0454 26.1125 9.99375 26.0304C9.94207 25.9484 9.86064 25.8896 9.76654 25.8663C9.67244 25.843 9.57297 25.8571 9.48901 25.9056C9.40505 25.954 9.34312 26.0331 9.31621 26.1262C9.27798 26.2902 9.2529 26.457 9.24121 26.625C9.24121 26.725 9.28092 26.8208 9.3516 26.8915C9.42227 26.9622 9.51813 27.0019 9.61809 27.0019C9.71804 27.0019 9.8139 26.9622 9.88458 26.8915C9.95525 26.8208 9.99496 26.725 9.99496 26.625ZM16.8125 13.5H17.75C17.8494 13.5 17.9448 13.4605 18.0151 13.3902C18.0855 13.3198 18.125 13.2245 18.125 13.125C18.125 13.0255 18.0855 12.9302 18.0151 12.8598C17.9448 12.7895 17.8494 12.75 17.75 12.75H17.375V12.375C17.375 12.2755 17.3355 12.1802 17.2651 12.1098C17.1948 12.0395 17.0994 12 17 12C16.9005 12 16.8051 12.0395 16.7348 12.1098C16.6645 12.1802 16.625 12.2755 16.625 12.375V12.7688C16.3971 12.815 16.1946 12.9443 16.0567 13.1315C15.9188 13.3187 15.8554 13.5504 15.8788 13.7817C15.9021 14.013 16.0106 14.2274 16.1831 14.3832C16.3557 14.5391 16.58 14.6252 16.8125 14.625C17.06 14.625 17.375 14.565 17.375 14.8125C17.375 14.8622 17.3552 14.9099 17.32 14.9451C17.2849 14.9802 17.2372 15 17.1875 15H16.25C16.1505 15 16.0551 15.0395 15.9848 15.1098C15.9145 15.1802 15.875 15.2755 15.875 15.375C15.875 15.4745 15.9145 15.5698 15.9848 15.6402C16.0551 15.7105 16.1505 15.75 16.25 15.75H16.625V16.125C16.625 16.2245 16.6645 16.3198 16.7348 16.3902C16.8051 16.4605 16.9005 16.5 17 16.5C17.0994 16.5 17.1948 16.4605 17.2651 16.3902C17.3355 16.3198 17.375 16.2245 17.375 16.125V15.75C17.6236 15.7251 17.8522 15.6025 18.0104 15.4091C18.1686 15.2157 18.2436 14.9674 18.2187 14.7188C18.1938 14.4701 18.0712 14.2415 17.8778 14.0833C17.6844 13.9251 17.4361 13.8501 17.1875 13.875H16.8125C16.7627 13.875 16.715 13.8552 16.6799 13.8201C16.6447 13.7849 16.625 13.7372 16.625 13.6875C16.625 13.6378 16.6447 13.5901 16.6799 13.5549C16.715 13.5198 16.7627 13.5 16.8125 13.5ZM26.5625 18H27.5C27.5994 18 27.6948 17.9605 27.7651 17.8902C27.8355 17.8198 27.875 17.7245 27.875 17.625C27.875 17.5255 27.8355 17.4302 27.7651 17.3598C27.6948 17.2895 27.5994 17.25 27.5 17.25H27.125V16.875C27.125 16.7755 27.0855 16.6802 27.0151 16.6098C26.9448 16.5395 26.8494 16.5 26.75 16.5C26.6505 16.5 26.5551 16.5395 26.4848 16.6098C26.4145 16.6802 26.375 16.7755 26.375 16.875V17.2687C26.1471 17.315 25.9446 17.4443 25.8067 17.6315C25.6688 17.8187 25.6054 18.0504 25.6288 18.2817C25.6521 18.513 25.7606 18.7274 25.9331 18.8832C26.1057 19.0391 26.33 19.1252 26.5625 19.125C26.81 19.125 27.125 19.065 27.125 19.3125C27.125 19.3622 27.1052 19.4099 27.07 19.4451C27.0349 19.4802 26.9872 19.5 26.9375 19.5H26C25.9005 19.5 25.8051 19.5395 25.7348 19.6098C25.6645 19.6802 25.625 19.7755 25.625 19.875C25.625 19.9745 25.6645 20.0698 25.7348 20.1402C25.8051 20.2105 25.9005 20.25 26 20.25H26.375V20.625C26.375 20.7245 26.4145 20.8198 26.4848 20.8902C26.5551 20.9605 26.6505 21 26.75 21C26.8494 21 26.9448 20.9605 27.0151 20.8902C27.0855 20.8198 27.125 20.7245 27.125 20.625V20.25C27.3736 20.2251 27.6022 20.1025 27.7604 19.9091C27.9186 19.7157 27.9936 19.4674 27.9687 19.2188C27.9438 18.9701 27.8212 18.7415 27.6278 18.5833C27.4344 18.4251 27.1861 18.3501 26.9375 18.375H26.5625C26.5127 18.375 26.465 18.3552 26.4299 18.3201C26.3947 18.2849 26.375 18.2372 26.375 18.1875C26.375 18.1378 26.3947 18.0901 26.4299 18.0549C26.465 18.0198 26.5127 18 26.5625 18Z" fill="white"/>
<defs>
<linearGradient id="paint0_linear_1596_9690" x1="48.8777" y1="-12.4429" x2="-7.40348" y2="45.3676" gradientUnits="userSpaceOnUse">
<stop stop-color="#7B1931"/>
<stop offset="1" stop-color="#E05226"/>
</linearGradient>
</defs>
</svg>
