<svg width="42" height="42" viewBox="0 0 42 42" fill="none" xmlns="http://www.w3.org/2000/svg">
<circle cx="20.5963" cy="20.5963" r="20.5963" fill="url(#paint0_linear_1596_9676)"/>
<path d="M20.5 17.0002V16.5002H19.5V15.5002H21.5V15.0002H20C19.8674 15.0002 19.7402 14.9475 19.6464 14.8537C19.5527 14.76 19.5 14.6328 19.5 14.5002V13.0002C19.5 12.8676 19.5527 12.7404 19.6464 12.6466C19.7402 12.5529 19.8674 12.5002 20 12.5002H20.5V12.0002H21.5V12.5002H22.5V13.5002H20.5V14.0002H22C22.1326 14.0002 22.2598 14.0529 22.3536 14.1466C22.4473 14.2404 22.5 14.3676 22.5 14.5002V16.0002C22.5 16.1328 22.4473 16.26 22.3536 16.3537C22.2598 16.4475 22.1326 16.5002 22 16.5002H21.5V17.0002H20.5ZM27 24.5002V26.5002C27 26.6328 26.9473 26.76 26.8536 26.8537C26.7598 26.9475 26.6326 27.0002 26.5 27.0002H25.955L25.585 30.6502C25.5477 31.0215 25.3733 31.3655 25.096 31.6151C24.8186 31.8648 24.4582 32.0021 24.085 32.0002H17.905C17.5318 32.0021 17.1714 31.8648 16.894 31.6151C16.6167 31.3655 16.4423 31.0215 16.405 30.6502L16.045 27.0002H15.5C15.3674 27.0002 15.2402 26.9475 15.1464 26.8537C15.0527 26.76 15 26.6328 15 26.5002V24.5002C15 24.3676 15.0527 24.2404 15.1464 24.1466C15.2402 24.0529 15.3674 24.0002 15.5 24.0002H20.5V23.8402C19.386 23.4255 18.3511 22.8235 17.44 22.0602C16.395 21.0202 15.565 18.7652 15.53 18.6702C15.4978 18.5809 15.4917 18.4843 15.5123 18.3916C15.533 18.2989 15.5797 18.2141 15.6468 18.147C15.7139 18.0798 15.7988 18.0332 15.8914 18.0125C15.9841 17.9918 16.0807 17.998 16.17 18.0302C16.265 18.0652 18.52 18.8952 19.56 19.9402C19.9283 20.331 20.2443 20.768 20.5 21.2402V18.9702C19.357 18.8424 18.3063 18.2818 17.5637 17.4035C16.8211 16.5253 16.443 15.396 16.507 14.2477C16.571 13.0993 17.0722 12.0191 17.9078 11.2287C18.7434 10.4384 19.8499 9.99805 21 9.99805C22.1501 9.99805 23.2566 10.4384 24.0922 11.2287C24.9278 12.0191 25.429 13.0993 25.493 14.2477C25.557 15.396 25.1789 16.5253 24.4363 17.4035C23.6937 18.2818 22.643 18.8424 21.5 18.9702V21.2402C21.7557 20.768 22.0717 20.331 22.44 19.9402C23.48 18.8952 25.735 18.0652 25.83 18.0302C25.9193 17.998 26.0159 17.9918 26.1086 18.0125C26.2012 18.0332 26.2861 18.0798 26.3532 18.147C26.4203 18.2141 26.467 18.2989 26.4877 18.3916C26.5083 18.4843 26.5022 18.5809 26.47 18.6702C26.435 18.7652 25.605 21.0202 24.56 22.0602C23.6489 22.8235 22.614 23.4255 21.5 23.8402V24.0002H26.5C26.6326 24.0002 26.7598 24.0529 26.8536 24.1466C26.9473 24.2404 27 24.3676 27 24.5002ZM21.945 22.5552C22.64 22.2565 23.2843 21.8517 23.855 21.3552C24.349 20.7827 24.7536 20.1387 25.055 19.4452C24.36 19.7439 23.7157 20.1487 23.145 20.6452C22.651 21.2177 22.2464 21.8617 21.945 22.5552V22.5552ZM20.055 22.5552C19.7563 21.8602 19.3515 21.2159 18.855 20.6452C18.2843 20.1487 17.64 19.7439 16.945 19.4452C17.2437 20.1401 17.6485 20.7845 18.145 21.3552C18.7157 21.8517 19.36 22.2565 20.055 22.5552V22.5552ZM21 18.0002C21.6922 18.0002 22.3689 17.7949 22.9445 17.4103C23.5201 17.0257 23.9687 16.4791 24.2336 15.8396C24.4985 15.2 24.5678 14.4963 24.4327 13.8174C24.2977 13.1384 23.9644 12.5148 23.4749 12.0253C22.9854 11.5358 22.3618 11.2025 21.6828 11.0674C21.0039 10.9324 20.3001 11.0017 19.6606 11.2666C19.0211 11.5315 18.4744 11.9801 18.0899 12.5557C17.7053 13.1313 17.5 13.8079 17.5 14.5002C17.5 15.4284 17.8687 16.3187 18.5251 16.9751C19.1815 17.6314 20.0717 18.0002 21 18.0002ZM24.945 27.0002H17.055L17.41 30.5502C17.4224 30.6739 17.4806 30.7886 17.573 30.8718C17.6655 30.955 17.7856 31.0008 17.91 31.0002H24.095C24.2194 31.0008 24.3395 30.955 24.432 30.8718C24.5244 30.7886 24.5826 30.6739 24.595 30.5502L24.945 27.0002ZM26 25.0002H16V26.0002H26V25.0002Z" fill="white" stroke="#AA332B" stroke-width="0.3"/>
<defs>
<linearGradient id="paint0_linear_1596_9676" x1="48.2542" y1="-12.3578" x2="-7.65006" y2="44.7234" gradientUnits="userSpaceOnUse">
<stop stop-color="#7B1931"/>
<stop offset="1" stop-color="#E05226"/>
</linearGradient>
</defs>
</svg>
