<svg width="11" height="15" viewBox="0 0 11 15" fill="none" xmlns="http://www.w3.org/2000/svg">
<path d="M1.94 15V0.719999H5.7C7.44667 0.719999 8.74 1.07333 9.58 1.78C10.4333 2.48667 10.86 3.51333 10.86 4.86C10.86 5.76667 10.6533 6.54667 10.24 7.2C9.82667 7.84 9.21333 8.33333 8.4 8.68C7.6 9.02667 6.60667 9.2 5.42 9.2H3.74V15H1.94ZM0.2 12.28V10.98H7.04V12.28H0.2ZM0.2 9.2V7.68H4.78V9.2H0.2ZM5.16 7.68C5.97333 7.68 6.66 7.59333 7.22 7.42C7.79333 7.24667 8.23333 6.96 8.54 6.56C8.84667 6.16 9 5.61333 9 4.92C9 4.01333 8.72 3.34 8.16 2.9C7.6 2.46 6.72667 2.24 5.54 2.24H3.74V7.68H5.16Z" fill="#00A3E0"/>
</svg>
