<svg width="42" height="42" viewBox="0 0 42 42" fill="none" xmlns="http://www.w3.org/2000/svg">
<circle cx="20.5963" cy="20.5963" r="20.5963" fill="url(#paint0_linear_1596_9672)"/>
<path d="M29.9517 21.9924H17.9517C17.5539 21.9924 17.1724 22.1504 16.8911 22.4317C16.6098 22.7131 16.4517 23.0946 16.4517 23.4924V26.1174H14.2017C12.7542 26.1174 11.5767 24.8349 11.5767 23.2562C11.5767 22.0112 11.5017 22.7424 11.9517 22.7424C12.0262 22.7428 12.0991 22.7211 12.1612 22.6799C12.2233 22.6387 12.2717 22.58 12.3002 22.5112C12.3288 22.4424 12.3362 22.3667 12.3216 22.2937C12.3069 22.2206 12.2709 22.1536 12.218 22.1012L11.468 21.3512C11.4331 21.316 11.3916 21.2881 11.3459 21.2691C11.3002 21.25 11.2512 21.2402 11.2017 21.2402C11.1522 21.2402 11.1032 21.25 11.0575 21.2691C11.0118 21.2881 10.9703 21.316 10.9355 21.3512L10.1855 22.1012C10.1149 22.1718 10.0752 22.2675 10.0752 22.3674C10.0752 22.4673 10.1149 22.563 10.1855 22.6337C10.2561 22.7043 10.3519 22.7439 10.4517 22.7439C10.5516 22.7439 10.6474 22.7043 10.718 22.6337L10.8267 22.5212V23.2712C10.8267 25.2474 12.3267 26.8674 14.2017 26.8674H16.4517V29.4924C16.4517 29.8902 16.6098 30.2718 16.8911 30.5531C17.1724 30.8344 17.5539 30.9924 17.9517 30.9924H29.9517C30.3496 30.9924 30.7311 30.8344 31.0124 30.5531C31.2937 30.2718 31.4517 29.8902 31.4517 29.4924V23.4924C31.4517 23.0946 31.2937 22.7131 31.0124 22.4317C30.7311 22.1504 30.3496 21.9924 29.9517 21.9924ZM30.7017 29.4924C30.7017 29.6913 30.6227 29.8821 30.4821 30.0227C30.3414 30.1634 30.1506 30.2424 29.9517 30.2424H17.9517C17.7528 30.2424 17.5621 30.1634 17.4214 30.0227C17.2807 29.8821 17.2017 29.6913 17.2017 29.4924V23.4924C17.2017 23.2935 17.2807 23.1027 17.4214 22.9621C17.5621 22.8214 17.7528 22.7424 17.9517 22.7424H29.9517C30.1506 22.7424 30.3414 22.8214 30.4821 22.9621C30.6227 23.1027 30.7017 23.2935 30.7017 23.4924V29.4924Z" fill="white"/>
<path d="M23.9521 24.6172C23.5813 24.6172 23.2188 24.7272 22.9105 24.9332C22.6021 25.1392 22.3618 25.432 22.2199 25.7747C22.078 26.1173 22.0408 26.4943 22.1132 26.858C22.1855 27.2217 22.3641 27.5558 22.6263 27.818C22.8885 28.0802 23.2226 28.2588 23.5864 28.3312C23.9501 28.4035 24.3271 28.3664 24.6697 28.2245C25.0123 28.0825 25.3051 27.8422 25.5112 27.5339C25.7172 27.2255 25.8271 26.863 25.8271 26.4922C25.8271 25.9949 25.6296 25.518 25.278 25.1664C24.9263 24.8147 24.4494 24.6172 23.9521 24.6172V24.6172ZM23.9521 27.6172C23.7296 27.6172 23.5121 27.5512 23.3271 27.4276C23.1421 27.304 22.9979 27.1283 22.9128 26.9227C22.8276 26.7171 22.8054 26.4909 22.8488 26.2727C22.8922 26.0545 22.9993 25.854 23.1567 25.6967C23.314 25.5394 23.5144 25.4322 23.7327 25.3888C23.9509 25.3454 24.1771 25.3677 24.3827 25.4528C24.5882 25.538 24.7639 25.6822 24.8876 25.8672C25.0112 26.0522 25.0771 26.2697 25.0771 26.4922C25.0771 26.7906 24.9586 27.0767 24.7476 27.2877C24.5367 27.4987 24.2505 27.6172 23.9521 27.6172ZM28.4521 25.3672C28.2296 25.3672 28.0121 25.4332 27.8271 25.5568C27.6421 25.6804 27.4979 25.8561 27.4128 26.0617C27.3276 26.2672 27.3054 26.4934 27.3488 26.7117C27.3922 26.9299 27.4993 27.1303 27.6567 27.2877C27.814 27.445 28.0144 27.5522 28.2327 27.5956C28.4509 27.639 28.6771 27.6167 28.8827 27.5316C29.0882 27.4464 29.2639 27.3022 29.3876 27.1172C29.5112 26.9322 29.5771 26.7147 29.5771 26.4922C29.5771 26.1938 29.4586 25.9077 29.2476 25.6967C29.0367 25.4857 28.7505 25.3672 28.4521 25.3672V25.3672ZM28.4521 26.8672C28.3527 26.8672 28.2573 26.8277 28.187 26.7574C28.1167 26.687 28.0771 26.5916 28.0771 26.4922C28.0771 26.3927 28.1167 26.2973 28.187 26.227C28.2573 26.1567 28.3527 26.1172 28.4521 26.1172C28.5516 26.1172 28.647 26.1567 28.7173 26.227C28.7876 26.2973 28.8271 26.3927 28.8271 26.4922C28.8271 26.5916 28.7876 26.687 28.7173 26.7574C28.647 26.8277 28.5516 26.8672 28.4521 26.8672ZM19.4521 25.3672C19.2296 25.3672 19.0121 25.4332 18.8271 25.5568C18.6421 25.6804 18.4979 25.8561 18.4128 26.0617C18.3276 26.2672 18.3054 26.4934 18.3488 26.7117C18.3922 26.9299 18.4993 27.1303 18.6567 27.2877C18.814 27.445 19.0144 27.5522 19.2327 27.5956C19.4509 27.639 19.6771 27.6167 19.8827 27.5316C20.0882 27.4464 20.2639 27.3022 20.3876 27.1172C20.5112 26.9322 20.5771 26.7147 20.5771 26.4922C20.5771 26.1938 20.4586 25.9077 20.2476 25.6967C20.0367 25.4857 19.7505 25.3672 19.4521 25.3672ZM19.4521 26.8672C19.3527 26.8672 19.2573 26.8277 19.187 26.7574C19.1167 26.687 19.0771 26.5916 19.0771 26.4922C19.0771 26.3927 19.1167 26.2973 19.187 26.227C19.2573 26.1567 19.3527 26.1172 19.4521 26.1172C19.5516 26.1172 19.647 26.1567 19.7173 26.227C19.7876 26.2973 19.8271 26.3927 19.8271 26.4922C19.8271 26.5916 19.7876 26.687 19.7173 26.7574C19.647 26.8277 19.5516 26.8672 19.4521 26.8672ZM10.4521 13.3672V12.9922C10.4521 12.8927 10.4126 12.7973 10.3423 12.727C10.272 12.6567 10.1766 12.6172 10.0771 12.6172C9.97769 12.6172 9.88231 12.6567 9.81198 12.727C9.74166 12.7973 9.70215 12.8927 9.70215 12.9922V13.3672C9.70215 13.4666 9.74166 13.562 9.81198 13.6324C9.88231 13.7027 9.97769 13.7422 10.0771 13.7422C10.1766 13.7422 10.272 13.7027 10.3423 13.6324C10.4126 13.562 10.4521 13.4666 10.4521 13.3672Z" fill="white"/>
<path d="M11.2021 20.4922H19.4521C19.85 20.4922 20.2315 20.3342 20.5128 20.0528C20.7941 19.7715 20.9521 19.39 20.9521 18.9922V15.2422H22.8271C24.2746 15.2422 25.4521 16.5247 25.4521 18.1034V18.8534L25.3434 18.7409C25.2728 18.6703 25.177 18.6307 25.0771 18.6307C24.9773 18.6307 24.8815 18.6703 24.8109 18.7409C24.7403 18.8116 24.7006 18.9073 24.7006 19.0072C24.7006 19.1071 24.7403 19.2028 24.8109 19.2734L25.5609 20.0234C25.5958 20.0586 25.6372 20.0865 25.6829 20.1055C25.7286 20.1246 25.7776 20.1344 25.8271 20.1344C25.8767 20.1344 25.9257 20.1246 25.9714 20.1055C26.0171 20.0865 26.0585 20.0586 26.0934 20.0234L26.8434 19.2734C26.8784 19.2385 26.9061 19.197 26.925 19.1513C26.9439 19.1056 26.9537 19.0566 26.9537 19.0072C26.9537 18.9577 26.9439 18.9088 26.925 18.8631C26.9061 18.8174 26.8784 18.7759 26.8434 18.7409C26.8084 18.706 26.7669 18.6782 26.7212 18.6593C26.6756 18.6404 26.6266 18.6307 26.5771 18.6307C26.5277 18.6307 26.4787 18.6404 26.4331 18.6593C26.3874 18.6782 26.3459 18.706 26.3109 18.7409L26.2021 18.8534V18.1034C26.2021 16.1122 24.7021 14.4922 22.8271 14.4922H20.9521V10.7422C20.9521 10.3444 20.7941 9.96283 20.5128 9.68153C20.2315 9.40022 19.85 9.24219 19.4521 9.24219H11.2021C10.8043 9.24219 10.4228 9.40022 10.1415 9.68153C9.86018 9.96283 9.70215 10.3444 9.70215 10.7422V11.4922C9.70215 11.5916 9.74166 11.687 9.81198 11.7574C9.88231 11.8277 9.97769 11.8672 10.0771 11.8672C10.1766 11.8672 10.272 11.8277 10.3423 11.7574C10.4126 11.687 10.4521 11.5916 10.4521 11.4922V10.7422C10.4521 10.5433 10.5312 10.3525 10.6718 10.2119C10.8125 10.0712 11.0032 9.99219 11.2021 9.99219H13.8271V12.6172C13.8271 12.7166 13.8667 12.812 13.937 12.8824C14.0073 12.9527 14.1027 12.9922 14.2021 12.9922H16.4521C16.5516 12.9922 16.647 12.9527 16.7173 12.8824C16.7876 12.812 16.8271 12.7166 16.8271 12.6172V9.99219H19.4521C19.6511 9.99219 19.8418 10.0712 19.9825 10.2119C20.1231 10.3525 20.2021 10.5433 20.2021 10.7422V18.9922C20.2021 19.1911 20.1231 19.3819 19.9825 19.5225C19.8418 19.6632 19.6511 19.7422 19.4521 19.7422H11.2021C11.0032 19.7422 10.8125 19.6632 10.6718 19.5225C10.5312 19.3819 10.4521 19.1911 10.4521 18.9922V14.8672C10.4521 14.7677 10.4126 14.6723 10.3423 14.602C10.272 14.5317 10.1766 14.4922 10.0771 14.4922C9.97769 14.4922 9.88231 14.5317 9.81198 14.602C9.74166 14.6723 9.70215 14.7677 9.70215 14.8672V18.9922C9.70215 19.39 9.86018 19.7715 10.1415 20.0528C10.4228 20.3342 10.8043 20.4922 11.2021 20.4922ZM16.0771 12.2422H14.5771V9.99219H16.0771V12.2422Z" fill="white"/>
<path d="M11.5771 17.4922H13.0771C13.1766 17.4922 13.272 17.4527 13.3423 17.3824C13.4126 17.312 13.4521 17.2166 13.4521 17.1172C13.4521 17.0177 13.4126 16.9223 13.3423 16.852C13.272 16.7817 13.1766 16.7422 13.0771 16.7422H11.5771C11.4777 16.7422 11.3823 16.7817 11.312 16.852C11.2417 16.9223 11.2021 17.0177 11.2021 17.1172C11.2021 17.2166 11.2417 17.312 11.312 17.3824C11.3823 17.4527 11.4777 17.4922 11.5771 17.4922ZM11.5771 18.9922H13.0771C13.1766 18.9922 13.272 18.9527 13.3423 18.8824C13.4126 18.812 13.4521 18.7166 13.4521 18.6172C13.4521 18.5177 13.4126 18.4223 13.3423 18.352C13.272 18.2817 13.1766 18.2422 13.0771 18.2422H11.5771C11.4777 18.2422 11.3823 18.2817 11.312 18.352C11.2417 18.4223 11.2021 18.5177 11.2021 18.6172C11.2021 18.7166 11.2417 18.812 11.312 18.8824C11.3823 18.9527 11.4777 18.9922 11.5771 18.9922Z" fill="white"/>
<defs>
<linearGradient id="paint0_linear_1596_9672" x1="48.2542" y1="-12.3578" x2="-7.65006" y2="44.7234" gradientUnits="userSpaceOnUse">
<stop stop-color="#7B1931"/>
<stop offset="1" stop-color="#E05226"/>
</linearGradient>
</defs>
</svg>
