<svg width="32" height="32" viewBox="0 0 32 32" fill="none" xmlns="http://www.w3.org/2000/svg">
<g clip-path="url(#clip0_976_6147)">
<path d="M15.9999 -0.0340881C7.15884 -0.0340881 -0.0351562 7.15791 -0.0351562 15.9999C-0.0351562 24.8419 7.15884 32.0339 15.9999 32.0339C24.8408 32.0339 32.0349 24.8419 32.0349 15.9999C32.0349 7.15791 24.8408 -0.0340881 15.9999 -0.0340881ZM15.9999 30.9659C7.74785 30.9659 1.03484 24.2519 1.03484 15.9999C1.03484 7.74791 7.74785 1.03391 15.9999 1.03391C24.2518 1.03391 30.9648 7.74791 30.9648 15.9999C30.9648 24.2519 24.2518 30.9659 15.9999 30.9659Z" fill="white"/>
<path d="M24.7937 11.0459C24.9046 10.8406 24.996 10.6254 25.0667 10.4029C25.0995 10.2997 25.1 10.1891 25.0686 10.0855C25.0371 9.98197 24.9749 9.89043 24.8904 9.82294C24.8057 9.75544 24.7027 9.7152 24.5947 9.70754C24.4868 9.69988 24.379 9.72509 24.2857 9.77988C23.7733 10.0844 23.2186 10.3111 22.6397 10.4529C21.937 9.81867 21.0243 9.46709 20.0777 9.46591C19.5635 9.46631 19.0546 9.57054 18.5814 9.77241C18.1084 9.97421 17.6811 10.2695 17.3249 10.6405C16.9687 11.0115 16.6912 11.4506 16.5088 11.9314C16.3265 12.4123 16.2431 12.925 16.2637 13.4389C14.0147 13.1558 11.961 12.0177 10.5287 10.2609C10.4738 10.1943 10.4037 10.1421 10.3243 10.1084C10.2449 10.0747 10.1585 10.0607 10.0724 10.0676C9.98643 10.0745 9.90343 10.102 9.83031 10.1479C9.75729 10.1937 9.69632 10.2565 9.6527 10.331C9.32472 10.8939 9.14645 11.5314 9.1349 12.1828C9.12334 12.8342 9.27889 13.4777 9.5867 14.0519C9.51121 14.0647 9.43868 14.0911 9.3727 14.1299C9.29185 14.1814 9.22528 14.2525 9.17914 14.3366C9.133 14.4207 9.10878 14.515 9.1087 14.6109C9.1087 15.7459 9.6137 16.7879 10.4277 17.496L10.3927 17.531C10.3313 17.6004 10.289 17.6848 10.2701 17.7756C10.2511 17.8665 10.2561 17.9606 10.2847 18.0489C10.4544 18.5784 10.7378 19.0644 11.1151 19.473C11.4924 19.8815 11.9543 20.2027 12.4687 20.4139C11.4123 20.9293 10.23 21.1302 9.0627 20.9929C8.94271 20.9807 8.82204 21.0086 8.71962 21.0723C8.61719 21.136 8.53879 21.2319 8.4967 21.3449C8.45628 21.4588 8.45552 21.5829 8.49454 21.6974C8.53357 21.8117 8.61009 21.9095 8.7117 21.9749C10.2987 22.9935 12.145 23.5346 14.0307 23.5339C20.2107 23.5339 23.9047 18.5139 23.9047 13.6609L23.9037 13.4969C24.5026 13.0293 25.0228 12.4689 25.4447 11.8369C25.5086 11.7414 25.54 11.6278 25.5343 11.513C25.5285 11.3982 25.4861 11.2883 25.4131 11.1996C25.34 11.1109 25.2403 11.048 25.1288 11.0203C25.0172 10.9926 24.8998 11.0016 24.7937 11.0459ZM23.0487 12.8009C22.9761 12.853 22.9178 12.9227 22.879 13.0032C22.8403 13.0836 22.8222 13.1727 22.8267 13.2619C22.8327 13.3939 22.8357 13.528 22.8357 13.6599C22.8357 17.9879 19.5427 22.4649 14.0317 22.4649C13.0488 22.4654 12.0728 22.3004 11.1447 21.9769C12.2563 21.7639 13.3006 21.2872 14.1897 20.587C14.2763 20.5187 14.3396 20.4253 14.3711 20.3197C14.4026 20.2141 14.4008 20.1013 14.3658 19.9968C14.3307 19.8923 14.2642 19.8011 14.1755 19.7359C14.0867 19.6705 13.9799 19.6342 13.8697 19.6319C13.4386 19.6237 13.0153 19.5142 12.6342 19.3124C12.2531 19.1105 11.9248 18.8219 11.6757 18.4699C11.9287 18.4529 12.1767 18.411 12.4177 18.3459C12.5343 18.3147 12.637 18.2448 12.7088 18.1478C12.7806 18.0508 12.8175 17.9322 12.8133 17.8116C12.8091 17.691 12.7642 17.5753 12.6858 17.4833C12.6074 17.3915 12.5002 17.329 12.3817 17.3059C11.8947 17.2069 11.4439 16.9773 11.0772 16.6417C10.7107 16.3061 10.4423 15.8772 10.3007 15.4009C10.5667 15.4679 10.8397 15.5069 11.1127 15.5159C11.3477 15.515 11.5657 15.371 11.6387 15.1449C11.7117 14.9189 11.6257 14.6699 11.4267 14.5379C10.9561 14.2244 10.5938 13.7733 10.3893 13.2463C10.1847 12.7191 10.1479 12.1418 10.2837 11.5929C12.0208 13.3752 14.3663 14.4366 16.8517 14.5649C17.0277 14.5659 17.1817 14.5029 17.2887 14.3739C17.3957 14.2449 17.4367 14.0739 17.3987 13.9099C17.262 13.3209 17.3231 12.7032 17.5728 12.1525C17.8224 11.6017 18.2466 11.1487 18.7797 10.8633C19.3128 10.578 19.9251 10.4763 20.5218 10.5741C21.1186 10.6718 21.6664 10.9634 22.0807 11.4039C22.1427 11.4702 22.2207 11.5195 22.3071 11.5473C22.3935 11.5752 22.4856 11.5805 22.5747 11.563C22.7397 11.5299 22.9027 11.4919 23.0637 11.448C22.9911 11.5023 22.9157 11.5527 22.8377 11.5989C22.734 11.6625 22.655 11.7594 22.6138 11.8737C22.5726 11.9882 22.5715 12.1133 22.6109 12.2283C22.6503 12.3434 22.7277 12.4416 22.8304 12.5068C22.933 12.5719 23.0548 12.6002 23.1757 12.587L23.3577 12.5639C23.2575 12.6465 23.1544 12.7255 23.0487 12.8009Z" fill="white"/>
</g>
<defs>
<clipPath id="clip0_976_6147">
<rect width="32" height="32" fill="white"/>
</clipPath>
</defs>
</svg>
