<svg width="24" height="23" viewBox="0 0 24 23" fill="none" xmlns="http://www.w3.org/2000/svg">
<path d="M2.6373 20.9639H21.3659C22.0551 20.9639 22.6159 20.4033 22.6159 19.7139V2.13535C22.6159 1.446 22.0551 0.885352 21.3659 0.885352H2.6373C1.94804 0.885352 1.3873 1.446 1.3873 2.13535V19.7139C1.3873 20.4033 1.94804 20.9639 2.6373 20.9639ZM1.91588 2.13535C1.91588 1.73767 2.23962 1.41392 2.6373 1.41392H21.3659C21.7636 1.41392 22.0873 1.73767 22.0873 2.13535V19.7139C22.0873 20.1116 21.7636 20.4354 21.3659 20.4354H2.6373C2.23962 20.4354 1.91588 20.1116 1.91588 19.7139V2.13535Z" fill="white" stroke="white" stroke-width="0.2"/>
<path d="M17.7519 22.1141H19.7234C19.8694 22.1141 19.9876 21.9957 19.9876 21.8498V20.6998C19.9876 20.5539 19.8694 20.4355 19.7234 20.4355H17.7519C17.6059 20.4355 17.4876 20.5539 17.4876 20.6998V21.8498C17.4876 21.9957 17.6059 22.1141 17.7519 22.1141ZM19.4591 20.9641V21.5855H18.0162V20.9641H19.4591ZM4.2805 22.1141H6.25192C6.39799 22.1141 6.51621 21.9957 6.51621 21.8498V20.6998C6.51621 20.5539 6.39799 20.4355 6.25192 20.4355H4.2805C4.13443 20.4355 4.01621 20.5539 4.01621 20.6998V21.8498C4.01621 21.9957 4.13443 22.1141 4.2805 22.1141ZM5.98764 20.9641V21.5855H4.54478V20.9641H5.98764ZM4.93764 18.6723H19.3948C19.9029 18.6723 20.3162 18.259 20.3162 17.7509V4.09877C20.3162 3.59064 19.9029 3.17734 19.3948 3.17734H4.93764C4.4295 3.17734 4.01621 3.59064 4.01621 4.09877V5.74981C4.01621 5.89573 4.13443 6.0141 4.2805 6.0141C4.42656 6.0141 4.54478 5.89573 4.54478 5.74981V4.09877C4.54478 3.88222 4.72109 3.70592 4.93764 3.70592H19.3948C19.6113 3.70592 19.7876 3.88222 19.7876 4.09877V17.7509C19.7876 17.9674 19.6113 18.1437 19.3948 18.1437H4.93764C4.72109 18.1437 4.54478 17.9674 4.54478 17.7509V16.0998C4.54478 15.9539 4.42656 15.8355 4.2805 15.8355C4.13443 15.8355 4.01621 15.9539 4.01621 16.0998V17.7509C4.01621 18.259 4.4295 18.6723 4.93764 18.6723Z" fill="white" stroke="white" stroke-width="0.2"/>
<path d="M4.01621 14.7861C4.01621 14.932 4.13443 15.0504 4.2805 15.0504C4.42656 15.0504 4.54478 14.932 4.54478 14.7861V7.06468C4.54478 6.91875 4.42656 6.80039 4.2805 6.80039C4.13443 6.80039 4.01621 6.91875 4.01621 7.06468V14.7861Z" fill="white" stroke="white" stroke-width="0.2"/>
<path d="M10.322 13.2074H8.75339L9.13145 12.063L9.13146 12.063C9.17064 11.9443 9.12144 11.8142 9.01299 11.7514L10.322 13.2074ZM10.322 13.2074L9.94394 12.063L9.94394 12.063C9.90475 11.9443 9.95397 11.8142 10.0625 11.7514M10.322 13.2074L10.0625 11.7514M10.0625 11.7514C10.3865 11.5636 10.5877 11.2152 10.5877 10.8431C10.5877 10.2642 10.1165 9.79308 9.5377 9.79308C8.95888 9.79308 8.4877 10.2642 8.4877 10.8431C8.4877 11.2152 8.68893 11.5636 9.01294 11.7514H10.0625ZM8.1734 13.6264L8.1736 13.6266C8.22327 13.6951 8.3027 13.7359 8.3877 13.7359H10.6877C10.7727 13.7359 10.8521 13.6951 10.9018 13.6266L10.902 13.6264C10.9515 13.5576 10.9652 13.4693 10.9386 13.3888L10.9386 13.3887L10.5083 12.0864C10.8877 11.7896 11.1163 11.3307 11.1163 10.8431C11.1163 9.9726 10.4083 9.26451 9.5377 9.26451C8.66713 9.26451 7.95913 9.9726 7.95913 10.8431C7.95913 11.3307 8.18769 11.7896 8.56709 12.0864L8.1368 13.3887L8.13678 13.3888C8.11023 13.4693 8.12389 13.5576 8.1734 13.6264ZM10.8436 13.4201C10.8602 13.4702 10.8517 13.5252 10.8209 13.5679C10.7899 13.6106 10.7405 13.6359 10.6877 13.6359H8.3877C8.33491 13.6359 8.2855 13.6106 8.25454 13.5679C8.22373 13.5252 8.21523 13.4702 8.23175 13.4201H10.8436ZM3.45912 7.32879H5.10198C5.61012 7.32879 6.02341 6.9155 6.02341 6.40737C6.02341 5.89923 5.61012 5.48594 5.10198 5.48594H3.45912C2.95099 5.48594 2.5377 5.89923 2.5377 6.40737C2.5377 6.9155 2.95099 7.32879 3.45912 7.32879ZM3.06627 6.40737C3.06627 6.19082 3.24258 6.01451 3.45912 6.01451H5.10198C5.31853 6.01451 5.49484 6.19082 5.49484 6.40737C5.49484 6.62391 5.31853 6.80022 5.10198 6.80022H3.45912C3.24258 6.80022 3.06627 6.62391 3.06627 6.40737ZM3.45912 16.3645H5.10198C5.61012 16.3645 6.02341 15.9512 6.02341 15.4431C6.02341 14.9349 5.61012 14.5217 5.10198 14.5217H3.45912C2.95099 14.5217 2.5377 14.9349 2.5377 15.4431C2.5377 15.9512 2.95099 16.3645 3.45912 16.3645ZM3.06627 15.4431C3.06627 15.2265 3.24258 15.0502 3.45912 15.0502H5.10198C5.31853 15.0502 5.49484 15.2265 5.49484 15.4431C5.49484 15.6596 5.31853 15.8359 5.10198 15.8359H3.45912C3.24258 15.8359 3.06627 15.6596 3.06627 15.4431ZM16.502 14.1288C16.502 14.6369 16.9153 15.0502 17.4234 15.0502C17.9316 15.0502 18.3448 14.6369 18.3448 14.1288V8.87165C18.3448 8.36351 17.9316 7.95022 17.4234 7.95022C16.9153 7.95022 16.502 8.36351 16.502 8.87165V14.1288ZM17.0306 8.87165C17.0306 8.6551 17.2069 8.47879 17.4234 8.47879C17.64 8.47879 17.8163 8.6551 17.8163 8.87165V14.1288C17.8163 14.3453 17.64 14.5217 17.4234 14.5217C17.2069 14.5217 17.0306 14.3453 17.0306 14.1288V8.87165Z" fill="white" stroke="white" stroke-width="0.2"/>
</svg>
