<svg width="24" height="24" viewBox="0 0 24 24" fill="none" xmlns="http://www.w3.org/2000/svg">
<path d="M21.3746 13.8752H9.37458C8.97676 13.8752 8.59523 14.0333 8.31392 14.3146C8.03262 14.5959 7.87458 14.9774 7.87458 15.3752V18.0002H5.62458C4.17708 18.0002 2.99958 16.7177 2.99958 15.139C2.99958 13.894 2.92458 14.6252 3.37458 14.6252C3.44907 14.6257 3.52199 14.6039 3.58406 14.5627C3.64613 14.5215 3.69453 14.4628 3.7231 14.394C3.75166 14.3252 3.75909 14.2495 3.74444 14.1765C3.72978 14.1034 3.69372 14.0364 3.64083 13.984L2.89083 13.234C2.85597 13.1988 2.81449 13.1709 2.7688 13.1519C2.7231 13.1328 2.67409 13.123 2.62458 13.123C2.57508 13.123 2.52606 13.1328 2.48036 13.1519C2.43467 13.1709 2.39319 13.1988 2.35833 13.234L1.60833 13.984C1.53772 14.0546 1.49805 14.1504 1.49805 14.2502C1.49805 14.3501 1.53772 14.4459 1.60833 14.5165C1.67895 14.5871 1.77472 14.6268 1.87458 14.6268C1.97444 14.6268 2.07022 14.5871 2.14083 14.5165L2.24958 14.404V15.154C2.24958 17.1302 3.74958 18.7502 5.62458 18.7502H7.87458V21.3752C7.87458 21.773 8.03262 22.1546 8.31392 22.4359C8.59523 22.7172 8.97676 22.8752 9.37458 22.8752H21.3746C21.7724 22.8752 22.1539 22.7172 22.4352 22.4359C22.7165 22.1546 22.8746 21.773 22.8746 21.3752V15.3752C22.8746 14.9774 22.7165 14.5959 22.4352 14.3146C22.1539 14.0333 21.7724 13.8752 21.3746 13.8752ZM22.1246 21.3752C22.1246 21.5741 22.0456 21.7649 21.9049 21.9056C21.7643 22.0462 21.5735 22.1252 21.3746 22.1252H9.37458C9.17567 22.1252 8.9849 22.0462 8.84425 21.9056C8.7036 21.7649 8.62458 21.5741 8.62458 21.3752V15.3752C8.62458 15.1763 8.7036 14.9855 8.84425 14.8449C8.9849 14.7042 9.17567 14.6252 9.37458 14.6252H21.3746C21.5735 14.6252 21.7643 14.7042 21.9049 14.8449C22.0456 14.9855 22.1246 15.1763 22.1246 15.3752V21.3752Z" fill="white"/>
<path d="M15.375 16.5C15.0042 16.5 14.6416 16.61 14.3333 16.816C14.025 17.022 13.7846 17.3149 13.6427 17.6575C13.5008 18.0001 13.4637 18.3771 13.536 18.7408C13.6084 19.1045 13.787 19.4386 14.0492 19.7008C14.3114 19.963 14.6455 20.1416 15.0092 20.214C15.3729 20.2863 15.7499 20.2492 16.0925 20.1073C16.4351 19.9654 16.728 19.725 16.934 19.4167C17.14 19.1084 17.25 18.7458 17.25 18.375C17.25 17.8777 17.0525 17.4008 16.7008 17.0492C16.3492 16.6975 15.8723 16.5 15.375 16.5ZM15.375 19.5C15.1525 19.5 14.935 19.434 14.75 19.3104C14.565 19.1868 14.4208 19.0111 14.3356 18.8055C14.2505 18.6 14.2282 18.3738 14.2716 18.1555C14.315 17.9373 14.4222 17.7368 14.5795 17.5795C14.7368 17.4222 14.9373 17.315 15.1555 17.2716C15.3738 17.2282 15.6 17.2505 15.8055 17.3356C16.0111 17.4208 16.1868 17.565 16.3104 17.75C16.434 17.935 16.5 18.1525 16.5 18.375C16.5 18.6734 16.3815 18.9595 16.1705 19.1705C15.9595 19.3815 15.6734 19.5 15.375 19.5ZM19.875 17.25C19.6525 17.25 19.435 17.316 19.25 17.4396C19.065 17.5632 18.9208 17.7389 18.8356 17.9445C18.7505 18.15 18.7282 18.3762 18.7716 18.5945C18.815 18.8127 18.9222 19.0132 19.0795 19.1705C19.2368 19.3278 19.4373 19.435 19.6555 19.4784C19.8738 19.5218 20.1 19.4995 20.3055 19.4144C20.5111 19.3292 20.6868 19.185 20.8104 19C20.934 18.815 21 18.5975 21 18.375C21 18.0766 20.8815 17.7905 20.6705 17.5795C20.4595 17.3685 20.1734 17.25 19.875 17.25ZM19.875 18.75C19.7755 18.75 19.6802 18.7105 19.6098 18.6402C19.5395 18.5698 19.5 18.4745 19.5 18.375C19.5 18.2755 19.5395 18.1802 19.6098 18.1098C19.6802 18.0395 19.7755 18 19.875 18C19.9745 18 20.0698 18.0395 20.1402 18.1098C20.2105 18.1802 20.25 18.2755 20.25 18.375C20.25 18.4745 20.2105 18.5698 20.1402 18.6402C20.0698 18.7105 19.9745 18.75 19.875 18.75ZM10.875 17.25C10.6525 17.25 10.435 17.316 10.25 17.4396C10.065 17.5632 9.92078 17.7389 9.83564 17.9445C9.75049 18.15 9.72821 18.3762 9.77162 18.5945C9.81502 18.8127 9.92217 19.0132 10.0795 19.1705C10.2368 19.3278 10.4373 19.435 10.6555 19.4784C10.8738 19.5218 11.1 19.4995 11.3055 19.4144C11.5111 19.3292 11.6868 19.185 11.8104 19C11.934 18.815 12 18.5975 12 18.375C12 18.0766 11.8815 17.7905 11.6705 17.5795C11.4595 17.3685 11.1734 17.25 10.875 17.25ZM10.875 18.75C10.7755 18.75 10.6802 18.7105 10.6098 18.6402C10.5395 18.5698 10.5 18.4745 10.5 18.375C10.5 18.2755 10.5395 18.1802 10.6098 18.1098C10.6802 18.0395 10.7755 18 10.875 18C10.9745 18 11.0698 18.0395 11.1402 18.1098C11.2105 18.1802 11.25 18.2755 11.25 18.375C11.25 18.4745 11.2105 18.5698 11.1402 18.6402C11.0698 18.7105 10.9745 18.75 10.875 18.75ZM1.875 5.25V4.875C1.875 4.77554 1.83549 4.68016 1.76516 4.60984C1.69484 4.53951 1.59946 4.5 1.5 4.5C1.40054 4.5 1.30516 4.53951 1.23483 4.60984C1.16451 4.68016 1.125 4.77554 1.125 4.875V5.25C1.125 5.34946 1.16451 5.44484 1.23483 5.51516C1.30516 5.58549 1.40054 5.625 1.5 5.625C1.59946 5.625 1.69484 5.58549 1.76516 5.51516C1.83549 5.44484 1.875 5.34946 1.875 5.25Z" fill="white"/>
<path d="M2.625 12.375H10.875C11.2728 12.375 11.6544 12.217 11.9357 11.9357C12.217 11.6544 12.375 11.2728 12.375 10.875V7.125H14.25C15.6975 7.125 16.875 8.4075 16.875 9.98625V10.7362L16.7662 10.6237C16.6956 10.5531 16.5999 10.5135 16.5 10.5135C16.4001 10.5135 16.3044 10.5531 16.2338 10.6237C16.1631 10.6944 16.1235 10.7901 16.1235 10.89C16.1235 10.9899 16.1631 11.0856 16.2338 11.1562L16.9838 11.9062C17.0186 11.9414 17.0601 11.9693 17.1058 11.9883C17.1515 12.0074 17.2005 12.0172 17.25 12.0172C17.2995 12.0172 17.3485 12.0074 17.3942 11.9883C17.4399 11.9693 17.4814 11.9414 17.5163 11.9062L18.2663 11.1562C18.3012 11.1213 18.3289 11.0798 18.3479 11.0341C18.3668 10.9884 18.3765 10.9394 18.3765 10.89C18.3765 10.8406 18.3668 10.7916 18.3479 10.7459C18.3289 10.7002 18.3012 10.6587 18.2663 10.6237C18.2313 10.5888 18.1898 10.5611 18.1441 10.5421C18.0984 10.5232 18.0494 10.5135 18 10.5135C17.9506 10.5135 17.9016 10.5232 17.8559 10.5421C17.8102 10.5611 17.7687 10.5888 17.7337 10.6237L17.625 10.7362V9.98625C17.625 7.995 16.125 6.375 14.25 6.375H12.375V2.625C12.375 2.22718 12.217 1.84564 11.9357 1.56434C11.6544 1.28304 11.2728 1.125 10.875 1.125H2.625C2.22718 1.125 1.84564 1.28304 1.56434 1.56434C1.28304 1.84564 1.125 2.22718 1.125 2.625V3.375C1.125 3.47446 1.16451 3.56984 1.23483 3.64016C1.30516 3.71049 1.40054 3.75 1.5 3.75C1.59946 3.75 1.69484 3.71049 1.76516 3.64016C1.83549 3.56984 1.875 3.47446 1.875 3.375V2.625C1.875 2.42609 1.95402 2.23532 2.09467 2.09467C2.23532 1.95402 2.42609 1.875 2.625 1.875H5.25V4.5C5.25 4.59946 5.28951 4.69484 5.35984 4.76516C5.43016 4.83549 5.52554 4.875 5.625 4.875H7.875C7.97446 4.875 8.06984 4.83549 8.14017 4.76516C8.21049 4.69484 8.25 4.59946 8.25 4.5V1.875H10.875C11.0739 1.875 11.2647 1.95402 11.4053 2.09467C11.546 2.23532 11.625 2.42609 11.625 2.625V10.875C11.625 11.0739 11.546 11.2647 11.4053 11.4053C11.2647 11.546 11.0739 11.625 10.875 11.625H2.625C2.42609 11.625 2.23532 11.546 2.09467 11.4053C1.95402 11.2647 1.875 11.0739 1.875 10.875V6.75C1.875 6.65054 1.83549 6.55516 1.76516 6.48483C1.69484 6.41451 1.59946 6.375 1.5 6.375C1.40054 6.375 1.30516 6.41451 1.23483 6.48483C1.16451 6.55516 1.125 6.65054 1.125 6.75V10.875C1.125 11.2728 1.28304 11.6544 1.56434 11.9357C1.84564 12.217 2.22718 12.375 2.625 12.375ZM7.5 4.125H6V1.875H7.5V4.125Z" fill="white"/>
<path d="M3 9.375H4.5C4.59946 9.375 4.69484 9.33549 4.76516 9.26517C4.83549 9.19484 4.875 9.09946 4.875 9C4.875 8.90054 4.83549 8.80516 4.76516 8.73483C4.69484 8.66451 4.59946 8.625 4.5 8.625H3C2.90054 8.625 2.80516 8.66451 2.73484 8.73483C2.66451 8.80516 2.625 8.90054 2.625 9C2.625 9.09946 2.66451 9.19484 2.73484 9.26517C2.80516 9.33549 2.90054 9.375 3 9.375ZM3 10.875H4.5C4.59946 10.875 4.69484 10.8355 4.76516 10.7652C4.83549 10.6948 4.875 10.5995 4.875 10.5C4.875 10.4005 4.83549 10.3052 4.76516 10.2348C4.69484 10.1645 4.59946 10.125 4.5 10.125H3C2.90054 10.125 2.80516 10.1645 2.73484 10.2348C2.66451 10.3052 2.625 10.4005 2.625 10.5C2.625 10.5995 2.66451 10.6948 2.73484 10.7652C2.80516 10.8355 2.90054 10.875 3 10.875Z" fill="white"/>
</svg>
