<!-- Generated by IcoMoon.io -->
<svg version="1.1" xmlns="http://www.w3.org/2000/svg" width="32" height="32" viewBox="0 0 32 32">
<title>bank</title>
<path fill="#7b1931" d="M31.374 16.085c0 8.559-6.938 15.497-15.497 15.497s-15.497-6.938-15.497-15.497c0-8.559 6.938-15.497 15.497-15.497s15.497 6.938 15.497 15.497z"></path>
<path fill="#fff" d="M15.659 7.23c-0.005-0-0.009 0-0.014 0-0.021 0.002-0.041 0.008-0.059 0.018l-7.61 4.428c-0.026 0.015-0.047 0.039-0.058 0.067s-0.013 0.059-0.006 0.089 0.025 0.055 0.049 0.074c0.024 0.018 0.054 0.028 0.084 0.029h1.245v0.969c0 0.037 0.015 0.072 0.041 0.098s0.061 0.040 0.098 0.040h0.138v7.472h-0.138c-0.037 0-0.072 0.015-0.098 0.041s-0.041 0.061-0.041 0.098v0.969h-1.245c-0.037 0-0.072 0.015-0.098 0.041s-0.040 0.061-0.040 0.098v0.83c0 0.037 0.015 0.072 0.040 0.098s0.061 0.041 0.098 0.041h15.221c0.037 0 0.072-0.015 0.098-0.041s0.041-0.061 0.041-0.098v-0.83c0-0.037-0.015-0.072-0.041-0.098s-0.061-0.041-0.098-0.041h-1.245v-0.969c0-0.037-0.015-0.072-0.041-0.098s-0.061-0.041-0.098-0.041h-0.138v-7.472h0.138c0.037 0 0.072-0.015 0.098-0.040s0.041-0.061 0.041-0.098v-0.969h1.245c0.030-0 0.060-0.010 0.084-0.029s0.041-0.044 0.049-0.074 0.006-0.060-0.006-0.089c-0.012-0.028-0.032-0.052-0.058-0.067l-7.61-4.428c-0.020-0.012-0.043-0.018-0.066-0.019zM15.656 7.529l7.096 4.129h-14.193l7.096-4.129zM9.567 11.934h2.767v0.83h-2.767v-0.83zM12.611 11.934h1.384v0.969c0 0.037 0.015 0.072 0.040 0.098s0.061 0.040 0.098 0.040h0.138v7.472h-0.138c-0.037 0-0.072 0.015-0.098 0.041s-0.040 0.061-0.040 0.098v0.969h-1.384v-0.969c0-0.037-0.015-0.072-0.040-0.098s-0.061-0.041-0.098-0.041h-0.138v-7.472h0.138c0.037 0 0.072-0.015 0.098-0.040s0.040-0.061 0.040-0.098v-0.969zM14.272 11.934h2.767v0.83h-2.767v-0.83zM17.316 11.934h1.384v0.969c0 0.037 0.015 0.072 0.041 0.098s0.061 0.040 0.098 0.040h0.138v7.472h-0.138c-0.037 0-0.072 0.015-0.098 0.041s-0.041 0.061-0.041 0.098v0.969h-1.384v-0.969c0-0.037-0.015-0.072-0.041-0.098s-0.061-0.041-0.098-0.041h-0.138v-7.472h0.138c0.037 0 0.072-0.015 0.098-0.040s0.041-0.061 0.041-0.098v-0.969zM18.976 11.934h2.767v0.83h-2.767v-0.83zM9.844 13.041h0.553v7.472h-0.553v-7.472zM10.674 13.041h0.554v7.472h-0.554v-7.472zM11.505 13.041h0.553v7.472h-0.553v-7.472zM14.549 13.041h0.553v7.472h-0.553v-7.472zM15.379 13.041h0.554v7.472h-0.554v-7.472zM16.209 13.041h0.553v7.472h-0.553v-7.472zM19.253 13.041h0.553v7.472h-0.553v-7.472zM20.083 13.041h0.554v7.472h-0.554v-7.472zM20.914 13.041h0.553v7.472h-0.553v-7.472zM9.567 20.79h2.767v0.83h-2.767v-0.83zM14.272 20.79h2.767v0.83h-2.767v-0.83zM18.976 20.79h2.767v0.83h-2.767v-0.83zM8.184 21.897h14.944v0.553h-14.944v-0.553z"></path>
</svg>
