<!-- Generated by IcoMoon.io -->
<svg version="1.1" xmlns="http://www.w3.org/2000/svg" width="33" height="32" viewBox="0 0 33 32">
<title>calendar</title>
<path d="M29.127 31.071h-24.8c-1.691 0-3.1-1.409-3.1-3.1v-22.757c0-1.691 1.127-3.1 2.607-3.1h1.55v2.043h-1.55c-0.211 0-0.493 0.423-0.493 1.057v22.757c0 0.564 0.493 1.057 1.057 1.057h24.8c0.564 0 1.057-0.493 1.057-1.057v-22.757c0-0.634-0.352-1.057-0.493-1.057h-1.55v-2.043h1.55c1.409 0 2.607 1.409 2.607 3.1v22.757c-0.141 1.691-1.55 3.1-3.241 3.1z"></path>
<path d="M8.484 6.271c-0.564 0-1.057-0.493-1.057-1.057v-4.157c0-0.564 0.493-1.057 1.057-1.057s1.057 0.493 1.057 1.057v4.157c-0.070 0.564-0.493 1.057-1.057 1.057zM24.971 6.271c-0.564 0-1.057-0.493-1.057-1.057v-4.157c0-0.564 0.493-1.057 1.057-1.057s1.057 0.493 1.057 1.057v4.157c0 0.564-0.493 1.057-1.057 1.057z"></path>
<path d="M11.584 2.114h10.286v2.114h-10.286v-2.114z"></path>
<path d="M3.27 8.314h26.914v2.114h-26.914v-2.114z"></path>
<path d="M26.027 12.471h2.043v2.043h-2.043v-2.043z"></path>
<path d="M21.871 12.471h2.114v2.043h-2.114v-2.043z"></path>
<path d="M17.784 12.471h2.043v2.043h-2.043v-2.043z"></path>
<path d="M13.628 12.471h2.043v2.043h-2.043v-2.043z"></path>
<path d="M9.47 12.471h2.114v2.043h-2.114v-2.043z"></path>
<path d="M26.027 16.628h2.043v2.043h-2.043v-2.043z"></path>
<path d="M21.871 16.628h2.114v2.043h-2.114v-2.043z"></path>
<path d="M17.784 16.628h2.043v2.043h-2.043v-2.043z"></path>
<path d="M13.628 16.628h2.043v2.043h-2.043v-2.043z"></path>
<path d="M9.47 16.628h2.114v2.043h-2.114v-2.043z"></path>
<path d="M5.384 16.628h2.043v2.043h-2.043v-2.043z"></path>
<path d="M26.027 20.714h2.043v2.114h-2.043v-2.114z"></path>
<path d="M21.871 20.714h2.114v2.114h-2.114v-2.114z"></path>
<path d="M17.784 20.714h2.043v2.114h-2.043v-2.114z"></path>
<path d="M13.628 20.714h2.043v2.114h-2.043v-2.114z"></path>
<path d="M9.47 20.714h2.114v2.114h-2.114v-2.114z"></path>
<path d="M5.384 20.714h2.043v2.114h-2.043v-2.114z"></path>
<path d="M21.871 24.871h2.114v2.043h-2.114v-2.043z"></path>
<path d="M17.784 24.871h2.043v2.043h-2.043v-2.043z"></path>
<path d="M13.628 24.871h2.043v2.043h-2.043v-2.043z"></path>
<path d="M9.47 24.871h2.114v2.043h-2.114v-2.043z"></path>
<path d="M5.384 24.871h2.043v2.043h-2.043v-2.043z"></path>
</svg>
