<!-- Generated by IcoMoon.io -->
<svg version="1.1" xmlns="http://www.w3.org/2000/svg" width="32" height="32" viewBox="0 0 32 32">
<title>cards</title>
<path fill="#7b1931" d="M31.688 15.844c0 8.75-7.094 15.844-15.844 15.844s-15.844-7.094-15.844-15.844c0-8.75 7.094-15.844 15.844-15.844s15.844 7.094 15.844 15.844z"></path>
<path fill="#fff" d="M9.344 19.34h2.434c0.105 0 0.191-0.086 0.191-0.191s-0.086-0.191-0.191-0.191h-2.434c-0.105 0-0.191 0.086-0.191 0.191s0.086 0.191 0.191 0.191z"></path>
<path fill="#fff" d="M8.752 10.752h0.068v-0.003h13.667c0.472 0 0.856 0.384 0.856 0.856v8.46c0 0.472-0.384 0.856-0.856 0.856h-13.735c-0.472 0-0.856-0.384-0.856-0.856v-8.457c0-0.472 0.384-0.856 0.856-0.856zM8.752 21.304h13.735c0.683 0 1.239-0.556 1.239-1.241v-8.457c0-0.683-0.555-1.239-1.239-1.239h-13.735c-0.683 0-1.239 0.556-1.239 1.239v8.46c0 0.683 0.555 1.239 1.239 1.239z"></path>
<path fill="#fff" d="M18.289 16.831h1.201c0.106 0 0.194-0.084 0.191-0.192-0.001-0.105-0.086-0.19-0.191-0.19h-1.009v-0.728h1.009c0.105 0 0.191-0.086 0.191-0.191s-0.086-0.191-0.191-0.191h-1.201c-0.105 0-0.191 0.086-0.191 0.191v1.11c0 0.105 0.086 0.191 0.191 0.191zM20.906 16.831h1.211c0.105 0 0.191-0.086 0.191-0.191v-1.11c0-0.105-0.086-0.191-0.191-0.191h-1.211c-0.105 0-0.191 0.086-0.191 0.191v1.11c0 0.105 0.086 0.191 0.191 0.191zM21.926 15.718v0.728h-0.826v-0.728h0.826z"></path>
<path fill="#fff" d="M18.583 17.509h3.24c0.269 0 0.485-0.219 0.485-0.485v-0.337c0-0.105-0.086-0.191-0.191-0.191s-0.191 0.086-0.191 0.191v0.337c0 0.056-0.045 0.103-0.103 0.103h-3.24c-0.058 0-0.103-0.045-0.103-0.103v-0.337c0-0.105-0.086-0.191-0.191-0.191s-0.191 0.086-0.191 0.191v0.337c0 0.266 0.216 0.485 0.485 0.485zM21.926 15.481c0 0.105 0.086 0.191 0.191 0.191s0.191-0.086 0.191-0.191v-0.339c0-0.266-0.216-0.485-0.485-0.485h-3.24c-0.266 0-0.485 0.216-0.485 0.485v0.339c0 0.105 0.086 0.191 0.191 0.191s0.191-0.086 0.191-0.191v-0.339c0-0.058 0.045-0.103 0.103-0.103h3.24c0.058 0 0.103 0.045 0.103 0.103v0.339z"></path>
<path fill="#fff" d="M19.537 16.831h1.331c0.105 0 0.191-0.086 0.191-0.191s-0.086-0.191-0.191-0.191h-1.138v-0.728h1.138c0.105 0 0.191-0.086 0.191-0.191s-0.086-0.191-0.191-0.191h-1.331c-0.105 0-0.191 0.086-0.191 0.191v1.11c0 0.105 0.086 0.191 0.191 0.191zM7.704 12.322h15.829c0.105 0 0.191-0.086 0.191-0.191s-0.086-0.191-0.191-0.191h-15.829c-0.105 0-0.191 0.086-0.191 0.191s0.086 0.191 0.191 0.191zM7.704 13.699h15.829c0.105 0 0.191-0.086 0.191-0.191s-0.086-0.191-0.191-0.191h-15.829c-0.105 0-0.191 0.086-0.191 0.191s0.086 0.191 0.191 0.191zM9.525 16.276h6.242c0.107 0 0.189-0.088 0.189-0.191 0-0.105-0.086-0.191-0.191-0.191h-6.239c-0.105 0-0.191 0.086-0.191 0.191s0.086 0.191 0.191 0.191zM12.886 19.34h2.434c0.105 0 0.191-0.086 0.191-0.191s-0.086-0.191-0.191-0.191h-2.434c-0.105 0-0.191 0.086-0.191 0.191s0.086 0.191 0.191 0.191zM16.428 19.34h2.434c0.105 0 0.191-0.086 0.191-0.191s-0.086-0.191-0.191-0.191h-2.434c-0.105 0-0.191 0.086-0.191 0.191s0.086 0.191 0.191 0.191zM19.969 19.34h2.434c0.105 0 0.191-0.086 0.191-0.191s-0.086-0.191-0.191-0.191h-2.434c-0.105 0-0.191 0.086-0.191 0.191s0.086 0.191 0.191 0.191z"></path>
</svg>
