<!-- Generated by IcoMoon.io -->
<svg version="1.1" xmlns="http://www.w3.org/2000/svg" width="32" height="32" viewBox="0 0 32 32">
<title>close-menu</title>
<path fill="#fff" d="M26.582 5.418c-0.285-0.285-0.792-0.285-1.077 0l-9.505 9.505-9.505-9.505c-0.285-0.285-0.792-0.285-1.077 0s-0.285 0.792 0 1.077l9.505 9.505-9.505 9.505c-0.285 0.285-0.285 0.792 0 1.077 0.158 0.158 0.348 0.222 0.539 0.222s0.38-0.063 0.539-0.222l9.505-9.505 9.505 9.505c0.158 0.158 0.349 0.222 0.539 0.222s0.38-0.063 0.539-0.222c0.285-0.285 0.285-0.792 0-1.077l-9.505-9.505 9.505-9.505c0.285-0.285 0.285-0.76 0-1.077z"></path>
</svg>
