<!-- Generated by IcoMoon.io -->
<svg version="1.1" xmlns="http://www.w3.org/2000/svg" width="32" height="32" viewBox="0 0 32 32">
<title>credite</title>
<path fill="#7b1931" d="M15.814 31.627c8.734 0 15.814-7.080 15.814-15.814s-7.080-15.814-15.814-15.814c-8.734 0-15.814 7.080-15.814 15.814s7.080 15.814 15.814 15.814z"></path>
<path fill="#fff" d="M12.261 8.152c-0.171 0.053-0.339 0.161-0.458 0.296-0.233 0.264-0.223 0.126-0.223 2.95 0 2.45 0.002 2.528 0.062 2.688 0.082 0.219 0.298 0.434 0.518 0.516 0.165 0.062 0.22 0.062 4.118 0.054l3.951-0.008 0.144-0.084c0.079-0.046 0.2-0.148 0.269-0.226 0.234-0.265 0.224-0.126 0.214-2.993l-0.008-2.558-0.083-0.157c-0.092-0.175-0.239-0.316-0.436-0.421l-0.131-0.070-3.93-0.005c-2.162-0.003-3.965 0.005-4.008 0.018zM20.086 8.785c0.114 0.059 0.159 0.169 0.159 0.389v0.184h-8.046v-0.203c0-0.231 0.028-0.302 0.148-0.366 0.125-0.068 7.609-0.071 7.739-0.004zM20.246 10.283v0.309h-8.046v-0.617h8.046v0.309zM20.246 12.538v1.329l-0.181 0.18h-7.684l-0.181-0.18v-2.658h8.046v1.329zM16.73 12.842c-0.036 0.015-0.096 0.067-0.134 0.115-0.147 0.186-0.004 0.473 0.235 0.473 0.141 0 0.217-0.042 0.274-0.154 0.069-0.133 0.057-0.235-0.038-0.34-0.091-0.1-0.231-0.139-0.336-0.095zM17.968 12.842c-0.093 0.039-0.198 0.182-0.198 0.269 0 0.099 0.079 0.247 0.153 0.286 0.036 0.019 0.349 0.032 0.791 0.032h0.732l0.090-0.090c0.123-0.123 0.124-0.273 0-0.411l-0.090-0.101-0.707-0.007c-0.389-0.004-0.736 0.006-0.772 0.021zM21.914 14.752c-0.241 0.079-0.398 0.197-0.756 0.565-0.17 0.176-0.606 0.622-0.969 0.993l-0.659 0.674-0.14-0.129c-0.18-0.166-0.427-0.277-0.687-0.311-0.114-0.015-0.971-0.027-1.906-0.028l-1.699-0.001-0.289-0.092c-0.436-0.139-0.772-0.189-1.28-0.188-0.874 0.001-1.576 0.2-2.252 0.638-0.347 0.225-0.815 0.69-1.039 1.034l-0.173 0.266-0.214 0.015c-0.368 0.026-0.427 0.069-1.343 0.98l-0.828 0.824v0.294l1.784 1.794c0.981 0.987 1.813 1.811 1.849 1.831 0.088 0.050 0.19 0.049 0.291-0.004 0.046-0.024 0.454-0.416 0.907-0.872 0.939-0.944 0.941-0.947 0.92-1.393l-0.011-0.237 0.234-0.216c0.376-0.347 0.182-0.324 2.723-0.324 1.338 0 2.283-0.012 2.441-0.032 0.519-0.065 1.047-0.291 1.449-0.621 0.229-0.188 3.063-3.579 3.154-3.773 0.062-0.133 0.072-0.203 0.072-0.509 0-0.326-0.007-0.37-0.088-0.54-0.119-0.251-0.331-0.46-0.585-0.579-0.266-0.124-0.636-0.148-0.908-0.058zM22.579 15.382c0.201 0.114 0.306 0.272 0.321 0.479 0.009 0.117-0.003 0.217-0.035 0.291-0.057 0.137-2.666 3.261-2.946 3.528-0.225 0.214-0.514 0.377-0.851 0.479-0.23 0.070-0.25 0.070-2.646 0.088-1.672 0.013-2.444 0.029-2.513 0.053-0.214 0.075-0.475 0.238-0.68 0.425l-0.216 0.196-2.424-2.417 0.149-0.231c0.593-0.919 1.576-1.421 2.786-1.422 0.472-0 0.768 0.046 1.137 0.177l0.245 0.087 1.903 0.015c1.898 0.015 1.904 0.016 2.033 0.085 0.446 0.238 0.446 0.858 0 1.096-0.128 0.068-0.153 0.069-1.548 0.085l-1.418 0.015-0.075 0.087c-0.105 0.122-0.1 0.27 0.016 0.399l0.090 0.101 1.289 0.009c1.381 0.010 1.621-0.007 1.886-0.128 0.43-0.196 0.763-0.736 0.725-1.175-0.009-0.1 0.042-0.158 1.036-1.179 0.614-0.632 1.097-1.103 1.172-1.144 0.17-0.093 0.4-0.093 0.563 0zM14.579 18.381c-0.163 0.088-0.189 0.323-0.052 0.469 0.134 0.143 0.387 0.114 0.475-0.055 0.151-0.292-0.133-0.57-0.423-0.414zM11.432 20.208l1.387 1.383 0.001 0.276-0.664 0.656c-0.365 0.361-0.675 0.656-0.689 0.656s-0.708-0.68-1.542-1.512l-1.516-1.512 1.373-1.365 0.132 0.018c0.125 0.017 0.198 0.084 1.518 1.401z"></path>
</svg>
