<!-- Generated by IcoMoon.io -->
<svg version="1.1" xmlns="http://www.w3.org/2000/svg" width="32" height="32" viewBox="0 0 32 32">
<title>deposite</title>
<path fill="#7b1931" d="M15.814 31.627c8.734 0 15.814-7.080 15.814-15.814s-7.080-15.814-15.814-15.814c-8.734 0-15.814 7.080-15.814 15.814s7.080 15.814 15.814 15.814z"></path>
<path fill="#fff" d="M17.178 8.204c-0.404 0.099-0.497 0.107-0.851 0.072-0.301-0.030-0.457 0.008-0.625 0.151-0.223 0.191-0.297 0.554-0.171 0.836 0.035 0.078 0.192 0.37 0.35 0.649 0.232 0.411 0.279 0.517 0.246 0.562-0.092 0.128-0.175 0.345-0.176 0.462-0 0.069 0.039 0.205 0.087 0.304l0.087 0.178-0.229 0.313c-1.146 1.564-2.028 3.27-2.198 4.256-0.023 0.136-0.046 0.252-0.051 0.258s-0.155-0.061-0.334-0.148c-0.637-0.311-1.242-0.474-1.88-0.505l-0.383-0.019-0.042-0.205c-0.055-0.272-0.21-0.479-0.452-0.604l-0.188-0.097-1.248 0.001c-1.387 0.001-1.402 0.003-1.639 0.244-0.25 0.254-0.231-0.041-0.241 3.743l-0.009 3.407 0.075 0.177c0.043 0.102 0.135 0.229 0.216 0.3 0.25 0.218 0.356 0.232 1.69 0.219l1.186-0.011 0.18-0.102c0.099-0.056 0.221-0.162 0.271-0.236 0.076-0.112 0.103-0.129 0.166-0.104 0.041 0.016 0.744 0.342 1.562 0.723s1.593 0.732 1.722 0.778c0.618 0.224 1.337 0.178 1.922-0.125 0.108-0.056 0.741-0.496 1.407-0.978s2.261-1.637 3.545-2.565c1.284-0.928 2.402-1.756 2.485-1.839 0.519-0.521 0.38-1.422-0.273-1.761-0.356-0.185-0.54-0.186-1.072-0.010-0.24 0.080-0.446 0.145-0.458 0.145s-0.023-0.115-0.024-0.255c-0.003-0.992-0.808-2.702-2.157-4.579-0.164-0.229-0.299-0.43-0.299-0.448s0.031-0.084 0.069-0.148c0.101-0.168 0.093-0.458-0.017-0.655l-0.085-0.152 0.326-0.564c0.18-0.311 0.336-0.624 0.348-0.698 0.050-0.301-0.154-0.645-0.452-0.761-0.12-0.047-0.197-0.053-0.352-0.031-0.377 0.054-0.559 0.034-0.897-0.102-0.43-0.172-0.678-0.189-1.136-0.077zM18.216 8.763c0.41 0.161 0.55 0.181 0.906 0.127 0.294-0.044 0.298-0.044 0.362 0.036 0.035 0.044 0.064 0.108 0.064 0.141s-0.15 0.317-0.332 0.63l-0.332 0.57-2.259-0.002-0.337-0.609c-0.186-0.335-0.337-0.649-0.337-0.698 0-0.175 0.087-0.208 0.487-0.185 0.311 0.018 0.413 0.008 0.741-0.069 0.467-0.111 0.627-0.101 1.038 0.060zM18.994 10.829c0.038 0.039 0.069 0.086 0.069 0.106s-0.031 0.067-0.069 0.106c-0.066 0.068-0.115 0.070-1.238 0.070-1.002 0-1.18-0.008-1.245-0.055-0.090-0.064-0.099-0.164-0.023-0.242 0.047-0.048 0.209-0.055 1.245-0.055 1.145 0 1.194 0.003 1.26 0.070zM19.221 12.034c1.453 2.024 2.254 3.762 2.139 4.641-0.021 0.16-0.036 0.187-0.131 0.227-0.11 0.047-3.123 1.109-3.145 1.109-0.007 0-0.005-0.085 0.003-0.189 0.029-0.36-0.165-0.8-0.444-1.006l-0.144-0.106 0.168 0.019c0.227 0.026 0.637-0.066 0.902-0.203s0.589-0.459 0.731-0.731c0.366-0.699 0.246-1.523-0.304-2.085-0.355-0.363-0.734-0.524-1.23-0.524-0.482 0-0.865 0.158-1.215 0.499-0.808 0.789-0.671 2.157 0.276 2.768l0.159 0.103-0.509 0.022c-0.994 0.043-2.163 0.037-2.265-0.013-0.111-0.053-0.115-0.101-0.046-0.492 0.167-0.945 0.985-2.505 2.148-4.097l0.274-0.375h2.325l0.309 0.431zM18.212 13.754c0.247 0.094 0.425 0.232 0.579 0.451 0.474 0.673 0.199 1.642-0.551 1.945-0.294 0.119-0.716 0.113-0.982-0.012-0.274-0.129-0.492-0.346-0.625-0.622-0.103-0.213-0.112-0.261-0.112-0.568 0-0.289 0.012-0.362 0.091-0.529 0.294-0.628 0.965-0.907 1.6-0.666zM17.645 14.103c0 0.041-0.023 0.070-0.055 0.070-0.030 0-0.108 0.054-0.173 0.12-0.102 0.104-0.118 0.143-0.117 0.29 0.001 0.219 0.059 0.292 0.363 0.46 0.215 0.119 0.243 0.147 0.253 0.248 0.009 0.094-0.005 0.121-0.080 0.156-0.088 0.041-0.158 0.031-0.437-0.064-0.040-0.014-0.068 0.014-0.097 0.098-0.036 0.105-0.033 0.124 0.034 0.179 0.041 0.034 0.103 0.062 0.138 0.062s0.101 0.041 0.147 0.091c0.103 0.113 0.243 0.107 0.26-0.012 0.006-0.044 0.032-0.079 0.058-0.079 0.074 0 0.247-0.165 0.294-0.28 0.095-0.232-0.071-0.537-0.355-0.652-0.272-0.11-0.351-0.263-0.179-0.343 0.068-0.032 0.126-0.031 0.25 0.003 0.144 0.039 0.166 0.037 0.205-0.018 0.079-0.111 0.052-0.189-0.086-0.247-0.071-0.030-0.142-0.077-0.157-0.104s-0.081-0.049-0.147-0.049c-0.096 0-0.119 0.014-0.119 0.070zM10.41 15.233c0.043 0.041 0.092 0.113 0.11 0.161 0.019 0.052 0.033 1.393 0.033 3.325 0 3.56 0.010 3.384-0.209 3.5-0.089 0.047-0.269 0.053-1.265 0.045l-1.161-0.010-0.202-0.23v-6.658l0.202-0.206h1.207c1.178 0 1.209 0.002 1.285 0.074zM11.601 16.092c0.586 0.046 1.135 0.241 2.031 0.722l0.536 0.288 2.912-0.040 0.151 0.078c0.083 0.043 0.198 0.139 0.257 0.214 0.096 0.123 0.106 0.159 0.106 0.39 0 0.226-0.011 0.27-0.099 0.387-0.055 0.073-0.147 0.162-0.206 0.198s-0.753 0.226-1.544 0.422c-0.791 0.196-1.486 0.371-1.545 0.39-0.214 0.066-0.243 0.348-0.046 0.444 0.076 0.037 0.291-0.008 1.631-0.341 1.015-0.252 1.607-0.416 1.728-0.479 0.261-0.135 5.237-1.88 5.361-1.88 0.12 0 0.33 0.084 0.422 0.169 0.256 0.236 0.257 0.688 0.002 0.928-0.215 0.201-7.135 5.185-7.333 5.281-0.242 0.117-0.611 0.205-0.862 0.205-0.377 0-0.609-0.088-2.34-0.89l-1.708-0.791-0.009-2.845c-0.007-2.252 0-2.85 0.035-2.872 0.024-0.015 0.090-0.021 0.147-0.013s0.225 0.025 0.374 0.036z"></path>
</svg>
