<!-- Generated by IcoMoon.io -->
<svg version="1.1" xmlns="http://www.w3.org/2000/svg" width="32" height="32" viewBox="0 0 32 32">
<title>facebook</title>
<path fill="#fff" d="M16-0.034c-8.841 0-16.035 7.192-16.035 16.034s7.194 16.034 16.035 16.034c8.841 0 16.035-7.192 16.035-16.034s-7.194-16.034-16.035-16.034zM16 30.966c-8.252 0-14.965-6.714-14.965-14.966s6.713-14.966 14.965-14.966c8.252 0 14.965 6.714 14.965 14.966s-6.713 14.966-14.965 14.966z"></path>
<path fill="#fff" d="M19.5 7h-2.668c-3.398-0.034-3.832 2.069-3.832 4.345v1.655h-1.5c-0.068-0.009-0.137-0.002-0.201 0.020s-0.124 0.059-0.172 0.107c-0.048 0.048-0.085 0.107-0.107 0.172s-0.029 0.134-0.020 0.201v3c-0.009 0.068-0.002 0.137 0.020 0.202s0.059 0.124 0.107 0.172c0.048 0.048 0.107 0.085 0.172 0.107s0.134 0.029 0.201 0.020h1.5v7.5c-0.008 0.068-0.001 0.137 0.021 0.202s0.059 0.123 0.108 0.172c0.049 0.048 0.107 0.085 0.172 0.107s0.134 0.029 0.202 0.020h3.055c0.295 0.034 0.534-0.205 0.44-0.5l0.002-7.5h2.5c0.068 0.009 0.137 0.002 0.202-0.020s0.124-0.058 0.172-0.107c0.048-0.048 0.085-0.107 0.107-0.172s0.029-0.134 0.020-0.202v-3c0.009-0.068 0.002-0.137-0.020-0.201s-0.058-0.124-0.107-0.172c-0.048-0.048-0.107-0.085-0.172-0.107s-0.134-0.029-0.202-0.020h-2.503l0.003-1.5c0.097-0.639 0.097-0.535 0.69-0.5h1.789c0.139-0.031 0.287-0.014 0.391-0.115s0.164-0.239 0.129-0.385v-3c0.009-0.068 0.003-0.137-0.019-0.202s-0.058-0.124-0.107-0.172c-0.048-0.048-0.107-0.085-0.172-0.107s-0.134-0.029-0.201-0.019zM18.965 9.944l-1.254-0.048c-1.553 0-1.683 0.843-1.683 1.706l-0.004 1.896c-0 0.070 0.014 0.14 0.040 0.205s0.066 0.124 0.116 0.174c0.050 0.050 0.108 0.089 0.173 0.116s0.134 0.041 0.205 0.041h2.442v1.932h-2.44c-0.142 0-0.278 0.056-0.378 0.156s-0.157 0.236-0.157 0.378l-0.001 7.501h-2.024v-7.5c0-0.295-0.201-0.534-0.497-0.534h-1.503v-1.932h1.503c0.070 0 0.14-0.014 0.204-0.040s0.124-0.066 0.174-0.116c0.1-0.101 0.118-0.237 0.118-0.379v-2.155c0-2.242 0.453-3.31 2.832-3.31h2.133v1.91h0.001z"></path>
</svg>
