<!-- Generated by IcoMoon.io -->
<svg version="1.1" xmlns="http://www.w3.org/2000/svg" width="32" height="32" viewBox="0 0 32 32">
<title>garanties</title>
<path fill="#7b1931" d="M15.814 31.627c8.734 0 15.814-7.080 15.814-15.814s-7.080-15.814-15.814-15.814c-8.734 0-15.814 7.080-15.814 15.814s7.080 15.814 15.814 15.814z"></path>
<path fill="#fff" d="M7.996 21.113h9.172v3.089l1.898-1.139 1.898 1.139v-3.089h2.214v-12.018h-15.181v12.018zM20.415 18.967c-0.028 0.029-0.059 0.055-0.089 0.082-0.017 0.015-0.033 0.031-0.051 0.046-0.020 0.016-0.041 0.030-0.061 0.046-0.273 0.209-0.597 0.34-0.939 0.379l-0.017 0.002c-0.129 0.013-0.258 0.013-0.386 0l-0.017-0.002c-0.342-0.038-0.666-0.169-0.939-0.379-0.020-0.016-0.041-0.030-0.061-0.046-0.017-0.015-0.034-0.031-0.051-0.046-0.030-0.027-0.060-0.053-0.089-0.082-0.352-0.354-0.549-0.834-0.549-1.333 0-1.047 0.851-1.898 1.898-1.898s1.898 0.851 1.898 1.898c0.001 0.499-0.196 0.979-0.547 1.333zM20.331 23.085l-1.265-0.759-1.265 0.759v-3.259c0.011 0.006 0.023 0.010 0.034 0.016 0.084 0.047 0.17 0.090 0.259 0.127l0.012 0.004c0.615 0.254 1.305 0.254 1.92 0l0.012-0.004c0.089-0.037 0.175-0.080 0.259-0.127 0.011-0.006 0.023-0.010 0.034-0.016v3.259h-0.001zM8.629 9.727h13.916v10.753h-1.581v-1.178c0.407-0.46 0.633-1.053 0.633-1.668 0-1.395-1.135-2.53-2.53-2.53s-2.53 1.135-2.53 2.53c0 0.639 0.24 1.222 0.633 1.668v1.178h-8.539v-10.753z"></path>
<path fill="#fff" d="M11.476 10.384h8.223v0.633h-8.223v-0.633zM13.057 12.282h5.060v0.633h-5.060v-0.633zM9.894 17.975h3.479v0.633h-3.479v-0.633z"></path>
</svg>
