<!-- Generated by IcoMoon.io -->
<svg version="1.1" xmlns="http://www.w3.org/2000/svg" width="33" height="32" viewBox="0 0 33 32">
<title>individual</title>
<path fill="#7b1931" d="M32.097 15.953c0 8.811-7.185 15.953-16.049 15.953s-16.049-7.142-16.049-15.953c0-8.811 7.185-15.953 16.049-15.953s16.049 7.142 16.049 15.953z"></path>
<path fill="#fff" d="M9.638 21.815h12.751c0.469 0 0.851-0.382 0.851-0.851v-11.968c0-0.469-0.382-0.851-0.851-0.851h-12.751c-0.469 0-0.851 0.382-0.851 0.851v11.968c0 0.469 0.382 0.851 0.851 0.851zM9.146 8.995c0-0.271 0.22-0.491 0.491-0.491h12.751c0.271 0 0.491 0.22 0.491 0.491v11.968c0 0.271-0.22 0.491-0.491 0.491h-12.751c-0.271 0-0.491-0.22-0.491-0.491v-11.968z"></path>
<path fill="#fff" d="M19.928 22.598h1.342c0.099 0 0.18-0.081 0.18-0.18v-0.783c0-0.099-0.080-0.18-0.18-0.18h-1.342c-0.099 0-0.18 0.081-0.18 0.18v0.783c0 0.099 0.080 0.18 0.18 0.18zM21.090 21.815v0.423h-0.982v-0.423h0.982zM10.756 22.598h1.342c0.099 0 0.18-0.081 0.18-0.18v-0.783c0-0.099-0.080-0.18-0.18-0.18h-1.342c-0.099 0-0.18 0.081-0.18 0.18v0.783c0 0.099 0.080 0.18 0.18 0.18zM11.918 21.815v0.423h-0.982v-0.423h0.982zM11.204 20.254h9.843c0.346 0 0.627-0.281 0.627-0.627v-9.295c0-0.346-0.281-0.627-0.627-0.627h-9.843c-0.346 0-0.627 0.281-0.627 0.627v1.124c0 0.099 0.080 0.18 0.18 0.18s0.18-0.081 0.18-0.18v-1.124c0-0.147 0.12-0.267 0.267-0.267h9.843c0.147 0 0.267 0.12 0.267 0.267v9.295c0 0.147-0.12 0.267-0.267 0.267h-9.843c-0.147 0-0.267-0.12-0.267-0.267v-1.124c0-0.099-0.081-0.18-0.18-0.18s-0.18 0.081-0.18 0.18v1.124c0 0.346 0.281 0.627 0.627 0.627z"></path>
<path fill="#fff" d="M10.576 17.608c0 0.099 0.080 0.18 0.18 0.18s0.18-0.081 0.18-0.18v-5.257c0-0.099-0.081-0.18-0.18-0.18s-0.18 0.081-0.18 0.18v5.257z"></path>
<path fill="#fff" d="M13.407 16.819l0 0c0.034 0.047 0.088 0.074 0.146 0.074h1.566c0.058 0 0.112-0.028 0.146-0.074l0-0c0.034-0.047 0.043-0.107 0.025-0.162v0l-0.293-0.887c0.258-0.202 0.414-0.515 0.414-0.847 0-0.593-0.482-1.075-1.075-1.075s-1.075 0.482-1.075 1.075c0 0.332 0.156 0.644 0.414 0.847l-0.293 0.887c-0.018 0.055-0.009 0.115 0.025 0.162zM13.553 16.825c-0.036 0-0.070-0.017-0.091-0.046l1.763-0.101c0.011 0.034 0.005 0.072-0.016 0.101s-0.055 0.046-0.091 0.046h-1.566zM14.87 16.533h-1.068l0.257-0.779c0.027-0.081-0.007-0.169-0.081-0.212-0.221-0.128-0.358-0.365-0.358-0.618 0-0.394 0.321-0.715 0.715-0.715s0.715 0.321 0.715 0.715c0 0.253-0.137 0.491-0.358 0.618-0.074 0.043-0.107 0.131-0.081 0.212v0l0.257 0.779zM10.197 12.531h1.119c0.346 0 0.627-0.281 0.627-0.627s-0.281-0.627-0.627-0.627h-1.119c-0.346 0-0.627 0.281-0.627 0.627s0.281 0.627 0.627 0.627zM9.929 11.904c0-0.147 0.12-0.267 0.268-0.267h1.119c0.147 0 0.267 0.12 0.267 0.267s-0.12 0.268-0.267 0.268h-1.119c-0.147 0-0.268-0.12-0.268-0.268zM10.197 18.683h1.119c0.346 0 0.627-0.281 0.627-0.627s-0.281-0.627-0.627-0.627h-1.119c-0.346 0-0.627 0.281-0.627 0.627s0.281 0.627 0.627 0.627zM9.929 18.056c0-0.147 0.12-0.267 0.268-0.267h1.119c0.147 0 0.267 0.12 0.267 0.267s-0.12 0.267-0.267 0.267h-1.119c-0.147 0-0.268-0.12-0.268-0.267zM19.077 17.161c0 0.346 0.281 0.627 0.627 0.627s0.627-0.281 0.627-0.627v-3.579c0-0.346-0.281-0.627-0.627-0.627s-0.627 0.281-0.627 0.627v3.579zM19.437 13.581c0-0.147 0.12-0.267 0.267-0.267s0.267 0.12 0.267 0.267v3.579c0 0.147-0.12 0.267-0.267 0.267s-0.267-0.12-0.267-0.267v-3.579z"></path>
</svg>
