<!-- Generated by IcoMoon.io -->
<svg version="1.1" xmlns="http://www.w3.org/2000/svg" width="32" height="32" viewBox="0 0 32 32">
<title>info</title>
<path fill="none" stroke="#a5a4a4" stroke-linejoin="miter" stroke-linecap="butt" stroke-miterlimit="4" stroke-width="1.6842" d="M16 29.474c7.906 0 14.316-6.409 14.316-14.316s-6.409-14.316-14.316-14.316c-7.906 0-14.316 6.409-14.316 14.316s6.409 14.316 14.316 14.316z"></path>
<path fill="#a5a4a4" d="M16.64 18.392h-2.004l-0.519-6.602v-4.716h3.065v4.716l-0.542 6.602zM15.65 20.325c0.487 0 0.904 0.173 1.25 0.519s0.519 0.762 0.519 1.25c0 0.487-0.173 0.904-0.519 1.25s-0.762 0.519-1.25 0.519c-0.487 0-0.904-0.173-1.25-0.519s-0.519-0.762-0.519-1.25c0-0.487 0.165-0.904 0.495-1.25 0.346-0.346 0.77-0.519 1.273-0.519z"></path>
</svg>
