<!-- Generated by IcoMoon.io -->
<svg version="1.1" xmlns="http://www.w3.org/2000/svg" width="32" height="32" viewBox="0 0 32 32">
<title>instagram</title>
<path fill="#fff" d="M16 8.667c-1.45 0-2.868 0.43-4.074 1.236s-2.146 1.951-2.701 3.291c-0.555 1.34-0.7 2.814-0.417 4.237s0.981 2.729 2.007 3.755c1.026 1.026 2.332 1.724 3.755 2.007s2.897 0.138 4.237-0.417c1.34-0.555 2.485-1.495 3.291-2.701s1.236-2.624 1.236-4.074c-0.002-1.944-0.776-3.808-2.15-5.183s-3.239-2.148-5.183-2.15zM16 22c-1.187 0-2.347-0.352-3.333-1.011s-1.756-1.596-2.21-2.693c-0.454-1.096-0.573-2.303-0.341-3.467s0.803-2.233 1.642-3.072c0.839-0.839 1.908-1.411 3.072-1.642s2.37-0.113 3.467 0.341c1.096 0.454 2.033 1.223 2.693 2.21s1.011 2.147 1.011 3.333c-0.002 1.591-0.634 3.116-1.759 4.241s-2.65 1.758-4.241 1.759zM23.333 0h-14.667c-2.298 0.003-4.501 0.917-6.125 2.541s-2.539 3.828-2.541 6.125v14.667c0.003 2.298 0.917 4.501 2.541 6.125s3.828 2.539 6.125 2.541h14.667c2.298-0.003 4.501-0.917 6.125-2.541s2.539-3.828 2.541-6.125v-14.667c-0.003-2.298-0.917-4.501-2.541-6.125s-3.828-2.539-6.125-2.541zM30.667 23.333c-0.002 1.944-0.776 3.808-2.15 5.183s-3.239 2.148-5.183 2.15h-14.667c-1.944-0.002-3.808-0.776-5.183-2.15s-2.148-3.239-2.15-5.183v-14.667c0.002-1.944 0.776-3.808 2.15-5.183s3.239-2.148 5.183-2.15h14.667c1.944 0.002 3.808 0.776 5.183 2.15s2.148 3.239 2.15 5.183v14.667zM26 7.333c0 0.264-0.078 0.521-0.225 0.741s-0.355 0.39-0.598 0.491c-0.244 0.101-0.512 0.127-0.77 0.076s-0.496-0.178-0.683-0.365-0.313-0.424-0.365-0.683c-0.051-0.259-0.025-0.527 0.076-0.77s0.272-0.452 0.491-0.598 0.477-0.225 0.741-0.225c0.353 0 0.692 0.141 0.942 0.391s0.39 0.589 0.391 0.942z"></path>
</svg>
