<!-- Generated by IcoMoon.io -->
<svg version="1.1" xmlns="http://www.w3.org/2000/svg" width="32" height="32" viewBox="0 0 32 32">
<title>less</title>
<path d="M16.321 8.52c-0.155-0.158-0.408-0.16-0.566-0.005l-2.57 2.521c-0.158 0.155-0.16 0.408-0.005 0.566s0.408 0.16 0.566 0.005l2.284-2.241 2.241 2.284c0.155 0.158 0.408 0.16 0.566 0.006s0.16-0.408 0.005-0.566l-2.521-2.57zM16.366 16.004l0.069-7.2-0.8-0.008-0.069 7.2 0.8 0.008z"></path>
<path fill="none" stroke="#4c4c4c" stroke-linejoin="miter" stroke-linecap="butt" stroke-miterlimit="4" stroke-width="0.8" d="M28.4 12.8c0 6.848-5.552 12.4-12.4 12.4s-12.4-5.552-12.4-12.4c0-6.848 5.552-12.4 12.4-12.4s12.4 5.552 12.4 12.4z"></path>
</svg>
