<!-- Generated by IcoMoon.io -->
<svg version="1.1" xmlns="http://www.w3.org/2000/svg" width="33" height="32" viewBox="0 0 33 32">
<title>moneds</title>
<path fill="#7b1931" d="M32.097 15.953c0 8.811-7.185 15.953-16.049 15.953s-16.049-7.142-16.049-15.953c0-8.811 7.185-15.953 16.049-15.953s16.049 7.142 16.049 15.953z"></path>
<path fill="#fff" d="M16.198 15.211c-0.737 0-1.457-0.218-2.069-0.628s-1.090-0.991-1.372-1.672c-0.282-0.681-0.356-1.429-0.212-2.152s0.498-1.386 1.019-1.907c0.521-0.521 1.185-0.876 1.907-1.019s1.471-0.070 2.152 0.212c0.681 0.282 1.262 0.759 1.672 1.372s0.628 1.333 0.628 2.069c-0.001 0.987-0.394 1.934-1.092 2.632s-1.645 1.091-2.632 1.092zM16.198 8.021c-0.687-0-1.358 0.203-1.929 0.584s-1.016 0.923-1.279 1.558c-0.263 0.634-0.332 1.332-0.198 2.006s0.465 1.292 0.951 1.777 1.105 0.816 1.778 0.949c0.674 0.134 1.372 0.064 2.006-0.199s1.176-0.709 1.557-1.28c0.381-0.571 0.584-1.243 0.582-1.93-0.002-0.919-0.368-1.799-1.018-2.449s-1.531-1.015-2.45-1.016v0z"></path>
<path fill="#fff" d="M16.726 11.671h-0.98v0.512h1.416v0.316h-1.416v0.697h-0.381v-0.697h-0.49v-0.316h0.49v-0.512h-0.49v-0.36h0.49v-1.928h1.362c0.312 0 0.581 0.113 0.806 0.338s0.338 0.494 0.338 0.806c0 0.312-0.113 0.581-0.338 0.806s-0.494 0.338-0.806 0.338zM16.726 9.743h-0.98v1.569h0.98c0.211 0 0.39-0.076 0.539-0.229 0.149-0.16 0.223-0.345 0.223-0.556 0-0.214-0.074-0.399-0.223-0.556-0.149-0.152-0.329-0.229-0.539-0.229z"></path>
<path fill="#fff" d="M11.77 23.927c-0.737 0-1.457-0.218-2.069-0.628s-1.090-0.991-1.372-1.672c-0.282-0.681-0.356-1.429-0.212-2.152s0.498-1.386 1.019-1.907c0.521-0.521 1.185-0.876 1.907-1.019s1.471-0.070 2.152 0.212c0.681 0.282 1.262 0.759 1.672 1.372s0.628 1.333 0.628 2.069c-0.001 0.988-0.393 1.935-1.092 2.633s-1.645 1.091-2.633 1.092zM11.77 16.735c-0.687-0.001-1.358 0.203-1.929 0.584s-1.016 0.923-1.279 1.557c-0.263 0.634-0.332 1.332-0.198 2.006s0.464 1.292 0.95 1.777c0.486 0.485 1.104 0.816 1.777 0.95s1.371 0.065 2.005-0.198c0.634-0.263 1.176-0.708 1.557-1.279s0.584-1.242 0.584-1.929c-0.002-0.919-0.368-1.8-1.018-2.45s-1.531-1.016-2.45-1.018zM20.626 23.927c-0.737 0-1.457-0.218-2.069-0.628s-1.090-0.991-1.372-1.672c-0.282-0.681-0.356-1.429-0.212-2.152s0.498-1.386 1.019-1.907c0.521-0.521 1.185-0.876 1.907-1.019s1.471-0.070 2.152 0.212c0.681 0.282 1.262 0.759 1.672 1.372s0.628 1.333 0.628 2.069c-0.001 0.988-0.393 1.935-1.092 2.633s-1.645 1.091-2.633 1.092zM20.626 16.735c-0.686 0-1.357 0.204-1.928 0.585s-1.015 0.924-1.278 1.558c-0.263 0.634-0.331 1.332-0.197 2.005s0.465 1.292 0.95 1.777c0.486 0.485 1.104 0.816 1.777 0.949s1.371 0.065 2.005-0.199c0.634-0.263 1.176-0.708 1.557-1.279s0.584-1.242 0.584-1.929c-0.001-0.92-0.368-1.801-1.018-2.451s-1.532-1.016-2.452-1.016z"></path>
<path fill="#fff" d="M12.787 20.781c0.002 0.125-0.022 0.248-0.070 0.363-0.048 0.107-0.118 0.202-0.205 0.28-0.092 0.081-0.199 0.145-0.314 0.187-0.133 0.048-0.272 0.078-0.413 0.088l-0.049 0.501c-0 0.012-0.004 0.024-0.011 0.034s-0.017 0.018-0.028 0.023c-0.020 0.008-0.041 0.013-0.062 0.016h-0.218c-0.024-0.004-0.048-0.011-0.070-0.021-0.008-0.003-0.014-0.008-0.020-0.013s-0.010-0.013-0.013-0.020c-0.005-0.015-0.005-0.032 0-0.047l0.049-0.478c-0.064-0.008-0.127-0.020-0.189-0.036-0.055-0.012-0.109-0.029-0.161-0.049-0.043-0.016-0.086-0.034-0.127-0.055-0.028-0.014-0.055-0.033-0.078-0.054-0.021-0.022-0.034-0.050-0.039-0.080-0.013-0.053-0.020-0.107-0.021-0.161 0-0.052 0-0.096 0-0.13 0.001-0.027 0.006-0.055 0.016-0.080 0.006-0.016 0.017-0.030 0.031-0.039 0.013-0.004 0.026-0.004 0.039 0 0.033 0.003 0.064 0.015 0.091 0.034 0.049 0.029 0.099 0.055 0.151 0.078 0.071 0.032 0.145 0.058 0.221 0.078 0.1 0.025 0.203 0.038 0.306 0.036 0.144 0.011 0.287-0.025 0.408-0.104 0.041-0.030 0.074-0.069 0.097-0.114s0.035-0.095 0.035-0.145c0.003-0.066-0.017-0.132-0.057-0.184-0.042-0.053-0.094-0.097-0.153-0.13-0.069-0.038-0.141-0.071-0.215-0.099l-0.26-0.091c-0.083-0.034-0.166-0.073-0.26-0.114-0.080-0.043-0.152-0.098-0.215-0.163-0.068-0.066-0.121-0.146-0.156-0.234-0.040-0.105-0.059-0.217-0.057-0.33 0.005-0.12 0.036-0.238 0.091-0.345 0.038-0.097 0.095-0.186 0.169-0.26s0.163-0.133 0.26-0.174c0.121-0.046 0.247-0.075 0.376-0.086l0.047-0.47c-0.003-0.011-0.003-0.023 0-0.034 0.008-0.010 0.018-0.018 0.029-0.023l0.060-0.016h0.221c0.025 0.004 0.050 0.011 0.073 0.021 0.008 0.003 0.014 0.008 0.020 0.013s0.010 0.013 0.013 0.020c0.002 0.015 0.002 0.031 0 0.047l-0.047 0.444c0.044 0 0.088 0.016 0.138 0.026 0.046 0.010 0.091 0.023 0.135 0.039 0.040 0.013 0.079 0.029 0.117 0.047 0.026 0.011 0.049 0.026 0.070 0.044 0.012 0.012 0.022 0.025 0.031 0.039 0.008 0.015 0.014 0.032 0.016 0.049 0.003 0.023 0.003 0.047 0 0.070 0 0.029 0 0.060 0 0.096s0 0.088 0 0.119c-0.002 0.025-0.006 0.049-0.013 0.073-0.003 0.012-0.011 0.023-0.021 0.031-0.009 0.003-0.019 0.003-0.029 0-0.031-0.004-0.061-0.013-0.088-0.029-0.039-0.021-0.088-0.044-0.145-0.067-0.064-0.026-0.13-0.047-0.197-0.065-0.079-0.022-0.162-0.032-0.244-0.031-0.070-0.001-0.14 0.007-0.208 0.023-0.052 0.012-0.1 0.035-0.143 0.068-0.035 0.026-0.062 0.061-0.078 0.101-0.018 0.040-0.027 0.083-0.026 0.127-0.002 0.067 0.018 0.133 0.057 0.187 0.043 0.052 0.096 0.095 0.156 0.127 0.071 0.039 0.144 0.072 0.221 0.099l0.26 0.093c0.088 0.034 0.175 0.072 0.26 0.114 0.081 0.047 0.154 0.106 0.218 0.174 0.066 0.066 0.119 0.145 0.156 0.231 0.045 0.104 0.068 0.216 0.067 0.33v0zM21.861 21.417c0.002 0.060-0.004 0.12-0.018 0.179-0.013 0.037-0.032 0.071-0.057 0.101-0.032 0.028-0.067 0.053-0.104 0.073-0.053 0.027-0.109 0.050-0.166 0.067-0.074 0.023-0.149 0.041-0.226 0.052-0.093 0.015-0.186 0.022-0.28 0.021-0.176 0.004-0.351-0.020-0.519-0.073-0.14-0.044-0.27-0.117-0.382-0.213-0.109-0.095-0.197-0.212-0.26-0.343-0.069-0.147-0.117-0.302-0.143-0.462h-0.244c-0.026 0-0.047-0.018-0.062-0.049-0.019-0.054-0.027-0.112-0.023-0.169-0.002-0.033-0.002-0.066 0-0.099-0.004-0.021-0.004-0.043 0-0.065 0.003-0.014 0.011-0.026 0.021-0.036 0.010-0.008 0.023-0.013 0.036-0.013h0.226v-0.080c0-0.029 0-0.055 0-0.083s0-0.067 0-0.101v-0.096h-0.226c-0.026 0-0.044-0.016-0.057-0.047-0.016-0.054-0.022-0.11-0.018-0.166-0.003-0.035-0.003-0.069 0-0.104 0.003-0.022 0.008-0.044 0.016-0.065 0.007-0.013 0.016-0.025 0.029-0.034 0.011-0.004 0.023-0.004 0.034 0h0.26c0.030-0.156 0.081-0.307 0.151-0.449 0.064-0.132 0.152-0.251 0.26-0.35s0.233-0.177 0.371-0.226c0.162-0.057 0.332-0.084 0.503-0.080 0.163-0.001 0.326 0.022 0.483 0.067 0.056 0.017 0.11 0.038 0.164 0.062l0.093 0.055c0.017 0.013 0.032 0.030 0.042 0.049s0.016 0.039 0.021 0.060c0 0.023 0 0.055 0.013 0.091s0 0.080 0 0.135c0 0.054 0 0.083 0 0.112-0.004 0.024-0.010 0.047-0.018 0.070-0.002 0.008-0.006 0.015-0.011 0.021s-0.011 0.011-0.018 0.015c-0.012 0.004-0.024 0.004-0.036 0-0.024-0.007-0.046-0.020-0.065-0.036-0.036-0.023-0.080-0.049-0.135-0.078-0.062-0.030-0.126-0.055-0.192-0.075-0.084-0.024-0.172-0.035-0.26-0.034-0.088-0.003-0.176 0.010-0.26 0.039-0.070 0.024-0.134 0.064-0.187 0.117s-0.095 0.113-0.125 0.182c-0.035 0.078-0.060 0.16-0.075 0.244h0.714c0.011-0.003 0.023-0.003 0.034 0 0.012 0.008 0.021 0.020 0.026 0.034 0.008 0.021 0.014 0.043 0.018 0.065 0 0.029 0 0.062 0 0.104 0.004 0.056-0.004 0.113-0.023 0.166-0.004 0.013-0.012 0.025-0.022 0.033s-0.024 0.013-0.037 0.014h-0.753c0 0.029 0 0.057 0 0.086s0 0.057 0 0.091c0 0.034 0 0.062 0 0.091s0 0.062 0 0.093h0.758c0.012 0.001 0.024 0.005 0.034 0.013 0.013 0.009 0.022 0.022 0.026 0.036 0.009 0.021 0.015 0.043 0.018 0.065 0.002 0.033 0.002 0.066 0 0.099 0.003 0.057-0.005 0.115-0.023 0.169-0.004 0.013-0.011 0.025-0.022 0.034s-0.024 0.014-0.038 0.015h-0.703c0.012 0.081 0.035 0.16 0.070 0.234 0.030 0.066 0.073 0.125 0.127 0.174 0.057 0.051 0.124 0.089 0.197 0.112 0.090 0.027 0.184 0.039 0.278 0.036 0.088 0.002 0.175-0.010 0.26-0.034 0.066-0.021 0.131-0.048 0.192-0.080 0.054-0.029 0.101-0.054 0.138-0.078 0.026-0.021 0.058-0.034 0.091-0.036 0.012-0.004 0.025-0.004 0.036 0 0.013 0.010 0.023 0.023 0.029 0.039 0.009 0.027 0.014 0.055 0.016 0.083 0.007 0.053 0.009 0.105 0.008 0.158zM10.265 15.891h-0.036c-0.033-0.008-0.061-0.028-0.079-0.057s-0.024-0.063-0.017-0.096c0.244-1.069 0.767-2.054 1.516-2.855 0.011-0.015 0.025-0.028 0.041-0.037s0.034-0.015 0.052-0.017c0.018-0.002 0.037 0 0.055 0.006s0.034 0.016 0.047 0.028 0.024 0.028 0.031 0.045c0.007 0.017 0.010 0.036 0.009 0.054s-0.005 0.037-0.014 0.053c-0.008 0.017-0.020 0.031-0.035 0.043-0.718 0.765-1.219 1.708-1.453 2.731-0.005 0.027-0.020 0.053-0.041 0.071s-0.048 0.029-0.076 0.030zM22.131 15.891c-0.029 0.001-0.057-0.009-0.080-0.027s-0.038-0.043-0.045-0.072c-0.233-1.023-0.735-1.966-1.453-2.731-0.012-0.012-0.021-0.026-0.027-0.042s-0.009-0.032-0.009-0.049 0.004-0.033 0.011-0.049c0.007-0.015 0.016-0.029 0.029-0.041s0.026-0.021 0.042-0.027 0.032-0.009 0.049-0.009c0.017 0 0.033 0.004 0.049 0.011s0.029 0.016 0.041 0.029c0.751 0.8 1.275 1.786 1.518 2.855 0.007 0.033 0.001 0.068-0.018 0.097s-0.047 0.049-0.081 0.056l-0.026-0.003zM16.198 24.373c-0.272 0-0.543-0.018-0.812-0.055-0.309-0.040-0.614-0.103-0.914-0.189-0.032-0.010-0.059-0.032-0.076-0.061s-0.020-0.065-0.010-0.097c0.010-0.032 0.032-0.060 0.061-0.076s0.065-0.020 0.097-0.010c0.287 0.082 0.579 0.142 0.875 0.179 0.517 0.069 1.040 0.069 1.557 0 0.297-0.038 0.59-0.099 0.877-0.184 0.034-0.009 0.071-0.005 0.102 0.013s0.053 0.047 0.063 0.081c0.009 0.034 0.005 0.071-0.013 0.102s-0.047 0.053-0.081 0.063c-0.299 0.086-0.605 0.151-0.914 0.192-0.27 0.030-0.541 0.044-0.812 0.042v0z"></path>
</svg>
