<!-- Generated by IcoMoon.io -->
<svg version="1.1" xmlns="http://www.w3.org/2000/svg" width="32" height="32" viewBox="0 0 32 32">
<title>more</title>
<path fill="#4c4c4c" d="M31 16c0-8.284-6.716-15-15-15s-15 6.716-15 15c0 8.284 6.716 15 15 15s15-6.716 15-15zM32 16c0 8.837-7.163 16-16 16s-16-7.163-16-16c0-8.837 7.163-16 16-16s16 7.163 16 16zM16.354 20.354c-0.195 0.195-0.512 0.195-0.707 0l-3.182-3.182c-0.195-0.195-0.195-0.512 0-0.707s0.512-0.195 0.707 0l2.328 2.328v-7.793h1v7.793l2.328-2.328c0.195-0.195 0.512-0.195 0.707 0s0.195 0.512 0 0.707l-3.182 3.182z"></path>
</svg>
