<!-- Generated by IcoMoon.io -->
<svg version="1.1" xmlns="http://www.w3.org/2000/svg" width="32" height="32" viewBox="0 0 32 32">
<title>online-bank</title>
<path fill="#7b1931" d="M31.688 15.844c0 8.75-7.094 15.844-15.844 15.844s-15.844-7.094-15.844-15.844c0-8.75 7.094-15.844 15.844-15.844s15.844 7.094 15.844 15.844z"></path>
<path fill="#fff" d="M21.728 10.058c0.414 0 0.753 0.339 0.753 0.754v8.289c0 0.414-0.339 0.754-0.753 0.754h-11.68c-0.414 0-0.754-0.339-0.754-0.754v-8.289c0-0.415 0.339-0.754 0.754-0.754h11.68zM21.728 9.556h-11.68c-0.691 0-1.256 0.565-1.256 1.256v8.289c0 0.691 0.565 1.256 1.256 1.256h11.68c0.691 0 1.256-0.565 1.256-1.256v-8.289c0-0.691-0.565-1.256-1.256-1.256z"></path>
<path fill="#fff" d="M15.951 19.226c0.208 0 0.377-0.169 0.377-0.377s-0.169-0.377-0.377-0.377c-0.208 0-0.377 0.169-0.377 0.377s0.169 0.377 0.377 0.377z"></path>
<path fill="#fff" d="M18.274 21.99h-2.072v-1.067c0-0.138-0.113-0.251-0.251-0.251s-0.251 0.113-0.251 0.251v1.067h-2.072c-0.138 0-0.251 0.113-0.251 0.251s0.113 0.251 0.251 0.251h4.647c0.138 0 0.251-0.113 0.251-0.251s-0.113-0.251-0.251-0.251z"></path>
<path fill="#fff" d="M21.351 11.189v6.405h-10.926v-6.405h10.926zM21.602 10.938h-11.429v6.907h11.429v-6.907z"></path>
</svg>
