<!-- Generated by IcoMoon.io -->
<svg version="1.1" xmlns="http://www.w3.org/2000/svg" width="32" height="32" viewBox="0 0 32 32">
<title>phone</title>
<path fill="#fff" d="M16 0c-8.837 0-16 7.163-16 16s7.163 16 16 16c8.837 0 16-7.163 16-16s-7.163-16-16-16zM10.25 6.355c0.33-0.019 0.628 0.178 0.854 0.527l2.188 4.148c0.23 0.492 0.099 1.018-0.244 1.369l-1.002 1.002c-0.062 0.085-0.103 0.18-0.104 0.285 0.384 1.487 1.55 2.859 2.578 3.803s2.134 2.221 3.568 2.523c0.177 0.049 0.395 0.067 0.521-0.051l1.164-1.186c0.402-0.304 0.983-0.452 1.412-0.203h0.020l3.947 2.33c0.579 0.363 0.639 1.065 0.225 1.492l-2.719 2.697c-0.402 0.412-0.935 0.55-1.453 0.551-2.292-0.069-4.458-1.194-6.236-2.35-2.92-2.124-5.598-4.759-7.279-7.941-0.645-1.335-1.402-3.038-1.33-4.527 0.006-0.56 0.158-1.109 0.553-1.471l2.719-2.719c0.212-0.18 0.421-0.27 0.619-0.281z"></path>
</svg>
