<!-- Generated by IcoMoon.io -->
<svg version="1.1" xmlns="http://www.w3.org/2000/svg" width="32" height="32" viewBox="0 0 32 32">
<title>search</title>
<path fill="#f3f3f3" d="M30.966 29.7l-10.082-10.388c1.565-2.084 2.411-4.632 2.411-7.312 0-3.208-1.215-6.216-3.413-8.484s-5.125-3.516-8.234-3.516c-3.11 0-6.037 1.252-8.234 3.516-2.201 2.264-3.413 5.276-3.413 8.484 0 3.204 1.215 6.22 3.413 8.484 2.197 2.268 5.121 3.516 8.234 3.516 2.601 0 5.070-0.872 7.093-2.48l10.082 10.384c0.030 0.031 0.065 0.055 0.103 0.071s0.080 0.025 0.122 0.025c0.042 0 0.083-0.008 0.122-0.025s0.074-0.041 0.103-0.071l1.693-1.74c0.030-0.031 0.053-0.067 0.069-0.106s0.024-0.082 0.024-0.126c0-0.043-0.008-0.086-0.024-0.126s-0.040-0.076-0.069-0.106zM17.797 18.336c-1.646 1.692-3.828 2.624-6.15 2.624s-4.503-0.932-6.15-2.624c-1.642-1.696-2.547-3.944-2.547-6.336s0.905-4.644 2.547-6.336c1.646-1.692 3.828-2.624 6.15-2.624s4.507 0.928 6.15 2.624c1.642 1.696 2.547 3.944 2.547 6.336s-0.905 4.644-2.547 6.336z"></path>
</svg>
