<!-- Generated by IcoMoon.io -->
<svg version="1.1" xmlns="http://www.w3.org/2000/svg" width="32" height="32" viewBox="0 0 32 32">
<title>twitter</title>
<path fill="#fff" d="M16-0.034c-8.841 0-16.035 7.192-16.035 16.034s7.194 16.034 16.035 16.034c8.841 0 16.035-7.192 16.035-16.034s-7.194-16.034-16.035-16.034zM16 30.966c-8.252 0-14.965-6.714-14.965-14.966s6.713-14.966 14.965-14.966c8.252 0 14.965 6.714 14.965 14.966s-6.713 14.966-14.965 14.966z"></path>
<path fill="#fff" d="M24.794 11.046c0.111-0.205 0.202-0.421 0.273-0.643 0.033-0.103 0.033-0.214 0.002-0.317s-0.094-0.195-0.178-0.263c-0.085-0.068-0.188-0.108-0.296-0.115s-0.216 0.018-0.309 0.072c-0.512 0.305-1.067 0.531-1.646 0.673-0.703-0.634-1.615-0.986-2.562-0.987-0.514 0-1.023 0.105-1.496 0.306s-0.9 0.497-1.256 0.868-0.634 0.81-0.816 1.291c-0.182 0.481-0.266 0.994-0.245 1.508-2.249-0.283-4.303-1.421-5.735-3.178-0.055-0.067-0.125-0.119-0.204-0.152s-0.166-0.048-0.252-0.041c-0.086 0.007-0.169 0.034-0.242 0.080s-0.134 0.109-0.178 0.183c-0.328 0.563-0.506 1.2-0.518 1.852s0.144 1.295 0.452 1.869c-0.075 0.013-0.148 0.039-0.214 0.078-0.081 0.052-0.147 0.123-0.194 0.207s-0.070 0.178-0.070 0.274c0 1.135 0.505 2.177 1.319 2.885l-0.035 0.035c-0.061 0.069-0.104 0.154-0.123 0.245s-0.014 0.185 0.015 0.273c0.17 0.529 0.453 1.015 0.83 1.424s0.839 0.73 1.354 0.941c-1.056 0.515-2.239 0.716-3.406 0.579-0.12-0.012-0.241 0.016-0.343 0.079s-0.181 0.16-0.223 0.273c-0.040 0.114-0.041 0.238-0.002 0.352s0.116 0.212 0.217 0.277c1.587 1.019 3.433 1.56 5.319 1.559 6.18 0 9.874-5.020 9.874-9.873l-0.001-0.164c0.599-0.468 1.119-1.028 1.541-1.66 0.064-0.095 0.095-0.209 0.090-0.324s-0.048-0.225-0.121-0.313c-0.073-0.089-0.173-0.152-0.284-0.179s-0.229-0.019-0.335 0.026zM23.049 12.801c-0.073 0.052-0.131 0.122-0.17 0.202s-0.057 0.169-0.052 0.259c0.006 0.132 0.009 0.266 0.009 0.398 0 4.328-3.293 8.805-8.804 8.805-0.983 0-1.959-0.165-2.887-0.488 1.112-0.213 2.156-0.69 3.045-1.39 0.087-0.068 0.15-0.162 0.181-0.267s0.030-0.218-0.005-0.323c-0.035-0.105-0.102-0.196-0.19-0.261s-0.196-0.102-0.306-0.104c-0.431-0.008-0.854-0.118-1.236-0.32s-0.709-0.491-0.959-0.843c0.253-0.017 0.501-0.059 0.742-0.124 0.117-0.031 0.219-0.101 0.291-0.198s0.109-0.216 0.104-0.336c-0.004-0.121-0.049-0.236-0.127-0.328s-0.186-0.154-0.304-0.177c-0.487-0.099-0.938-0.329-1.304-0.664s-0.635-0.764-0.777-1.241c0.266 0.067 0.539 0.106 0.812 0.115 0.235-0.001 0.453-0.145 0.526-0.371s-0.013-0.475-0.212-0.607c-0.471-0.313-0.833-0.765-1.037-1.292s-0.241-1.104-0.106-1.653c1.737 1.782 4.083 2.844 6.568 2.972 0.176 0.001 0.33-0.062 0.437-0.191s0.148-0.3 0.11-0.464c-0.137-0.589-0.076-1.207 0.174-1.757s0.674-1.004 1.207-1.289c0.533-0.285 1.145-0.387 1.742-0.289s1.145 0.389 1.559 0.83c0.062 0.066 0.14 0.116 0.226 0.143s0.178 0.033 0.268 0.016c0.165-0.033 0.328-0.071 0.489-0.115-0.073 0.054-0.148 0.105-0.226 0.151-0.104 0.064-0.183 0.161-0.224 0.275s-0.042 0.24-0.003 0.355c0.039 0.115 0.117 0.213 0.22 0.278s0.224 0.093 0.345 0.080l0.182-0.023c-0.1 0.083-0.203 0.162-0.309 0.237z"></path>
</svg>
