<svg aria-hidden="true" style="position: absolute; width: 0; height: 0; overflow: hidden;" version="1.1" xmlns="http://www.w3.org/2000/svg" xmlns:xlink="http://www.w3.org/1999/xlink">
<defs>
<symbol id="icon-consulting" viewBox="0 0 32 32">
<path fill="#7b1931" style="fill: var(--color1, #7b1931)" d="M31.79 15.8c0 8.726-7.117 15.8-15.895 15.8s-15.895-7.074-15.895-15.8c0-8.726 7.117-15.8 15.895-15.8s15.895 7.074 15.895 15.8z"></path>
<path fill="#fff" style="fill: var(--color2, #fff)" d="M16 20.571c-1.257 0-2.286-1.029-2.286-2.286v-1.429c0-0.171 0.114-0.286 0.286-0.286s0.286 0.114 0.286 0.286v1.429c0 0.971 0.743 1.714 1.714 1.714s1.714-0.743 1.714-1.714v-1.429c0-0.171 0.114-0.286 0.286-0.286s0.286 0.114 0.286 0.286v1.429c0 1.257-1.029 2.286-2.286 2.286z"></path>
<path fill="#fff" style="fill: var(--color2, #fff)" d="M16 17.714c-2.229 0-4-1.771-4-4v-1.429c0-0.171 0.114-0.286 0.286-0.286s0.286 0.114 0.286 0.286v1.429c0 1.886 1.543 3.429 3.429 3.429s3.429-1.543 3.429-3.429v-1.429c0-0.171 0.114-0.286 0.286-0.286s0.286 0.114 0.286 0.286v1.429c0 2.229-1.771 4-4 4zM23.143 25.143h-14.286c-0.171 0-0.286-0.114-0.286-0.286v-2.514c0-1.371 0.857-2.571 2.171-2.971l3.2-1.086h0.229c0.057 0.057 0.114 0.114 0.114 0.229 0.114 0.857 0.857 1.429 1.714 1.429s1.543-0.629 1.714-1.429c0-0.057 0.057-0.171 0.114-0.229s0.171-0.057 0.229 0l3.2 1.086c1.314 0.4 2.171 1.6 2.171 2.971v2.514c0 0.171-0.114 0.286-0.286 0.286v0zM9.143 24.571h13.714v-2.229c0-1.086-0.686-2.114-1.771-2.457l-2.914-0.971c-0.286 0.971-1.143 1.6-2.171 1.6s-1.886-0.686-2.171-1.6l-2.914 0.971c-1.086 0.343-1.771 1.371-1.771 2.457v2.229z"></path>
<path fill="#fff" style="fill: var(--color2, #fff)" d="M23.143 25.143h-3.429c-0.171 0-0.286-0.114-0.286-0.286v-0.571c0-1.886 1.429-3.486 3.257-3.657 0.114 0 0.229 0.057 0.286 0.114 0.286 0.514 0.457 1.029 0.457 1.6v2.514c0 0.171-0.114 0.286-0.286 0.286zM20 24.571h2.857v-2.229c0-0.4-0.114-0.8-0.286-1.143-1.486 0.286-2.571 1.543-2.571 3.086v0.286zM12.286 25.143h-3.429c-0.171 0-0.286-0.114-0.286-0.286v-2.514c0-0.571 0.171-1.143 0.457-1.6 0.057-0.114 0.171-0.171 0.286-0.171 1.886 0.229 3.257 1.829 3.257 3.657v0.571c0 0.229-0.114 0.343-0.286 0.343zM9.143 24.571h2.857v-0.286c0-1.543-1.086-2.8-2.571-3.086-0.171 0.343-0.286 0.743-0.286 1.143v2.229zM19.714 12.571h-0.286c-0.457 0-0.857-0.4-0.857-0.857v-1.143c0-0.171-0.114-0.286-0.286-0.286h-4.571c-0.171 0-0.286 0.114-0.286 0.286v1.143c0 0.457-0.4 0.857-0.857 0.857h-0.286c-0.171 0-0.286-0.114-0.286-0.286s0.114-0.286 0.286-0.286h0.286c0.171 0 0.286-0.114 0.286-0.286v-1.143c0-0.457 0.4-0.857 0.857-0.857h4.571c0.457 0 0.857 0.4 0.857 0.857v1.143c0 0.171 0.114 0.286 0.286 0.286h0.286c0.171 0 0.286 0.114 0.286 0.286s-0.114 0.286-0.286 0.286z"></path>
<path fill="#fff" style="fill: var(--color2, #fff)" d="M19.714 12.571h-0.057c-0.171-0.057-0.229-0.171-0.229-0.343l0.514-2.343c0.114-0.571 0-1.2-0.4-1.657-0.343-0.514-0.914-0.8-1.543-0.8h-2.857c-0.457 0-0.857 0.4-0.857 0.857 0 0.171-0.114 0.286-0.286 0.286s-0.286-0.114-0.286-0.286c0-0.8 0.629-1.429 1.429-1.429h2.857c0.8 0 1.543 0.343 2 0.971s0.686 1.429 0.514 2.171l-0.514 2.343c-0.057 0.114-0.171 0.229-0.286 0.229z"></path>
<path fill="#fff" style="fill: var(--color2, #fff)" d="M12.572 12.571h-0.286c-0.114 0-0.229-0.114-0.286-0.229l-0.629-2.4c-0.171-0.629 0-1.2 0.343-1.714s1.029-0.8 1.6-0.8h0.114c0.457 0 0.857 0.4 0.857 0.857 0 0.171-0.114 0.286-0.286 0.286s-0.286-0.114-0.286-0.286c0-0.171-0.114-0.286-0.286-0.286h-0.114c-0.457 0-0.857 0.229-1.143 0.571s-0.343 0.8-0.229 1.2l0.571 2.229h0.057c0.171 0 0.286 0.114 0.286 0.286s-0.114 0.286-0.286 0.286zM20.857 14.286h-1.143c-0.171 0-0.286-0.114-0.286-0.286v-1.714c0-0.171 0.114-0.286 0.286-0.286h0.571c0.457 0 0.857 0.4 0.857 0.857v1.143c0 0.171-0.114 0.286-0.286 0.286zM20 13.714h0.571v-0.857c0-0.171-0.114-0.286-0.286-0.286h-0.286v1.143z"></path>
<path fill="#fff" style="fill: var(--color2, #fff)" d="M19.143 16h-1.714c-0.171 0-0.286-0.114-0.286-0.286s0.114-0.286 0.286-0.286h1.714c0.8 0 1.429-0.629 1.429-1.429v-1.143c0-0.171 0.114-0.286 0.286-0.286s0.286 0.114 0.286 0.286v1.143c0 1.086-0.914 2-2 2zM12.286 14.286h-0.571c-0.457 0-0.857-0.4-0.857-0.857v-0.571c0-0.457 0.4-0.857 0.857-0.857h0.571c0.171 0 0.286 0.114 0.286 0.286v1.714c0 0.171-0.114 0.286-0.286 0.286zM11.714 12.571c-0.171 0-0.286 0.114-0.286 0.286v0.571c0 0.171 0.114 0.286 0.286 0.286h0.286v-1.143h-0.286z"></path>
<path fill="#fff" style="fill: var(--color2, #fff)" d="M16.857 16.571h-0.571c-0.457 0-0.857-0.4-0.857-0.857s0.4-0.857 0.857-0.857h0.571c0.457 0 0.857 0.4 0.857 0.857s-0.4 0.857-0.857 0.857zM16.286 15.429c-0.171 0-0.286 0.114-0.286 0.286s0.114 0.286 0.286 0.286h0.571c0.171 0 0.286-0.114 0.286-0.286s-0.114-0.286-0.286-0.286h-0.571z"></path>
</symbol>
<symbol id="icon-investments" viewBox="0 0 32 32">
<path fill="#7b1931" style="fill: var(--color1, #7b1931)" d="M31.385 15.692c0 8.667-7.026 15.692-15.692 15.692s-15.692-7.026-15.692-15.692c0-8.667 7.026-15.692 15.692-15.692s15.692 7.026 15.692 15.692z"></path>
<path fill="#fff" style="fill: var(--color2, #fff)" d="M12.309 19.518h-0.381c-0.21 0-0.381 0.256-0.381 0.571v3.429c0 0.316 0.171 0.571 0.381 0.571h0.381c0.21 0 0.381-0.256 0.381-0.571v-3.429c0-0.316-0.171-0.571-0.381-0.571z"></path>
<path fill="#fff" style="fill: var(--color2, #fff)" d="M8.88 21.232h-0.381c-0.21 0-0.381 0.256-0.381 0.571v1.714c0 0.316 0.171 0.571 0.381 0.571h0.381c0.21 0 0.381-0.256 0.381-0.571v-1.714c0-0.316-0.171-0.571-0.381-0.571z"></path>
<path fill="#fff" style="fill: var(--color2, #fff)" d="M15.737 17.804h-0.381c-0.21 0-0.381 0.256-0.381 0.571v5.143c0 0.316 0.171 0.571 0.381 0.571h0.381c0.21 0 0.381-0.256 0.381-0.571v-5.143c0-0.316-0.171-0.571-0.381-0.571z"></path>
<path fill="#fff" style="fill: var(--color2, #fff)" d="M19.166 16.089h-0.381c-0.21 0-0.381 0.256-0.381 0.571v6.857c0 0.316 0.171 0.571 0.381 0.571h0.381c0.21 0 0.381-0.256 0.381-0.571v-6.857c0-0.316-0.171-0.571-0.381-0.571z"></path>
<path fill="#fff" style="fill: var(--color2, #fff)" d="M22.595 14.375h-0.381c-0.21 0-0.381 0.256-0.381 0.571v8.571c0 0.316 0.171 0.571 0.381 0.571h0.381c0.21 0 0.381-0.256 0.381-0.571v-8.571c0-0.316-0.171-0.571-0.381-0.571z"></path>
<path fill="#fff" style="fill: var(--color2, #fff)" d="M9.51 11.764c0.209 0.439 0.538 0.811 0.949 1.071s0.888 0.398 1.374 0.398c0.486 0 0.963-0.138 1.374-0.398s0.74-0.631 0.949-1.071c0.123-0.257 0.201-0.534 0.231-0.817 0.012-0.095 0.017-0.19 0.017-0.286 0.001-0.123-0.009-0.247-0.029-0.369-0.022-0.167-0.063-0.33-0.12-0.489-0.176-0.504-0.504-0.941-0.939-1.251s-0.956-0.476-1.49-0.476-1.055 0.166-1.49 0.476c-0.435 0.309-0.763 0.746-0.939 1.251-0.057 0.158-0.098 0.322-0.12 0.489-0.001 0.025-0.001 0.050 0 0.074-0.013 0.098-0.019 0.196-0.017 0.294-0 0.095 0.006 0.191 0.017 0.286 0.030 0.284 0.109 0.56 0.231 0.817v0zM11.975 10.947h-0.286c-0.177 0-0.348-0.065-0.479-0.184s-0.214-0.282-0.232-0.458c-0.018-0.176 0.030-0.353 0.136-0.495s0.259-0.241 0.433-0.276v-0.3c0-0.076 0.030-0.148 0.084-0.202s0.126-0.084 0.202-0.084c0.076 0 0.148 0.030 0.202 0.084s0.084 0.126 0.084 0.202v0.286h0.286c0.076 0 0.148 0.030 0.202 0.084s0.084 0.126 0.084 0.202-0.030 0.148-0.084 0.202c-0.054 0.054-0.126 0.084-0.202 0.084h-0.714c-0.038 0-0.074 0.015-0.101 0.042s-0.042 0.063-0.042 0.101 0.015 0.074 0.042 0.101c0.027 0.027 0.063 0.042 0.101 0.042h0.286c0.189-0.019 0.379 0.038 0.526 0.159s0.241 0.295 0.26 0.484c0.019 0.19-0.038 0.379-0.159 0.526s-0.295 0.241-0.484 0.26v0.286c0 0.076-0.030 0.148-0.084 0.202s-0.126 0.084-0.202 0.084c-0.076 0-0.149-0.030-0.202-0.084s-0.084-0.126-0.084-0.202v-0.286h-0.286c-0.076 0-0.149-0.030-0.202-0.084s-0.084-0.126-0.084-0.202 0.030-0.148 0.084-0.202c0.054-0.054 0.126-0.084 0.202-0.084h0.714c0.038 0 0.074-0.015 0.101-0.042s0.042-0.063 0.042-0.101-0.015-0.074-0.042-0.101c-0.027-0.027-0.063-0.042-0.101-0.042zM24.050 9.046l-0.043-0.040c-0.044-0.035-0.098-0.056-0.154-0.060h-1.163c-0.076 0-0.148 0.030-0.202 0.084s-0.084 0.126-0.084 0.202 0.030 0.148 0.084 0.202c0.054 0.054 0.126 0.084 0.202 0.084h0.443l-1.511 1.486c-3.526 3.462-8.276 5.392-13.217 5.371h-0.571c-0.076 0-0.149 0.030-0.202 0.084s-0.084 0.126-0.084 0.202 0.030 0.148 0.084 0.202c0.054 0.054 0.126 0.084 0.202 0.084h0.897c4.979-0.061 9.742-2.045 13.291-5.537l1.526-1.497v0.463c0 0.076 0.030 0.148 0.084 0.202s0.126 0.084 0.202 0.084c0.076 0 0.148-0.030 0.202-0.084s0.084-0.126 0.084-0.202v-1.143c0-0.068-0.024-0.134-0.069-0.186v0z"></path>
</symbol>
<symbol id="icon-lifestyle" viewBox="0 0 32 32">
<path fill="#7b1931" style="fill: var(--color1, #7b1931)" d="M31.79 15.8c0 8.726-7.117 15.8-15.895 15.8s-15.895-7.074-15.895-15.8c0-8.726 7.117-15.8 15.895-15.8s15.895 7.074 15.895 15.8z"></path>
<path fill="#fff" style="fill: var(--color2, #fff)" d="M16.475 11.99h-0.571c-0.152 0-0.297-0.060-0.404-0.167s-0.167-0.253-0.167-0.404c0-0.076-0.030-0.148-0.084-0.202s-0.126-0.084-0.202-0.084c-0.076 0-0.148 0.030-0.202 0.084s-0.084 0.126-0.084 0.202c0 0.303 0.12 0.594 0.335 0.808s0.505 0.335 0.808 0.335v0.286c0 0.076 0.030 0.149 0.084 0.202s0.126 0.084 0.202 0.084c0.076 0 0.148-0.030 0.202-0.084s0.084-0.126 0.084-0.202v-0.286c0.303 0 0.594-0.12 0.808-0.335s0.335-0.505 0.335-0.808c0-0.303-0.12-0.594-0.335-0.808s-0.505-0.335-0.808-0.335h-0.571c-0.152 0-0.297-0.060-0.404-0.167s-0.167-0.253-0.167-0.404 0.060-0.297 0.167-0.404c0.107-0.107 0.252-0.167 0.404-0.167h0.571c0.152 0 0.297 0.060 0.404 0.167s0.167 0.252 0.167 0.404c0 0.076 0.030 0.149 0.084 0.202s0.126 0.084 0.202 0.084c0.076 0 0.148-0.030 0.202-0.084s0.084-0.126 0.084-0.202c0-0.303-0.12-0.594-0.335-0.808s-0.505-0.335-0.808-0.335v-0.286c0-0.076-0.030-0.148-0.084-0.202s-0.126-0.084-0.202-0.084c-0.076 0-0.148 0.030-0.202 0.084s-0.084 0.126-0.084 0.202v0.286c-0.303 0-0.594 0.12-0.808 0.335s-0.335 0.505-0.335 0.808c0 0.303 0.12 0.594 0.335 0.808s0.505 0.335 0.808 0.335h0.571c0.152 0 0.297 0.060 0.404 0.167s0.167 0.252 0.167 0.404-0.060 0.297-0.167 0.404c-0.107 0.107-0.253 0.167-0.404 0.167zM16.19 14.275c0.735 0 1.453-0.218 2.064-0.626s1.087-0.988 1.368-1.667c0.281-0.679 0.355-1.426 0.211-2.146s-0.497-1.382-1.017-1.902c-0.519-0.519-1.181-0.873-1.902-1.017s-1.467-0.070-2.146 0.211c-0.679 0.281-1.259 0.757-1.667 1.368s-0.626 1.329-0.626 2.064c0.001 0.985 0.393 1.929 1.089 2.625s1.64 1.088 2.625 1.089v0zM16.19 7.418c0.622 0 1.229 0.184 1.746 0.53s0.92 0.836 1.157 1.41c0.238 0.574 0.3 1.206 0.179 1.816s-0.421 1.17-0.86 1.609c-0.44 0.44-1 0.739-1.609 0.86s-1.242 0.059-1.816-0.179c-0.574-0.238-1.065-0.641-1.411-1.158s-0.53-1.124-0.53-1.746c0.001-0.833 0.332-1.632 0.922-2.221s1.388-0.921 2.221-0.921v0zM24.761 15.304h-2.286c-0.193 0-0.381 0.066-0.532 0.187s-0.257 0.288-0.301 0.477l-3.213-0.986c-0.414-0.126-0.858-0.116-1.266 0.031l-0.478 0.171-2.242-0.492c-0.474-0.104-0.967-0.072-1.423 0.093l-2.898 1.045c-0.066-0.155-0.175-0.288-0.316-0.382s-0.306-0.143-0.474-0.143h-2.286c-0.076 0-0.148 0.030-0.202 0.084s-0.084 0.126-0.084 0.202v5.714c0 0.076 0.030 0.148 0.084 0.202s0.126 0.084 0.202 0.084h2.286c0.141-0 0.28-0.035 0.404-0.102s0.23-0.163 0.308-0.28c1.057 1.34 2.4 2.427 3.93 3.182l1.233 0.607c0.187 0.093 0.396 0.135 0.605 0.122s0.41-0.081 0.585-0.197c0.174-0.116 0.315-0.276 0.408-0.463s0.135-0.396 0.121-0.605c0.077 0.020 0.157 0.032 0.237 0.035 0.078-0 0.156-0.008 0.233-0.024 0.25-0.051 0.476-0.185 0.641-0.38s0.259-0.44 0.267-0.695c0.163 0.091 0.345 0.141 0.531 0.145 0.078-0 0.156-0.008 0.233-0.024 0.266-0.054 0.504-0.202 0.671-0.417s0.251-0.482 0.237-0.754c0.221 0.055 0.454 0.038 0.665-0.049s0.388-0.239 0.506-0.434c0.086-0.13 0.144-0.276 0.171-0.429h0.31c0.023 0.209 0.123 0.402 0.279 0.542s0.359 0.219 0.569 0.22h2.286c0.076 0 0.148-0.030 0.202-0.084s0.084-0.126 0.084-0.202v-5.714c0-0.076-0.030-0.148-0.084-0.202s-0.126-0.084-0.202-0.084zM9.618 20.732c0 0.076-0.030 0.148-0.084 0.202s-0.126 0.084-0.202 0.084h-2v-5.143h2c0.076 0 0.149 0.030 0.202 0.084s0.084 0.126 0.084 0.202v4.571zM20.67 20.944c-0.041 0.063-0.094 0.117-0.157 0.159s-0.132 0.072-0.205 0.087c-0.073 0.015-0.149 0.016-0.223 0.002s-0.144-0.043-0.207-0.084l-2.653-1.747-0.122 0.186c-0.019 0.013-0.035 0.029-0.047 0.048s-0.021 0.040-0.025 0.062l-0.119 0.182 0.219 0.144c0.003 0 0.005 0.005 0.007 0.007l2.014 1.327c0.124 0.085 0.209 0.214 0.238 0.361s-0.001 0.3-0.083 0.425c-0.082 0.125-0.211 0.213-0.357 0.244s-0.3 0.004-0.426-0.076l-0.721-0.475-0.008-0.006-1.753-1.154h-0.005l-0.166-0.11c-0.063-0.040-0.14-0.054-0.213-0.038s-0.137 0.060-0.179 0.122c-0.041 0.063-0.056 0.139-0.042 0.212s0.057 0.138 0.119 0.181l1.927 1.269c0.093 0.063 0.165 0.152 0.208 0.255s0.054 0.218 0.032 0.328c-0.022 0.11-0.075 0.211-0.154 0.291s-0.179 0.135-0.289 0.158c-0.148 0.030-0.303 0.001-0.429-0.083l-1.935-1.274c-0.031-0.021-0.067-0.036-0.104-0.044s-0.075-0.008-0.113-0c-0.037 0.007-0.073 0.022-0.104 0.043s-0.058 0.048-0.079 0.080c-0.021 0.032-0.035 0.067-0.042 0.104s-0.007 0.076 0.001 0.113c0.008 0.037 0.023 0.072 0.045 0.103s0.049 0.058 0.081 0.078l0.101 0.066c0.003 0 0.005 0.006 0.008 0.008l1.371 0.902c0.14 0.084 0.242 0.22 0.283 0.378s0.019 0.326-0.062 0.468-0.214 0.247-0.371 0.291c-0.157 0.045-0.326 0.026-0.469-0.052l-1.236-0.611c-1.607-0.793-2.994-1.971-4.038-3.429v-4.035l3.024-1.089c0.355-0.128 0.739-0.153 1.107-0.072l1.356 0.298-0.981 0.354c-0.301 0.103-0.549 0.322-0.689 0.608s-0.161 0.616-0.058 0.917c0.103 0.301 0.322 0.549 0.608 0.689s0.616 0.161 0.917 0.058l1.358-0.441 3.675 2.42c0.068 0.045 0.126 0.104 0.169 0.173s0.071 0.146 0.082 0.227c0.001 0.014 0.002 0.028 0.004 0.042 0.008 0.124-0.024 0.246-0.093 0.35v0.001zM21.618 20.258h-0.343c-0.082-0.239-0.241-0.445-0.453-0.583l-3.79-2.496c-0.036-0.024-0.076-0.039-0.119-0.044s-0.086-0.002-0.126 0.011l-1.489 0.483c-0.116 0.038-0.24 0.041-0.357 0.010s-0.223-0.096-0.305-0.187c-0.069-0.077-0.119-0.169-0.144-0.269s-0.025-0.205 0-0.305c0.025-0.1 0.074-0.193 0.144-0.269s0.156-0.135 0.254-0.17l2.468-0.89c0.291-0.105 0.608-0.112 0.904-0.022l3.355 1.031v3.7zM24.475 21.018h-2c-0.076 0-0.148-0.030-0.202-0.084s-0.084-0.126-0.084-0.202v-4.571c0-0.076 0.030-0.148 0.084-0.202s0.126-0.084 0.202-0.084h2v5.143z"></path>
</symbol>
<symbol id="icon-pr-credits" viewBox="0 0 32 32">
<path fill="#7b1931" style="fill: var(--color1, #7b1931)" d="M31.79 15.8c0 8.726-7.117 15.8-15.895 15.8s-15.895-7.074-15.895-15.8c0-8.726 7.117-15.8 15.895-15.8s15.895 7.074 15.895 15.8z"></path>
<path fill="#fff" style="fill: var(--color2, #fff)" d="M23.147 18.7c0.114-0.226 0.091-0.309 0.091-1.034 0-0.214-0.085-0.42-0.237-0.572s-0.357-0.237-0.572-0.237h-0.249c2.486-1.746 1.269-5.714-1.8-5.714-0.53-0-1.052 0.134-1.517 0.39s-0.857 0.625-1.14 1.073c-0.284 0.448-0.449 0.961-0.481 1.491s0.071 1.058 0.298 1.538c0.694 1.466 1.826 1.223 0.22 1.223-0.214 0-0.42 0.085-0.572 0.237s-0.237 0.357-0.237 0.572c0 0.571-0.091 1.051 0.377 1.349-0.059 0.113-0.091 0.238-0.091 0.366 0 0.706 0 0.737 0.040 0.906-0.11-0.010-0.221 0.003-0.326 0.037s-0.202 0.088-0.286 0.16c-0.084-0.072-0.181-0.126-0.286-0.16s-0.216-0.046-0.326-0.037c0.051-0.169 0.040-0.18 0.040-0.906-0.001-0.127-0.032-0.253-0.091-0.366 0.469-0.286 0.377-0.769 0.377-1.349 0-0.214-0.085-0.42-0.237-0.572s-0.357-0.237-0.572-0.237c-0.163 0-0.049 0.037-0.049-0.237 0-0.72 0-0.751-0.046-0.931 0.176-0.043 0.332-0.143 0.444-0.285s0.173-0.317 0.174-0.498v-0.669c0-0.214-0.085-0.42-0.237-0.572s-0.357-0.237-0.572-0.237h-0.534c2.52-1.76 1.26-5.714-1.8-5.714-0.53-0-1.052 0.134-1.517 0.39s-0.857 0.625-1.14 1.073c-0.284 0.448-0.449 0.961-0.481 1.491s0.071 1.058 0.298 1.538c0.663 1.397 1.669 1.223 0.506 1.223-0.214 0-0.42 0.085-0.572 0.237s-0.237 0.357-0.237 0.572c0 0.72-0.014 0.751 0.046 0.931-0.176 0.043-0.332 0.143-0.444 0.285s-0.173 0.317-0.174 0.498v0.669c0 0.114 0.024 0.226 0.071 0.33s0.114 0.197 0.198 0.273c0.085 0.076 0.184 0.134 0.292 0.169s0.223 0.048 0.336 0.036c-0.501 0.008-0.993 0.135-1.436 0.37s-0.824 0.571-1.112 0.981c-0.039 0.062-0.052 0.137-0.037 0.209s0.057 0.135 0.117 0.177c0.060 0.042 0.134 0.059 0.206 0.048s0.138-0.050 0.183-0.107c0.332-0.478 0.816-0.83 1.374-0.998s1.156-0.14 1.696 0.076c0.54 0.217 0.991 0.611 1.279 1.117s0.395 1.095 0.304 1.671c-0.091 0.575-0.374 1.103-0.804 1.496s-0.98 0.629-1.561 0.669c-0.581 0.040-1.158-0.119-1.637-0.45s-0.832-0.815-1-1.372c-0.021-0.073-0.070-0.134-0.137-0.171s-0.145-0.045-0.217-0.024c-0.073 0.021-0.134 0.070-0.17 0.137s-0.045 0.145-0.024 0.217c0.205 0.69 0.64 1.289 1.233 1.697s1.309 0.599 2.027 0.543c0.050 0.166 0.152 0.311 0.291 0.414s0.308 0.158 0.481 0.158h4.669c0.214 0 0.42-0.085 0.572-0.237s0.237-0.357 0.237-0.572c0-0.691 0.026-0.803-0.091-1.034 0.032-0.020 0.063-0.043 0.091-0.069 0.145 0.126 0.331 0.196 0.523 0.197 0.163 0 0.049-0.037 0.049 0.237v0.669c0 0.214 0.085 0.42 0.237 0.572s0.357 0.237 0.572 0.237h4.669c0.214 0 0.42-0.085 0.572-0.237s0.237-0.357 0.237-0.572v-0.669c0-0.214-0.085-0.42-0.237-0.572s-0.357-0.237-0.572-0.237c-0.163 0-0.049 0.037-0.049-0.237 0-0.706 0-0.737-0.040-0.906 0.113 0.011 0.227-0.001 0.335-0.037s0.207-0.093 0.292-0.169c0.084-0.076 0.152-0.169 0.199-0.273s0.071-0.216 0.072-0.33c0-0.583 0.091-1.051-0.377-1.349zM18.058 15.389c-0.206-0.446-0.283-0.941-0.223-1.429 0.389-2.749 4.103-3.014 4.969-0.531 0.213 0.62 0.181 1.297-0.089 1.894s-0.757 1.068-1.363 1.318-1.284 0.259-1.896 0.026c-0.612-0.233-1.112-0.691-1.398-1.281v0.003zM17.524 17.674c0-0.063 0.025-0.123 0.069-0.168s0.105-0.070 0.168-0.070h4.669c0.063 0 0.123 0.025 0.168 0.070s0.070 0.105 0.070 0.168v0.669c0 0.063-0.025 0.123-0.070 0.168s-0.105 0.069-0.168 0.069h-4.669c-0.063 0-0.123-0.025-0.168-0.069s-0.069-0.105-0.069-0.168v-0.669zM16.381 21.103v0.669c0 0.063-0.025 0.123-0.070 0.168s-0.105 0.069-0.168 0.069h-3.191c0.174-0.334 0.284-0.697 0.323-1.071 0-0.106-0.306-0.071 2.857-0.071 0.031-0.002 0.063 0.003 0.092 0.014s0.057 0.027 0.080 0.048 0.042 0.047 0.055 0.076c0.013 0.029 0.020 0.059 0.022 0.091v0.009zM13.295 20.286c-0.040-0.399-0.157-0.787-0.343-1.143h2.323c0.063 0 0.123 0.025 0.168 0.070s0.069 0.105 0.069 0.168v0.669c0 0.063-0.025 0.123-0.069 0.168s-0.105 0.070-0.168 0.070h-1.98zM10.629 11.96c-0.206-0.446-0.283-0.941-0.223-1.429 0.389-2.749 4.103-3.014 4.969-0.531 0.213 0.62 0.181 1.297-0.089 1.894s-0.757 1.068-1.363 1.318-1.284 0.259-1.896 0.026c-0.612-0.233-1.112-0.691-1.398-1.281v0.003zM10.381 14.246c0-0.063 0.025-0.123 0.069-0.168s0.105-0.069 0.168-0.069h4.669c0.063 0 0.123 0.025 0.168 0.069s0.069 0.105 0.069 0.168v0.669c0 0.063-0.025 0.123-0.069 0.168s-0.105 0.069-0.168 0.069h-4.669c-0.063 0-0.123-0.025-0.168-0.069s-0.069-0.105-0.069-0.168v-0.669zM9.809 16.629v-0.677c0-0.063 0.025-0.123 0.069-0.168s0.105-0.069 0.168-0.069h4.669c0.063 0 0.123 0.025 0.168 0.069s0.069 0.105 0.069 0.168v0.669c0 0.063-0.025 0.123-0.069 0.168s-0.105 0.070-0.168 0.070h-4.669c-0.063 0-0.123-0.025-0.168-0.070s-0.069-0.105-0.069-0.168v0.009zM10.755 17.486c0.103-0.086-0.211-0.057 4.817-0.057 0.063 0 0.123 0.025 0.168 0.070s0.069 0.105 0.069 0.168v0.669c0 0.063-0.025 0.123-0.069 0.168s-0.105 0.070-0.168 0.070h-2.983c-0.466-0.564-1.115-0.948-1.834-1.086v0zM16.095 23.477c0 0.063-0.025 0.123-0.070 0.168s-0.105 0.070-0.168 0.070c-5.069 0-4.763 0.049-4.857-0.114 0.621-0.173 1.174-0.532 1.586-1.029h3.271c0.063 0 0.123 0.025 0.168 0.070s0.070 0.105 0.070 0.168v0.669zM22.952 22.809v0.669c0 0.063-0.025 0.123-0.070 0.168s-0.105 0.070-0.168 0.070h-4.669c-0.063 0-0.123-0.025-0.168-0.070s-0.069-0.105-0.069-0.168v-0.669c0-0.063 0.025-0.123 0.069-0.168s0.105-0.070 0.168-0.070h4.669c0.063 0 0.123 0.025 0.168 0.070s0.070 0.105 0.070 0.168v0zM22.095 21.094v0.669c0 0.063-0.025 0.123-0.070 0.168s-0.105 0.070-0.168 0.070h-4.669c-0.063-0.001-0.122-0.026-0.167-0.070s-0.070-0.104-0.070-0.167v-0.669c0-0.063 0.025-0.123 0.069-0.168s0.105-0.070 0.168-0.070h4.669c0.063 0 0.123 0.025 0.168 0.070s0.070 0.105 0.070 0.168v0zM22.952 20.049c0 0.063-0.025 0.123-0.070 0.168s-0.105 0.070-0.168 0.070h-4.669c-0.063 0-0.123-0.025-0.168-0.070s-0.069-0.105-0.069-0.168v-0.669c0-0.063 0.025-0.123 0.069-0.168s0.105-0.070 0.168-0.070h4.669c0.063 0 0.123 0.025 0.168 0.070s0.070 0.105 0.070 0.168v0.669z"></path>
<path fill="#fff" style="fill: var(--color2, #fff)" d="M10.238 21.143h-0.714c-0.076 0-0.149 0.030-0.202 0.084s-0.084 0.126-0.084 0.202 0.030 0.148 0.084 0.202c0.054 0.054 0.126 0.084 0.202 0.084h0.286v0.286c0 0.076 0.030 0.148 0.084 0.202s0.126 0.084 0.202 0.084c0.076 0 0.148-0.030 0.202-0.084s0.084-0.126 0.084-0.202v-0.286c0.189-0.019 0.364-0.112 0.484-0.26s0.178-0.337 0.159-0.526c-0.019-0.189-0.112-0.364-0.26-0.484s-0.337-0.178-0.526-0.159c-0.189 0-0.429 0.046-0.429-0.143 0-0.038 0.015-0.074 0.042-0.101s0.063-0.042 0.101-0.042h0.714c0.076 0 0.148-0.030 0.202-0.084s0.084-0.126 0.084-0.202-0.030-0.148-0.084-0.202c-0.054-0.054-0.126-0.084-0.202-0.084h-0.286v-0.286c0-0.076-0.030-0.148-0.084-0.202s-0.126-0.084-0.202-0.084c-0.076 0-0.149 0.030-0.202 0.084s-0.084 0.126-0.084 0.202v0.286c-0.19 0.019-0.364 0.112-0.484 0.26s-0.178 0.337-0.159 0.526c0.019 0.189 0.112 0.364 0.26 0.484s0.337 0.178 0.526 0.159h0.286c0.038 0 0.074 0.015 0.101 0.042s0.042 0.063 0.042 0.101-0.015 0.074-0.042 0.101c-0.027 0.027-0.063 0.042-0.101 0.042zM7.615 20.286c0.005-0.082 0.017-0.163 0.037-0.243 0.015-0.072 0.001-0.148-0.038-0.21s-0.101-0.107-0.173-0.125-0.147-0.007-0.211 0.030c-0.064 0.037-0.111 0.097-0.132 0.168-0.029 0.125-0.048 0.252-0.057 0.38 0 0.076 0.030 0.149 0.084 0.203s0.127 0.084 0.203 0.084c0.076 0 0.149-0.030 0.203-0.084s0.084-0.127 0.084-0.203zM12.81 10.286h0.714c0.076 0 0.148-0.030 0.202-0.084s0.084-0.126 0.084-0.202-0.030-0.148-0.084-0.202c-0.054-0.054-0.126-0.084-0.202-0.084h-0.286v-0.286c0-0.076-0.030-0.148-0.084-0.202s-0.126-0.084-0.202-0.084c-0.076 0-0.149 0.030-0.202 0.084s-0.084 0.126-0.084 0.202v0.3c-0.174 0.035-0.328 0.134-0.433 0.276s-0.153 0.319-0.136 0.495c0.018 0.176 0.1 0.34 0.232 0.458s0.302 0.184 0.48 0.184c0.189 0 0.429-0.046 0.429 0.143 0 0.038-0.015 0.074-0.042 0.101s-0.063 0.042-0.101 0.042h-0.714c-0.076 0-0.149 0.030-0.202 0.084s-0.084 0.126-0.084 0.202 0.030 0.148 0.084 0.202c0.054 0.054 0.126 0.084 0.202 0.084h0.286v0.286c0 0.076 0.030 0.148 0.084 0.202s0.126 0.084 0.202 0.084c0.076 0 0.148-0.030 0.202-0.084s0.084-0.126 0.084-0.202v-0.286c0.189-0.019 0.364-0.112 0.484-0.26s0.178-0.337 0.159-0.526c-0.019-0.19-0.112-0.364-0.26-0.484s-0.337-0.178-0.526-0.159h-0.286c-0.038 0-0.074-0.015-0.101-0.042s-0.042-0.063-0.042-0.101 0.015-0.074 0.042-0.101c0.027-0.027 0.063-0.042 0.101-0.042zM20.238 13.714h0.714c0.076 0 0.148-0.030 0.202-0.084s0.084-0.126 0.084-0.202-0.030-0.148-0.084-0.202c-0.054-0.054-0.126-0.084-0.202-0.084h-0.286v-0.286c0-0.076-0.030-0.148-0.084-0.202s-0.126-0.084-0.202-0.084c-0.076 0-0.148 0.030-0.202 0.084s-0.084 0.126-0.084 0.202v0.3c-0.174 0.035-0.328 0.134-0.433 0.276s-0.153 0.319-0.136 0.495c0.018 0.176 0.1 0.34 0.232 0.458s0.302 0.184 0.48 0.184c0.189 0 0.429-0.046 0.429 0.143 0 0.038-0.015 0.074-0.042 0.101s-0.063 0.042-0.101 0.042h-0.714c-0.076 0-0.148 0.030-0.202 0.084s-0.084 0.126-0.084 0.202 0.030 0.148 0.084 0.202c0.054 0.054 0.126 0.084 0.202 0.084h0.286v0.286c0 0.076 0.030 0.148 0.084 0.202s0.126 0.084 0.202 0.084c0.076 0 0.148-0.030 0.202-0.084s0.084-0.126 0.084-0.202v-0.286c0.189-0.019 0.364-0.112 0.484-0.26s0.178-0.337 0.159-0.526c-0.019-0.19-0.112-0.364-0.26-0.484s-0.337-0.178-0.526-0.159h-0.286c-0.038 0-0.074-0.015-0.101-0.042s-0.042-0.063-0.042-0.101 0.015-0.074 0.042-0.101c0.027-0.027 0.063-0.042 0.101-0.042z"></path>
</symbol>
<symbol id="icon-pr-deposite" viewBox="0 0 32 32">
<path fill="#7b1931" style="fill: var(--color1, #7b1931)" d="M31.385 15.692c0 8.667-7.026 15.692-15.692 15.692s-15.692-7.026-15.692-15.692c0-8.667 7.026-15.692 15.692-15.692s15.692 7.026 15.692 15.692z"></path>
<path fill="#fff" style="fill: var(--color2, #fff)" d="M15.619 12.953v-0.381h-0.762v-0.762h1.524v-0.381h-1.143c-0.101 0-0.198-0.040-0.269-0.112s-0.112-0.168-0.112-0.269v-1.143c0-0.101 0.040-0.198 0.112-0.269s0.168-0.112 0.269-0.112h0.381v-0.381h0.762v0.381h0.762v0.762h-1.524v0.381h1.143c0.101 0 0.198 0.040 0.269 0.112s0.112 0.168 0.112 0.269v1.143c0 0.101-0.040 0.198-0.112 0.269s-0.168 0.112-0.269 0.112h-0.381v0.381h-0.762zM20.571 18.667v1.524c0 0.101-0.040 0.198-0.112 0.269s-0.168 0.112-0.269 0.112h-0.415l-0.282 2.781c-0.028 0.283-0.161 0.545-0.373 0.735s-0.486 0.295-0.77 0.293h-4.709c-0.284 0.001-0.559-0.103-0.77-0.293s-0.344-0.452-0.373-0.735l-0.274-2.781h-0.415c-0.101 0-0.198-0.040-0.269-0.112s-0.112-0.168-0.112-0.269v-1.524c0-0.101 0.040-0.198 0.112-0.269s0.168-0.112 0.269-0.112h3.81v-0.122c-0.849-0.316-1.637-0.775-2.331-1.356-0.796-0.792-1.429-2.51-1.455-2.583-0.025-0.068-0.029-0.142-0.014-0.212s0.051-0.135 0.102-0.186c0.051-0.051 0.116-0.087 0.186-0.102s0.144-0.011 0.212 0.014c0.072 0.027 1.79 0.659 2.583 1.455 0.281 0.298 0.521 0.631 0.716 0.99v-1.73c-0.871-0.097-1.671-0.524-2.237-1.194s-0.854-1.53-0.805-2.404c0.049-0.875 0.431-1.698 1.067-2.3s1.48-0.938 2.356-0.938 1.719 0.335 2.356 0.938c0.637 0.602 1.018 1.425 1.067 2.3s-0.239 1.735-0.805 2.404c-0.566 0.669-1.366 1.096-2.237 1.194v1.73c0.195-0.36 0.436-0.693 0.716-0.99 0.792-0.796 2.51-1.429 2.583-1.455 0.068-0.025 0.142-0.029 0.212-0.014s0.135 0.051 0.186 0.102c0.051 0.051 0.087 0.116 0.102 0.186s0.011 0.144-0.014 0.212c-0.027 0.072-0.659 1.79-1.455 2.583-0.694 0.582-1.483 1.040-2.331 1.356v0.122h3.81c0.101 0 0.198 0.040 0.269 0.112s0.112 0.168 0.112 0.269zM16.72 17.185c0.53-0.228 1.020-0.536 1.455-0.914 0.376-0.436 0.685-0.927 0.914-1.455-0.53 0.228-1.020 0.536-1.455 0.914-0.376 0.436-0.685 0.927-0.914 1.455v0zM15.28 17.185c-0.228-0.53-0.536-1.020-0.914-1.455-0.435-0.378-0.926-0.687-1.455-0.914 0.228 0.529 0.536 1.020 0.914 1.455 0.435 0.378 0.926 0.687 1.455 0.914v0zM16 13.714c0.527 0 1.043-0.156 1.482-0.449s0.78-0.71 0.982-1.197c0.202-0.487 0.255-1.023 0.152-1.541s-0.357-0.992-0.73-1.365-0.848-0.627-1.365-0.73c-0.517-0.103-1.053-0.050-1.541 0.152s-0.904 0.544-1.197 0.982c-0.293 0.439-0.449 0.954-0.449 1.482 0 0.707 0.281 1.386 0.781 1.886s1.178 0.781 1.886 0.781zM19.006 20.572h-6.011l0.27 2.705c0.009 0.094 0.054 0.182 0.124 0.245s0.162 0.098 0.257 0.098h4.712c0.095 0 0.186-0.034 0.257-0.098s0.115-0.151 0.124-0.245l0.267-2.705zM19.81 19.048h-7.619v0.762h7.619v-0.762z"></path>
</symbol>
<symbol id="icon-transactions" viewBox="0 0 32 32">
<path fill="#7b1931" style="fill: var(--color1, #7b1931)" d="M31.385 15.692c0 8.667-7.026 15.692-15.692 15.692s-15.692-7.026-15.692-15.692c0-8.667 7.026-15.692 15.692-15.692s15.692 7.026 15.692 15.692z"></path>
<path fill="#fff" style="fill: var(--color2, #fff)" d="M22.82 16.756h-9.143c-0.303 0-0.594 0.12-0.808 0.335s-0.335 0.505-0.335 0.808v2h-1.714c-1.103 0-2-0.977-2-2.18 0-0.949-0.057-0.391 0.286-0.391 0.057 0 0.112-0.016 0.16-0.048s0.084-0.076 0.106-0.129c0.022-0.052 0.027-0.11 0.016-0.166s-0.039-0.107-0.079-0.147l-0.571-0.571c-0.027-0.027-0.058-0.048-0.093-0.063s-0.072-0.022-0.11-0.022-0.075 0.007-0.11 0.022c-0.035 0.014-0.066 0.036-0.093 0.063l-0.571 0.571c-0.054 0.054-0.084 0.127-0.084 0.203s0.030 0.149 0.084 0.203c0.054 0.054 0.127 0.084 0.203 0.084s0.149-0.030 0.203-0.084l0.083-0.086v0.571c0 1.506 1.143 2.74 2.571 2.74h1.714v2c0 0.303 0.12 0.594 0.335 0.808s0.505 0.335 0.808 0.335h9.143c0.303 0 0.594-0.12 0.808-0.335s0.335-0.505 0.335-0.808v-4.571c0-0.303-0.12-0.594-0.335-0.808s-0.505-0.335-0.808-0.335zM23.392 22.47c0 0.152-0.060 0.297-0.167 0.404s-0.253 0.167-0.404 0.167h-9.143c-0.152 0-0.297-0.060-0.404-0.167s-0.167-0.253-0.167-0.404v-4.571c0-0.152 0.060-0.297 0.167-0.404s0.252-0.167 0.404-0.167h9.143c0.152 0 0.297 0.060 0.404 0.167s0.167 0.253 0.167 0.404v4.571z"></path>
<path fill="#fff" style="fill: var(--color2, #fff)" d="M18.249 18.756c-0.282 0-0.559 0.084-0.794 0.241s-0.418 0.38-0.526 0.641c-0.108 0.261-0.136 0.548-0.081 0.825s0.191 0.532 0.391 0.731 0.454 0.336 0.732 0.391c0.277 0.055 0.564 0.027 0.825-0.081s0.484-0.291 0.641-0.526c0.157-0.235 0.241-0.511 0.241-0.794 0-0.379-0.15-0.742-0.418-1.010s-0.631-0.418-1.010-0.418v0zM18.249 21.042c-0.17 0-0.335-0.050-0.476-0.144s-0.251-0.228-0.316-0.385c-0.065-0.157-0.082-0.329-0.049-0.495s0.115-0.319 0.235-0.439c0.12-0.12 0.273-0.202 0.439-0.235s0.339-0.016 0.495 0.049c0.157 0.065 0.29 0.175 0.385 0.316s0.144 0.307 0.144 0.476c0 0.227-0.090 0.445-0.251 0.606s-0.379 0.251-0.606 0.251zM21.678 19.327c-0.17 0-0.335 0.050-0.476 0.144s-0.251 0.228-0.316 0.385c-0.065 0.157-0.082 0.329-0.049 0.495s0.115 0.319 0.235 0.439c0.12 0.12 0.273 0.202 0.439 0.235s0.339 0.016 0.495-0.049c0.157-0.065 0.29-0.175 0.385-0.316s0.144-0.307 0.144-0.476c0-0.227-0.090-0.445-0.251-0.606s-0.379-0.251-0.606-0.251v0zM21.678 20.47c-0.076 0-0.148-0.030-0.202-0.084s-0.084-0.126-0.084-0.202c0-0.076 0.030-0.148 0.084-0.202s0.126-0.084 0.202-0.084c0.076 0 0.148 0.030 0.202 0.084s0.084 0.126 0.084 0.202c0 0.076-0.030 0.148-0.084 0.202s-0.126 0.084-0.202 0.084zM14.821 19.327c-0.17 0-0.335 0.050-0.476 0.144s-0.251 0.228-0.316 0.385c-0.065 0.157-0.082 0.329-0.049 0.495s0.115 0.319 0.235 0.439c0.12 0.12 0.273 0.202 0.439 0.235s0.339 0.016 0.495-0.049c0.157-0.065 0.29-0.175 0.385-0.316s0.144-0.307 0.144-0.476c0-0.227-0.090-0.445-0.251-0.606s-0.379-0.251-0.606-0.251zM14.821 20.47c-0.076 0-0.148-0.030-0.202-0.084s-0.084-0.126-0.084-0.202c0-0.076 0.030-0.148 0.084-0.202s0.126-0.084 0.202-0.084c0.076 0 0.149 0.030 0.202 0.084s0.084 0.126 0.084 0.202c0 0.076-0.030 0.148-0.084 0.202s-0.126 0.084-0.202 0.084zM7.963 10.185v-0.286c0-0.076-0.030-0.149-0.084-0.202s-0.126-0.084-0.202-0.084c-0.076 0-0.148 0.030-0.202 0.084s-0.084 0.126-0.084 0.202v0.286c0 0.076 0.030 0.148 0.084 0.202s0.126 0.084 0.202 0.084c0.076 0 0.149-0.030 0.202-0.084s0.084-0.126 0.084-0.202z"></path>
<path fill="#fff" style="fill: var(--color2, #fff)" d="M8.535 15.613h6.286c0.303 0 0.594-0.12 0.808-0.335s0.335-0.505 0.335-0.808v-2.857h1.429c1.103 0 2 0.977 2 2.18v0.571l-0.083-0.086c-0.054-0.054-0.127-0.084-0.203-0.084s-0.149 0.030-0.203 0.084c-0.054 0.054-0.084 0.127-0.084 0.203s0.030 0.149 0.084 0.203l0.571 0.571c0.027 0.027 0.058 0.048 0.093 0.063s0.072 0.022 0.11 0.022c0.038 0 0.075-0.007 0.11-0.022s0.066-0.036 0.093-0.063l0.571-0.571c0.027-0.027 0.048-0.058 0.062-0.093s0.022-0.072 0.022-0.11c0-0.038-0.007-0.075-0.022-0.11s-0.035-0.066-0.062-0.093c-0.027-0.027-0.058-0.048-0.093-0.062s-0.072-0.022-0.11-0.022c-0.038 0-0.075 0.007-0.11 0.022s-0.066 0.036-0.093 0.062l-0.083 0.086v-0.571c0-1.517-1.143-2.751-2.571-2.751h-1.429v-2.857c0-0.303-0.12-0.594-0.335-0.808s-0.505-0.335-0.808-0.335h-6.286c-0.303 0-0.594 0.12-0.808 0.335s-0.335 0.505-0.335 0.808v0.571c0 0.076 0.030 0.148 0.084 0.202s0.126 0.084 0.202 0.084c0.076 0 0.149-0.030 0.202-0.084s0.084-0.126 0.084-0.202v-0.571c0-0.152 0.060-0.297 0.167-0.404s0.252-0.167 0.404-0.167h2v2c0 0.076 0.030 0.148 0.084 0.202s0.126 0.084 0.202 0.084h1.714c0.076 0 0.149-0.030 0.202-0.084s0.084-0.126 0.084-0.202v-2h2c0.152 0 0.297 0.060 0.404 0.167s0.167 0.253 0.167 0.404v6.286c0 0.152-0.060 0.297-0.167 0.404s-0.252 0.167-0.404 0.167h-6.286c-0.152 0-0.297-0.060-0.404-0.167s-0.167-0.252-0.167-0.404v-3.143c0-0.076-0.030-0.149-0.084-0.202s-0.126-0.084-0.202-0.084c-0.076 0-0.148 0.030-0.202 0.084s-0.084 0.126-0.084 0.202v3.143c0 0.303 0.12 0.594 0.335 0.808s0.505 0.335 0.808 0.335zM12.249 9.327h-1.143v-1.714h1.143v1.714z"></path>
<path fill="#fff" style="fill: var(--color2, #fff)" d="M8.821 13.327h1.143c0.076 0 0.149-0.030 0.202-0.084s0.084-0.126 0.084-0.202c0-0.076-0.030-0.149-0.084-0.202s-0.126-0.084-0.202-0.084h-1.143c-0.076 0-0.148 0.030-0.202 0.084s-0.084 0.126-0.084 0.202c0 0.076 0.030 0.148 0.084 0.202s0.126 0.084 0.202 0.084zM8.821 14.47h1.143c0.076 0 0.149-0.030 0.202-0.084s0.084-0.126 0.084-0.202c0-0.076-0.030-0.149-0.084-0.202s-0.126-0.084-0.202-0.084h-1.143c-0.076 0-0.148 0.030-0.202 0.084s-0.084 0.126-0.084 0.202c0 0.076 0.030 0.148 0.084 0.202s0.126 0.084 0.202 0.084z"></path>
</symbol>
<symbol id="icon-dollar" viewBox="0 0 19 32">
<path fill="#c1c1c1" style="fill: var(--color3, #c1c1c1)" d="M10.049 25.237c1.875-0.088 3.169-0.773 3.882-2.056 0.373-0.658 0.559-1.42 0.559-2.286 0-1.371-0.504-2.412-1.513-3.125-0.581-0.417-1.557-0.811-2.928-1.184v8.651zM4.474 9.365c0 1.086 0.356 1.935 1.069 2.549 0.724 0.614 1.694 1.042 2.911 1.283v-7.73c-1.436 0.055-2.462 0.493-3.076 1.316-0.603 0.822-0.905 1.683-0.905 2.582zM1.513 9.563c0-1.667 0.609-3.169 1.826-4.507 1.228-1.338 2.944-2.018 5.148-2.039v-2.188h1.563v2.155c2.182 0.154 3.854 0.8 5.016 1.941 1.173 1.129 1.787 2.626 1.842 4.49h-2.878c-0.077-0.833-0.302-1.552-0.674-2.155-0.691-1.107-1.793-1.689-3.306-1.743v7.993c2.544 0.713 4.271 1.382 5.181 2.007 1.48 1.031 2.22 2.555 2.22 4.572 0 2.917-0.948 4.989-2.845 6.217-1.053 0.68-2.571 1.129-4.556 1.349v3.191h-1.563v-3.191c-3.191-0.208-5.356-1.338-6.497-3.388-0.625-1.107-0.938-2.604-0.938-4.49h2.911c0.088 1.502 0.323 2.599 0.707 3.289 0.68 1.239 1.941 1.935 3.783 2.089v-8.964c-2.368-0.45-4.117-1.201-5.247-2.253s-1.694-2.511-1.694-4.375z"></path>
</symbol>
<symbol id="icon-euro" viewBox="0 0 28 32">
<path fill="#c1c1c1" style="fill: var(--color3, #c1c1c1)" d="M1.875 19.766l0.82-2.773h3.828c-0.026-0.534-0.039-1.081-0.039-1.641 0-0.482 0.013-0.964 0.039-1.445h-4.648l0.82-2.773h4.141c0.443-2.383 1.27-4.447 2.48-6.191 2.031-2.943 4.837-4.414 8.418-4.414 3.047 0 5.41 0.957 7.090 2.871 1.693 1.914 2.63 4.089 2.813 6.523h-3.184c-0.352-1.849-1.068-3.314-2.149-4.395s-2.591-1.621-4.531-1.621c-2.383 0-4.303 0.996-5.762 2.988-0.807 1.094-1.387 2.506-1.738 4.238h10.898l-0.82 2.773h-10.469c-0.039 0.664-0.059 1.367-0.059 2.109 0 0.339 0.007 0.664 0.020 0.977h11.328l-0.82 2.773h-10.215c0.313 1.706 0.866 3.184 1.66 4.434 1.315 2.083 3.281 3.125 5.898 3.125 2.409 0 4.245-1.1 5.508-3.301 0.664-1.159 1.159-2.682 1.484-4.57h3.183c-0.286 3.021-1.23 5.553-2.832 7.598-1.914 2.461-4.492 3.691-7.734 3.691-2.799 0-5.15-1.009-7.051-3.027-1.797-1.901-2.949-4.551-3.457-7.949h-4.922z"></path>
</symbol>
<symbol id="icon-ruble" viewBox="0 0 23 32">
<path fill="#c1c1c1" style="fill: var(--color3, #c1c1c1)" d="M4.139 32v-30.464h8.021c3.726 0 6.485 0.754 8.277 2.261 1.82 1.508 2.731 3.698 2.731 6.571 0 1.934-0.441 3.598-1.323 4.992-0.882 1.365-2.19 2.418-3.925 3.157-1.707 0.74-3.826 1.109-6.357 1.109h-3.584v12.373h-3.84zM0.427 26.197v-2.773h14.592v2.773h-14.592zM0.427 19.627v-3.243h9.771v3.243h-9.771zM11.008 16.384c1.735 0 3.2-0.185 4.395-0.555 1.223-0.37 2.162-0.981 2.816-1.835s0.981-2.020 0.981-3.499c0-1.934-0.597-3.371-1.792-4.309s-3.058-1.408-5.589-1.408h-3.84v11.605h3.029z"></path>
</symbol>
</defs>
</svg>
