<!-- Generated by IcoMoon.io -->
<svg version="1.1" xmlns="http://www.w3.org/2000/svg" width="32" height="32" viewBox="0 0 32 32">
<title>consulting</title>
<path fill="#7b1931" d="M31.79 15.8c0 8.726-7.117 15.8-15.895 15.8s-15.895-7.074-15.895-15.8c0-8.726 7.117-15.8 15.895-15.8s15.895 7.074 15.895 15.8z"></path>
<path fill="#808080" d="M16 20.571c-1.257 0-2.286-1.029-2.286-2.286v-1.429c0-0.171 0.114-0.286 0.286-0.286s0.286 0.114 0.286 0.286v1.429c0 0.971 0.743 1.714 1.714 1.714s1.714-0.743 1.714-1.714v-1.429c0-0.171 0.114-0.286 0.286-0.286s0.286 0.114 0.286 0.286v1.429c0 1.257-1.029 2.286-2.286 2.286z"></path>
<path fill="#808080" d="M16 17.714c-2.229 0-4-1.771-4-4v-1.429c0-0.171 0.114-0.286 0.286-0.286s0.286 0.114 0.286 0.286v1.429c0 1.886 1.543 3.429 3.429 3.429s3.429-1.543 3.429-3.429v-1.429c0-0.171 0.114-0.286 0.286-0.286s0.286 0.114 0.286 0.286v1.429c0 2.229-1.771 4-4 4zM23.143 25.143h-14.286c-0.171 0-0.286-0.114-0.286-0.286v-2.514c0-1.371 0.857-2.571 2.171-2.971l3.2-1.086h0.229c0.057 0.057 0.114 0.114 0.114 0.229 0.114 0.857 0.857 1.429 1.714 1.429s1.543-0.629 1.714-1.429c0-0.057 0.057-0.171 0.114-0.229s0.171-0.057 0.229 0l3.2 1.086c1.314 0.4 2.171 1.6 2.171 2.971v2.514c0 0.171-0.114 0.286-0.286 0.286v0zM9.143 24.571h13.714v-2.229c0-1.086-0.686-2.114-1.771-2.457l-2.914-0.971c-0.286 0.971-1.143 1.6-2.171 1.6s-1.886-0.686-2.171-1.6l-2.914 0.971c-1.086 0.343-1.771 1.371-1.771 2.457v2.229z"></path>
<path fill="#808080" d="M23.143 25.143h-3.429c-0.171 0-0.286-0.114-0.286-0.286v-0.571c0-1.886 1.429-3.486 3.257-3.657 0.114 0 0.229 0.057 0.286 0.114 0.286 0.514 0.457 1.029 0.457 1.6v2.514c0 0.171-0.114 0.286-0.286 0.286zM20 24.571h2.857v-2.229c0-0.4-0.114-0.8-0.286-1.143-1.486 0.286-2.571 1.543-2.571 3.086v0.286zM12.286 25.143h-3.429c-0.171 0-0.286-0.114-0.286-0.286v-2.514c0-0.571 0.171-1.143 0.457-1.6 0.057-0.114 0.171-0.171 0.286-0.171 1.886 0.229 3.257 1.829 3.257 3.657v0.571c0 0.229-0.114 0.343-0.286 0.343zM9.143 24.571h2.857v-0.286c0-1.543-1.086-2.8-2.571-3.086-0.171 0.343-0.286 0.743-0.286 1.143v2.229zM19.714 12.571h-0.286c-0.457 0-0.857-0.4-0.857-0.857v-1.143c0-0.171-0.114-0.286-0.286-0.286h-4.571c-0.171 0-0.286 0.114-0.286 0.286v1.143c0 0.457-0.4 0.857-0.857 0.857h-0.286c-0.171 0-0.286-0.114-0.286-0.286s0.114-0.286 0.286-0.286h0.286c0.171 0 0.286-0.114 0.286-0.286v-1.143c0-0.457 0.4-0.857 0.857-0.857h4.571c0.457 0 0.857 0.4 0.857 0.857v1.143c0 0.171 0.114 0.286 0.286 0.286h0.286c0.171 0 0.286 0.114 0.286 0.286s-0.114 0.286-0.286 0.286z"></path>
<path fill="#808080" d="M19.714 12.571h-0.057c-0.171-0.057-0.229-0.171-0.229-0.343l0.514-2.343c0.114-0.571 0-1.2-0.4-1.657-0.343-0.514-0.914-0.8-1.543-0.8h-2.857c-0.457 0-0.857 0.4-0.857 0.857 0 0.171-0.114 0.286-0.286 0.286s-0.286-0.114-0.286-0.286c0-0.8 0.629-1.429 1.429-1.429h2.857c0.8 0 1.543 0.343 2 0.971s0.686 1.429 0.514 2.171l-0.514 2.343c-0.057 0.114-0.171 0.229-0.286 0.229z"></path>
<path fill="#808080" d="M12.572 12.571h-0.286c-0.114 0-0.229-0.114-0.286-0.229l-0.629-2.4c-0.171-0.629 0-1.2 0.343-1.714s1.029-0.8 1.6-0.8h0.114c0.457 0 0.857 0.4 0.857 0.857 0 0.171-0.114 0.286-0.286 0.286s-0.286-0.114-0.286-0.286c0-0.171-0.114-0.286-0.286-0.286h-0.114c-0.457 0-0.857 0.229-1.143 0.571s-0.343 0.8-0.229 1.2l0.571 2.229h0.057c0.171 0 0.286 0.114 0.286 0.286s-0.114 0.286-0.286 0.286zM20.857 14.286h-1.143c-0.171 0-0.286-0.114-0.286-0.286v-1.714c0-0.171 0.114-0.286 0.286-0.286h0.571c0.457 0 0.857 0.4 0.857 0.857v1.143c0 0.171-0.114 0.286-0.286 0.286zM20 13.714h0.571v-0.857c0-0.171-0.114-0.286-0.286-0.286h-0.286v1.143z"></path>
<path fill="#808080" d="M19.143 16h-1.714c-0.171 0-0.286-0.114-0.286-0.286s0.114-0.286 0.286-0.286h1.714c0.8 0 1.429-0.629 1.429-1.429v-1.143c0-0.171 0.114-0.286 0.286-0.286s0.286 0.114 0.286 0.286v1.143c0 1.086-0.914 2-2 2zM12.286 14.286h-0.571c-0.457 0-0.857-0.4-0.857-0.857v-0.571c0-0.457 0.4-0.857 0.857-0.857h0.571c0.171 0 0.286 0.114 0.286 0.286v1.714c0 0.171-0.114 0.286-0.286 0.286zM11.714 12.571c-0.171 0-0.286 0.114-0.286 0.286v0.571c0 0.171 0.114 0.286 0.286 0.286h0.286v-1.143h-0.286z"></path>
<path fill="#808080" d="M16.857 16.571h-0.571c-0.457 0-0.857-0.4-0.857-0.857s0.4-0.857 0.857-0.857h0.571c0.457 0 0.857 0.4 0.857 0.857s-0.4 0.857-0.857 0.857zM16.286 15.429c-0.171 0-0.286 0.114-0.286 0.286s0.114 0.286 0.286 0.286h0.571c0.171 0 0.286-0.114 0.286-0.286s-0.114-0.286-0.286-0.286h-0.571z"></path>
</svg>
