<!-- Generated by IcoMoon.io -->
<svg version="1.1" xmlns="http://www.w3.org/2000/svg" width="19" height="32" viewBox="0 0 19 32">
<title>dollar</title>
<path fill="#c1c1c1" d="M10.049 25.237c1.875-0.088 3.169-0.773 3.882-2.056 0.373-0.658 0.559-1.42 0.559-2.286 0-1.371-0.504-2.412-1.513-3.125-0.581-0.417-1.557-0.811-2.928-1.184v8.651zM4.474 9.365c0 1.086 0.356 1.935 1.069 2.549 0.724 0.614 1.694 1.042 2.911 1.283v-7.73c-1.436 0.055-2.462 0.493-3.076 1.316-0.603 0.822-0.905 1.683-0.905 2.582zM1.513 9.563c0-1.667 0.609-3.169 1.826-4.507 1.228-1.338 2.944-2.018 5.148-2.039v-2.188h1.563v2.155c2.182 0.154 3.854 0.8 5.016 1.941 1.173 1.129 1.787 2.626 1.842 4.49h-2.878c-0.077-0.833-0.302-1.552-0.674-2.155-0.691-1.107-1.793-1.689-3.306-1.743v7.993c2.544 0.713 4.271 1.382 5.181 2.007 1.48 1.031 2.22 2.555 2.22 4.572 0 2.917-0.948 4.989-2.845 6.217-1.053 0.68-2.571 1.129-4.556 1.349v3.191h-1.563v-3.191c-3.191-0.208-5.356-1.338-6.497-3.388-0.625-1.107-0.938-2.604-0.938-4.49h2.911c0.088 1.502 0.323 2.599 0.707 3.289 0.68 1.239 1.941 1.935 3.783 2.089v-8.964c-2.368-0.45-4.117-1.201-5.247-2.253s-1.694-2.511-1.694-4.375z"></path>
</svg>
