<!-- Generated by IcoMoon.io -->
<svg version="1.1" xmlns="http://www.w3.org/2000/svg" width="28" height="32" viewBox="0 0 28 32">
<title>euro</title>
<path fill="#c1c1c1" d="M1.875 19.766l0.82-2.773h3.828c-0.026-0.534-0.039-1.081-0.039-1.641 0-0.482 0.013-0.964 0.039-1.445h-4.648l0.82-2.773h4.141c0.443-2.383 1.27-4.447 2.48-6.191 2.031-2.943 4.837-4.414 8.418-4.414 3.047 0 5.41 0.957 7.090 2.871 1.693 1.914 2.63 4.089 2.813 6.523h-3.184c-0.352-1.849-1.068-3.314-2.149-4.395s-2.591-1.621-4.531-1.621c-2.383 0-4.303 0.996-5.762 2.988-0.807 1.094-1.387 2.506-1.738 4.238h10.898l-0.82 2.773h-10.469c-0.039 0.664-0.059 1.367-0.059 2.109 0 0.339 0.007 0.664 0.020 0.977h11.328l-0.82 2.773h-10.215c0.313 1.706 0.866 3.184 1.66 4.434 1.315 2.083 3.281 3.125 5.898 3.125 2.409 0 4.245-1.1 5.508-3.301 0.664-1.159 1.159-2.682 1.484-4.57h3.183c-0.286 3.021-1.23 5.553-2.832 7.598-1.914 2.461-4.492 3.691-7.734 3.691-2.799 0-5.15-1.009-7.051-3.027-1.797-1.901-2.949-4.551-3.457-7.949h-4.922z"></path>
</svg>
