<!-- Generated by IcoMoon.io -->
<svg version="1.1" xmlns="http://www.w3.org/2000/svg" width="32" height="32" viewBox="0 0 32 32">
<title>investments</title>
<path fill="#7b1931" d="M31.385 15.692c0 8.667-7.026 15.692-15.692 15.692s-15.692-7.026-15.692-15.692c0-8.667 7.026-15.692 15.692-15.692s15.692 7.026 15.692 15.692z"></path>
<path fill="#808080" d="M12.309 19.518h-0.381c-0.21 0-0.381 0.256-0.381 0.571v3.429c0 0.316 0.171 0.571 0.381 0.571h0.381c0.21 0 0.381-0.256 0.381-0.571v-3.429c0-0.316-0.171-0.571-0.381-0.571z"></path>
<path fill="#808080" d="M8.88 21.232h-0.381c-0.21 0-0.381 0.256-0.381 0.571v1.714c0 0.316 0.171 0.571 0.381 0.571h0.381c0.21 0 0.381-0.256 0.381-0.571v-1.714c0-0.316-0.171-0.571-0.381-0.571z"></path>
<path fill="#808080" d="M15.737 17.804h-0.381c-0.21 0-0.381 0.256-0.381 0.571v5.143c0 0.316 0.171 0.571 0.381 0.571h0.381c0.21 0 0.381-0.256 0.381-0.571v-5.143c0-0.316-0.171-0.571-0.381-0.571z"></path>
<path fill="#808080" d="M19.166 16.089h-0.381c-0.21 0-0.381 0.256-0.381 0.571v6.857c0 0.316 0.171 0.571 0.381 0.571h0.381c0.21 0 0.381-0.256 0.381-0.571v-6.857c0-0.316-0.171-0.571-0.381-0.571z"></path>
<path fill="#808080" d="M22.595 14.375h-0.381c-0.21 0-0.381 0.256-0.381 0.571v8.571c0 0.316 0.171 0.571 0.381 0.571h0.381c0.21 0 0.381-0.256 0.381-0.571v-8.571c0-0.316-0.171-0.571-0.381-0.571z"></path>
<path fill="#808080" d="M9.51 11.764c0.209 0.439 0.538 0.811 0.949 1.071s0.888 0.398 1.374 0.398c0.486 0 0.963-0.138 1.374-0.398s0.74-0.631 0.949-1.071c0.123-0.257 0.201-0.534 0.231-0.817 0.012-0.095 0.017-0.19 0.017-0.286 0.001-0.123-0.009-0.247-0.029-0.369-0.022-0.167-0.063-0.33-0.12-0.489-0.176-0.504-0.504-0.941-0.939-1.251s-0.956-0.476-1.49-0.476-1.055 0.166-1.49 0.476c-0.435 0.309-0.763 0.746-0.939 1.251-0.057 0.158-0.098 0.322-0.12 0.489-0.001 0.025-0.001 0.050 0 0.074-0.013 0.098-0.019 0.196-0.017 0.294-0 0.095 0.006 0.191 0.017 0.286 0.030 0.284 0.109 0.56 0.231 0.817v0zM11.975 10.947h-0.286c-0.177 0-0.348-0.065-0.479-0.184s-0.214-0.282-0.232-0.458c-0.018-0.176 0.030-0.353 0.136-0.495s0.259-0.241 0.433-0.276v-0.3c0-0.076 0.030-0.148 0.084-0.202s0.126-0.084 0.202-0.084c0.076 0 0.148 0.030 0.202 0.084s0.084 0.126 0.084 0.202v0.286h0.286c0.076 0 0.148 0.030 0.202 0.084s0.084 0.126 0.084 0.202-0.030 0.148-0.084 0.202c-0.054 0.054-0.126 0.084-0.202 0.084h-0.714c-0.038 0-0.074 0.015-0.101 0.042s-0.042 0.063-0.042 0.101 0.015 0.074 0.042 0.101c0.027 0.027 0.063 0.042 0.101 0.042h0.286c0.189-0.019 0.379 0.038 0.526 0.159s0.241 0.295 0.26 0.484c0.019 0.19-0.038 0.379-0.159 0.526s-0.295 0.241-0.484 0.26v0.286c0 0.076-0.030 0.148-0.084 0.202s-0.126 0.084-0.202 0.084c-0.076 0-0.149-0.030-0.202-0.084s-0.084-0.126-0.084-0.202v-0.286h-0.286c-0.076 0-0.149-0.030-0.202-0.084s-0.084-0.126-0.084-0.202 0.030-0.148 0.084-0.202c0.054-0.054 0.126-0.084 0.202-0.084h0.714c0.038 0 0.074-0.015 0.101-0.042s0.042-0.063 0.042-0.101-0.015-0.074-0.042-0.101c-0.027-0.027-0.063-0.042-0.101-0.042zM24.050 9.046l-0.043-0.040c-0.044-0.035-0.098-0.056-0.154-0.060h-1.163c-0.076 0-0.148 0.030-0.202 0.084s-0.084 0.126-0.084 0.202 0.030 0.148 0.084 0.202c0.054 0.054 0.126 0.084 0.202 0.084h0.443l-1.511 1.486c-3.526 3.462-8.276 5.392-13.217 5.371h-0.571c-0.076 0-0.149 0.030-0.202 0.084s-0.084 0.126-0.084 0.202 0.030 0.148 0.084 0.202c0.054 0.054 0.126 0.084 0.202 0.084h0.897c4.979-0.061 9.742-2.045 13.291-5.537l1.526-1.497v0.463c0 0.076 0.030 0.148 0.084 0.202s0.126 0.084 0.202 0.084c0.076 0 0.148-0.030 0.202-0.084s0.084-0.126 0.084-0.202v-1.143c0-0.068-0.024-0.134-0.069-0.186v0z"></path>
</svg>
