<!-- Generated by IcoMoon.io -->
<svg version="1.1" xmlns="http://www.w3.org/2000/svg" width="32" height="32" viewBox="0 0 32 32">
<title>lifestyle</title>
<path fill="#7b1931" d="M31.79 15.8c0 8.726-7.117 15.8-15.895 15.8s-15.895-7.074-15.895-15.8c0-8.726 7.117-15.8 15.895-15.8s15.895 7.074 15.895 15.8z"></path>
<path fill="#808080" d="M16.475 11.99h-0.571c-0.152 0-0.297-0.060-0.404-0.167s-0.167-0.253-0.167-0.404c0-0.076-0.030-0.148-0.084-0.202s-0.126-0.084-0.202-0.084c-0.076 0-0.148 0.030-0.202 0.084s-0.084 0.126-0.084 0.202c0 0.303 0.12 0.594 0.335 0.808s0.505 0.335 0.808 0.335v0.286c0 0.076 0.030 0.149 0.084 0.202s0.126 0.084 0.202 0.084c0.076 0 0.148-0.030 0.202-0.084s0.084-0.126 0.084-0.202v-0.286c0.303 0 0.594-0.12 0.808-0.335s0.335-0.505 0.335-0.808c0-0.303-0.12-0.594-0.335-0.808s-0.505-0.335-0.808-0.335h-0.571c-0.152 0-0.297-0.060-0.404-0.167s-0.167-0.253-0.167-0.404 0.060-0.297 0.167-0.404c0.107-0.107 0.252-0.167 0.404-0.167h0.571c0.152 0 0.297 0.060 0.404 0.167s0.167 0.252 0.167 0.404c0 0.076 0.030 0.149 0.084 0.202s0.126 0.084 0.202 0.084c0.076 0 0.148-0.030 0.202-0.084s0.084-0.126 0.084-0.202c0-0.303-0.12-0.594-0.335-0.808s-0.505-0.335-0.808-0.335v-0.286c0-0.076-0.030-0.148-0.084-0.202s-0.126-0.084-0.202-0.084c-0.076 0-0.148 0.030-0.202 0.084s-0.084 0.126-0.084 0.202v0.286c-0.303 0-0.594 0.12-0.808 0.335s-0.335 0.505-0.335 0.808c0 0.303 0.12 0.594 0.335 0.808s0.505 0.335 0.808 0.335h0.571c0.152 0 0.297 0.060 0.404 0.167s0.167 0.252 0.167 0.404-0.060 0.297-0.167 0.404c-0.107 0.107-0.253 0.167-0.404 0.167zM16.19 14.275c0.735 0 1.453-0.218 2.064-0.626s1.087-0.988 1.368-1.667c0.281-0.679 0.355-1.426 0.211-2.146s-0.497-1.382-1.017-1.902c-0.519-0.519-1.181-0.873-1.902-1.017s-1.467-0.070-2.146 0.211c-0.679 0.281-1.259 0.757-1.667 1.368s-0.626 1.329-0.626 2.064c0.001 0.985 0.393 1.929 1.089 2.625s1.64 1.088 2.625 1.089v0zM16.19 7.418c0.622 0 1.229 0.184 1.746 0.53s0.92 0.836 1.157 1.41c0.238 0.574 0.3 1.206 0.179 1.816s-0.421 1.17-0.86 1.609c-0.44 0.44-1 0.739-1.609 0.86s-1.242 0.059-1.816-0.179c-0.574-0.238-1.065-0.641-1.411-1.158s-0.53-1.124-0.53-1.746c0.001-0.833 0.332-1.632 0.922-2.221s1.388-0.921 2.221-0.921v0zM24.761 15.304h-2.286c-0.193 0-0.381 0.066-0.532 0.187s-0.257 0.288-0.301 0.477l-3.213-0.986c-0.414-0.126-0.858-0.116-1.266 0.031l-0.478 0.171-2.242-0.492c-0.474-0.104-0.967-0.072-1.423 0.093l-2.898 1.045c-0.066-0.155-0.175-0.288-0.316-0.382s-0.306-0.143-0.474-0.143h-2.286c-0.076 0-0.148 0.030-0.202 0.084s-0.084 0.126-0.084 0.202v5.714c0 0.076 0.030 0.148 0.084 0.202s0.126 0.084 0.202 0.084h2.286c0.141-0 0.28-0.035 0.404-0.102s0.23-0.163 0.308-0.28c1.057 1.34 2.4 2.427 3.93 3.182l1.233 0.607c0.187 0.093 0.396 0.135 0.605 0.122s0.41-0.081 0.585-0.197c0.174-0.116 0.315-0.276 0.408-0.463s0.135-0.396 0.121-0.605c0.077 0.020 0.157 0.032 0.237 0.035 0.078-0 0.156-0.008 0.233-0.024 0.25-0.051 0.476-0.185 0.641-0.38s0.259-0.44 0.267-0.695c0.163 0.091 0.345 0.141 0.531 0.145 0.078-0 0.156-0.008 0.233-0.024 0.266-0.054 0.504-0.202 0.671-0.417s0.251-0.482 0.237-0.754c0.221 0.055 0.454 0.038 0.665-0.049s0.388-0.239 0.506-0.434c0.086-0.13 0.144-0.276 0.171-0.429h0.31c0.023 0.209 0.123 0.402 0.279 0.542s0.359 0.219 0.569 0.22h2.286c0.076 0 0.148-0.030 0.202-0.084s0.084-0.126 0.084-0.202v-5.714c0-0.076-0.030-0.148-0.084-0.202s-0.126-0.084-0.202-0.084zM9.618 20.732c0 0.076-0.030 0.148-0.084 0.202s-0.126 0.084-0.202 0.084h-2v-5.143h2c0.076 0 0.149 0.030 0.202 0.084s0.084 0.126 0.084 0.202v4.571zM20.67 20.944c-0.041 0.063-0.094 0.117-0.157 0.159s-0.132 0.072-0.205 0.087c-0.073 0.015-0.149 0.016-0.223 0.002s-0.144-0.043-0.207-0.084l-2.653-1.747-0.122 0.186c-0.019 0.013-0.035 0.029-0.047 0.048s-0.021 0.040-0.025 0.062l-0.119 0.182 0.219 0.144c0.003 0 0.005 0.005 0.007 0.007l2.014 1.327c0.124 0.085 0.209 0.214 0.238 0.361s-0.001 0.3-0.083 0.425c-0.082 0.125-0.211 0.213-0.357 0.244s-0.3 0.004-0.426-0.076l-0.721-0.475-0.008-0.006-1.753-1.154h-0.005l-0.166-0.11c-0.063-0.040-0.14-0.054-0.213-0.038s-0.137 0.060-0.179 0.122c-0.041 0.063-0.056 0.139-0.042 0.212s0.057 0.138 0.119 0.181l1.927 1.269c0.093 0.063 0.165 0.152 0.208 0.255s0.054 0.218 0.032 0.328c-0.022 0.11-0.075 0.211-0.154 0.291s-0.179 0.135-0.289 0.158c-0.148 0.030-0.303 0.001-0.429-0.083l-1.935-1.274c-0.031-0.021-0.067-0.036-0.104-0.044s-0.075-0.008-0.113-0c-0.037 0.007-0.073 0.022-0.104 0.043s-0.058 0.048-0.079 0.080c-0.021 0.032-0.035 0.067-0.042 0.104s-0.007 0.076 0.001 0.113c0.008 0.037 0.023 0.072 0.045 0.103s0.049 0.058 0.081 0.078l0.101 0.066c0.003 0 0.005 0.006 0.008 0.008l1.371 0.902c0.14 0.084 0.242 0.22 0.283 0.378s0.019 0.326-0.062 0.468-0.214 0.247-0.371 0.291c-0.157 0.045-0.326 0.026-0.469-0.052l-1.236-0.611c-1.607-0.793-2.994-1.971-4.038-3.429v-4.035l3.024-1.089c0.355-0.128 0.739-0.153 1.107-0.072l1.356 0.298-0.981 0.354c-0.301 0.103-0.549 0.322-0.689 0.608s-0.161 0.616-0.058 0.917c0.103 0.301 0.322 0.549 0.608 0.689s0.616 0.161 0.917 0.058l1.358-0.441 3.675 2.42c0.068 0.045 0.126 0.104 0.169 0.173s0.071 0.146 0.082 0.227c0.001 0.014 0.002 0.028 0.004 0.042 0.008 0.124-0.024 0.246-0.093 0.35v0.001zM21.618 20.258h-0.343c-0.082-0.239-0.241-0.445-0.453-0.583l-3.79-2.496c-0.036-0.024-0.076-0.039-0.119-0.044s-0.086-0.002-0.126 0.011l-1.489 0.483c-0.116 0.038-0.24 0.041-0.357 0.010s-0.223-0.096-0.305-0.187c-0.069-0.077-0.119-0.169-0.144-0.269s-0.025-0.205 0-0.305c0.025-0.1 0.074-0.193 0.144-0.269s0.156-0.135 0.254-0.17l2.468-0.89c0.291-0.105 0.608-0.112 0.904-0.022l3.355 1.031v3.7zM24.475 21.018h-2c-0.076 0-0.148-0.030-0.202-0.084s-0.084-0.126-0.084-0.202v-4.571c0-0.076 0.030-0.148 0.084-0.202s0.126-0.084 0.202-0.084h2v5.143z"></path>
</svg>
