<!-- Generated by IcoMoon.io -->
<svg version="1.1" xmlns="http://www.w3.org/2000/svg" width="32" height="32" viewBox="0 0 32 32">
<title>pr-credits</title>
<path fill="#7b1931" d="M31.79 15.8c0 8.726-7.117 15.8-15.895 15.8s-15.895-7.074-15.895-15.8c0-8.726 7.117-15.8 15.895-15.8s15.895 7.074 15.895 15.8z"></path>
<path fill="#808080" d="M23.147 18.7c0.114-0.226 0.091-0.309 0.091-1.034 0-0.214-0.085-0.42-0.237-0.572s-0.357-0.237-0.572-0.237h-0.249c2.486-1.746 1.269-5.714-1.8-5.714-0.53-0-1.052 0.134-1.517 0.39s-0.857 0.625-1.14 1.073c-0.284 0.448-0.449 0.961-0.481 1.491s0.071 1.058 0.298 1.538c0.694 1.466 1.826 1.223 0.22 1.223-0.214 0-0.42 0.085-0.572 0.237s-0.237 0.357-0.237 0.572c0 0.571-0.091 1.051 0.377 1.349-0.059 0.113-0.091 0.238-0.091 0.366 0 0.706 0 0.737 0.040 0.906-0.11-0.010-0.221 0.003-0.326 0.037s-0.202 0.088-0.286 0.16c-0.084-0.072-0.181-0.126-0.286-0.16s-0.216-0.046-0.326-0.037c0.051-0.169 0.040-0.18 0.040-0.906-0.001-0.127-0.032-0.253-0.091-0.366 0.469-0.286 0.377-0.769 0.377-1.349 0-0.214-0.085-0.42-0.237-0.572s-0.357-0.237-0.572-0.237c-0.163 0-0.049 0.037-0.049-0.237 0-0.72 0-0.751-0.046-0.931 0.176-0.043 0.332-0.143 0.444-0.285s0.173-0.317 0.174-0.498v-0.669c0-0.214-0.085-0.42-0.237-0.572s-0.357-0.237-0.572-0.237h-0.534c2.52-1.76 1.26-5.714-1.8-5.714-0.53-0-1.052 0.134-1.517 0.39s-0.857 0.625-1.14 1.073c-0.284 0.448-0.449 0.961-0.481 1.491s0.071 1.058 0.298 1.538c0.663 1.397 1.669 1.223 0.506 1.223-0.214 0-0.42 0.085-0.572 0.237s-0.237 0.357-0.237 0.572c0 0.72-0.014 0.751 0.046 0.931-0.176 0.043-0.332 0.143-0.444 0.285s-0.173 0.317-0.174 0.498v0.669c0 0.114 0.024 0.226 0.071 0.33s0.114 0.197 0.198 0.273c0.085 0.076 0.184 0.134 0.292 0.169s0.223 0.048 0.336 0.036c-0.501 0.008-0.993 0.135-1.436 0.37s-0.824 0.571-1.112 0.981c-0.039 0.062-0.052 0.137-0.037 0.209s0.057 0.135 0.117 0.177c0.060 0.042 0.134 0.059 0.206 0.048s0.138-0.050 0.183-0.107c0.332-0.478 0.816-0.83 1.374-0.998s1.156-0.14 1.696 0.076c0.54 0.217 0.991 0.611 1.279 1.117s0.395 1.095 0.304 1.671c-0.091 0.575-0.374 1.103-0.804 1.496s-0.98 0.629-1.561 0.669c-0.581 0.040-1.158-0.119-1.637-0.45s-0.832-0.815-1-1.372c-0.021-0.073-0.070-0.134-0.137-0.171s-0.145-0.045-0.217-0.024c-0.073 0.021-0.134 0.070-0.17 0.137s-0.045 0.145-0.024 0.217c0.205 0.69 0.64 1.289 1.233 1.697s1.309 0.599 2.027 0.543c0.050 0.166 0.152 0.311 0.291 0.414s0.308 0.158 0.481 0.158h4.669c0.214 0 0.42-0.085 0.572-0.237s0.237-0.357 0.237-0.572c0-0.691 0.026-0.803-0.091-1.034 0.032-0.020 0.063-0.043 0.091-0.069 0.145 0.126 0.331 0.196 0.523 0.197 0.163 0 0.049-0.037 0.049 0.237v0.669c0 0.214 0.085 0.42 0.237 0.572s0.357 0.237 0.572 0.237h4.669c0.214 0 0.42-0.085 0.572-0.237s0.237-0.357 0.237-0.572v-0.669c0-0.214-0.085-0.42-0.237-0.572s-0.357-0.237-0.572-0.237c-0.163 0-0.049 0.037-0.049-0.237 0-0.706 0-0.737-0.040-0.906 0.113 0.011 0.227-0.001 0.335-0.037s0.207-0.093 0.292-0.169c0.084-0.076 0.152-0.169 0.199-0.273s0.071-0.216 0.072-0.33c0-0.583 0.091-1.051-0.377-1.349zM18.058 15.389c-0.206-0.446-0.283-0.941-0.223-1.429 0.389-2.749 4.103-3.014 4.969-0.531 0.213 0.62 0.181 1.297-0.089 1.894s-0.757 1.068-1.363 1.318-1.284 0.259-1.896 0.026c-0.612-0.233-1.112-0.691-1.398-1.281v0.003zM17.524 17.674c0-0.063 0.025-0.123 0.069-0.168s0.105-0.070 0.168-0.070h4.669c0.063 0 0.123 0.025 0.168 0.070s0.070 0.105 0.070 0.168v0.669c0 0.063-0.025 0.123-0.070 0.168s-0.105 0.069-0.168 0.069h-4.669c-0.063 0-0.123-0.025-0.168-0.069s-0.069-0.105-0.069-0.168v-0.669zM16.381 21.103v0.669c0 0.063-0.025 0.123-0.070 0.168s-0.105 0.069-0.168 0.069h-3.191c0.174-0.334 0.284-0.697 0.323-1.071 0-0.106-0.306-0.071 2.857-0.071 0.031-0.002 0.063 0.003 0.092 0.014s0.057 0.027 0.080 0.048 0.042 0.047 0.055 0.076c0.013 0.029 0.020 0.059 0.022 0.091v0.009zM13.295 20.286c-0.040-0.399-0.157-0.787-0.343-1.143h2.323c0.063 0 0.123 0.025 0.168 0.070s0.069 0.105 0.069 0.168v0.669c0 0.063-0.025 0.123-0.069 0.168s-0.105 0.070-0.168 0.070h-1.98zM10.629 11.96c-0.206-0.446-0.283-0.941-0.223-1.429 0.389-2.749 4.103-3.014 4.969-0.531 0.213 0.62 0.181 1.297-0.089 1.894s-0.757 1.068-1.363 1.318-1.284 0.259-1.896 0.026c-0.612-0.233-1.112-0.691-1.398-1.281v0.003zM10.381 14.246c0-0.063 0.025-0.123 0.069-0.168s0.105-0.069 0.168-0.069h4.669c0.063 0 0.123 0.025 0.168 0.069s0.069 0.105 0.069 0.168v0.669c0 0.063-0.025 0.123-0.069 0.168s-0.105 0.069-0.168 0.069h-4.669c-0.063 0-0.123-0.025-0.168-0.069s-0.069-0.105-0.069-0.168v-0.669zM9.809 16.629v-0.677c0-0.063 0.025-0.123 0.069-0.168s0.105-0.069 0.168-0.069h4.669c0.063 0 0.123 0.025 0.168 0.069s0.069 0.105 0.069 0.168v0.669c0 0.063-0.025 0.123-0.069 0.168s-0.105 0.070-0.168 0.070h-4.669c-0.063 0-0.123-0.025-0.168-0.070s-0.069-0.105-0.069-0.168v0.009zM10.755 17.486c0.103-0.086-0.211-0.057 4.817-0.057 0.063 0 0.123 0.025 0.168 0.070s0.069 0.105 0.069 0.168v0.669c0 0.063-0.025 0.123-0.069 0.168s-0.105 0.070-0.168 0.070h-2.983c-0.466-0.564-1.115-0.948-1.834-1.086v0zM16.095 23.477c0 0.063-0.025 0.123-0.070 0.168s-0.105 0.070-0.168 0.070c-5.069 0-4.763 0.049-4.857-0.114 0.621-0.173 1.174-0.532 1.586-1.029h3.271c0.063 0 0.123 0.025 0.168 0.070s0.070 0.105 0.070 0.168v0.669zM22.952 22.809v0.669c0 0.063-0.025 0.123-0.070 0.168s-0.105 0.070-0.168 0.070h-4.669c-0.063 0-0.123-0.025-0.168-0.070s-0.069-0.105-0.069-0.168v-0.669c0-0.063 0.025-0.123 0.069-0.168s0.105-0.070 0.168-0.070h4.669c0.063 0 0.123 0.025 0.168 0.070s0.070 0.105 0.070 0.168v0zM22.095 21.094v0.669c0 0.063-0.025 0.123-0.070 0.168s-0.105 0.070-0.168 0.070h-4.669c-0.063-0.001-0.122-0.026-0.167-0.070s-0.070-0.104-0.070-0.167v-0.669c0-0.063 0.025-0.123 0.069-0.168s0.105-0.070 0.168-0.070h4.669c0.063 0 0.123 0.025 0.168 0.070s0.070 0.105 0.070 0.168v0zM22.952 20.049c0 0.063-0.025 0.123-0.070 0.168s-0.105 0.070-0.168 0.070h-4.669c-0.063 0-0.123-0.025-0.168-0.070s-0.069-0.105-0.069-0.168v-0.669c0-0.063 0.025-0.123 0.069-0.168s0.105-0.070 0.168-0.070h4.669c0.063 0 0.123 0.025 0.168 0.070s0.070 0.105 0.070 0.168v0.669z"></path>
<path fill="#808080" d="M10.238 21.143h-0.714c-0.076 0-0.149 0.030-0.202 0.084s-0.084 0.126-0.084 0.202 0.030 0.148 0.084 0.202c0.054 0.054 0.126 0.084 0.202 0.084h0.286v0.286c0 0.076 0.030 0.148 0.084 0.202s0.126 0.084 0.202 0.084c0.076 0 0.148-0.030 0.202-0.084s0.084-0.126 0.084-0.202v-0.286c0.189-0.019 0.364-0.112 0.484-0.26s0.178-0.337 0.159-0.526c-0.019-0.189-0.112-0.364-0.26-0.484s-0.337-0.178-0.526-0.159c-0.189 0-0.429 0.046-0.429-0.143 0-0.038 0.015-0.074 0.042-0.101s0.063-0.042 0.101-0.042h0.714c0.076 0 0.148-0.030 0.202-0.084s0.084-0.126 0.084-0.202-0.030-0.148-0.084-0.202c-0.054-0.054-0.126-0.084-0.202-0.084h-0.286v-0.286c0-0.076-0.030-0.148-0.084-0.202s-0.126-0.084-0.202-0.084c-0.076 0-0.149 0.030-0.202 0.084s-0.084 0.126-0.084 0.202v0.286c-0.19 0.019-0.364 0.112-0.484 0.26s-0.178 0.337-0.159 0.526c0.019 0.189 0.112 0.364 0.26 0.484s0.337 0.178 0.526 0.159h0.286c0.038 0 0.074 0.015 0.101 0.042s0.042 0.063 0.042 0.101-0.015 0.074-0.042 0.101c-0.027 0.027-0.063 0.042-0.101 0.042zM7.615 20.286c0.005-0.082 0.017-0.163 0.037-0.243 0.015-0.072 0.001-0.148-0.038-0.21s-0.101-0.107-0.173-0.125-0.147-0.007-0.211 0.030c-0.064 0.037-0.111 0.097-0.132 0.168-0.029 0.125-0.048 0.252-0.057 0.38 0 0.076 0.030 0.149 0.084 0.203s0.127 0.084 0.203 0.084c0.076 0 0.149-0.030 0.203-0.084s0.084-0.127 0.084-0.203zM12.81 10.286h0.714c0.076 0 0.148-0.030 0.202-0.084s0.084-0.126 0.084-0.202-0.030-0.148-0.084-0.202c-0.054-0.054-0.126-0.084-0.202-0.084h-0.286v-0.286c0-0.076-0.030-0.148-0.084-0.202s-0.126-0.084-0.202-0.084c-0.076 0-0.149 0.030-0.202 0.084s-0.084 0.126-0.084 0.202v0.3c-0.174 0.035-0.328 0.134-0.433 0.276s-0.153 0.319-0.136 0.495c0.018 0.176 0.1 0.34 0.232 0.458s0.302 0.184 0.48 0.184c0.189 0 0.429-0.046 0.429 0.143 0 0.038-0.015 0.074-0.042 0.101s-0.063 0.042-0.101 0.042h-0.714c-0.076 0-0.149 0.030-0.202 0.084s-0.084 0.126-0.084 0.202 0.030 0.148 0.084 0.202c0.054 0.054 0.126 0.084 0.202 0.084h0.286v0.286c0 0.076 0.030 0.148 0.084 0.202s0.126 0.084 0.202 0.084c0.076 0 0.148-0.030 0.202-0.084s0.084-0.126 0.084-0.202v-0.286c0.189-0.019 0.364-0.112 0.484-0.26s0.178-0.337 0.159-0.526c-0.019-0.19-0.112-0.364-0.26-0.484s-0.337-0.178-0.526-0.159h-0.286c-0.038 0-0.074-0.015-0.101-0.042s-0.042-0.063-0.042-0.101 0.015-0.074 0.042-0.101c0.027-0.027 0.063-0.042 0.101-0.042zM20.238 13.714h0.714c0.076 0 0.148-0.030 0.202-0.084s0.084-0.126 0.084-0.202-0.030-0.148-0.084-0.202c-0.054-0.054-0.126-0.084-0.202-0.084h-0.286v-0.286c0-0.076-0.030-0.148-0.084-0.202s-0.126-0.084-0.202-0.084c-0.076 0-0.148 0.030-0.202 0.084s-0.084 0.126-0.084 0.202v0.3c-0.174 0.035-0.328 0.134-0.433 0.276s-0.153 0.319-0.136 0.495c0.018 0.176 0.1 0.34 0.232 0.458s0.302 0.184 0.48 0.184c0.189 0 0.429-0.046 0.429 0.143 0 0.038-0.015 0.074-0.042 0.101s-0.063 0.042-0.101 0.042h-0.714c-0.076 0-0.148 0.030-0.202 0.084s-0.084 0.126-0.084 0.202 0.030 0.148 0.084 0.202c0.054 0.054 0.126 0.084 0.202 0.084h0.286v0.286c0 0.076 0.030 0.148 0.084 0.202s0.126 0.084 0.202 0.084c0.076 0 0.148-0.030 0.202-0.084s0.084-0.126 0.084-0.202v-0.286c0.189-0.019 0.364-0.112 0.484-0.26s0.178-0.337 0.159-0.526c-0.019-0.19-0.112-0.364-0.26-0.484s-0.337-0.178-0.526-0.159h-0.286c-0.038 0-0.074-0.015-0.101-0.042s-0.042-0.063-0.042-0.101 0.015-0.074 0.042-0.101c0.027-0.027 0.063-0.042 0.101-0.042z"></path>
</svg>
