<!-- Generated by IcoMoon.io -->
<svg version="1.1" xmlns="http://www.w3.org/2000/svg" width="32" height="32" viewBox="0 0 32 32">
<title>pr-deposite</title>
<path fill="#7b1931" d="M31.385 15.692c0 8.667-7.026 15.692-15.692 15.692s-15.692-7.026-15.692-15.692c0-8.667 7.026-15.692 15.692-15.692s15.692 7.026 15.692 15.692z"></path>
<path fill="#808080" d="M15.619 12.953v-0.381h-0.762v-0.762h1.524v-0.381h-1.143c-0.101 0-0.198-0.040-0.269-0.112s-0.112-0.168-0.112-0.269v-1.143c0-0.101 0.040-0.198 0.112-0.269s0.168-0.112 0.269-0.112h0.381v-0.381h0.762v0.381h0.762v0.762h-1.524v0.381h1.143c0.101 0 0.198 0.040 0.269 0.112s0.112 0.168 0.112 0.269v1.143c0 0.101-0.040 0.198-0.112 0.269s-0.168 0.112-0.269 0.112h-0.381v0.381h-0.762zM20.571 18.667v1.524c0 0.101-0.040 0.198-0.112 0.269s-0.168 0.112-0.269 0.112h-0.415l-0.282 2.781c-0.028 0.283-0.161 0.545-0.373 0.735s-0.486 0.295-0.77 0.293h-4.709c-0.284 0.001-0.559-0.103-0.77-0.293s-0.344-0.452-0.373-0.735l-0.274-2.781h-0.415c-0.101 0-0.198-0.040-0.269-0.112s-0.112-0.168-0.112-0.269v-1.524c0-0.101 0.040-0.198 0.112-0.269s0.168-0.112 0.269-0.112h3.81v-0.122c-0.849-0.316-1.637-0.775-2.331-1.356-0.796-0.792-1.429-2.51-1.455-2.583-0.025-0.068-0.029-0.142-0.014-0.212s0.051-0.135 0.102-0.186c0.051-0.051 0.116-0.087 0.186-0.102s0.144-0.011 0.212 0.014c0.072 0.027 1.79 0.659 2.583 1.455 0.281 0.298 0.521 0.631 0.716 0.99v-1.73c-0.871-0.097-1.671-0.524-2.237-1.194s-0.854-1.53-0.805-2.404c0.049-0.875 0.431-1.698 1.067-2.3s1.48-0.938 2.356-0.938 1.719 0.335 2.356 0.938c0.637 0.602 1.018 1.425 1.067 2.3s-0.239 1.735-0.805 2.404c-0.566 0.669-1.366 1.096-2.237 1.194v1.73c0.195-0.36 0.436-0.693 0.716-0.99 0.792-0.796 2.51-1.429 2.583-1.455 0.068-0.025 0.142-0.029 0.212-0.014s0.135 0.051 0.186 0.102c0.051 0.051 0.087 0.116 0.102 0.186s0.011 0.144-0.014 0.212c-0.027 0.072-0.659 1.79-1.455 2.583-0.694 0.582-1.483 1.040-2.331 1.356v0.122h3.81c0.101 0 0.198 0.040 0.269 0.112s0.112 0.168 0.112 0.269zM16.72 17.185c0.53-0.228 1.020-0.536 1.455-0.914 0.376-0.436 0.685-0.927 0.914-1.455-0.53 0.228-1.020 0.536-1.455 0.914-0.376 0.436-0.685 0.927-0.914 1.455v0zM15.28 17.185c-0.228-0.53-0.536-1.020-0.914-1.455-0.435-0.378-0.926-0.687-1.455-0.914 0.228 0.529 0.536 1.020 0.914 1.455 0.435 0.378 0.926 0.687 1.455 0.914v0zM16 13.714c0.527 0 1.043-0.156 1.482-0.449s0.78-0.71 0.982-1.197c0.202-0.487 0.255-1.023 0.152-1.541s-0.357-0.992-0.73-1.365-0.848-0.627-1.365-0.73c-0.517-0.103-1.053-0.050-1.541 0.152s-0.904 0.544-1.197 0.982c-0.293 0.439-0.449 0.954-0.449 1.482 0 0.707 0.281 1.386 0.781 1.886s1.178 0.781 1.886 0.781zM19.006 20.572h-6.011l0.27 2.705c0.009 0.094 0.054 0.182 0.124 0.245s0.162 0.098 0.257 0.098h4.712c0.095 0 0.186-0.034 0.257-0.098s0.115-0.151 0.124-0.245l0.267-2.705zM19.81 19.048h-7.619v0.762h7.619v-0.762z"></path>
</svg>
