<!-- Generated by IcoMoon.io -->
<svg version="1.1" xmlns="http://www.w3.org/2000/svg" width="23" height="32" viewBox="0 0 23 32">
<title>ruble</title>
<path fill="#c1c1c1" d="M4.139 32v-30.464h8.021c3.726 0 6.485 0.754 8.277 2.261 1.82 1.508 2.731 3.698 2.731 6.571 0 1.934-0.441 3.598-1.323 4.992-0.882 1.365-2.19 2.418-3.925 3.157-1.707 0.74-3.826 1.109-6.357 1.109h-3.584v12.373h-3.84zM0.427 26.197v-2.773h14.592v2.773h-14.592zM0.427 19.627v-3.243h9.771v3.243h-9.771zM11.008 16.384c1.735 0 3.2-0.185 4.395-0.555 1.223-0.37 2.162-0.981 2.816-1.835s0.981-2.020 0.981-3.499c0-1.934-0.597-3.371-1.792-4.309s-3.058-1.408-5.589-1.408h-3.84v11.605h3.029z"></path>
</svg>
