<!-- Generated by IcoMoon.io -->
<svg version="1.1" xmlns="http://www.w3.org/2000/svg" width="32" height="32" viewBox="0 0 32 32">
<title>transactions</title>
<path fill="#7b1931" d="M31.385 15.692c0 8.667-7.026 15.692-15.692 15.692s-15.692-7.026-15.692-15.692c0-8.667 7.026-15.692 15.692-15.692s15.692 7.026 15.692 15.692z"></path>
<path fill="#808080" d="M22.82 16.756h-9.143c-0.303 0-0.594 0.12-0.808 0.335s-0.335 0.505-0.335 0.808v2h-1.714c-1.103 0-2-0.977-2-2.18 0-0.949-0.057-0.391 0.286-0.391 0.057 0 0.112-0.016 0.16-0.048s0.084-0.076 0.106-0.129c0.022-0.052 0.027-0.11 0.016-0.166s-0.039-0.107-0.079-0.147l-0.571-0.571c-0.027-0.027-0.058-0.048-0.093-0.063s-0.072-0.022-0.11-0.022-0.075 0.007-0.11 0.022c-0.035 0.014-0.066 0.036-0.093 0.063l-0.571 0.571c-0.054 0.054-0.084 0.127-0.084 0.203s0.030 0.149 0.084 0.203c0.054 0.054 0.127 0.084 0.203 0.084s0.149-0.030 0.203-0.084l0.083-0.086v0.571c0 1.506 1.143 2.74 2.571 2.74h1.714v2c0 0.303 0.12 0.594 0.335 0.808s0.505 0.335 0.808 0.335h9.143c0.303 0 0.594-0.12 0.808-0.335s0.335-0.505 0.335-0.808v-4.571c0-0.303-0.12-0.594-0.335-0.808s-0.505-0.335-0.808-0.335zM23.392 22.47c0 0.152-0.060 0.297-0.167 0.404s-0.253 0.167-0.404 0.167h-9.143c-0.152 0-0.297-0.060-0.404-0.167s-0.167-0.253-0.167-0.404v-4.571c0-0.152 0.060-0.297 0.167-0.404s0.252-0.167 0.404-0.167h9.143c0.152 0 0.297 0.060 0.404 0.167s0.167 0.253 0.167 0.404v4.571z"></path>
<path fill="#808080" d="M18.249 18.756c-0.282 0-0.559 0.084-0.794 0.241s-0.418 0.38-0.526 0.641c-0.108 0.261-0.136 0.548-0.081 0.825s0.191 0.532 0.391 0.731 0.454 0.336 0.732 0.391c0.277 0.055 0.564 0.027 0.825-0.081s0.484-0.291 0.641-0.526c0.157-0.235 0.241-0.511 0.241-0.794 0-0.379-0.15-0.742-0.418-1.010s-0.631-0.418-1.010-0.418v0zM18.249 21.042c-0.17 0-0.335-0.050-0.476-0.144s-0.251-0.228-0.316-0.385c-0.065-0.157-0.082-0.329-0.049-0.495s0.115-0.319 0.235-0.439c0.12-0.12 0.273-0.202 0.439-0.235s0.339-0.016 0.495 0.049c0.157 0.065 0.29 0.175 0.385 0.316s0.144 0.307 0.144 0.476c0 0.227-0.090 0.445-0.251 0.606s-0.379 0.251-0.606 0.251zM21.678 19.327c-0.17 0-0.335 0.050-0.476 0.144s-0.251 0.228-0.316 0.385c-0.065 0.157-0.082 0.329-0.049 0.495s0.115 0.319 0.235 0.439c0.12 0.12 0.273 0.202 0.439 0.235s0.339 0.016 0.495-0.049c0.157-0.065 0.29-0.175 0.385-0.316s0.144-0.307 0.144-0.476c0-0.227-0.090-0.445-0.251-0.606s-0.379-0.251-0.606-0.251v0zM21.678 20.47c-0.076 0-0.148-0.030-0.202-0.084s-0.084-0.126-0.084-0.202c0-0.076 0.030-0.148 0.084-0.202s0.126-0.084 0.202-0.084c0.076 0 0.148 0.030 0.202 0.084s0.084 0.126 0.084 0.202c0 0.076-0.030 0.148-0.084 0.202s-0.126 0.084-0.202 0.084zM14.821 19.327c-0.17 0-0.335 0.050-0.476 0.144s-0.251 0.228-0.316 0.385c-0.065 0.157-0.082 0.329-0.049 0.495s0.115 0.319 0.235 0.439c0.12 0.12 0.273 0.202 0.439 0.235s0.339 0.016 0.495-0.049c0.157-0.065 0.29-0.175 0.385-0.316s0.144-0.307 0.144-0.476c0-0.227-0.090-0.445-0.251-0.606s-0.379-0.251-0.606-0.251zM14.821 20.47c-0.076 0-0.148-0.030-0.202-0.084s-0.084-0.126-0.084-0.202c0-0.076 0.030-0.148 0.084-0.202s0.126-0.084 0.202-0.084c0.076 0 0.149 0.030 0.202 0.084s0.084 0.126 0.084 0.202c0 0.076-0.030 0.148-0.084 0.202s-0.126 0.084-0.202 0.084zM7.963 10.185v-0.286c0-0.076-0.030-0.149-0.084-0.202s-0.126-0.084-0.202-0.084c-0.076 0-0.148 0.030-0.202 0.084s-0.084 0.126-0.084 0.202v0.286c0 0.076 0.030 0.148 0.084 0.202s0.126 0.084 0.202 0.084c0.076 0 0.149-0.030 0.202-0.084s0.084-0.126 0.084-0.202z"></path>
<path fill="#808080" d="M8.535 15.613h6.286c0.303 0 0.594-0.12 0.808-0.335s0.335-0.505 0.335-0.808v-2.857h1.429c1.103 0 2 0.977 2 2.18v0.571l-0.083-0.086c-0.054-0.054-0.127-0.084-0.203-0.084s-0.149 0.030-0.203 0.084c-0.054 0.054-0.084 0.127-0.084 0.203s0.030 0.149 0.084 0.203l0.571 0.571c0.027 0.027 0.058 0.048 0.093 0.063s0.072 0.022 0.11 0.022c0.038 0 0.075-0.007 0.11-0.022s0.066-0.036 0.093-0.063l0.571-0.571c0.027-0.027 0.048-0.058 0.062-0.093s0.022-0.072 0.022-0.11c0-0.038-0.007-0.075-0.022-0.11s-0.035-0.066-0.062-0.093c-0.027-0.027-0.058-0.048-0.093-0.062s-0.072-0.022-0.11-0.022c-0.038 0-0.075 0.007-0.11 0.022s-0.066 0.036-0.093 0.062l-0.083 0.086v-0.571c0-1.517-1.143-2.751-2.571-2.751h-1.429v-2.857c0-0.303-0.12-0.594-0.335-0.808s-0.505-0.335-0.808-0.335h-6.286c-0.303 0-0.594 0.12-0.808 0.335s-0.335 0.505-0.335 0.808v0.571c0 0.076 0.030 0.148 0.084 0.202s0.126 0.084 0.202 0.084c0.076 0 0.149-0.030 0.202-0.084s0.084-0.126 0.084-0.202v-0.571c0-0.152 0.060-0.297 0.167-0.404s0.252-0.167 0.404-0.167h2v2c0 0.076 0.030 0.148 0.084 0.202s0.126 0.084 0.202 0.084h1.714c0.076 0 0.149-0.030 0.202-0.084s0.084-0.126 0.084-0.202v-2h2c0.152 0 0.297 0.060 0.404 0.167s0.167 0.253 0.167 0.404v6.286c0 0.152-0.060 0.297-0.167 0.404s-0.252 0.167-0.404 0.167h-6.286c-0.152 0-0.297-0.060-0.404-0.167s-0.167-0.252-0.167-0.404v-3.143c0-0.076-0.030-0.149-0.084-0.202s-0.126-0.084-0.202-0.084c-0.076 0-0.148 0.030-0.202 0.084s-0.084 0.126-0.084 0.202v3.143c0 0.303 0.12 0.594 0.335 0.808s0.505 0.335 0.808 0.335zM12.249 9.327h-1.143v-1.714h1.143v1.714z"></path>
<path fill="#808080" d="M8.821 13.327h1.143c0.076 0 0.149-0.030 0.202-0.084s0.084-0.126 0.084-0.202c0-0.076-0.030-0.149-0.084-0.202s-0.126-0.084-0.202-0.084h-1.143c-0.076 0-0.148 0.030-0.202 0.084s-0.084 0.126-0.084 0.202c0 0.076 0.030 0.148 0.084 0.202s0.126 0.084 0.202 0.084zM8.821 14.47h1.143c0.076 0 0.149-0.030 0.202-0.084s0.084-0.126 0.084-0.202c0-0.076-0.030-0.149-0.084-0.202s-0.126-0.084-0.202-0.084h-1.143c-0.076 0-0.148 0.030-0.202 0.084s-0.084 0.126-0.084 0.202c0 0.076 0.030 0.148 0.084 0.202s0.126 0.084 0.202 0.084z"></path>
</svg>
