<svg width="24" height="24" viewBox="0 0 24 24" fill="none" xmlns="http://www.w3.org/2000/svg">
<g clip-path="url(#clip0_1933_5346)">
<path d="M2.96788 17.0543H6.54274C6.69757 17.0543 6.82351 16.9284 6.82351 16.7735C6.82351 16.6187 6.69757 16.4928 6.54274 16.4928H2.96788C2.81304 16.4928 2.68711 16.6187 2.68711 16.7735C2.68711 16.9284 2.81304 17.0543 2.96788 17.0543Z" fill="white" stroke="white" stroke-width="0.2"/>
<path d="M2.09711 4.44082H2.19711V4.43713H22.2698C22.9635 4.43713 23.5274 5.00108 23.5274 5.69476V18.1201C23.5274 18.8137 22.9635 19.3777 22.2698 19.3777H2.09711C1.40342 19.3777 0.839473 18.8137 0.839473 18.1201V5.69845C0.839473 5.00477 1.40342 4.44082 2.09711 4.44082ZM2.09711 19.9392H22.2698C23.2733 19.9392 24.0889 19.1233 24.0889 18.1164V5.69476C24.0889 4.6914 23.2731 3.87559 22.2698 3.87559H2.09711C1.09375 3.87559 0.27793 4.6914 0.27793 5.69476V18.1201C0.27793 19.1234 1.09375 19.9392 2.09711 19.9392Z" fill="white" stroke="white" stroke-width="0.2"/>
<path d="M16.1046 13.3685H17.868C18.0238 13.3685 18.1537 13.2448 18.1488 13.0859C18.1478 12.9319 18.0223 12.807 17.868 12.807H16.3854V11.7379H17.868C18.0229 11.7379 18.1488 11.612 18.1488 11.4571C18.1488 11.3023 18.0229 11.1764 17.868 11.1764H16.1046C15.9498 11.1764 15.8238 11.3023 15.8238 11.4571V13.0878C15.8238 13.2426 15.9498 13.3685 16.1046 13.3685ZM19.9488 13.3685H21.727C21.8818 13.3685 22.0077 13.2426 22.0077 13.0878V11.4571C22.0077 11.3023 21.8818 11.1764 21.727 11.1764H19.9488C19.7939 11.1764 19.668 11.3023 19.668 11.4571V13.0878C19.668 13.2426 19.7939 13.3685 19.9488 13.3685ZM21.4462 11.7342V12.8033H20.2332V11.7342H21.4462Z" fill="white" stroke="white" stroke-width="0.2"/>
<path d="M16.5362 14.3644H21.2953C21.6904 14.3644 22.0077 14.0426 22.0077 13.652V13.1576C22.0077 13.0028 21.8818 12.8769 21.727 12.8769C21.5721 12.8769 21.4462 13.0028 21.4462 13.1576V13.652C21.4462 13.7342 21.3793 13.8029 21.2953 13.8029H16.5362C16.4513 13.8029 16.3854 13.737 16.3854 13.652V13.1576C16.3854 13.0028 16.2594 12.8769 16.1046 12.8769C15.9498 12.8769 15.8238 13.0028 15.8238 13.1576V13.652C15.8238 14.0426 16.1412 14.3644 16.5362 14.3644ZM21.4462 11.3868C21.4462 11.5417 21.5721 11.6676 21.727 11.6676C21.8818 11.6676 22.0077 11.5417 22.0077 11.3868V10.8888C22.0077 10.4982 21.6904 10.1764 21.2953 10.1764H16.5362C16.1457 10.1764 15.8238 10.4937 15.8238 10.8888V11.3868C15.8238 11.5417 15.9498 11.6676 16.1046 11.6676C16.2594 11.6676 16.3854 11.5417 16.3854 11.3868V10.8888C16.3854 10.8038 16.4513 10.7379 16.5362 10.7379H21.2953C21.3803 10.7379 21.4462 10.8038 21.4462 10.8888V11.3868Z" fill="white" stroke="white" stroke-width="0.2"/>
<path d="M17.9386 13.3689H19.8939C20.0488 13.3689 20.1747 13.2429 20.1747 13.0881C20.1747 12.9332 20.0488 12.8073 19.8939 12.8073H18.2231V11.7382H19.8939C20.0488 11.7382 20.1747 11.6123 20.1747 11.4574C20.1747 11.3026 20.0488 11.1767 19.8939 11.1767H17.9386C17.7838 11.1767 17.6579 11.3026 17.6579 11.4574V13.0881C17.6579 13.2429 17.7838 13.3689 17.9386 13.3689ZM0.558702 6.7467H23.8082C23.963 6.7467 24.0889 6.62077 24.0889 6.46593C24.0889 6.31109 23.963 6.18516 23.8082 6.18516H0.558702C0.403864 6.18516 0.27793 6.31109 0.27793 6.46593C0.27793 6.62077 0.403864 6.7467 0.558702 6.7467ZM0.558702 8.76839H23.8082C23.963 8.76839 24.0889 8.64246 24.0889 8.48762C24.0889 8.33278 23.963 8.20685 23.8082 8.20685H0.558702C0.403864 8.20685 0.27793 8.33278 0.27793 8.48762C0.27793 8.64246 0.403864 8.76839 0.558702 8.76839ZM3.23339 12.5535H12.4011C12.5586 12.5535 12.6782 12.4249 12.6782 12.2728C12.6782 12.1179 12.5523 11.992 12.3974 11.992H3.23339C3.07855 11.992 2.95262 12.1179 2.95262 12.2728C2.95262 12.4276 3.07855 12.5535 3.23339 12.5535ZM8.16957 17.0544H11.7444C11.8993 17.0544 12.0252 16.9285 12.0252 16.7736C12.0252 16.6188 11.8993 16.4928 11.7444 16.4928H8.16957C8.01473 16.4928 7.88879 16.6188 7.88879 16.7736C7.88879 16.9285 8.01473 17.0544 8.16957 17.0544ZM13.3714 17.0544H16.9462C17.1011 17.0544 17.227 16.9285 17.227 16.7736C17.227 16.6188 17.1011 16.4928 16.9462 16.4928H13.3714C13.2165 16.4928 13.0906 16.6188 13.0906 16.7736C13.0906 16.9285 13.2165 17.0544 13.3714 17.0544ZM18.5732 17.0544H22.148C22.3029 17.0544 22.4288 16.9285 22.4288 16.7736C22.4288 16.6188 22.3029 16.4928 22.148 16.4928H18.5732C18.4183 16.4928 18.2924 16.6188 18.2924 16.7736C18.2924 16.9284 18.4183 17.0544 18.5732 17.0544Z" fill="white" stroke="white" stroke-width="0.2"/>
</g>
<defs>
<clipPath id="clip0_1933_5346">
<rect width="23.611" height="23.611" fill="white" transform="translate(0.37793 0.101562)"/>
</clipPath>
</defs>
</svg>
