<svg width="24" height="24" viewBox="0 0 24 24" fill="none" xmlns="http://www.w3.org/2000/svg">
<path d="M7.375 16.5H6.875C6.59886 16.5 6.375 16.8358 6.375 17.25V21.75C6.375 22.1642 6.59886 22.5 6.875 22.5H7.375C7.65114 22.5 7.875 22.1642 7.875 21.75V17.25C7.875 16.8358 7.65114 16.5 7.375 16.5Z" fill="white"/>
<path d="M2.875 18.75H2.375C2.09886 18.75 1.875 19.0858 1.875 19.5V21.75C1.875 22.1642 2.09886 22.5 2.375 22.5H2.875C3.15114 22.5 3.375 22.1642 3.375 21.75V19.5C3.375 19.0858 3.15114 18.75 2.875 18.75Z" fill="white"/>
<path d="M11.875 14.25H11.375C11.0989 14.25 10.875 14.5858 10.875 15V21.75C10.875 22.1642 11.0989 22.5 11.375 22.5H11.875C12.1511 22.5 12.375 22.1642 12.375 21.75V15C12.375 14.5858 12.1511 14.25 11.875 14.25Z" fill="white"/>
<path d="M16.375 12H15.875C15.5989 12 15.375 12.3358 15.375 12.75V21.75C15.375 22.1642 15.5989 22.5 15.875 22.5H16.375C16.6511 22.5 16.875 22.1642 16.875 21.75V12.75C16.875 12.3358 16.6511 12 16.375 12Z" fill="white"/>
<path d="M20.875 9.75H20.375C20.0989 9.75 19.875 10.0858 19.875 10.5V21.75C19.875 22.1642 20.0989 22.5 20.375 22.5H20.875C21.1511 22.5 21.375 22.1642 21.375 21.75V10.5C21.375 10.0858 21.1511 9.75 20.875 9.75Z" fill="white"/>
<path d="M3.70125 6.32261C3.9751 6.89933 4.40692 7.38655 4.94657 7.7277C5.48622 8.06885 6.11156 8.24994 6.75 8.24994C7.38844 8.24994 8.01378 8.06885 8.55343 7.7277C9.09308 7.38655 9.5249 6.89933 9.79875 6.32261C9.95995 5.98487 10.0627 5.62222 10.1025 5.25011C10.1177 5.12569 10.1252 5.00045 10.125 4.87511C10.1258 4.7131 10.1133 4.5513 10.0875 4.39136C10.0581 4.17259 10.0053 3.9576 9.93 3.75011C9.69967 3.08826 9.26904 2.51453 8.69786 2.10852C8.12668 1.70251 7.44328 1.48438 6.7425 1.48438C6.04172 1.48438 5.35832 1.70251 4.78714 2.10852C4.21596 2.51453 3.78533 3.08826 3.555 3.75011C3.47969 3.9576 3.42689 4.17259 3.3975 4.39136C3.39566 4.42383 3.39566 4.45639 3.3975 4.48886C3.38051 4.61688 3.37299 4.74598 3.375 4.87511C3.37479 5.00045 3.38231 5.12569 3.3975 5.25011C3.43735 5.62222 3.54005 5.98487 3.70125 6.32261ZM6.9375 5.25011H6.5625C6.33001 5.25034 6.10572 5.16418 5.93319 5.00835C5.76065 4.85252 5.65217 4.63814 5.6288 4.40683C5.60544 4.17551 5.66886 3.94377 5.80675 3.75658C5.94464 3.5694 6.14716 3.44012 6.375 3.39386V3.00011C6.375 2.90065 6.41451 2.80527 6.48483 2.73495C6.55516 2.66462 6.65054 2.62511 6.75 2.62511C6.84946 2.62511 6.94484 2.66462 7.01517 2.73495C7.08549 2.80527 7.125 2.90065 7.125 3.00011V3.37511H7.5C7.59946 3.37511 7.69484 3.41462 7.76517 3.48494C7.83549 3.55527 7.875 3.65065 7.875 3.75011C7.875 3.84957 7.83549 3.94495 7.76517 4.01528C7.69484 4.0856 7.59946 4.12511 7.5 4.12511H6.5625C6.51277 4.12511 6.46508 4.14486 6.42992 4.18003C6.39475 4.21519 6.375 4.26288 6.375 4.31261C6.375 4.36234 6.39475 4.41003 6.42992 4.44519C6.46508 4.48036 6.51277 4.50011 6.5625 4.50011H6.9375C7.18614 4.47525 7.43447 4.55017 7.62787 4.70841C7.82127 4.86664 7.94389 5.09522 7.96875 5.34386C7.99361 5.5925 7.91869 5.84083 7.76045 6.03423C7.60222 6.22763 7.37364 6.35025 7.125 6.37511V6.75011C7.125 6.84957 7.08549 6.94495 7.01517 7.01528C6.94484 7.0856 6.84946 7.12511 6.75 7.12511C6.65054 7.12511 6.55516 7.0856 6.48483 7.01528C6.41451 6.94495 6.375 6.84957 6.375 6.75011V6.37511H6C5.90054 6.37511 5.80516 6.3356 5.73484 6.26528C5.66451 6.19495 5.625 6.09957 5.625 6.00011C5.625 5.90065 5.66451 5.80527 5.73484 5.73494C5.80516 5.66462 5.90054 5.62511 6 5.62511H6.9375C6.98723 5.62511 7.03492 5.60536 7.07008 5.57019C7.10525 5.53503 7.125 5.48734 7.125 5.43761C7.125 5.38788 7.10525 5.34019 7.07008 5.30503C7.03492 5.26986 6.98723 5.25011 6.9375 5.25011ZM22.785 2.75636L22.7288 2.70386C22.6705 2.6582 22.6 2.6308 22.5262 2.62511H21C20.9005 2.62511 20.8052 2.66462 20.7348 2.73495C20.6645 2.80527 20.625 2.90065 20.625 3.00011C20.625 3.09957 20.6645 3.19495 20.7348 3.26527C20.8052 3.3356 20.9005 3.37511 21 3.37511H21.5812L19.5975 5.32511C14.9696 9.86869 8.73546 12.4022 2.25 12.3751H1.5C1.40054 12.3751 1.30516 12.4146 1.23483 12.4849C1.16451 12.5553 1.125 12.6507 1.125 12.7501C1.125 12.8496 1.16451 12.9449 1.23483 13.0153C1.30516 13.0856 1.40054 13.1251 1.5 13.1251H2.6775C9.21251 13.0448 15.4634 10.4407 20.1225 5.85761L22.125 3.89261V4.50011C22.125 4.59957 22.1645 4.69495 22.2348 4.76528C22.3052 4.8356 22.4005 4.87511 22.5 4.87511C22.5995 4.87511 22.6948 4.8356 22.7652 4.76528C22.8355 4.69495 22.875 4.59957 22.875 4.50011V3.00011C22.875 2.91073 22.8431 2.82429 22.785 2.75636Z" fill="white"/>
</svg>
