<svg width="12" height="23" viewBox="0 0 12 23" fill="none" xmlns="http://www.w3.org/2000/svg">
<path d="M5.5 8.00018V7.50018H4.5V6.50018H6.5V6.00018H5C4.86739 6.00018 4.74021 5.9475 4.64645 5.85374C4.55268 5.75997 4.5 5.63279 4.5 5.50018V4.00018C4.5 3.86757 4.55268 3.7404 4.64645 3.64663C4.74021 3.55286 4.86739 3.50018 5 3.50018H5.5V3.00018H6.5V3.50018H7.5V4.50018H5.5V5.00018H7C7.13261 5.00018 7.25979 5.05286 7.35355 5.14663C7.44732 5.2404 7.5 5.36757 7.5 5.50018V7.00018C7.5 7.13279 7.44732 7.25997 7.35355 7.35374C7.25979 7.4475 7.13261 7.50018 7 7.50018H6.5V8.00018H5.5ZM12 15.5002V17.5002C12 17.6328 11.9473 17.76 11.8536 17.8537C11.7598 17.9475 11.6326 18.0002 11.5 18.0002H10.955L10.585 21.6502C10.5477 22.0215 10.3733 22.3655 10.096 22.6151C9.8186 22.8648 9.45815 23.0021 9.085 23.0002H2.905C2.53185 23.0021 2.1714 22.8648 1.89404 22.6151C1.61667 22.3655 1.44231 22.0215 1.405 21.6502L1.045 18.0002H0.5C0.367392 18.0002 0.240215 17.9475 0.146447 17.8537C0.0526785 17.76 0 17.6328 0 17.5002V15.5002C0 15.3676 0.0526785 15.2404 0.146447 15.1466C0.240215 15.0529 0.367392 15.0002 0.5 15.0002H5.5V14.8402C4.38602 14.4255 3.35112 13.8235 2.44 13.0602C1.395 12.0202 0.565 9.76518 0.53 9.67018C0.497786 9.58088 0.49166 9.48425 0.51234 9.3916C0.53302 9.29894 0.579651 9.21409 0.64678 9.14696C0.713908 9.07983 0.798761 9.0332 0.891416 9.01252C0.984071 8.99184 1.0807 8.99797 1.17 9.03018C1.265 9.06518 3.52 9.89518 4.56 10.9402C4.92831 11.331 5.24429 11.768 5.5 12.2402V9.97018C4.35699 9.84239 3.3063 9.2818 2.5637 8.40353C1.82111 7.52527 1.44298 6.39601 1.50697 5.24766C1.57097 4.09931 2.07223 3.01905 2.90781 2.22874C3.7434 1.43843 4.84987 0.998047 6 0.998047C7.15013 0.998047 8.2566 1.43843 9.09219 2.22874C9.92777 3.01905 10.429 4.09931 10.493 5.24766C10.557 6.39601 10.1789 7.52527 9.4363 8.40353C8.6937 9.2818 7.64301 9.84239 6.5 9.97018V12.2402C6.75571 11.768 7.07169 11.331 7.44 10.9402C8.48 9.89518 10.735 9.06518 10.83 9.03018C10.9193 8.99797 11.0159 8.99184 11.1086 9.01252C11.2012 9.0332 11.2861 9.07983 11.3532 9.14696C11.4203 9.21409 11.467 9.29894 11.4877 9.3916C11.5083 9.48425 11.5022 9.58088 11.47 9.67018C11.435 9.76518 10.605 12.0202 9.56 13.0602C8.64888 13.8235 7.61398 14.4255 6.5 14.8402V15.0002H11.5C11.6326 15.0002 11.7598 15.0529 11.8536 15.1466C11.9473 15.2404 12 15.3676 12 15.5002ZM6.945 13.5552C7.63996 13.2565 8.2843 12.8517 8.855 12.3552C9.349 11.7827 9.75358 11.1387 10.055 10.4452C9.36004 10.7439 8.7157 11.1487 8.145 11.6452C7.651 12.2177 7.24642 12.8617 6.945 13.5552V13.5552ZM5.055 13.5552C4.7563 12.8602 4.35148 12.2159 3.855 11.6452C3.2843 11.1487 2.63996 10.7439 1.945 10.4452C2.2437 11.1401 2.64852 11.7845 3.145 12.3552C3.7157 12.8517 4.36004 13.2565 5.055 13.5552V13.5552ZM6 9.00018C6.69223 9.00018 7.36892 8.79491 7.9445 8.41033C8.52007 8.02574 8.96867 7.47912 9.23358 6.83957C9.49849 6.20003 9.5678 5.4963 9.43275 4.81737C9.2977 4.13843 8.96436 3.51479 8.47487 3.02531C7.98539 2.53583 7.36175 2.20248 6.68282 2.06743C6.00388 1.93239 5.30015 2.0017 4.66061 2.2666C4.02107 2.53151 3.47444 2.98011 3.08986 3.55569C2.70527 4.13126 2.5 4.80795 2.5 5.50018C2.5 6.42844 2.86875 7.31868 3.52513 7.97506C4.1815 8.63143 5.07174 9.00018 6 9.00018ZM9.945 18.0002H2.055L2.41 21.5502C2.42244 21.6739 2.48056 21.7886 2.57301 21.8718C2.66547 21.955 2.78562 22.0008 2.91 22.0002H9.095C9.21938 22.0008 9.33953 21.955 9.43199 21.8718C9.52444 21.7886 9.58256 21.6739 9.595 21.5502L9.945 18.0002ZM11 16.0002H1V17.0002H11V16.0002Z" fill="white"/>
</svg>
