<svg aria-hidden="true" style="position: absolute; width: 0; height: 0; overflow: hidden;" version="1.1" xmlns="http://www.w3.org/2000/svg" xmlns:xlink="http://www.w3.org/1999/xlink">
<defs>
<symbol id="icon-cards" viewBox="0 0 32 32">
<path fill="#7b1931" style="fill: var(--color1, #7b1931)" d="M31.688 15.844c0 8.75-7.094 15.844-15.844 15.844s-15.844-7.094-15.844-15.844c0-8.75 7.094-15.844 15.844-15.844s15.844 7.094 15.844 15.844z"></path>
<path fill="#fff" style="fill: var(--color2, #fff)" d="M9.344 19.34h2.434c0.105 0 0.191-0.086 0.191-0.191s-0.086-0.191-0.191-0.191h-2.434c-0.105 0-0.191 0.086-0.191 0.191s0.086 0.191 0.191 0.191z"></path>
<path fill="#fff" style="fill: var(--color2, #fff)" d="M8.752 10.752h0.068v-0.003h13.667c0.472 0 0.856 0.384 0.856 0.856v8.46c0 0.472-0.384 0.856-0.856 0.856h-13.735c-0.472 0-0.856-0.384-0.856-0.856v-8.457c0-0.472 0.384-0.856 0.856-0.856zM8.752 21.304h13.735c0.683 0 1.239-0.556 1.239-1.241v-8.457c0-0.683-0.555-1.239-1.239-1.239h-13.735c-0.683 0-1.239 0.556-1.239 1.239v8.46c0 0.683 0.555 1.239 1.239 1.239z"></path>
<path fill="#fff" style="fill: var(--color2, #fff)" d="M18.289 16.831h1.201c0.106 0 0.194-0.084 0.191-0.192-0.001-0.105-0.086-0.19-0.191-0.19h-1.009v-0.728h1.009c0.105 0 0.191-0.086 0.191-0.191s-0.086-0.191-0.191-0.191h-1.201c-0.105 0-0.191 0.086-0.191 0.191v1.11c0 0.105 0.086 0.191 0.191 0.191zM20.906 16.831h1.211c0.105 0 0.191-0.086 0.191-0.191v-1.11c0-0.105-0.086-0.191-0.191-0.191h-1.211c-0.105 0-0.191 0.086-0.191 0.191v1.11c0 0.105 0.086 0.191 0.191 0.191zM21.926 15.718v0.728h-0.826v-0.728h0.826z"></path>
<path fill="#fff" style="fill: var(--color2, #fff)" d="M18.583 17.509h3.24c0.269 0 0.485-0.219 0.485-0.485v-0.337c0-0.105-0.086-0.191-0.191-0.191s-0.191 0.086-0.191 0.191v0.337c0 0.056-0.045 0.103-0.103 0.103h-3.24c-0.058 0-0.103-0.045-0.103-0.103v-0.337c0-0.105-0.086-0.191-0.191-0.191s-0.191 0.086-0.191 0.191v0.337c0 0.266 0.216 0.485 0.485 0.485zM21.926 15.481c0 0.105 0.086 0.191 0.191 0.191s0.191-0.086 0.191-0.191v-0.339c0-0.266-0.216-0.485-0.485-0.485h-3.24c-0.266 0-0.485 0.216-0.485 0.485v0.339c0 0.105 0.086 0.191 0.191 0.191s0.191-0.086 0.191-0.191v-0.339c0-0.058 0.045-0.103 0.103-0.103h3.24c0.058 0 0.103 0.045 0.103 0.103v0.339z"></path>
<path fill="#fff" style="fill: var(--color2, #fff)" d="M19.537 16.831h1.331c0.105 0 0.191-0.086 0.191-0.191s-0.086-0.191-0.191-0.191h-1.138v-0.728h1.138c0.105 0 0.191-0.086 0.191-0.191s-0.086-0.191-0.191-0.191h-1.331c-0.105 0-0.191 0.086-0.191 0.191v1.11c0 0.105 0.086 0.191 0.191 0.191zM7.704 12.322h15.829c0.105 0 0.191-0.086 0.191-0.191s-0.086-0.191-0.191-0.191h-15.829c-0.105 0-0.191 0.086-0.191 0.191s0.086 0.191 0.191 0.191zM7.704 13.699h15.829c0.105 0 0.191-0.086 0.191-0.191s-0.086-0.191-0.191-0.191h-15.829c-0.105 0-0.191 0.086-0.191 0.191s0.086 0.191 0.191 0.191zM9.525 16.276h6.242c0.107 0 0.189-0.088 0.189-0.191 0-0.105-0.086-0.191-0.191-0.191h-6.239c-0.105 0-0.191 0.086-0.191 0.191s0.086 0.191 0.191 0.191zM12.886 19.34h2.434c0.105 0 0.191-0.086 0.191-0.191s-0.086-0.191-0.191-0.191h-2.434c-0.105 0-0.191 0.086-0.191 0.191s0.086 0.191 0.191 0.191zM16.428 19.34h2.434c0.105 0 0.191-0.086 0.191-0.191s-0.086-0.191-0.191-0.191h-2.434c-0.105 0-0.191 0.086-0.191 0.191s0.086 0.191 0.191 0.191zM19.969 19.34h2.434c0.105 0 0.191-0.086 0.191-0.191s-0.086-0.191-0.191-0.191h-2.434c-0.105 0-0.191 0.086-0.191 0.191s0.086 0.191 0.191 0.191z"></path>
</symbol>
<symbol id="icon-individual" viewBox="0 0 33 32">
<path fill="#7b1931" style="fill: var(--color1, #7b1931)" d="M32.097 15.953c0 8.811-7.185 15.953-16.049 15.953s-16.049-7.142-16.049-15.953c0-8.811 7.185-15.953 16.049-15.953s16.049 7.142 16.049 15.953z"></path>
<path fill="#fff" style="fill: var(--color2, #fff)" d="M9.638 21.815h12.751c0.469 0 0.851-0.382 0.851-0.851v-11.968c0-0.469-0.382-0.851-0.851-0.851h-12.751c-0.469 0-0.851 0.382-0.851 0.851v11.968c0 0.469 0.382 0.851 0.851 0.851zM9.146 8.995c0-0.271 0.22-0.491 0.491-0.491h12.751c0.271 0 0.491 0.22 0.491 0.491v11.968c0 0.271-0.22 0.491-0.491 0.491h-12.751c-0.271 0-0.491-0.22-0.491-0.491v-11.968z"></path>
<path fill="#fff" style="fill: var(--color2, #fff)" d="M19.928 22.598h1.342c0.099 0 0.18-0.081 0.18-0.18v-0.783c0-0.099-0.080-0.18-0.18-0.18h-1.342c-0.099 0-0.18 0.081-0.18 0.18v0.783c0 0.099 0.080 0.18 0.18 0.18zM21.090 21.815v0.423h-0.982v-0.423h0.982zM10.756 22.598h1.342c0.099 0 0.18-0.081 0.18-0.18v-0.783c0-0.099-0.080-0.18-0.18-0.18h-1.342c-0.099 0-0.18 0.081-0.18 0.18v0.783c0 0.099 0.080 0.18 0.18 0.18zM11.918 21.815v0.423h-0.982v-0.423h0.982zM11.204 20.254h9.843c0.346 0 0.627-0.281 0.627-0.627v-9.295c0-0.346-0.281-0.627-0.627-0.627h-9.843c-0.346 0-0.627 0.281-0.627 0.627v1.124c0 0.099 0.080 0.18 0.18 0.18s0.18-0.081 0.18-0.18v-1.124c0-0.147 0.12-0.267 0.267-0.267h9.843c0.147 0 0.267 0.12 0.267 0.267v9.295c0 0.147-0.12 0.267-0.267 0.267h-9.843c-0.147 0-0.267-0.12-0.267-0.267v-1.124c0-0.099-0.081-0.18-0.18-0.18s-0.18 0.081-0.18 0.18v1.124c0 0.346 0.281 0.627 0.627 0.627z"></path>
<path fill="#fff" style="fill: var(--color2, #fff)" d="M10.576 17.608c0 0.099 0.080 0.18 0.18 0.18s0.18-0.081 0.18-0.18v-5.257c0-0.099-0.081-0.18-0.18-0.18s-0.18 0.081-0.18 0.18v5.257z"></path>
<path fill="#fff" style="fill: var(--color2, #fff)" d="M13.407 16.819l0 0c0.034 0.047 0.088 0.074 0.146 0.074h1.566c0.058 0 0.112-0.028 0.146-0.074l0-0c0.034-0.047 0.043-0.107 0.025-0.162v0l-0.293-0.887c0.258-0.202 0.414-0.515 0.414-0.847 0-0.593-0.482-1.075-1.075-1.075s-1.075 0.482-1.075 1.075c0 0.332 0.156 0.644 0.414 0.847l-0.293 0.887c-0.018 0.055-0.009 0.115 0.025 0.162zM13.553 16.825c-0.036 0-0.070-0.017-0.091-0.046l1.763-0.101c0.011 0.034 0.005 0.072-0.016 0.101s-0.055 0.046-0.091 0.046h-1.566zM14.87 16.533h-1.068l0.257-0.779c0.027-0.081-0.007-0.169-0.081-0.212-0.221-0.128-0.358-0.365-0.358-0.618 0-0.394 0.321-0.715 0.715-0.715s0.715 0.321 0.715 0.715c0 0.253-0.137 0.491-0.358 0.618-0.074 0.043-0.107 0.131-0.081 0.212v0l0.257 0.779zM10.197 12.531h1.119c0.346 0 0.627-0.281 0.627-0.627s-0.281-0.627-0.627-0.627h-1.119c-0.346 0-0.627 0.281-0.627 0.627s0.281 0.627 0.627 0.627zM9.929 11.904c0-0.147 0.12-0.267 0.268-0.267h1.119c0.147 0 0.267 0.12 0.267 0.267s-0.12 0.268-0.267 0.268h-1.119c-0.147 0-0.268-0.12-0.268-0.268zM10.197 18.683h1.119c0.346 0 0.627-0.281 0.627-0.627s-0.281-0.627-0.627-0.627h-1.119c-0.346 0-0.627 0.281-0.627 0.627s0.281 0.627 0.627 0.627zM9.929 18.056c0-0.147 0.12-0.267 0.268-0.267h1.119c0.147 0 0.267 0.12 0.267 0.267s-0.12 0.267-0.267 0.267h-1.119c-0.147 0-0.268-0.12-0.268-0.267zM19.077 17.161c0 0.346 0.281 0.627 0.627 0.627s0.627-0.281 0.627-0.627v-3.579c0-0.346-0.281-0.627-0.627-0.627s-0.627 0.281-0.627 0.627v3.579zM19.437 13.581c0-0.147 0.12-0.267 0.267-0.267s0.267 0.12 0.267 0.267v3.579c0 0.147-0.12 0.267-0.267 0.267s-0.267-0.12-0.267-0.267v-3.579z"></path>
</symbol>
<symbol id="icon-moneds" viewBox="0 0 33 32">
<path fill="#7b1931" style="fill: var(--color1, #7b1931)" d="M32.097 15.953c0 8.811-7.185 15.953-16.049 15.953s-16.049-7.142-16.049-15.953c0-8.811 7.185-15.953 16.049-15.953s16.049 7.142 16.049 15.953z"></path>
<path fill="#fff" style="fill: var(--color2, #fff)" d="M16.198 15.211c-0.737 0-1.457-0.218-2.069-0.628s-1.090-0.991-1.372-1.672c-0.282-0.681-0.356-1.429-0.212-2.152s0.498-1.386 1.019-1.907c0.521-0.521 1.185-0.876 1.907-1.019s1.471-0.070 2.152 0.212c0.681 0.282 1.262 0.759 1.672 1.372s0.628 1.333 0.628 2.069c-0.001 0.987-0.394 1.934-1.092 2.632s-1.645 1.091-2.632 1.092zM16.198 8.021c-0.687-0-1.358 0.203-1.929 0.584s-1.016 0.923-1.279 1.558c-0.263 0.634-0.332 1.332-0.198 2.006s0.465 1.292 0.951 1.777 1.105 0.816 1.778 0.949c0.674 0.134 1.372 0.064 2.006-0.199s1.176-0.709 1.557-1.28c0.381-0.571 0.584-1.243 0.582-1.93-0.002-0.919-0.368-1.799-1.018-2.449s-1.531-1.015-2.45-1.016v0z"></path>
<path fill="#fff" style="fill: var(--color2, #fff)" d="M16.726 11.671h-0.98v0.512h1.416v0.316h-1.416v0.697h-0.381v-0.697h-0.49v-0.316h0.49v-0.512h-0.49v-0.36h0.49v-1.928h1.362c0.312 0 0.581 0.113 0.806 0.338s0.338 0.494 0.338 0.806c0 0.312-0.113 0.581-0.338 0.806s-0.494 0.338-0.806 0.338zM16.726 9.743h-0.98v1.569h0.98c0.211 0 0.39-0.076 0.539-0.229 0.149-0.16 0.223-0.345 0.223-0.556 0-0.214-0.074-0.399-0.223-0.556-0.149-0.152-0.329-0.229-0.539-0.229z"></path>
<path fill="#fff" style="fill: var(--color2, #fff)" d="M11.77 23.927c-0.737 0-1.457-0.218-2.069-0.628s-1.090-0.991-1.372-1.672c-0.282-0.681-0.356-1.429-0.212-2.152s0.498-1.386 1.019-1.907c0.521-0.521 1.185-0.876 1.907-1.019s1.471-0.070 2.152 0.212c0.681 0.282 1.262 0.759 1.672 1.372s0.628 1.333 0.628 2.069c-0.001 0.988-0.393 1.935-1.092 2.633s-1.645 1.091-2.633 1.092zM11.77 16.735c-0.687-0.001-1.358 0.203-1.929 0.584s-1.016 0.923-1.279 1.557c-0.263 0.634-0.332 1.332-0.198 2.006s0.464 1.292 0.95 1.777c0.486 0.485 1.104 0.816 1.777 0.95s1.371 0.065 2.005-0.198c0.634-0.263 1.176-0.708 1.557-1.279s0.584-1.242 0.584-1.929c-0.002-0.919-0.368-1.8-1.018-2.45s-1.531-1.016-2.45-1.018zM20.626 23.927c-0.737 0-1.457-0.218-2.069-0.628s-1.090-0.991-1.372-1.672c-0.282-0.681-0.356-1.429-0.212-2.152s0.498-1.386 1.019-1.907c0.521-0.521 1.185-0.876 1.907-1.019s1.471-0.070 2.152 0.212c0.681 0.282 1.262 0.759 1.672 1.372s0.628 1.333 0.628 2.069c-0.001 0.988-0.393 1.935-1.092 2.633s-1.645 1.091-2.633 1.092zM20.626 16.735c-0.686 0-1.357 0.204-1.928 0.585s-1.015 0.924-1.278 1.558c-0.263 0.634-0.331 1.332-0.197 2.005s0.465 1.292 0.95 1.777c0.486 0.485 1.104 0.816 1.777 0.949s1.371 0.065 2.005-0.199c0.634-0.263 1.176-0.708 1.557-1.279s0.584-1.242 0.584-1.929c-0.001-0.92-0.368-1.801-1.018-2.451s-1.532-1.016-2.452-1.016z"></path>
<path fill="#fff" style="fill: var(--color2, #fff)" d="M12.787 20.781c0.002 0.125-0.022 0.248-0.070 0.363-0.048 0.107-0.118 0.202-0.205 0.28-0.092 0.081-0.199 0.145-0.314 0.187-0.133 0.048-0.272 0.078-0.413 0.088l-0.049 0.501c-0 0.012-0.004 0.024-0.011 0.034s-0.017 0.018-0.028 0.023c-0.020 0.008-0.041 0.013-0.062 0.016h-0.218c-0.024-0.004-0.048-0.011-0.070-0.021-0.008-0.003-0.014-0.008-0.020-0.013s-0.010-0.013-0.013-0.020c-0.005-0.015-0.005-0.032 0-0.047l0.049-0.478c-0.064-0.008-0.127-0.020-0.189-0.036-0.055-0.012-0.109-0.029-0.161-0.049-0.043-0.016-0.086-0.034-0.127-0.055-0.028-0.014-0.055-0.033-0.078-0.054-0.021-0.022-0.034-0.050-0.039-0.080-0.013-0.053-0.020-0.107-0.021-0.161 0-0.052 0-0.096 0-0.13 0.001-0.027 0.006-0.055 0.016-0.080 0.006-0.016 0.017-0.030 0.031-0.039 0.013-0.004 0.026-0.004 0.039 0 0.033 0.003 0.064 0.015 0.091 0.034 0.049 0.029 0.099 0.055 0.151 0.078 0.071 0.032 0.145 0.058 0.221 0.078 0.1 0.025 0.203 0.038 0.306 0.036 0.144 0.011 0.287-0.025 0.408-0.104 0.041-0.030 0.074-0.069 0.097-0.114s0.035-0.095 0.035-0.145c0.003-0.066-0.017-0.132-0.057-0.184-0.042-0.053-0.094-0.097-0.153-0.13-0.069-0.038-0.141-0.071-0.215-0.099l-0.26-0.091c-0.083-0.034-0.166-0.073-0.26-0.114-0.080-0.043-0.152-0.098-0.215-0.163-0.068-0.066-0.121-0.146-0.156-0.234-0.040-0.105-0.059-0.217-0.057-0.33 0.005-0.12 0.036-0.238 0.091-0.345 0.038-0.097 0.095-0.186 0.169-0.26s0.163-0.133 0.26-0.174c0.121-0.046 0.247-0.075 0.376-0.086l0.047-0.47c-0.003-0.011-0.003-0.023 0-0.034 0.008-0.010 0.018-0.018 0.029-0.023l0.060-0.016h0.221c0.025 0.004 0.050 0.011 0.073 0.021 0.008 0.003 0.014 0.008 0.020 0.013s0.010 0.013 0.013 0.020c0.002 0.015 0.002 0.031 0 0.047l-0.047 0.444c0.044 0 0.088 0.016 0.138 0.026 0.046 0.010 0.091 0.023 0.135 0.039 0.040 0.013 0.079 0.029 0.117 0.047 0.026 0.011 0.049 0.026 0.070 0.044 0.012 0.012 0.022 0.025 0.031 0.039 0.008 0.015 0.014 0.032 0.016 0.049 0.003 0.023 0.003 0.047 0 0.070 0 0.029 0 0.060 0 0.096s0 0.088 0 0.119c-0.002 0.025-0.006 0.049-0.013 0.073-0.003 0.012-0.011 0.023-0.021 0.031-0.009 0.003-0.019 0.003-0.029 0-0.031-0.004-0.061-0.013-0.088-0.029-0.039-0.021-0.088-0.044-0.145-0.067-0.064-0.026-0.13-0.047-0.197-0.065-0.079-0.022-0.162-0.032-0.244-0.031-0.070-0.001-0.14 0.007-0.208 0.023-0.052 0.012-0.1 0.035-0.143 0.068-0.035 0.026-0.062 0.061-0.078 0.101-0.018 0.040-0.027 0.083-0.026 0.127-0.002 0.067 0.018 0.133 0.057 0.187 0.043 0.052 0.096 0.095 0.156 0.127 0.071 0.039 0.144 0.072 0.221 0.099l0.26 0.093c0.088 0.034 0.175 0.072 0.26 0.114 0.081 0.047 0.154 0.106 0.218 0.174 0.066 0.066 0.119 0.145 0.156 0.231 0.045 0.104 0.068 0.216 0.067 0.33v0zM21.861 21.417c0.002 0.060-0.004 0.12-0.018 0.179-0.013 0.037-0.032 0.071-0.057 0.101-0.032 0.028-0.067 0.053-0.104 0.073-0.053 0.027-0.109 0.050-0.166 0.067-0.074 0.023-0.149 0.041-0.226 0.052-0.093 0.015-0.186 0.022-0.28 0.021-0.176 0.004-0.351-0.020-0.519-0.073-0.14-0.044-0.27-0.117-0.382-0.213-0.109-0.095-0.197-0.212-0.26-0.343-0.069-0.147-0.117-0.302-0.143-0.462h-0.244c-0.026 0-0.047-0.018-0.062-0.049-0.019-0.054-0.027-0.112-0.023-0.169-0.002-0.033-0.002-0.066 0-0.099-0.004-0.021-0.004-0.043 0-0.065 0.003-0.014 0.011-0.026 0.021-0.036 0.010-0.008 0.023-0.013 0.036-0.013h0.226v-0.080c0-0.029 0-0.055 0-0.083s0-0.067 0-0.101v-0.096h-0.226c-0.026 0-0.044-0.016-0.057-0.047-0.016-0.054-0.022-0.11-0.018-0.166-0.003-0.035-0.003-0.069 0-0.104 0.003-0.022 0.008-0.044 0.016-0.065 0.007-0.013 0.016-0.025 0.029-0.034 0.011-0.004 0.023-0.004 0.034 0h0.26c0.030-0.156 0.081-0.307 0.151-0.449 0.064-0.132 0.152-0.251 0.26-0.35s0.233-0.177 0.371-0.226c0.162-0.057 0.332-0.084 0.503-0.080 0.163-0.001 0.326 0.022 0.483 0.067 0.056 0.017 0.11 0.038 0.164 0.062l0.093 0.055c0.017 0.013 0.032 0.030 0.042 0.049s0.016 0.039 0.021 0.060c0 0.023 0 0.055 0.013 0.091s0 0.080 0 0.135c0 0.054 0 0.083 0 0.112-0.004 0.024-0.010 0.047-0.018 0.070-0.002 0.008-0.006 0.015-0.011 0.021s-0.011 0.011-0.018 0.015c-0.012 0.004-0.024 0.004-0.036 0-0.024-0.007-0.046-0.020-0.065-0.036-0.036-0.023-0.080-0.049-0.135-0.078-0.062-0.030-0.126-0.055-0.192-0.075-0.084-0.024-0.172-0.035-0.26-0.034-0.088-0.003-0.176 0.010-0.26 0.039-0.070 0.024-0.134 0.064-0.187 0.117s-0.095 0.113-0.125 0.182c-0.035 0.078-0.060 0.16-0.075 0.244h0.714c0.011-0.003 0.023-0.003 0.034 0 0.012 0.008 0.021 0.020 0.026 0.034 0.008 0.021 0.014 0.043 0.018 0.065 0 0.029 0 0.062 0 0.104 0.004 0.056-0.004 0.113-0.023 0.166-0.004 0.013-0.012 0.025-0.022 0.033s-0.024 0.013-0.037 0.014h-0.753c0 0.029 0 0.057 0 0.086s0 0.057 0 0.091c0 0.034 0 0.062 0 0.091s0 0.062 0 0.093h0.758c0.012 0.001 0.024 0.005 0.034 0.013 0.013 0.009 0.022 0.022 0.026 0.036 0.009 0.021 0.015 0.043 0.018 0.065 0.002 0.033 0.002 0.066 0 0.099 0.003 0.057-0.005 0.115-0.023 0.169-0.004 0.013-0.011 0.025-0.022 0.034s-0.024 0.014-0.038 0.015h-0.703c0.012 0.081 0.035 0.16 0.070 0.234 0.030 0.066 0.073 0.125 0.127 0.174 0.057 0.051 0.124 0.089 0.197 0.112 0.090 0.027 0.184 0.039 0.278 0.036 0.088 0.002 0.175-0.010 0.26-0.034 0.066-0.021 0.131-0.048 0.192-0.080 0.054-0.029 0.101-0.054 0.138-0.078 0.026-0.021 0.058-0.034 0.091-0.036 0.012-0.004 0.025-0.004 0.036 0 0.013 0.010 0.023 0.023 0.029 0.039 0.009 0.027 0.014 0.055 0.016 0.083 0.007 0.053 0.009 0.105 0.008 0.158zM10.265 15.891h-0.036c-0.033-0.008-0.061-0.028-0.079-0.057s-0.024-0.063-0.017-0.096c0.244-1.069 0.767-2.054 1.516-2.855 0.011-0.015 0.025-0.028 0.041-0.037s0.034-0.015 0.052-0.017c0.018-0.002 0.037 0 0.055 0.006s0.034 0.016 0.047 0.028 0.024 0.028 0.031 0.045c0.007 0.017 0.010 0.036 0.009 0.054s-0.005 0.037-0.014 0.053c-0.008 0.017-0.020 0.031-0.035 0.043-0.718 0.765-1.219 1.708-1.453 2.731-0.005 0.027-0.020 0.053-0.041 0.071s-0.048 0.029-0.076 0.030zM22.131 15.891c-0.029 0.001-0.057-0.009-0.080-0.027s-0.038-0.043-0.045-0.072c-0.233-1.023-0.735-1.966-1.453-2.731-0.012-0.012-0.021-0.026-0.027-0.042s-0.009-0.032-0.009-0.049 0.004-0.033 0.011-0.049c0.007-0.015 0.016-0.029 0.029-0.041s0.026-0.021 0.042-0.027 0.032-0.009 0.049-0.009c0.017 0 0.033 0.004 0.049 0.011s0.029 0.016 0.041 0.029c0.751 0.8 1.275 1.786 1.518 2.855 0.007 0.033 0.001 0.068-0.018 0.097s-0.047 0.049-0.081 0.056l-0.026-0.003zM16.198 24.373c-0.272 0-0.543-0.018-0.812-0.055-0.309-0.040-0.614-0.103-0.914-0.189-0.032-0.010-0.059-0.032-0.076-0.061s-0.020-0.065-0.010-0.097c0.010-0.032 0.032-0.060 0.061-0.076s0.065-0.020 0.097-0.010c0.287 0.082 0.579 0.142 0.875 0.179 0.517 0.069 1.040 0.069 1.557 0 0.297-0.038 0.59-0.099 0.877-0.184 0.034-0.009 0.071-0.005 0.102 0.013s0.053 0.047 0.063 0.081c0.009 0.034 0.005 0.071-0.013 0.102s-0.047 0.053-0.081 0.063c-0.299 0.086-0.605 0.151-0.914 0.192-0.27 0.030-0.541 0.044-0.812 0.042v0z"></path>
</symbol>
<symbol id="icon-online-bank" viewBox="0 0 32 32">
<path fill="#7b1931" style="fill: var(--color1, #7b1931)" d="M31.688 15.844c0 8.75-7.094 15.844-15.844 15.844s-15.844-7.094-15.844-15.844c0-8.75 7.094-15.844 15.844-15.844s15.844 7.094 15.844 15.844z"></path>
<path fill="#fff" style="fill: var(--color2, #fff)" d="M21.728 10.058c0.414 0 0.753 0.339 0.753 0.754v8.289c0 0.414-0.339 0.754-0.753 0.754h-11.68c-0.414 0-0.754-0.339-0.754-0.754v-8.289c0-0.415 0.339-0.754 0.754-0.754h11.68zM21.728 9.556h-11.68c-0.691 0-1.256 0.565-1.256 1.256v8.289c0 0.691 0.565 1.256 1.256 1.256h11.68c0.691 0 1.256-0.565 1.256-1.256v-8.289c0-0.691-0.565-1.256-1.256-1.256z"></path>
<path fill="#fff" style="fill: var(--color2, #fff)" d="M15.951 19.226c0.208 0 0.377-0.169 0.377-0.377s-0.169-0.377-0.377-0.377c-0.208 0-0.377 0.169-0.377 0.377s0.169 0.377 0.377 0.377z"></path>
<path fill="#fff" style="fill: var(--color2, #fff)" d="M18.274 21.99h-2.072v-1.067c0-0.138-0.113-0.251-0.251-0.251s-0.251 0.113-0.251 0.251v1.067h-2.072c-0.138 0-0.251 0.113-0.251 0.251s0.113 0.251 0.251 0.251h4.647c0.138 0 0.251-0.113 0.251-0.251s-0.113-0.251-0.251-0.251z"></path>
<path fill="#fff" style="fill: var(--color2, #fff)" d="M21.351 11.189v6.405h-10.926v-6.405h10.926zM21.602 10.938h-11.429v6.907h11.429v-6.907z"></path>
</symbol>
<symbol id="icon-less" viewBox="0 0 32 32">
<path d="M16.321 8.52c-0.155-0.158-0.408-0.16-0.566-0.005l-2.57 2.521c-0.158 0.155-0.16 0.408-0.005 0.566s0.408 0.16 0.566 0.005l2.284-2.241 2.241 2.284c0.155 0.158 0.408 0.16 0.566 0.006s0.16-0.408 0.005-0.566l-2.521-2.57zM16.366 16.004l0.069-7.2-0.8-0.008-0.069 7.2 0.8 0.008z"></path>
<path fill="none" stroke="#4c4c4c" style="stroke: var(--color3, #4c4c4c)" stroke-linejoin="miter" stroke-linecap="butt" stroke-miterlimit="4" stroke-width="0.8" d="M28.4 12.8c0 6.848-5.552 12.4-12.4 12.4s-12.4-5.552-12.4-12.4c0-6.848 5.552-12.4 12.4-12.4s12.4 5.552 12.4 12.4z"></path>
</symbol>
<symbol id="icon-close-menu" viewBox="0 0 32 32">
<path fill="#fff" style="fill: var(--color2, #fff)" d="M26.582 5.418c-0.285-0.285-0.792-0.285-1.077 0l-9.505 9.505-9.505-9.505c-0.285-0.285-0.792-0.285-1.077 0s-0.285 0.792 0 1.077l9.505 9.505-9.505 9.505c-0.285 0.285-0.285 0.792 0 1.077 0.158 0.158 0.348 0.222 0.539 0.222s0.38-0.063 0.539-0.222l9.505-9.505 9.505 9.505c0.158 0.158 0.349 0.222 0.539 0.222s0.38-0.063 0.539-0.222c0.285-0.285 0.285-0.792 0-1.077l-9.505-9.505 9.505-9.505c0.285-0.285 0.285-0.76 0-1.077z"></path>
</symbol>
<symbol id="icon-menu" viewBox="0 0 32 32">
<path fill="#fff" style="fill: var(--color2, #fff)" d="M30.368 26.615h-28.694c-0.311 0-0.563-0.252-0.563-0.563s0.252-0.563 0.563-0.563h28.694c0.311 0 0.563 0.252 0.563 0.563s-0.252 0.563-0.563 0.563zM30.368 16.547h-28.694c-0.311 0-0.563-0.252-0.563-0.563s0.252-0.563 0.563-0.563h28.694c0.311 0 0.563 0.252 0.563 0.563s-0.252 0.563-0.563 0.563zM30.368 6.478h-28.694c-0.311 0-0.563-0.252-0.563-0.563s0.252-0.563 0.563-0.563h28.694c0.311 0 0.563 0.252 0.563 0.563s-0.252 0.563-0.563 0.563z"></path>
</symbol>
<symbol id="icon-next" viewBox="0 0 19 32">
<path fill="none" stroke="#fff" style="stroke: var(--color2, #fff)" stroke-linejoin="miter" stroke-linecap="round" stroke-miterlimit="4" stroke-width="2.6667" d="M1.333 1.333l14.667 14.667-14.667 14.667"></path>
</symbol>
<symbol id="icon-arrow" viewBox="0 0 33 32">
<path fill="none" stroke="#2f4670" style="stroke: var(--color4, #2f4670)" stroke-linejoin="miter" stroke-linecap="butt" stroke-miterlimit="4" stroke-width="1.6552" d="M1.104 15.671l30.377-0.964"></path>
<path fill="none" stroke="#2f4670" style="stroke: var(--color4, #2f4670)" stroke-linejoin="miter" stroke-linecap="butt" stroke-miterlimit="4" stroke-width="1.6552" d="M16.776 0.878l15.358 14.414"></path>
<path fill="none" stroke="#2f4670" style="stroke: var(--color4, #2f4670)" stroke-linejoin="miter" stroke-linecap="butt" stroke-miterlimit="4" stroke-width="1.6552" d="M31.813 15.199l-14.414 15.358"></path>
</symbol>
<symbol id="icon-calendar" viewBox="0 0 33 32">
<path d="M29.127 31.071h-24.8c-1.691 0-3.1-1.409-3.1-3.1v-22.757c0-1.691 1.127-3.1 2.607-3.1h1.55v2.043h-1.55c-0.211 0-0.493 0.423-0.493 1.057v22.757c0 0.564 0.493 1.057 1.057 1.057h24.8c0.564 0 1.057-0.493 1.057-1.057v-22.757c0-0.634-0.352-1.057-0.493-1.057h-1.55v-2.043h1.55c1.409 0 2.607 1.409 2.607 3.1v22.757c-0.141 1.691-1.55 3.1-3.241 3.1z"></path>
<path d="M8.484 6.271c-0.564 0-1.057-0.493-1.057-1.057v-4.157c0-0.564 0.493-1.057 1.057-1.057s1.057 0.493 1.057 1.057v4.157c-0.070 0.564-0.493 1.057-1.057 1.057zM24.971 6.271c-0.564 0-1.057-0.493-1.057-1.057v-4.157c0-0.564 0.493-1.057 1.057-1.057s1.057 0.493 1.057 1.057v4.157c0 0.564-0.493 1.057-1.057 1.057z"></path>
<path d="M11.584 2.114h10.286v2.114h-10.286v-2.114z"></path>
<path d="M3.27 8.314h26.914v2.114h-26.914v-2.114z"></path>
<path d="M26.027 12.471h2.043v2.043h-2.043v-2.043z"></path>
<path d="M21.871 12.471h2.114v2.043h-2.114v-2.043z"></path>
<path d="M17.784 12.471h2.043v2.043h-2.043v-2.043z"></path>
<path d="M13.628 12.471h2.043v2.043h-2.043v-2.043z"></path>
<path d="M9.47 12.471h2.114v2.043h-2.114v-2.043z"></path>
<path d="M26.027 16.628h2.043v2.043h-2.043v-2.043z"></path>
<path d="M21.871 16.628h2.114v2.043h-2.114v-2.043z"></path>
<path d="M17.784 16.628h2.043v2.043h-2.043v-2.043z"></path>
<path d="M13.628 16.628h2.043v2.043h-2.043v-2.043z"></path>
<path d="M9.47 16.628h2.114v2.043h-2.114v-2.043z"></path>
<path d="M5.384 16.628h2.043v2.043h-2.043v-2.043z"></path>
<path d="M26.027 20.714h2.043v2.114h-2.043v-2.114z"></path>
<path d="M21.871 20.714h2.114v2.114h-2.114v-2.114z"></path>
<path d="M17.784 20.714h2.043v2.114h-2.043v-2.114z"></path>
<path d="M13.628 20.714h2.043v2.114h-2.043v-2.114z"></path>
<path d="M9.47 20.714h2.114v2.114h-2.114v-2.114z"></path>
<path d="M5.384 20.714h2.043v2.114h-2.043v-2.114z"></path>
<path d="M21.871 24.871h2.114v2.043h-2.114v-2.043z"></path>
<path d="M17.784 24.871h2.043v2.043h-2.043v-2.043z"></path>
<path d="M13.628 24.871h2.043v2.043h-2.043v-2.043z"></path>
<path d="M9.47 24.871h2.114v2.043h-2.114v-2.043z"></path>
<path d="M5.384 24.871h2.043v2.043h-2.043v-2.043z"></path>
</symbol>
<symbol id="icon-instagram" viewBox="0 0 32 32">
<path fill="#fff" style="fill: var(--color2, #fff)" d="M16 8.667c-1.45 0-2.868 0.43-4.074 1.236s-2.146 1.951-2.701 3.291c-0.555 1.34-0.7 2.814-0.417 4.237s0.981 2.729 2.007 3.755c1.026 1.026 2.332 1.724 3.755 2.007s2.897 0.138 4.237-0.417c1.34-0.555 2.485-1.495 3.291-2.701s1.236-2.624 1.236-4.074c-0.002-1.944-0.776-3.808-2.15-5.183s-3.239-2.148-5.183-2.15zM16 22c-1.187 0-2.347-0.352-3.333-1.011s-1.756-1.596-2.21-2.693c-0.454-1.096-0.573-2.303-0.341-3.467s0.803-2.233 1.642-3.072c0.839-0.839 1.908-1.411 3.072-1.642s2.37-0.113 3.467 0.341c1.096 0.454 2.033 1.223 2.693 2.21s1.011 2.147 1.011 3.333c-0.002 1.591-0.634 3.116-1.759 4.241s-2.65 1.758-4.241 1.759zM23.333 0h-14.667c-2.298 0.003-4.501 0.917-6.125 2.541s-2.539 3.828-2.541 6.125v14.667c0.003 2.298 0.917 4.501 2.541 6.125s3.828 2.539 6.125 2.541h14.667c2.298-0.003 4.501-0.917 6.125-2.541s2.539-3.828 2.541-6.125v-14.667c-0.003-2.298-0.917-4.501-2.541-6.125s-3.828-2.539-6.125-2.541zM30.667 23.333c-0.002 1.944-0.776 3.808-2.15 5.183s-3.239 2.148-5.183 2.15h-14.667c-1.944-0.002-3.808-0.776-5.183-2.15s-2.148-3.239-2.15-5.183v-14.667c0.002-1.944 0.776-3.808 2.15-5.183s3.239-2.148 5.183-2.15h14.667c1.944 0.002 3.808 0.776 5.183 2.15s2.148 3.239 2.15 5.183v14.667zM26 7.333c0 0.264-0.078 0.521-0.225 0.741s-0.355 0.39-0.598 0.491c-0.244 0.101-0.512 0.127-0.77 0.076s-0.496-0.178-0.683-0.365-0.313-0.424-0.365-0.683c-0.051-0.259-0.025-0.527 0.076-0.77s0.272-0.452 0.491-0.598 0.477-0.225 0.741-0.225c0.353 0 0.692 0.141 0.942 0.391s0.39 0.589 0.391 0.942z"></path>
</symbol>
<symbol id="icon-more" viewBox="0 0 32 32">
<path fill="#4c4c4c" style="fill: var(--color3, #4c4c4c)" d="M31 16c0-8.284-6.716-15-15-15s-15 6.716-15 15c0 8.284 6.716 15 15 15s15-6.716 15-15zM32 16c0 8.837-7.163 16-16 16s-16-7.163-16-16c0-8.837 7.163-16 16-16s16 7.163 16 16zM16.354 20.354c-0.195 0.195-0.512 0.195-0.707 0l-3.182-3.182c-0.195-0.195-0.195-0.512 0-0.707s0.512-0.195 0.707 0l2.328 2.328v-7.793h1v7.793l2.328-2.328c0.195-0.195 0.512-0.195 0.707 0s0.195 0.512 0 0.707l-3.182 3.182z"></path>
</symbol>
<symbol id="icon-twitter" viewBox="0 0 32 32">
<path fill="#fff" style="fill: var(--color2, #fff)" d="M16-0.034c-8.841 0-16.035 7.192-16.035 16.034s7.194 16.034 16.035 16.034c8.841 0 16.035-7.192 16.035-16.034s-7.194-16.034-16.035-16.034zM16 30.966c-8.252 0-14.965-6.714-14.965-14.966s6.713-14.966 14.965-14.966c8.252 0 14.965 6.714 14.965 14.966s-6.713 14.966-14.965 14.966z"></path>
<path fill="#fff" style="fill: var(--color2, #fff)" d="M24.794 11.046c0.111-0.205 0.202-0.421 0.273-0.643 0.033-0.103 0.033-0.214 0.002-0.317s-0.094-0.195-0.178-0.263c-0.085-0.068-0.188-0.108-0.296-0.115s-0.216 0.018-0.309 0.072c-0.512 0.305-1.067 0.531-1.646 0.673-0.703-0.634-1.615-0.986-2.562-0.987-0.514 0-1.023 0.105-1.496 0.306s-0.9 0.497-1.256 0.868-0.634 0.81-0.816 1.291c-0.182 0.481-0.266 0.994-0.245 1.508-2.249-0.283-4.303-1.421-5.735-3.178-0.055-0.067-0.125-0.119-0.204-0.152s-0.166-0.048-0.252-0.041c-0.086 0.007-0.169 0.034-0.242 0.080s-0.134 0.109-0.178 0.183c-0.328 0.563-0.506 1.2-0.518 1.852s0.144 1.295 0.452 1.869c-0.075 0.013-0.148 0.039-0.214 0.078-0.081 0.052-0.147 0.123-0.194 0.207s-0.070 0.178-0.070 0.274c0 1.135 0.505 2.177 1.319 2.885l-0.035 0.035c-0.061 0.069-0.104 0.154-0.123 0.245s-0.014 0.185 0.015 0.273c0.17 0.529 0.453 1.015 0.83 1.424s0.839 0.73 1.354 0.941c-1.056 0.515-2.239 0.716-3.406 0.579-0.12-0.012-0.241 0.016-0.343 0.079s-0.181 0.16-0.223 0.273c-0.040 0.114-0.041 0.238-0.002 0.352s0.116 0.212 0.217 0.277c1.587 1.019 3.433 1.56 5.319 1.559 6.18 0 9.874-5.020 9.874-9.873l-0.001-0.164c0.599-0.468 1.119-1.028 1.541-1.66 0.064-0.095 0.095-0.209 0.090-0.324s-0.048-0.225-0.121-0.313c-0.073-0.089-0.173-0.152-0.284-0.179s-0.229-0.019-0.335 0.026zM23.049 12.801c-0.073 0.052-0.131 0.122-0.17 0.202s-0.057 0.169-0.052 0.259c0.006 0.132 0.009 0.266 0.009 0.398 0 4.328-3.293 8.805-8.804 8.805-0.983 0-1.959-0.165-2.887-0.488 1.112-0.213 2.156-0.69 3.045-1.39 0.087-0.068 0.15-0.162 0.181-0.267s0.030-0.218-0.005-0.323c-0.035-0.105-0.102-0.196-0.19-0.261s-0.196-0.102-0.306-0.104c-0.431-0.008-0.854-0.118-1.236-0.32s-0.709-0.491-0.959-0.843c0.253-0.017 0.501-0.059 0.742-0.124 0.117-0.031 0.219-0.101 0.291-0.198s0.109-0.216 0.104-0.336c-0.004-0.121-0.049-0.236-0.127-0.328s-0.186-0.154-0.304-0.177c-0.487-0.099-0.938-0.329-1.304-0.664s-0.635-0.764-0.777-1.241c0.266 0.067 0.539 0.106 0.812 0.115 0.235-0.001 0.453-0.145 0.526-0.371s-0.013-0.475-0.212-0.607c-0.471-0.313-0.833-0.765-1.037-1.292s-0.241-1.104-0.106-1.653c1.737 1.782 4.083 2.844 6.568 2.972 0.176 0.001 0.33-0.062 0.437-0.191s0.148-0.3 0.11-0.464c-0.137-0.589-0.076-1.207 0.174-1.757s0.674-1.004 1.207-1.289c0.533-0.285 1.145-0.387 1.742-0.289s1.145 0.389 1.559 0.83c0.062 0.066 0.14 0.116 0.226 0.143s0.178 0.033 0.268 0.016c0.165-0.033 0.328-0.071 0.489-0.115-0.073 0.054-0.148 0.105-0.226 0.151-0.104 0.064-0.183 0.161-0.224 0.275s-0.042 0.24-0.003 0.355c0.039 0.115 0.117 0.213 0.22 0.278s0.224 0.093 0.345 0.080l0.182-0.023c-0.1 0.083-0.203 0.162-0.309 0.237z"></path>
</symbol>
<symbol id="icon-search" viewBox="0 0 32 32">
<path fill="#f3f3f3" style="fill: var(--color5, #f3f3f3)" d="M30.966 29.7l-10.082-10.388c1.565-2.084 2.411-4.632 2.411-7.312 0-3.208-1.215-6.216-3.413-8.484s-5.125-3.516-8.234-3.516c-3.11 0-6.037 1.252-8.234 3.516-2.201 2.264-3.413 5.276-3.413 8.484 0 3.204 1.215 6.22 3.413 8.484 2.197 2.268 5.121 3.516 8.234 3.516 2.601 0 5.070-0.872 7.093-2.48l10.082 10.384c0.030 0.031 0.065 0.055 0.103 0.071s0.080 0.025 0.122 0.025c0.042 0 0.083-0.008 0.122-0.025s0.074-0.041 0.103-0.071l1.693-1.74c0.030-0.031 0.053-0.067 0.069-0.106s0.024-0.082 0.024-0.126c0-0.043-0.008-0.086-0.024-0.126s-0.040-0.076-0.069-0.106zM17.797 18.336c-1.646 1.692-3.828 2.624-6.15 2.624s-4.503-0.932-6.15-2.624c-1.642-1.696-2.547-3.944-2.547-6.336s0.905-4.644 2.547-6.336c1.646-1.692 3.828-2.624 6.15-2.624s4.507 0.928 6.15 2.624c1.642 1.696 2.547 3.944 2.547 6.336s-0.905 4.644-2.547 6.336z"></path>
</symbol>
<symbol id="icon-phone" viewBox="0 0 32 32">
<path fill="#fff" style="fill: var(--color2, #fff)" d="M16 0c-8.837 0-16 7.163-16 16s7.163 16 16 16c8.837 0 16-7.163 16-16s-7.163-16-16-16zM10.25 6.355c0.33-0.019 0.628 0.178 0.854 0.527l2.188 4.148c0.23 0.492 0.099 1.018-0.244 1.369l-1.002 1.002c-0.062 0.085-0.103 0.18-0.104 0.285 0.384 1.487 1.55 2.859 2.578 3.803s2.134 2.221 3.568 2.523c0.177 0.049 0.395 0.067 0.521-0.051l1.164-1.186c0.402-0.304 0.983-0.452 1.412-0.203h0.020l3.947 2.33c0.579 0.363 0.639 1.065 0.225 1.492l-2.719 2.697c-0.402 0.412-0.935 0.55-1.453 0.551-2.292-0.069-4.458-1.194-6.236-2.35-2.92-2.124-5.598-4.759-7.279-7.941-0.645-1.335-1.402-3.038-1.33-4.527 0.006-0.56 0.158-1.109 0.553-1.471l2.719-2.719c0.212-0.18 0.421-0.27 0.619-0.281z"></path>
</symbol>
<symbol id="icon-facebook" viewBox="0 0 32 32">
<path fill="#fff" style="fill: var(--color2, #fff)" d="M16-0.034c-8.841 0-16.035 7.192-16.035 16.034s7.194 16.034 16.035 16.034c8.841 0 16.035-7.192 16.035-16.034s-7.194-16.034-16.035-16.034zM16 30.966c-8.252 0-14.965-6.714-14.965-14.966s6.713-14.966 14.965-14.966c8.252 0 14.965 6.714 14.965 14.966s-6.713 14.966-14.965 14.966z"></path>
<path fill="#fff" style="fill: var(--color2, #fff)" d="M19.5 7h-2.668c-3.398-0.034-3.832 2.069-3.832 4.345v1.655h-1.5c-0.068-0.009-0.137-0.002-0.201 0.020s-0.124 0.059-0.172 0.107c-0.048 0.048-0.085 0.107-0.107 0.172s-0.029 0.134-0.020 0.201v3c-0.009 0.068-0.002 0.137 0.020 0.202s0.059 0.124 0.107 0.172c0.048 0.048 0.107 0.085 0.172 0.107s0.134 0.029 0.201 0.020h1.5v7.5c-0.008 0.068-0.001 0.137 0.021 0.202s0.059 0.123 0.108 0.172c0.049 0.048 0.107 0.085 0.172 0.107s0.134 0.029 0.202 0.020h3.055c0.295 0.034 0.534-0.205 0.44-0.5l0.002-7.5h2.5c0.068 0.009 0.137 0.002 0.202-0.020s0.124-0.058 0.172-0.107c0.048-0.048 0.085-0.107 0.107-0.172s0.029-0.134 0.020-0.202v-3c0.009-0.068 0.002-0.137-0.020-0.201s-0.058-0.124-0.107-0.172c-0.048-0.048-0.107-0.085-0.172-0.107s-0.134-0.029-0.202-0.020h-2.503l0.003-1.5c0.097-0.639 0.097-0.535 0.69-0.5h1.789c0.139-0.031 0.287-0.014 0.391-0.115s0.164-0.239 0.129-0.385v-3c0.009-0.068 0.003-0.137-0.019-0.202s-0.058-0.124-0.107-0.172c-0.048-0.048-0.107-0.085-0.172-0.107s-0.134-0.029-0.201-0.019zM18.965 9.944l-1.254-0.048c-1.553 0-1.683 0.843-1.683 1.706l-0.004 1.896c-0 0.070 0.014 0.14 0.040 0.205s0.066 0.124 0.116 0.174c0.050 0.050 0.108 0.089 0.173 0.116s0.134 0.041 0.205 0.041h2.442v1.932h-2.44c-0.142 0-0.278 0.056-0.378 0.156s-0.157 0.236-0.157 0.378l-0.001 7.501h-2.024v-7.5c0-0.295-0.201-0.534-0.497-0.534h-1.503v-1.932h1.503c0.070 0 0.14-0.014 0.204-0.040s0.124-0.066 0.174-0.116c0.1-0.101 0.118-0.237 0.118-0.379v-2.155c0-2.242 0.453-3.31 2.832-3.31h2.133v1.91h0.001z"></path>
</symbol>
<symbol id="icon-info" viewBox="0 0 32 32">
<path fill="none" stroke="#a5a4a4" style="stroke: var(--color6, #a5a4a4)" stroke-linejoin="miter" stroke-linecap="butt" stroke-miterlimit="4" stroke-width="1.6842" d="M16 29.474c7.906 0 14.316-6.409 14.316-14.316s-6.409-14.316-14.316-14.316c-7.906 0-14.316 6.409-14.316 14.316s6.409 14.316 14.316 14.316z"></path>
<path fill="#a5a4a4" style="fill: var(--color6, #a5a4a4)" d="M16.64 18.392h-2.004l-0.519-6.602v-4.716h3.065v4.716l-0.542 6.602zM15.65 20.325c0.487 0 0.904 0.173 1.25 0.519s0.519 0.762 0.519 1.25c0 0.487-0.173 0.904-0.519 1.25s-0.762 0.519-1.25 0.519c-0.487 0-0.904-0.173-1.25-0.519s-0.519-0.762-0.519-1.25c0-0.487 0.165-0.904 0.495-1.25 0.346-0.346 0.77-0.519 1.273-0.519z"></path>
</symbol>
<symbol id="icon-garanties" viewBox="0 0 32 32">
<path fill="#7b1931" style="fill: var(--color1, #7b1931)" d="M15.814 31.627c8.734 0 15.814-7.080 15.814-15.814s-7.080-15.814-15.814-15.814c-8.734 0-15.814 7.080-15.814 15.814s7.080 15.814 15.814 15.814z"></path>
<path fill="#fff" style="fill: var(--color2, #fff)" d="M7.996 21.113h9.172v3.089l1.898-1.139 1.898 1.139v-3.089h2.214v-12.018h-15.181v12.018zM20.415 18.967c-0.028 0.029-0.059 0.055-0.089 0.082-0.017 0.015-0.033 0.031-0.051 0.046-0.020 0.016-0.041 0.030-0.061 0.046-0.273 0.209-0.597 0.34-0.939 0.379l-0.017 0.002c-0.129 0.013-0.258 0.013-0.386 0l-0.017-0.002c-0.342-0.038-0.666-0.169-0.939-0.379-0.020-0.016-0.041-0.030-0.061-0.046-0.017-0.015-0.034-0.031-0.051-0.046-0.030-0.027-0.060-0.053-0.089-0.082-0.352-0.354-0.549-0.834-0.549-1.333 0-1.047 0.851-1.898 1.898-1.898s1.898 0.851 1.898 1.898c0.001 0.499-0.196 0.979-0.547 1.333zM20.331 23.085l-1.265-0.759-1.265 0.759v-3.259c0.011 0.006 0.023 0.010 0.034 0.016 0.084 0.047 0.17 0.090 0.259 0.127l0.012 0.004c0.615 0.254 1.305 0.254 1.92 0l0.012-0.004c0.089-0.037 0.175-0.080 0.259-0.127 0.011-0.006 0.023-0.010 0.034-0.016v3.259h-0.001zM8.629 9.727h13.916v10.753h-1.581v-1.178c0.407-0.46 0.633-1.053 0.633-1.668 0-1.395-1.135-2.53-2.53-2.53s-2.53 1.135-2.53 2.53c0 0.639 0.24 1.222 0.633 1.668v1.178h-8.539v-10.753z"></path>
<path fill="#fff" style="fill: var(--color2, #fff)" d="M11.476 10.384h8.223v0.633h-8.223v-0.633zM13.057 12.282h5.060v0.633h-5.060v-0.633zM9.894 17.975h3.479v0.633h-3.479v-0.633z"></path>
</symbol>
<symbol id="icon-deposite" viewBox="0 0 32 32">
<path fill="#7b1931" style="fill: var(--color1, #7b1931)" d="M15.814 31.627c8.734 0 15.814-7.080 15.814-15.814s-7.080-15.814-15.814-15.814c-8.734 0-15.814 7.080-15.814 15.814s7.080 15.814 15.814 15.814z"></path>
<path fill="#fff" style="fill: var(--color2, #fff)" d="M17.178 8.204c-0.404 0.099-0.497 0.107-0.851 0.072-0.301-0.030-0.457 0.008-0.625 0.151-0.223 0.191-0.297 0.554-0.171 0.836 0.035 0.078 0.192 0.37 0.35 0.649 0.232 0.411 0.279 0.517 0.246 0.562-0.092 0.128-0.175 0.345-0.176 0.462-0 0.069 0.039 0.205 0.087 0.304l0.087 0.178-0.229 0.313c-1.146 1.564-2.028 3.27-2.198 4.256-0.023 0.136-0.046 0.252-0.051 0.258s-0.155-0.061-0.334-0.148c-0.637-0.311-1.242-0.474-1.88-0.505l-0.383-0.019-0.042-0.205c-0.055-0.272-0.21-0.479-0.452-0.604l-0.188-0.097-1.248 0.001c-1.387 0.001-1.402 0.003-1.639 0.244-0.25 0.254-0.231-0.041-0.241 3.743l-0.009 3.407 0.075 0.177c0.043 0.102 0.135 0.229 0.216 0.3 0.25 0.218 0.356 0.232 1.69 0.219l1.186-0.011 0.18-0.102c0.099-0.056 0.221-0.162 0.271-0.236 0.076-0.112 0.103-0.129 0.166-0.104 0.041 0.016 0.744 0.342 1.562 0.723s1.593 0.732 1.722 0.778c0.618 0.224 1.337 0.178 1.922-0.125 0.108-0.056 0.741-0.496 1.407-0.978s2.261-1.637 3.545-2.565c1.284-0.928 2.402-1.756 2.485-1.839 0.519-0.521 0.38-1.422-0.273-1.761-0.356-0.185-0.54-0.186-1.072-0.010-0.24 0.080-0.446 0.145-0.458 0.145s-0.023-0.115-0.024-0.255c-0.003-0.992-0.808-2.702-2.157-4.579-0.164-0.229-0.299-0.43-0.299-0.448s0.031-0.084 0.069-0.148c0.101-0.168 0.093-0.458-0.017-0.655l-0.085-0.152 0.326-0.564c0.18-0.311 0.336-0.624 0.348-0.698 0.050-0.301-0.154-0.645-0.452-0.761-0.12-0.047-0.197-0.053-0.352-0.031-0.377 0.054-0.559 0.034-0.897-0.102-0.43-0.172-0.678-0.189-1.136-0.077zM18.216 8.763c0.41 0.161 0.55 0.181 0.906 0.127 0.294-0.044 0.298-0.044 0.362 0.036 0.035 0.044 0.064 0.108 0.064 0.141s-0.15 0.317-0.332 0.63l-0.332 0.57-2.259-0.002-0.337-0.609c-0.186-0.335-0.337-0.649-0.337-0.698 0-0.175 0.087-0.208 0.487-0.185 0.311 0.018 0.413 0.008 0.741-0.069 0.467-0.111 0.627-0.101 1.038 0.060zM18.994 10.829c0.038 0.039 0.069 0.086 0.069 0.106s-0.031 0.067-0.069 0.106c-0.066 0.068-0.115 0.070-1.238 0.070-1.002 0-1.18-0.008-1.245-0.055-0.090-0.064-0.099-0.164-0.023-0.242 0.047-0.048 0.209-0.055 1.245-0.055 1.145 0 1.194 0.003 1.26 0.070zM19.221 12.034c1.453 2.024 2.254 3.762 2.139 4.641-0.021 0.16-0.036 0.187-0.131 0.227-0.11 0.047-3.123 1.109-3.145 1.109-0.007 0-0.005-0.085 0.003-0.189 0.029-0.36-0.165-0.8-0.444-1.006l-0.144-0.106 0.168 0.019c0.227 0.026 0.637-0.066 0.902-0.203s0.589-0.459 0.731-0.731c0.366-0.699 0.246-1.523-0.304-2.085-0.355-0.363-0.734-0.524-1.23-0.524-0.482 0-0.865 0.158-1.215 0.499-0.808 0.789-0.671 2.157 0.276 2.768l0.159 0.103-0.509 0.022c-0.994 0.043-2.163 0.037-2.265-0.013-0.111-0.053-0.115-0.101-0.046-0.492 0.167-0.945 0.985-2.505 2.148-4.097l0.274-0.375h2.325l0.309 0.431zM18.212 13.754c0.247 0.094 0.425 0.232 0.579 0.451 0.474 0.673 0.199 1.642-0.551 1.945-0.294 0.119-0.716 0.113-0.982-0.012-0.274-0.129-0.492-0.346-0.625-0.622-0.103-0.213-0.112-0.261-0.112-0.568 0-0.289 0.012-0.362 0.091-0.529 0.294-0.628 0.965-0.907 1.6-0.666zM17.645 14.103c0 0.041-0.023 0.070-0.055 0.070-0.030 0-0.108 0.054-0.173 0.12-0.102 0.104-0.118 0.143-0.117 0.29 0.001 0.219 0.059 0.292 0.363 0.46 0.215 0.119 0.243 0.147 0.253 0.248 0.009 0.094-0.005 0.121-0.080 0.156-0.088 0.041-0.158 0.031-0.437-0.064-0.040-0.014-0.068 0.014-0.097 0.098-0.036 0.105-0.033 0.124 0.034 0.179 0.041 0.034 0.103 0.062 0.138 0.062s0.101 0.041 0.147 0.091c0.103 0.113 0.243 0.107 0.26-0.012 0.006-0.044 0.032-0.079 0.058-0.079 0.074 0 0.247-0.165 0.294-0.28 0.095-0.232-0.071-0.537-0.355-0.652-0.272-0.11-0.351-0.263-0.179-0.343 0.068-0.032 0.126-0.031 0.25 0.003 0.144 0.039 0.166 0.037 0.205-0.018 0.079-0.111 0.052-0.189-0.086-0.247-0.071-0.030-0.142-0.077-0.157-0.104s-0.081-0.049-0.147-0.049c-0.096 0-0.119 0.014-0.119 0.070zM10.41 15.233c0.043 0.041 0.092 0.113 0.11 0.161 0.019 0.052 0.033 1.393 0.033 3.325 0 3.56 0.010 3.384-0.209 3.5-0.089 0.047-0.269 0.053-1.265 0.045l-1.161-0.010-0.202-0.23v-6.658l0.202-0.206h1.207c1.178 0 1.209 0.002 1.285 0.074zM11.601 16.092c0.586 0.046 1.135 0.241 2.031 0.722l0.536 0.288 2.912-0.040 0.151 0.078c0.083 0.043 0.198 0.139 0.257 0.214 0.096 0.123 0.106 0.159 0.106 0.39 0 0.226-0.011 0.27-0.099 0.387-0.055 0.073-0.147 0.162-0.206 0.198s-0.753 0.226-1.544 0.422c-0.791 0.196-1.486 0.371-1.545 0.39-0.214 0.066-0.243 0.348-0.046 0.444 0.076 0.037 0.291-0.008 1.631-0.341 1.015-0.252 1.607-0.416 1.728-0.479 0.261-0.135 5.237-1.88 5.361-1.88 0.12 0 0.33 0.084 0.422 0.169 0.256 0.236 0.257 0.688 0.002 0.928-0.215 0.201-7.135 5.185-7.333 5.281-0.242 0.117-0.611 0.205-0.862 0.205-0.377 0-0.609-0.088-2.34-0.89l-1.708-0.791-0.009-2.845c-0.007-2.252 0-2.85 0.035-2.872 0.024-0.015 0.090-0.021 0.147-0.013s0.225 0.025 0.374 0.036z"></path>
</symbol>
<symbol id="icon-credite" viewBox="0 0 32 32">
<path fill="#7b1931" style="fill: var(--color1, #7b1931)" d="M15.814 31.627c8.734 0 15.814-7.080 15.814-15.814s-7.080-15.814-15.814-15.814c-8.734 0-15.814 7.080-15.814 15.814s7.080 15.814 15.814 15.814z"></path>
<path fill="#fff" style="fill: var(--color2, #fff)" d="M12.261 8.152c-0.171 0.053-0.339 0.161-0.458 0.296-0.233 0.264-0.223 0.126-0.223 2.95 0 2.45 0.002 2.528 0.062 2.688 0.082 0.219 0.298 0.434 0.518 0.516 0.165 0.062 0.22 0.062 4.118 0.054l3.951-0.008 0.144-0.084c0.079-0.046 0.2-0.148 0.269-0.226 0.234-0.265 0.224-0.126 0.214-2.993l-0.008-2.558-0.083-0.157c-0.092-0.175-0.239-0.316-0.436-0.421l-0.131-0.070-3.93-0.005c-2.162-0.003-3.965 0.005-4.008 0.018zM20.086 8.785c0.114 0.059 0.159 0.169 0.159 0.389v0.184h-8.046v-0.203c0-0.231 0.028-0.302 0.148-0.366 0.125-0.068 7.609-0.071 7.739-0.004zM20.246 10.283v0.309h-8.046v-0.617h8.046v0.309zM20.246 12.538v1.329l-0.181 0.18h-7.684l-0.181-0.18v-2.658h8.046v1.329zM16.73 12.842c-0.036 0.015-0.096 0.067-0.134 0.115-0.147 0.186-0.004 0.473 0.235 0.473 0.141 0 0.217-0.042 0.274-0.154 0.069-0.133 0.057-0.235-0.038-0.34-0.091-0.1-0.231-0.139-0.336-0.095zM17.968 12.842c-0.093 0.039-0.198 0.182-0.198 0.269 0 0.099 0.079 0.247 0.153 0.286 0.036 0.019 0.349 0.032 0.791 0.032h0.732l0.090-0.090c0.123-0.123 0.124-0.273 0-0.411l-0.090-0.101-0.707-0.007c-0.389-0.004-0.736 0.006-0.772 0.021zM21.914 14.752c-0.241 0.079-0.398 0.197-0.756 0.565-0.17 0.176-0.606 0.622-0.969 0.993l-0.659 0.674-0.14-0.129c-0.18-0.166-0.427-0.277-0.687-0.311-0.114-0.015-0.971-0.027-1.906-0.028l-1.699-0.001-0.289-0.092c-0.436-0.139-0.772-0.189-1.28-0.188-0.874 0.001-1.576 0.2-2.252 0.638-0.347 0.225-0.815 0.69-1.039 1.034l-0.173 0.266-0.214 0.015c-0.368 0.026-0.427 0.069-1.343 0.98l-0.828 0.824v0.294l1.784 1.794c0.981 0.987 1.813 1.811 1.849 1.831 0.088 0.050 0.19 0.049 0.291-0.004 0.046-0.024 0.454-0.416 0.907-0.872 0.939-0.944 0.941-0.947 0.92-1.393l-0.011-0.237 0.234-0.216c0.376-0.347 0.182-0.324 2.723-0.324 1.338 0 2.283-0.012 2.441-0.032 0.519-0.065 1.047-0.291 1.449-0.621 0.229-0.188 3.063-3.579 3.154-3.773 0.062-0.133 0.072-0.203 0.072-0.509 0-0.326-0.007-0.37-0.088-0.54-0.119-0.251-0.331-0.46-0.585-0.579-0.266-0.124-0.636-0.148-0.908-0.058zM22.579 15.382c0.201 0.114 0.306 0.272 0.321 0.479 0.009 0.117-0.003 0.217-0.035 0.291-0.057 0.137-2.666 3.261-2.946 3.528-0.225 0.214-0.514 0.377-0.851 0.479-0.23 0.070-0.25 0.070-2.646 0.088-1.672 0.013-2.444 0.029-2.513 0.053-0.214 0.075-0.475 0.238-0.68 0.425l-0.216 0.196-2.424-2.417 0.149-0.231c0.593-0.919 1.576-1.421 2.786-1.422 0.472-0 0.768 0.046 1.137 0.177l0.245 0.087 1.903 0.015c1.898 0.015 1.904 0.016 2.033 0.085 0.446 0.238 0.446 0.858 0 1.096-0.128 0.068-0.153 0.069-1.548 0.085l-1.418 0.015-0.075 0.087c-0.105 0.122-0.1 0.27 0.016 0.399l0.090 0.101 1.289 0.009c1.381 0.010 1.621-0.007 1.886-0.128 0.43-0.196 0.763-0.736 0.725-1.175-0.009-0.1 0.042-0.158 1.036-1.179 0.614-0.632 1.097-1.103 1.172-1.144 0.17-0.093 0.4-0.093 0.563 0zM14.579 18.381c-0.163 0.088-0.189 0.323-0.052 0.469 0.134 0.143 0.387 0.114 0.475-0.055 0.151-0.292-0.133-0.57-0.423-0.414zM11.432 20.208l1.387 1.383 0.001 0.276-0.664 0.656c-0.365 0.361-0.675 0.656-0.689 0.656s-0.708-0.68-1.542-1.512l-1.516-1.512 1.373-1.365 0.132 0.018c0.125 0.017 0.198 0.084 1.518 1.401z"></path>
</symbol>
<symbol id="icon-bank" viewBox="0 0 32 32">
<path fill="#7b1931" style="fill: var(--color1, #7b1931)" d="M31.374 16.085c0 8.559-6.938 15.497-15.497 15.497s-15.497-6.938-15.497-15.497c0-8.559 6.938-15.497 15.497-15.497s15.497 6.938 15.497 15.497z"></path>
<path fill="#fff" style="fill: var(--color2, #fff)" d="M15.659 7.23c-0.005-0-0.009 0-0.014 0-0.021 0.002-0.041 0.008-0.059 0.018l-7.61 4.428c-0.026 0.015-0.047 0.039-0.058 0.067s-0.013 0.059-0.006 0.089 0.025 0.055 0.049 0.074c0.024 0.018 0.054 0.028 0.084 0.029h1.245v0.969c0 0.037 0.015 0.072 0.041 0.098s0.061 0.040 0.098 0.040h0.138v7.472h-0.138c-0.037 0-0.072 0.015-0.098 0.041s-0.041 0.061-0.041 0.098v0.969h-1.245c-0.037 0-0.072 0.015-0.098 0.041s-0.040 0.061-0.040 0.098v0.83c0 0.037 0.015 0.072 0.040 0.098s0.061 0.041 0.098 0.041h15.221c0.037 0 0.072-0.015 0.098-0.041s0.041-0.061 0.041-0.098v-0.83c0-0.037-0.015-0.072-0.041-0.098s-0.061-0.041-0.098-0.041h-1.245v-0.969c0-0.037-0.015-0.072-0.041-0.098s-0.061-0.041-0.098-0.041h-0.138v-7.472h0.138c0.037 0 0.072-0.015 0.098-0.040s0.041-0.061 0.041-0.098v-0.969h1.245c0.030-0 0.060-0.010 0.084-0.029s0.041-0.044 0.049-0.074 0.006-0.060-0.006-0.089c-0.012-0.028-0.032-0.052-0.058-0.067l-7.61-4.428c-0.020-0.012-0.043-0.018-0.066-0.019zM15.656 7.529l7.096 4.129h-14.193l7.096-4.129zM9.567 11.934h2.767v0.83h-2.767v-0.83zM12.611 11.934h1.384v0.969c0 0.037 0.015 0.072 0.040 0.098s0.061 0.040 0.098 0.040h0.138v7.472h-0.138c-0.037 0-0.072 0.015-0.098 0.041s-0.040 0.061-0.040 0.098v0.969h-1.384v-0.969c0-0.037-0.015-0.072-0.040-0.098s-0.061-0.041-0.098-0.041h-0.138v-7.472h0.138c0.037 0 0.072-0.015 0.098-0.040s0.040-0.061 0.040-0.098v-0.969zM14.272 11.934h2.767v0.83h-2.767v-0.83zM17.316 11.934h1.384v0.969c0 0.037 0.015 0.072 0.041 0.098s0.061 0.040 0.098 0.040h0.138v7.472h-0.138c-0.037 0-0.072 0.015-0.098 0.041s-0.041 0.061-0.041 0.098v0.969h-1.384v-0.969c0-0.037-0.015-0.072-0.041-0.098s-0.061-0.041-0.098-0.041h-0.138v-7.472h0.138c0.037 0 0.072-0.015 0.098-0.040s0.041-0.061 0.041-0.098v-0.969zM18.976 11.934h2.767v0.83h-2.767v-0.83zM9.844 13.041h0.553v7.472h-0.553v-7.472zM10.674 13.041h0.554v7.472h-0.554v-7.472zM11.505 13.041h0.553v7.472h-0.553v-7.472zM14.549 13.041h0.553v7.472h-0.553v-7.472zM15.379 13.041h0.554v7.472h-0.554v-7.472zM16.209 13.041h0.553v7.472h-0.553v-7.472zM19.253 13.041h0.553v7.472h-0.553v-7.472zM20.083 13.041h0.554v7.472h-0.554v-7.472zM20.914 13.041h0.553v7.472h-0.553v-7.472zM9.567 20.79h2.767v0.83h-2.767v-0.83zM14.272 20.79h2.767v0.83h-2.767v-0.83zM18.976 20.79h2.767v0.83h-2.767v-0.83zM8.184 21.897h14.944v0.553h-14.944v-0.553z"></path>
</symbol>
<symbol id="icon-contributions" viewBox="0 0 32 32">
<path fill="#7b1931" style="fill: var(--color1, #7b1931)" d="M31.688 15.844c0 8.75-7.094 15.844-15.844 15.844s-15.844-7.094-15.844-15.844c0-8.75 7.094-15.844 15.844-15.844s15.844 7.094 15.844 15.844z"></path>
<path fill="none" stroke="#fff" style="stroke: var(--color2, #fff)" stroke-linejoin="miter" stroke-linecap="butt" stroke-miterlimit="4" stroke-width="0.6809" d="M14.222 8.789c1.31 0.305 1.965 0.305 3.275 0 0.163-0.038 0.509-0.038 1.040 0 0.234 0 0.424 0.173 0.424 0.387 0 0.061-0.016 0.121-0.046 0.175l-1.432 2.579c2.372 1.707 3.551 3.905 3.535 6.592-0.008 1.27-0.576 4.533-5.183 4.533s-5.194-2.661-5.183-4.533c0.016-2.638 1.191-4.83 3.524-6.577l-1.423-2.596c-0.105-0.191-0.020-0.423 0.19-0.519 0.059-0.027 0.124-0.041 0.189-0.041 0.541-0.043 0.904-0.043 1.089 0z"></path>
<path fill="#fff" style="fill: var(--color2, #fff)" d="M15.094 11.96c0-0.146-0.092-0.265-0.206-0.265s-0.206 0.119-0.206 0.265v0.9c0 0.146 0.092 0.265 0.206 0.265s0.206-0.119 0.206-0.265v-0.9z"></path>
<path fill="#fff" style="fill: var(--color2, #fff)" d="M17.703 11.537h-3.737c-0.195 0-0.353 0.107-0.353 0.238s0.158 0.238 0.353 0.238h3.737c0.195 0 0.353-0.107 0.353-0.238s-0.158-0.238-0.353-0.238z"></path>
<path fill="#7b1931" style="fill: var(--color1, #7b1931); stroke: var(--color2, #fff)" stroke="#fff" stroke-linejoin="miter" stroke-linecap="butt" stroke-miterlimit="4" stroke-width="0.6809" d="M21.569 21.148h-2.55c-0.545 0-0.987 0.427-0.987 0.953s0.442 0.953 0.987 0.953h2.55c0.545 0 0.987-0.427 0.987-0.953s-0.442-0.953-0.987-0.953z"></path>
<path fill="#7b1931" style="fill: var(--color1, #7b1931); stroke: var(--color2, #fff)" stroke="#fff" stroke-linejoin="miter" stroke-linecap="butt" stroke-miterlimit="4" stroke-width="0.6809" d="M20.524 19.241h-2.55c-0.545 0-0.987 0.427-0.987 0.953s0.442 0.953 0.987 0.953h2.55c0.545 0 0.987-0.427 0.987-0.953s-0.442-0.953-0.987-0.953z"></path>
<path fill="#7b1931" style="fill: var(--color1, #7b1931); stroke: var(--color2, #fff)" stroke="#fff" stroke-linejoin="miter" stroke-linecap="butt" stroke-miterlimit="4" stroke-width="0.6809" d="M21.593 17.335h-2.55c-0.545 0-0.987 0.427-0.987 0.953s0.442 0.953 0.987 0.953h2.55c0.545 0 0.987-0.427 0.987-0.953s-0.442-0.953-0.987-0.953z"></path>
</symbol>
<symbol id="icon-dollar" viewBox="0 0 19 32">
<path fill="#c1c1c1" style="fill: var(--color1, #c1c1c1)" d="M10.049 25.237c1.875-0.088 3.169-0.773 3.882-2.056 0.373-0.658 0.559-1.42 0.559-2.286 0-1.371-0.504-2.412-1.513-3.125-0.581-0.417-1.557-0.811-2.928-1.184v8.651zM4.474 9.365c0 1.086 0.356 1.935 1.069 2.549 0.724 0.614 1.694 1.042 2.911 1.283v-7.73c-1.436 0.055-2.462 0.493-3.076 1.316-0.603 0.822-0.905 1.683-0.905 2.582zM1.513 9.563c0-1.667 0.609-3.169 1.826-4.507 1.228-1.338 2.944-2.018 5.148-2.039v-2.188h1.563v2.155c2.182 0.154 3.854 0.8 5.016 1.941 1.173 1.129 1.787 2.626 1.842 4.49h-2.878c-0.077-0.833-0.302-1.552-0.674-2.155-0.691-1.107-1.793-1.689-3.306-1.743v7.993c2.544 0.713 4.271 1.382 5.181 2.007 1.48 1.031 2.22 2.555 2.22 4.572 0 2.917-0.948 4.989-2.845 6.217-1.053 0.68-2.571 1.129-4.556 1.349v3.191h-1.563v-3.191c-3.191-0.208-5.356-1.338-6.497-3.388-0.625-1.107-0.938-2.604-0.938-4.49h2.911c0.088 1.502 0.323 2.599 0.707 3.289 0.68 1.239 1.941 1.935 3.783 2.089v-8.964c-2.368-0.45-4.117-1.201-5.247-2.253s-1.694-2.511-1.694-4.375z"></path>
</symbol>
<symbol id="icon-euro" viewBox="0 0 25 32">
<path fill="#c1c1c1" style="fill: var(--color1, #c1c1c1)" d="M1.875 19.766l0.82-2.773h3.828c-0.026-0.534-0.039-1.081-0.039-1.641 0-0.482 0.013-0.964 0.039-1.445h-4.648l0.82-2.773h4.141c0.443-2.383 1.27-4.447 2.48-6.191 2.031-2.943 4.837-4.414 8.418-4.414 3.047 0 5.41 0.957 7.090 2.871 1.693 1.914 2.63 4.089 2.813 6.523h-3.184c-0.352-1.849-1.068-3.314-2.149-4.395s-2.591-1.621-4.531-1.621c-2.383 0-4.303 0.996-5.762 2.988-0.807 1.094-1.387 2.506-1.738 4.238h10.898l-0.82 2.773h-10.469c-0.039 0.664-0.059 1.367-0.059 2.109 0 0.339 0.007 0.664 0.020 0.977h11.328l-0.82 2.773h-10.215c0.313 1.706 0.866 3.184 1.66 4.434 1.315 2.083 3.281 3.125 5.898 3.125 2.409 0 4.245-1.1 5.508-3.301 0.664-1.159 1.159-2.682 1.484-4.57h3.183c-0.286 3.021-1.23 5.553-2.832 7.598-1.914 2.461-4.492 3.691-7.734 3.691-2.799 0-5.15-1.009-7.051-3.027-1.797-1.901-2.949-4.551-3.457-7.949h-4.922z"></path>
</symbol>
<symbol id="icon-ruble" viewBox="0 0 25 32">
<path fill="#c1c1c1" style="fill: var(--color1, #c1c1c1)" d="M4.139 32v-30.464h8.021c3.726 0 6.485 0.754 8.277 2.261 1.82 1.508 2.731 3.698 2.731 6.571 0 1.934-0.441 3.598-1.323 4.992-0.882 1.365-2.19 2.418-3.925 3.157-1.707 0.74-3.826 1.109-6.357 1.109h-3.584v12.373h-3.84zM0.427 26.197v-2.773h14.592v2.773h-14.592zM0.427 19.627v-3.243h9.771v3.243h-9.771zM11.008 16.384c1.735 0 3.2-0.185 4.395-0.555 1.223-0.37 2.162-0.981 2.816-1.835s0.981-2.020 0.981-3.499c0-1.934-0.597-3.371-1.792-4.309s-3.058-1.408-5.589-1.408h-3.84v11.605h3.029z"></path>
</symbol>
<symbol id="icon-consulting" viewBox="0 0 32 32">
<path fill="#7b1931" style="fill: var(--color1, #7b1931)" d="M31.79 15.8c0 8.726-7.117 15.8-15.895 15.8s-15.895-7.074-15.895-15.8c0-8.726 7.117-15.8 15.895-15.8s15.895 7.074 15.895 15.8z"></path>
<path fill="#fff" style="fill: var(--color2, #fff)" d="M16 20.571c-1.257 0-2.286-1.029-2.286-2.286v-1.429c0-0.171 0.114-0.286 0.286-0.286s0.286 0.114 0.286 0.286v1.429c0 0.971 0.743 1.714 1.714 1.714s1.714-0.743 1.714-1.714v-1.429c0-0.171 0.114-0.286 0.286-0.286s0.286 0.114 0.286 0.286v1.429c0 1.257-1.029 2.286-2.286 2.286z"></path>
<path fill="#fff" style="fill: var(--color2, #fff)" d="M16 17.714c-2.229 0-4-1.771-4-4v-1.429c0-0.171 0.114-0.286 0.286-0.286s0.286 0.114 0.286 0.286v1.429c0 1.886 1.543 3.429 3.429 3.429s3.429-1.543 3.429-3.429v-1.429c0-0.171 0.114-0.286 0.286-0.286s0.286 0.114 0.286 0.286v1.429c0 2.229-1.771 4-4 4zM23.143 25.143h-14.286c-0.171 0-0.286-0.114-0.286-0.286v-2.514c0-1.371 0.857-2.571 2.171-2.971l3.2-1.086h0.229c0.057 0.057 0.114 0.114 0.114 0.229 0.114 0.857 0.857 1.429 1.714 1.429s1.543-0.629 1.714-1.429c0-0.057 0.057-0.171 0.114-0.229s0.171-0.057 0.229 0l3.2 1.086c1.314 0.4 2.171 1.6 2.171 2.971v2.514c0 0.171-0.114 0.286-0.286 0.286v0zM9.143 24.571h13.714v-2.229c0-1.086-0.686-2.114-1.771-2.457l-2.914-0.971c-0.286 0.971-1.143 1.6-2.171 1.6s-1.886-0.686-2.171-1.6l-2.914 0.971c-1.086 0.343-1.771 1.371-1.771 2.457v2.229z"></path>
<path fill="#fff" style="fill: var(--color2, #fff)" d="M23.143 25.143h-3.429c-0.171 0-0.286-0.114-0.286-0.286v-0.571c0-1.886 1.429-3.486 3.257-3.657 0.114 0 0.229 0.057 0.286 0.114 0.286 0.514 0.457 1.029 0.457 1.6v2.514c0 0.171-0.114 0.286-0.286 0.286zM20 24.571h2.857v-2.229c0-0.4-0.114-0.8-0.286-1.143-1.486 0.286-2.571 1.543-2.571 3.086v0.286zM12.286 25.143h-3.429c-0.171 0-0.286-0.114-0.286-0.286v-2.514c0-0.571 0.171-1.143 0.457-1.6 0.057-0.114 0.171-0.171 0.286-0.171 1.886 0.229 3.257 1.829 3.257 3.657v0.571c0 0.229-0.114 0.343-0.286 0.343zM9.143 24.571h2.857v-0.286c0-1.543-1.086-2.8-2.571-3.086-0.171 0.343-0.286 0.743-0.286 1.143v2.229zM19.714 12.571h-0.286c-0.457 0-0.857-0.4-0.857-0.857v-1.143c0-0.171-0.114-0.286-0.286-0.286h-4.571c-0.171 0-0.286 0.114-0.286 0.286v1.143c0 0.457-0.4 0.857-0.857 0.857h-0.286c-0.171 0-0.286-0.114-0.286-0.286s0.114-0.286 0.286-0.286h0.286c0.171 0 0.286-0.114 0.286-0.286v-1.143c0-0.457 0.4-0.857 0.857-0.857h4.571c0.457 0 0.857 0.4 0.857 0.857v1.143c0 0.171 0.114 0.286 0.286 0.286h0.286c0.171 0 0.286 0.114 0.286 0.286s-0.114 0.286-0.286 0.286z"></path>
<path fill="#fff" style="fill: var(--color2, #fff)" d="M19.714 12.571h-0.057c-0.171-0.057-0.229-0.171-0.229-0.343l0.514-2.343c0.114-0.571 0-1.2-0.4-1.657-0.343-0.514-0.914-0.8-1.543-0.8h-2.857c-0.457 0-0.857 0.4-0.857 0.857 0 0.171-0.114 0.286-0.286 0.286s-0.286-0.114-0.286-0.286c0-0.8 0.629-1.429 1.429-1.429h2.857c0.8 0 1.543 0.343 2 0.971s0.686 1.429 0.514 2.171l-0.514 2.343c-0.057 0.114-0.171 0.229-0.286 0.229z"></path>
<path fill="#fff" style="fill: var(--color2, #fff)" d="M12.572 12.571h-0.286c-0.114 0-0.229-0.114-0.286-0.229l-0.629-2.4c-0.171-0.629 0-1.2 0.343-1.714s1.029-0.8 1.6-0.8h0.114c0.457 0 0.857 0.4 0.857 0.857 0 0.171-0.114 0.286-0.286 0.286s-0.286-0.114-0.286-0.286c0-0.171-0.114-0.286-0.286-0.286h-0.114c-0.457 0-0.857 0.229-1.143 0.571s-0.343 0.8-0.229 1.2l0.571 2.229h0.057c0.171 0 0.286 0.114 0.286 0.286s-0.114 0.286-0.286 0.286zM20.857 14.286h-1.143c-0.171 0-0.286-0.114-0.286-0.286v-1.714c0-0.171 0.114-0.286 0.286-0.286h0.571c0.457 0 0.857 0.4 0.857 0.857v1.143c0 0.171-0.114 0.286-0.286 0.286zM20 13.714h0.571v-0.857c0-0.171-0.114-0.286-0.286-0.286h-0.286v1.143z"></path>
<path fill="#fff" style="fill: var(--color2, #fff)" d="M19.143 16h-1.714c-0.171 0-0.286-0.114-0.286-0.286s0.114-0.286 0.286-0.286h1.714c0.8 0 1.429-0.629 1.429-1.429v-1.143c0-0.171 0.114-0.286 0.286-0.286s0.286 0.114 0.286 0.286v1.143c0 1.086-0.914 2-2 2zM12.286 14.286h-0.571c-0.457 0-0.857-0.4-0.857-0.857v-0.571c0-0.457 0.4-0.857 0.857-0.857h0.571c0.171 0 0.286 0.114 0.286 0.286v1.714c0 0.171-0.114 0.286-0.286 0.286zM11.714 12.571c-0.171 0-0.286 0.114-0.286 0.286v0.571c0 0.171 0.114 0.286 0.286 0.286h0.286v-1.143h-0.286z"></path>
<path fill="#fff" style="fill: var(--color2, #fff)" d="M16.857 16.571h-0.571c-0.457 0-0.857-0.4-0.857-0.857s0.4-0.857 0.857-0.857h0.571c0.457 0 0.857 0.4 0.857 0.857s-0.4 0.857-0.857 0.857zM16.286 15.429c-0.171 0-0.286 0.114-0.286 0.286s0.114 0.286 0.286 0.286h0.571c0.171 0 0.286-0.114 0.286-0.286s-0.114-0.286-0.286-0.286h-0.571z"></path>
</symbol>
<symbol id="icon-investments" viewBox="0 0 32 32">
<path fill="#7b1931" style="fill: var(--color1, #7b1931)" d="M31.385 15.692c0 8.667-7.026 15.692-15.692 15.692s-15.692-7.026-15.692-15.692c0-8.667 7.026-15.692 15.692-15.692s15.692 7.026 15.692 15.692z"></path>
<path fill="#fff" style="fill: var(--color2, #fff)" d="M12.309 19.518h-0.381c-0.21 0-0.381 0.256-0.381 0.571v3.429c0 0.316 0.171 0.571 0.381 0.571h0.381c0.21 0 0.381-0.256 0.381-0.571v-3.429c0-0.316-0.171-0.571-0.381-0.571z"></path>
<path fill="#fff" style="fill: var(--color2, #fff)" d="M8.88 21.232h-0.381c-0.21 0-0.381 0.256-0.381 0.571v1.714c0 0.316 0.171 0.571 0.381 0.571h0.381c0.21 0 0.381-0.256 0.381-0.571v-1.714c0-0.316-0.171-0.571-0.381-0.571z"></path>
<path fill="#fff" style="fill: var(--color2, #fff)" d="M15.737 17.804h-0.381c-0.21 0-0.381 0.256-0.381 0.571v5.143c0 0.316 0.171 0.571 0.381 0.571h0.381c0.21 0 0.381-0.256 0.381-0.571v-5.143c0-0.316-0.171-0.571-0.381-0.571z"></path>
<path fill="#fff" style="fill: var(--color2, #fff)" d="M19.166 16.089h-0.381c-0.21 0-0.381 0.256-0.381 0.571v6.857c0 0.316 0.171 0.571 0.381 0.571h0.381c0.21 0 0.381-0.256 0.381-0.571v-6.857c0-0.316-0.171-0.571-0.381-0.571z"></path>
<path fill="#fff" style="fill: var(--color2, #fff)" d="M22.595 14.375h-0.381c-0.21 0-0.381 0.256-0.381 0.571v8.571c0 0.316 0.171 0.571 0.381 0.571h0.381c0.21 0 0.381-0.256 0.381-0.571v-8.571c0-0.316-0.171-0.571-0.381-0.571z"></path>
<path fill="#fff" style="fill: var(--color2, #fff)" d="M9.51 11.764c0.209 0.439 0.538 0.811 0.949 1.071s0.888 0.398 1.374 0.398c0.486 0 0.963-0.138 1.374-0.398s0.74-0.631 0.949-1.071c0.123-0.257 0.201-0.534 0.231-0.817 0.012-0.095 0.017-0.19 0.017-0.286 0.001-0.123-0.009-0.247-0.029-0.369-0.022-0.167-0.063-0.33-0.12-0.489-0.176-0.504-0.504-0.941-0.939-1.251s-0.956-0.476-1.49-0.476-1.055 0.166-1.49 0.476c-0.435 0.309-0.763 0.746-0.939 1.251-0.057 0.158-0.098 0.322-0.12 0.489-0.001 0.025-0.001 0.050 0 0.074-0.013 0.098-0.019 0.196-0.017 0.294-0 0.095 0.006 0.191 0.017 0.286 0.030 0.284 0.109 0.56 0.231 0.817v0zM11.975 10.947h-0.286c-0.177 0-0.348-0.065-0.479-0.184s-0.214-0.282-0.232-0.458c-0.018-0.176 0.030-0.353 0.136-0.495s0.259-0.241 0.433-0.276v-0.3c0-0.076 0.030-0.148 0.084-0.202s0.126-0.084 0.202-0.084c0.076 0 0.148 0.030 0.202 0.084s0.084 0.126 0.084 0.202v0.286h0.286c0.076 0 0.148 0.030 0.202 0.084s0.084 0.126 0.084 0.202-0.030 0.148-0.084 0.202c-0.054 0.054-0.126 0.084-0.202 0.084h-0.714c-0.038 0-0.074 0.015-0.101 0.042s-0.042 0.063-0.042 0.101 0.015 0.074 0.042 0.101c0.027 0.027 0.063 0.042 0.101 0.042h0.286c0.189-0.019 0.379 0.038 0.526 0.159s0.241 0.295 0.26 0.484c0.019 0.19-0.038 0.379-0.159 0.526s-0.295 0.241-0.484 0.26v0.286c0 0.076-0.030 0.148-0.084 0.202s-0.126 0.084-0.202 0.084c-0.076 0-0.149-0.030-0.202-0.084s-0.084-0.126-0.084-0.202v-0.286h-0.286c-0.076 0-0.149-0.030-0.202-0.084s-0.084-0.126-0.084-0.202 0.030-0.148 0.084-0.202c0.054-0.054 0.126-0.084 0.202-0.084h0.714c0.038 0 0.074-0.015 0.101-0.042s0.042-0.063 0.042-0.101-0.015-0.074-0.042-0.101c-0.027-0.027-0.063-0.042-0.101-0.042zM24.050 9.046l-0.043-0.040c-0.044-0.035-0.098-0.056-0.154-0.060h-1.163c-0.076 0-0.148 0.030-0.202 0.084s-0.084 0.126-0.084 0.202 0.030 0.148 0.084 0.202c0.054 0.054 0.126 0.084 0.202 0.084h0.443l-1.511 1.486c-3.526 3.462-8.276 5.392-13.217 5.371h-0.571c-0.076 0-0.149 0.030-0.202 0.084s-0.084 0.126-0.084 0.202 0.030 0.148 0.084 0.202c0.054 0.054 0.126 0.084 0.202 0.084h0.897c4.979-0.061 9.742-2.045 13.291-5.537l1.526-1.497v0.463c0 0.076 0.030 0.148 0.084 0.202s0.126 0.084 0.202 0.084c0.076 0 0.148-0.030 0.202-0.084s0.084-0.126 0.084-0.202v-1.143c0-0.068-0.024-0.134-0.069-0.186v0z"></path>
</symbol>
<symbol id="icon-lifestyle" viewBox="0 0 32 32">
<path fill="#7b1931" style="fill: var(--color1, #7b1931)" d="M31.79 15.8c0 8.726-7.117 15.8-15.895 15.8s-15.895-7.074-15.895-15.8c0-8.726 7.117-15.8 15.895-15.8s15.895 7.074 15.895 15.8z"></path>
<path fill="#fff" style="fill: var(--color2, #fff)" d="M16.475 11.99h-0.571c-0.152 0-0.297-0.060-0.404-0.167s-0.167-0.253-0.167-0.404c0-0.076-0.030-0.148-0.084-0.202s-0.126-0.084-0.202-0.084c-0.076 0-0.148 0.030-0.202 0.084s-0.084 0.126-0.084 0.202c0 0.303 0.12 0.594 0.335 0.808s0.505 0.335 0.808 0.335v0.286c0 0.076 0.030 0.149 0.084 0.202s0.126 0.084 0.202 0.084c0.076 0 0.148-0.030 0.202-0.084s0.084-0.126 0.084-0.202v-0.286c0.303 0 0.594-0.12 0.808-0.335s0.335-0.505 0.335-0.808c0-0.303-0.12-0.594-0.335-0.808s-0.505-0.335-0.808-0.335h-0.571c-0.152 0-0.297-0.060-0.404-0.167s-0.167-0.253-0.167-0.404 0.060-0.297 0.167-0.404c0.107-0.107 0.252-0.167 0.404-0.167h0.571c0.152 0 0.297 0.060 0.404 0.167s0.167 0.252 0.167 0.404c0 0.076 0.030 0.149 0.084 0.202s0.126 0.084 0.202 0.084c0.076 0 0.148-0.030 0.202-0.084s0.084-0.126 0.084-0.202c0-0.303-0.12-0.594-0.335-0.808s-0.505-0.335-0.808-0.335v-0.286c0-0.076-0.030-0.148-0.084-0.202s-0.126-0.084-0.202-0.084c-0.076 0-0.148 0.030-0.202 0.084s-0.084 0.126-0.084 0.202v0.286c-0.303 0-0.594 0.12-0.808 0.335s-0.335 0.505-0.335 0.808c0 0.303 0.12 0.594 0.335 0.808s0.505 0.335 0.808 0.335h0.571c0.152 0 0.297 0.060 0.404 0.167s0.167 0.252 0.167 0.404-0.060 0.297-0.167 0.404c-0.107 0.107-0.253 0.167-0.404 0.167zM16.19 14.275c0.735 0 1.453-0.218 2.064-0.626s1.087-0.988 1.368-1.667c0.281-0.679 0.355-1.426 0.211-2.146s-0.497-1.382-1.017-1.902c-0.519-0.519-1.181-0.873-1.902-1.017s-1.467-0.070-2.146 0.211c-0.679 0.281-1.259 0.757-1.667 1.368s-0.626 1.329-0.626 2.064c0.001 0.985 0.393 1.929 1.089 2.625s1.64 1.088 2.625 1.089v0zM16.19 7.418c0.622 0 1.229 0.184 1.746 0.53s0.92 0.836 1.157 1.41c0.238 0.574 0.3 1.206 0.179 1.816s-0.421 1.17-0.86 1.609c-0.44 0.44-1 0.739-1.609 0.86s-1.242 0.059-1.816-0.179c-0.574-0.238-1.065-0.641-1.411-1.158s-0.53-1.124-0.53-1.746c0.001-0.833 0.332-1.632 0.922-2.221s1.388-0.921 2.221-0.921v0zM24.761 15.304h-2.286c-0.193 0-0.381 0.066-0.532 0.187s-0.257 0.288-0.301 0.477l-3.213-0.986c-0.414-0.126-0.858-0.116-1.266 0.031l-0.478 0.171-2.242-0.492c-0.474-0.104-0.967-0.072-1.423 0.093l-2.898 1.045c-0.066-0.155-0.175-0.288-0.316-0.382s-0.306-0.143-0.474-0.143h-2.286c-0.076 0-0.148 0.030-0.202 0.084s-0.084 0.126-0.084 0.202v5.714c0 0.076 0.030 0.148 0.084 0.202s0.126 0.084 0.202 0.084h2.286c0.141-0 0.28-0.035 0.404-0.102s0.23-0.163 0.308-0.28c1.057 1.34 2.4 2.427 3.93 3.182l1.233 0.607c0.187 0.093 0.396 0.135 0.605 0.122s0.41-0.081 0.585-0.197c0.174-0.116 0.315-0.276 0.408-0.463s0.135-0.396 0.121-0.605c0.077 0.020 0.157 0.032 0.237 0.035 0.078-0 0.156-0.008 0.233-0.024 0.25-0.051 0.476-0.185 0.641-0.38s0.259-0.44 0.267-0.695c0.163 0.091 0.345 0.141 0.531 0.145 0.078-0 0.156-0.008 0.233-0.024 0.266-0.054 0.504-0.202 0.671-0.417s0.251-0.482 0.237-0.754c0.221 0.055 0.454 0.038 0.665-0.049s0.388-0.239 0.506-0.434c0.086-0.13 0.144-0.276 0.171-0.429h0.31c0.023 0.209 0.123 0.402 0.279 0.542s0.359 0.219 0.569 0.22h2.286c0.076 0 0.148-0.030 0.202-0.084s0.084-0.126 0.084-0.202v-5.714c0-0.076-0.030-0.148-0.084-0.202s-0.126-0.084-0.202-0.084zM9.618 20.732c0 0.076-0.030 0.148-0.084 0.202s-0.126 0.084-0.202 0.084h-2v-5.143h2c0.076 0 0.149 0.030 0.202 0.084s0.084 0.126 0.084 0.202v4.571zM20.67 20.944c-0.041 0.063-0.094 0.117-0.157 0.159s-0.132 0.072-0.205 0.087c-0.073 0.015-0.149 0.016-0.223 0.002s-0.144-0.043-0.207-0.084l-2.653-1.747-0.122 0.186c-0.019 0.013-0.035 0.029-0.047 0.048s-0.021 0.040-0.025 0.062l-0.119 0.182 0.219 0.144c0.003 0 0.005 0.005 0.007 0.007l2.014 1.327c0.124 0.085 0.209 0.214 0.238 0.361s-0.001 0.3-0.083 0.425c-0.082 0.125-0.211 0.213-0.357 0.244s-0.3 0.004-0.426-0.076l-0.721-0.475-0.008-0.006-1.753-1.154h-0.005l-0.166-0.11c-0.063-0.040-0.14-0.054-0.213-0.038s-0.137 0.060-0.179 0.122c-0.041 0.063-0.056 0.139-0.042 0.212s0.057 0.138 0.119 0.181l1.927 1.269c0.093 0.063 0.165 0.152 0.208 0.255s0.054 0.218 0.032 0.328c-0.022 0.11-0.075 0.211-0.154 0.291s-0.179 0.135-0.289 0.158c-0.148 0.030-0.303 0.001-0.429-0.083l-1.935-1.274c-0.031-0.021-0.067-0.036-0.104-0.044s-0.075-0.008-0.113-0c-0.037 0.007-0.073 0.022-0.104 0.043s-0.058 0.048-0.079 0.080c-0.021 0.032-0.035 0.067-0.042 0.104s-0.007 0.076 0.001 0.113c0.008 0.037 0.023 0.072 0.045 0.103s0.049 0.058 0.081 0.078l0.101 0.066c0.003 0 0.005 0.006 0.008 0.008l1.371 0.902c0.14 0.084 0.242 0.22 0.283 0.378s0.019 0.326-0.062 0.468-0.214 0.247-0.371 0.291c-0.157 0.045-0.326 0.026-0.469-0.052l-1.236-0.611c-1.607-0.793-2.994-1.971-4.038-3.429v-4.035l3.024-1.089c0.355-0.128 0.739-0.153 1.107-0.072l1.356 0.298-0.981 0.354c-0.301 0.103-0.549 0.322-0.689 0.608s-0.161 0.616-0.058 0.917c0.103 0.301 0.322 0.549 0.608 0.689s0.616 0.161 0.917 0.058l1.358-0.441 3.675 2.42c0.068 0.045 0.126 0.104 0.169 0.173s0.071 0.146 0.082 0.227c0.001 0.014 0.002 0.028 0.004 0.042 0.008 0.124-0.024 0.246-0.093 0.35v0.001zM21.618 20.258h-0.343c-0.082-0.239-0.241-0.445-0.453-0.583l-3.79-2.496c-0.036-0.024-0.076-0.039-0.119-0.044s-0.086-0.002-0.126 0.011l-1.489 0.483c-0.116 0.038-0.24 0.041-0.357 0.010s-0.223-0.096-0.305-0.187c-0.069-0.077-0.119-0.169-0.144-0.269s-0.025-0.205 0-0.305c0.025-0.1 0.074-0.193 0.144-0.269s0.156-0.135 0.254-0.17l2.468-0.89c0.291-0.105 0.608-0.112 0.904-0.022l3.355 1.031v3.7zM24.475 21.018h-2c-0.076 0-0.148-0.030-0.202-0.084s-0.084-0.126-0.084-0.202v-4.571c0-0.076 0.030-0.148 0.084-0.202s0.126-0.084 0.202-0.084h2v5.143z"></path>
</symbol>
<symbol id="icon-pr-credits" viewBox="0 0 32 32">
<path fill="#7b1931" style="fill: var(--color1, #7b1931)" d="M31.79 15.8c0 8.726-7.117 15.8-15.895 15.8s-15.895-7.074-15.895-15.8c0-8.726 7.117-15.8 15.895-15.8s15.895 7.074 15.895 15.8z"></path>
<path fill="#fff" style="fill: var(--color2, #fff)" d="M23.147 18.7c0.114-0.226 0.091-0.309 0.091-1.034 0-0.214-0.085-0.42-0.237-0.572s-0.357-0.237-0.572-0.237h-0.249c2.486-1.746 1.269-5.714-1.8-5.714-0.53-0-1.052 0.134-1.517 0.39s-0.857 0.625-1.14 1.073c-0.284 0.448-0.449 0.961-0.481 1.491s0.071 1.058 0.298 1.538c0.694 1.466 1.826 1.223 0.22 1.223-0.214 0-0.42 0.085-0.572 0.237s-0.237 0.357-0.237 0.572c0 0.571-0.091 1.051 0.377 1.349-0.059 0.113-0.091 0.238-0.091 0.366 0 0.706 0 0.737 0.040 0.906-0.11-0.010-0.221 0.003-0.326 0.037s-0.202 0.088-0.286 0.16c-0.084-0.072-0.181-0.126-0.286-0.16s-0.216-0.046-0.326-0.037c0.051-0.169 0.040-0.18 0.040-0.906-0.001-0.127-0.032-0.253-0.091-0.366 0.469-0.286 0.377-0.769 0.377-1.349 0-0.214-0.085-0.42-0.237-0.572s-0.357-0.237-0.572-0.237c-0.163 0-0.049 0.037-0.049-0.237 0-0.72 0-0.751-0.046-0.931 0.176-0.043 0.332-0.143 0.444-0.285s0.173-0.317 0.174-0.498v-0.669c0-0.214-0.085-0.42-0.237-0.572s-0.357-0.237-0.572-0.237h-0.534c2.52-1.76 1.26-5.714-1.8-5.714-0.53-0-1.052 0.134-1.517 0.39s-0.857 0.625-1.14 1.073c-0.284 0.448-0.449 0.961-0.481 1.491s0.071 1.058 0.298 1.538c0.663 1.397 1.669 1.223 0.506 1.223-0.214 0-0.42 0.085-0.572 0.237s-0.237 0.357-0.237 0.572c0 0.72-0.014 0.751 0.046 0.931-0.176 0.043-0.332 0.143-0.444 0.285s-0.173 0.317-0.174 0.498v0.669c0 0.114 0.024 0.226 0.071 0.33s0.114 0.197 0.198 0.273c0.085 0.076 0.184 0.134 0.292 0.169s0.223 0.048 0.336 0.036c-0.501 0.008-0.993 0.135-1.436 0.37s-0.824 0.571-1.112 0.981c-0.039 0.062-0.052 0.137-0.037 0.209s0.057 0.135 0.117 0.177c0.060 0.042 0.134 0.059 0.206 0.048s0.138-0.050 0.183-0.107c0.332-0.478 0.816-0.83 1.374-0.998s1.156-0.14 1.696 0.076c0.54 0.217 0.991 0.611 1.279 1.117s0.395 1.095 0.304 1.671c-0.091 0.575-0.374 1.103-0.804 1.496s-0.98 0.629-1.561 0.669c-0.581 0.040-1.158-0.119-1.637-0.45s-0.832-0.815-1-1.372c-0.021-0.073-0.070-0.134-0.137-0.171s-0.145-0.045-0.217-0.024c-0.073 0.021-0.134 0.070-0.17 0.137s-0.045 0.145-0.024 0.217c0.205 0.69 0.64 1.289 1.233 1.697s1.309 0.599 2.027 0.543c0.050 0.166 0.152 0.311 0.291 0.414s0.308 0.158 0.481 0.158h4.669c0.214 0 0.42-0.085 0.572-0.237s0.237-0.357 0.237-0.572c0-0.691 0.026-0.803-0.091-1.034 0.032-0.020 0.063-0.043 0.091-0.069 0.145 0.126 0.331 0.196 0.523 0.197 0.163 0 0.049-0.037 0.049 0.237v0.669c0 0.214 0.085 0.42 0.237 0.572s0.357 0.237 0.572 0.237h4.669c0.214 0 0.42-0.085 0.572-0.237s0.237-0.357 0.237-0.572v-0.669c0-0.214-0.085-0.42-0.237-0.572s-0.357-0.237-0.572-0.237c-0.163 0-0.049 0.037-0.049-0.237 0-0.706 0-0.737-0.040-0.906 0.113 0.011 0.227-0.001 0.335-0.037s0.207-0.093 0.292-0.169c0.084-0.076 0.152-0.169 0.199-0.273s0.071-0.216 0.072-0.33c0-0.583 0.091-1.051-0.377-1.349zM18.058 15.389c-0.206-0.446-0.283-0.941-0.223-1.429 0.389-2.749 4.103-3.014 4.969-0.531 0.213 0.62 0.181 1.297-0.089 1.894s-0.757 1.068-1.363 1.318-1.284 0.259-1.896 0.026c-0.612-0.233-1.112-0.691-1.398-1.281v0.003zM17.524 17.674c0-0.063 0.025-0.123 0.069-0.168s0.105-0.070 0.168-0.070h4.669c0.063 0 0.123 0.025 0.168 0.070s0.070 0.105 0.070 0.168v0.669c0 0.063-0.025 0.123-0.070 0.168s-0.105 0.069-0.168 0.069h-4.669c-0.063 0-0.123-0.025-0.168-0.069s-0.069-0.105-0.069-0.168v-0.669zM16.381 21.103v0.669c0 0.063-0.025 0.123-0.070 0.168s-0.105 0.069-0.168 0.069h-3.191c0.174-0.334 0.284-0.697 0.323-1.071 0-0.106-0.306-0.071 2.857-0.071 0.031-0.002 0.063 0.003 0.092 0.014s0.057 0.027 0.080 0.048 0.042 0.047 0.055 0.076c0.013 0.029 0.020 0.059 0.022 0.091v0.009zM13.295 20.286c-0.040-0.399-0.157-0.787-0.343-1.143h2.323c0.063 0 0.123 0.025 0.168 0.070s0.069 0.105 0.069 0.168v0.669c0 0.063-0.025 0.123-0.069 0.168s-0.105 0.070-0.168 0.070h-1.98zM10.629 11.96c-0.206-0.446-0.283-0.941-0.223-1.429 0.389-2.749 4.103-3.014 4.969-0.531 0.213 0.62 0.181 1.297-0.089 1.894s-0.757 1.068-1.363 1.318-1.284 0.259-1.896 0.026c-0.612-0.233-1.112-0.691-1.398-1.281v0.003zM10.381 14.246c0-0.063 0.025-0.123 0.069-0.168s0.105-0.069 0.168-0.069h4.669c0.063 0 0.123 0.025 0.168 0.069s0.069 0.105 0.069 0.168v0.669c0 0.063-0.025 0.123-0.069 0.168s-0.105 0.069-0.168 0.069h-4.669c-0.063 0-0.123-0.025-0.168-0.069s-0.069-0.105-0.069-0.168v-0.669zM9.809 16.629v-0.677c0-0.063 0.025-0.123 0.069-0.168s0.105-0.069 0.168-0.069h4.669c0.063 0 0.123 0.025 0.168 0.069s0.069 0.105 0.069 0.168v0.669c0 0.063-0.025 0.123-0.069 0.168s-0.105 0.070-0.168 0.070h-4.669c-0.063 0-0.123-0.025-0.168-0.070s-0.069-0.105-0.069-0.168v0.009zM10.755 17.486c0.103-0.086-0.211-0.057 4.817-0.057 0.063 0 0.123 0.025 0.168 0.070s0.069 0.105 0.069 0.168v0.669c0 0.063-0.025 0.123-0.069 0.168s-0.105 0.070-0.168 0.070h-2.983c-0.466-0.564-1.115-0.948-1.834-1.086v0zM16.095 23.477c0 0.063-0.025 0.123-0.070 0.168s-0.105 0.070-0.168 0.070c-5.069 0-4.763 0.049-4.857-0.114 0.621-0.173 1.174-0.532 1.586-1.029h3.271c0.063 0 0.123 0.025 0.168 0.070s0.070 0.105 0.070 0.168v0.669zM22.952 22.809v0.669c0 0.063-0.025 0.123-0.070 0.168s-0.105 0.070-0.168 0.070h-4.669c-0.063 0-0.123-0.025-0.168-0.070s-0.069-0.105-0.069-0.168v-0.669c0-0.063 0.025-0.123 0.069-0.168s0.105-0.070 0.168-0.070h4.669c0.063 0 0.123 0.025 0.168 0.070s0.070 0.105 0.070 0.168v0zM22.095 21.094v0.669c0 0.063-0.025 0.123-0.070 0.168s-0.105 0.070-0.168 0.070h-4.669c-0.063-0.001-0.122-0.026-0.167-0.070s-0.070-0.104-0.070-0.167v-0.669c0-0.063 0.025-0.123 0.069-0.168s0.105-0.070 0.168-0.070h4.669c0.063 0 0.123 0.025 0.168 0.070s0.070 0.105 0.070 0.168v0zM22.952 20.049c0 0.063-0.025 0.123-0.070 0.168s-0.105 0.070-0.168 0.070h-4.669c-0.063 0-0.123-0.025-0.168-0.070s-0.069-0.105-0.069-0.168v-0.669c0-0.063 0.025-0.123 0.069-0.168s0.105-0.070 0.168-0.070h4.669c0.063 0 0.123 0.025 0.168 0.070s0.070 0.105 0.070 0.168v0.669z"></path>
<path fill="#fff" style="fill: var(--color2, #fff)" d="M10.238 21.143h-0.714c-0.076 0-0.149 0.030-0.202 0.084s-0.084 0.126-0.084 0.202 0.030 0.148 0.084 0.202c0.054 0.054 0.126 0.084 0.202 0.084h0.286v0.286c0 0.076 0.030 0.148 0.084 0.202s0.126 0.084 0.202 0.084c0.076 0 0.148-0.030 0.202-0.084s0.084-0.126 0.084-0.202v-0.286c0.189-0.019 0.364-0.112 0.484-0.26s0.178-0.337 0.159-0.526c-0.019-0.189-0.112-0.364-0.26-0.484s-0.337-0.178-0.526-0.159c-0.189 0-0.429 0.046-0.429-0.143 0-0.038 0.015-0.074 0.042-0.101s0.063-0.042 0.101-0.042h0.714c0.076 0 0.148-0.030 0.202-0.084s0.084-0.126 0.084-0.202-0.030-0.148-0.084-0.202c-0.054-0.054-0.126-0.084-0.202-0.084h-0.286v-0.286c0-0.076-0.030-0.148-0.084-0.202s-0.126-0.084-0.202-0.084c-0.076 0-0.149 0.030-0.202 0.084s-0.084 0.126-0.084 0.202v0.286c-0.19 0.019-0.364 0.112-0.484 0.26s-0.178 0.337-0.159 0.526c0.019 0.189 0.112 0.364 0.26 0.484s0.337 0.178 0.526 0.159h0.286c0.038 0 0.074 0.015 0.101 0.042s0.042 0.063 0.042 0.101-0.015 0.074-0.042 0.101c-0.027 0.027-0.063 0.042-0.101 0.042zM7.615 20.286c0.005-0.082 0.017-0.163 0.037-0.243 0.015-0.072 0.001-0.148-0.038-0.21s-0.101-0.107-0.173-0.125-0.147-0.007-0.211 0.030c-0.064 0.037-0.111 0.097-0.132 0.168-0.029 0.125-0.048 0.252-0.057 0.38 0 0.076 0.030 0.149 0.084 0.203s0.127 0.084 0.203 0.084c0.076 0 0.149-0.030 0.203-0.084s0.084-0.127 0.084-0.203zM12.81 10.286h0.714c0.076 0 0.148-0.030 0.202-0.084s0.084-0.126 0.084-0.202-0.030-0.148-0.084-0.202c-0.054-0.054-0.126-0.084-0.202-0.084h-0.286v-0.286c0-0.076-0.030-0.148-0.084-0.202s-0.126-0.084-0.202-0.084c-0.076 0-0.149 0.030-0.202 0.084s-0.084 0.126-0.084 0.202v0.3c-0.174 0.035-0.328 0.134-0.433 0.276s-0.153 0.319-0.136 0.495c0.018 0.176 0.1 0.34 0.232 0.458s0.302 0.184 0.48 0.184c0.189 0 0.429-0.046 0.429 0.143 0 0.038-0.015 0.074-0.042 0.101s-0.063 0.042-0.101 0.042h-0.714c-0.076 0-0.149 0.030-0.202 0.084s-0.084 0.126-0.084 0.202 0.030 0.148 0.084 0.202c0.054 0.054 0.126 0.084 0.202 0.084h0.286v0.286c0 0.076 0.030 0.148 0.084 0.202s0.126 0.084 0.202 0.084c0.076 0 0.148-0.030 0.202-0.084s0.084-0.126 0.084-0.202v-0.286c0.189-0.019 0.364-0.112 0.484-0.26s0.178-0.337 0.159-0.526c-0.019-0.19-0.112-0.364-0.26-0.484s-0.337-0.178-0.526-0.159h-0.286c-0.038 0-0.074-0.015-0.101-0.042s-0.042-0.063-0.042-0.101 0.015-0.074 0.042-0.101c0.027-0.027 0.063-0.042 0.101-0.042zM20.238 13.714h0.714c0.076 0 0.148-0.030 0.202-0.084s0.084-0.126 0.084-0.202-0.030-0.148-0.084-0.202c-0.054-0.054-0.126-0.084-0.202-0.084h-0.286v-0.286c0-0.076-0.030-0.148-0.084-0.202s-0.126-0.084-0.202-0.084c-0.076 0-0.148 0.030-0.202 0.084s-0.084 0.126-0.084 0.202v0.3c-0.174 0.035-0.328 0.134-0.433 0.276s-0.153 0.319-0.136 0.495c0.018 0.176 0.1 0.34 0.232 0.458s0.302 0.184 0.48 0.184c0.189 0 0.429-0.046 0.429 0.143 0 0.038-0.015 0.074-0.042 0.101s-0.063 0.042-0.101 0.042h-0.714c-0.076 0-0.148 0.030-0.202 0.084s-0.084 0.126-0.084 0.202 0.030 0.148 0.084 0.202c0.054 0.054 0.126 0.084 0.202 0.084h0.286v0.286c0 0.076 0.030 0.148 0.084 0.202s0.126 0.084 0.202 0.084c0.076 0 0.148-0.030 0.202-0.084s0.084-0.126 0.084-0.202v-0.286c0.189-0.019 0.364-0.112 0.484-0.26s0.178-0.337 0.159-0.526c-0.019-0.19-0.112-0.364-0.26-0.484s-0.337-0.178-0.526-0.159h-0.286c-0.038 0-0.074-0.015-0.101-0.042s-0.042-0.063-0.042-0.101 0.015-0.074 0.042-0.101c0.027-0.027 0.063-0.042 0.101-0.042z"></path>
</symbol>
<symbol id="icon-pr-deposite" viewBox="0 0 32 32">
<path fill="#7b1931" style="fill: var(--color1, #7b1931)" d="M31.385 15.692c0 8.667-7.026 15.692-15.692 15.692s-15.692-7.026-15.692-15.692c0-8.667 7.026-15.692 15.692-15.692s15.692 7.026 15.692 15.692z"></path>
<path fill="#fff" style="fill: var(--color2, #fff)" d="M15.619 12.953v-0.381h-0.762v-0.762h1.524v-0.381h-1.143c-0.101 0-0.198-0.040-0.269-0.112s-0.112-0.168-0.112-0.269v-1.143c0-0.101 0.040-0.198 0.112-0.269s0.168-0.112 0.269-0.112h0.381v-0.381h0.762v0.381h0.762v0.762h-1.524v0.381h1.143c0.101 0 0.198 0.040 0.269 0.112s0.112 0.168 0.112 0.269v1.143c0 0.101-0.040 0.198-0.112 0.269s-0.168 0.112-0.269 0.112h-0.381v0.381h-0.762zM20.571 18.667v1.524c0 0.101-0.040 0.198-0.112 0.269s-0.168 0.112-0.269 0.112h-0.415l-0.282 2.781c-0.028 0.283-0.161 0.545-0.373 0.735s-0.486 0.295-0.77 0.293h-4.709c-0.284 0.001-0.559-0.103-0.77-0.293s-0.344-0.452-0.373-0.735l-0.274-2.781h-0.415c-0.101 0-0.198-0.040-0.269-0.112s-0.112-0.168-0.112-0.269v-1.524c0-0.101 0.040-0.198 0.112-0.269s0.168-0.112 0.269-0.112h3.81v-0.122c-0.849-0.316-1.637-0.775-2.331-1.356-0.796-0.792-1.429-2.51-1.455-2.583-0.025-0.068-0.029-0.142-0.014-0.212s0.051-0.135 0.102-0.186c0.051-0.051 0.116-0.087 0.186-0.102s0.144-0.011 0.212 0.014c0.072 0.027 1.79 0.659 2.583 1.455 0.281 0.298 0.521 0.631 0.716 0.99v-1.73c-0.871-0.097-1.671-0.524-2.237-1.194s-0.854-1.53-0.805-2.404c0.049-0.875 0.431-1.698 1.067-2.3s1.48-0.938 2.356-0.938 1.719 0.335 2.356 0.938c0.637 0.602 1.018 1.425 1.067 2.3s-0.239 1.735-0.805 2.404c-0.566 0.669-1.366 1.096-2.237 1.194v1.73c0.195-0.36 0.436-0.693 0.716-0.99 0.792-0.796 2.51-1.429 2.583-1.455 0.068-0.025 0.142-0.029 0.212-0.014s0.135 0.051 0.186 0.102c0.051 0.051 0.087 0.116 0.102 0.186s0.011 0.144-0.014 0.212c-0.027 0.072-0.659 1.79-1.455 2.583-0.694 0.582-1.483 1.040-2.331 1.356v0.122h3.81c0.101 0 0.198 0.040 0.269 0.112s0.112 0.168 0.112 0.269zM16.72 17.185c0.53-0.228 1.020-0.536 1.455-0.914 0.376-0.436 0.685-0.927 0.914-1.455-0.53 0.228-1.020 0.536-1.455 0.914-0.376 0.436-0.685 0.927-0.914 1.455v0zM15.28 17.185c-0.228-0.53-0.536-1.020-0.914-1.455-0.435-0.378-0.926-0.687-1.455-0.914 0.228 0.529 0.536 1.020 0.914 1.455 0.435 0.378 0.926 0.687 1.455 0.914v0zM16 13.714c0.527 0 1.043-0.156 1.482-0.449s0.78-0.71 0.982-1.197c0.202-0.487 0.255-1.023 0.152-1.541s-0.357-0.992-0.73-1.365-0.848-0.627-1.365-0.73c-0.517-0.103-1.053-0.050-1.541 0.152s-0.904 0.544-1.197 0.982c-0.293 0.439-0.449 0.954-0.449 1.482 0 0.707 0.281 1.386 0.781 1.886s1.178 0.781 1.886 0.781zM19.006 20.572h-6.011l0.27 2.705c0.009 0.094 0.054 0.182 0.124 0.245s0.162 0.098 0.257 0.098h4.712c0.095 0 0.186-0.034 0.257-0.098s0.115-0.151 0.124-0.245l0.267-2.705zM19.81 19.048h-7.619v0.762h7.619v-0.762z"></path>
</symbol>
<symbol id="icon-transactions" viewBox="0 0 32 32">
<path fill="#7b1931" style="fill: var(--color1, #7b1931)" d="M31.385 15.692c0 8.667-7.026 15.692-15.692 15.692s-15.692-7.026-15.692-15.692c0-8.667 7.026-15.692 15.692-15.692s15.692 7.026 15.692 15.692z"></path>
<path fill="#fff" style="fill: var(--color2, #fff)" d="M22.82 16.756h-9.143c-0.303 0-0.594 0.12-0.808 0.335s-0.335 0.505-0.335 0.808v2h-1.714c-1.103 0-2-0.977-2-2.18 0-0.949-0.057-0.391 0.286-0.391 0.057 0 0.112-0.016 0.16-0.048s0.084-0.076 0.106-0.129c0.022-0.052 0.027-0.11 0.016-0.166s-0.039-0.107-0.079-0.147l-0.571-0.571c-0.027-0.027-0.058-0.048-0.093-0.063s-0.072-0.022-0.11-0.022-0.075 0.007-0.11 0.022c-0.035 0.014-0.066 0.036-0.093 0.063l-0.571 0.571c-0.054 0.054-0.084 0.127-0.084 0.203s0.030 0.149 0.084 0.203c0.054 0.054 0.127 0.084 0.203 0.084s0.149-0.030 0.203-0.084l0.083-0.086v0.571c0 1.506 1.143 2.74 2.571 2.74h1.714v2c0 0.303 0.12 0.594 0.335 0.808s0.505 0.335 0.808 0.335h9.143c0.303 0 0.594-0.12 0.808-0.335s0.335-0.505 0.335-0.808v-4.571c0-0.303-0.12-0.594-0.335-0.808s-0.505-0.335-0.808-0.335zM23.392 22.47c0 0.152-0.060 0.297-0.167 0.404s-0.253 0.167-0.404 0.167h-9.143c-0.152 0-0.297-0.060-0.404-0.167s-0.167-0.253-0.167-0.404v-4.571c0-0.152 0.060-0.297 0.167-0.404s0.252-0.167 0.404-0.167h9.143c0.152 0 0.297 0.060 0.404 0.167s0.167 0.253 0.167 0.404v4.571z"></path>
<path fill="#fff" style="fill: var(--color2, #fff)" d="M18.249 18.756c-0.282 0-0.559 0.084-0.794 0.241s-0.418 0.38-0.526 0.641c-0.108 0.261-0.136 0.548-0.081 0.825s0.191 0.532 0.391 0.731 0.454 0.336 0.732 0.391c0.277 0.055 0.564 0.027 0.825-0.081s0.484-0.291 0.641-0.526c0.157-0.235 0.241-0.511 0.241-0.794 0-0.379-0.15-0.742-0.418-1.010s-0.631-0.418-1.010-0.418v0zM18.249 21.042c-0.17 0-0.335-0.050-0.476-0.144s-0.251-0.228-0.316-0.385c-0.065-0.157-0.082-0.329-0.049-0.495s0.115-0.319 0.235-0.439c0.12-0.12 0.273-0.202 0.439-0.235s0.339-0.016 0.495 0.049c0.157 0.065 0.29 0.175 0.385 0.316s0.144 0.307 0.144 0.476c0 0.227-0.090 0.445-0.251 0.606s-0.379 0.251-0.606 0.251zM21.678 19.327c-0.17 0-0.335 0.050-0.476 0.144s-0.251 0.228-0.316 0.385c-0.065 0.157-0.082 0.329-0.049 0.495s0.115 0.319 0.235 0.439c0.12 0.12 0.273 0.202 0.439 0.235s0.339 0.016 0.495-0.049c0.157-0.065 0.29-0.175 0.385-0.316s0.144-0.307 0.144-0.476c0-0.227-0.090-0.445-0.251-0.606s-0.379-0.251-0.606-0.251v0zM21.678 20.47c-0.076 0-0.148-0.030-0.202-0.084s-0.084-0.126-0.084-0.202c0-0.076 0.030-0.148 0.084-0.202s0.126-0.084 0.202-0.084c0.076 0 0.148 0.030 0.202 0.084s0.084 0.126 0.084 0.202c0 0.076-0.030 0.148-0.084 0.202s-0.126 0.084-0.202 0.084zM14.821 19.327c-0.17 0-0.335 0.050-0.476 0.144s-0.251 0.228-0.316 0.385c-0.065 0.157-0.082 0.329-0.049 0.495s0.115 0.319 0.235 0.439c0.12 0.12 0.273 0.202 0.439 0.235s0.339 0.016 0.495-0.049c0.157-0.065 0.29-0.175 0.385-0.316s0.144-0.307 0.144-0.476c0-0.227-0.090-0.445-0.251-0.606s-0.379-0.251-0.606-0.251zM14.821 20.47c-0.076 0-0.148-0.030-0.202-0.084s-0.084-0.126-0.084-0.202c0-0.076 0.030-0.148 0.084-0.202s0.126-0.084 0.202-0.084c0.076 0 0.149 0.030 0.202 0.084s0.084 0.126 0.084 0.202c0 0.076-0.030 0.148-0.084 0.202s-0.126 0.084-0.202 0.084zM7.963 10.185v-0.286c0-0.076-0.030-0.149-0.084-0.202s-0.126-0.084-0.202-0.084c-0.076 0-0.148 0.030-0.202 0.084s-0.084 0.126-0.084 0.202v0.286c0 0.076 0.030 0.148 0.084 0.202s0.126 0.084 0.202 0.084c0.076 0 0.149-0.030 0.202-0.084s0.084-0.126 0.084-0.202z"></path>
<path fill="#fff" style="fill: var(--color2, #fff)" d="M8.535 15.613h6.286c0.303 0 0.594-0.12 0.808-0.335s0.335-0.505 0.335-0.808v-2.857h1.429c1.103 0 2 0.977 2 2.18v0.571l-0.083-0.086c-0.054-0.054-0.127-0.084-0.203-0.084s-0.149 0.030-0.203 0.084c-0.054 0.054-0.084 0.127-0.084 0.203s0.030 0.149 0.084 0.203l0.571 0.571c0.027 0.027 0.058 0.048 0.093 0.063s0.072 0.022 0.11 0.022c0.038 0 0.075-0.007 0.11-0.022s0.066-0.036 0.093-0.063l0.571-0.571c0.027-0.027 0.048-0.058 0.062-0.093s0.022-0.072 0.022-0.11c0-0.038-0.007-0.075-0.022-0.11s-0.035-0.066-0.062-0.093c-0.027-0.027-0.058-0.048-0.093-0.062s-0.072-0.022-0.11-0.022c-0.038 0-0.075 0.007-0.11 0.022s-0.066 0.036-0.093 0.062l-0.083 0.086v-0.571c0-1.517-1.143-2.751-2.571-2.751h-1.429v-2.857c0-0.303-0.12-0.594-0.335-0.808s-0.505-0.335-0.808-0.335h-6.286c-0.303 0-0.594 0.12-0.808 0.335s-0.335 0.505-0.335 0.808v0.571c0 0.076 0.030 0.148 0.084 0.202s0.126 0.084 0.202 0.084c0.076 0 0.149-0.030 0.202-0.084s0.084-0.126 0.084-0.202v-0.571c0-0.152 0.060-0.297 0.167-0.404s0.252-0.167 0.404-0.167h2v2c0 0.076 0.030 0.148 0.084 0.202s0.126 0.084 0.202 0.084h1.714c0.076 0 0.149-0.030 0.202-0.084s0.084-0.126 0.084-0.202v-2h2c0.152 0 0.297 0.060 0.404 0.167s0.167 0.253 0.167 0.404v6.286c0 0.152-0.060 0.297-0.167 0.404s-0.252 0.167-0.404 0.167h-6.286c-0.152 0-0.297-0.060-0.404-0.167s-0.167-0.252-0.167-0.404v-3.143c0-0.076-0.030-0.149-0.084-0.202s-0.126-0.084-0.202-0.084c-0.076 0-0.148 0.030-0.202 0.084s-0.084 0.126-0.084 0.202v3.143c0 0.303 0.12 0.594 0.335 0.808s0.505 0.335 0.808 0.335zM12.249 9.327h-1.143v-1.714h1.143v1.714z"></path>
<path fill="#fff" style="fill: var(--color2, #fff)" d="M8.821 13.327h1.143c0.076 0 0.149-0.030 0.202-0.084s0.084-0.126 0.084-0.202c0-0.076-0.030-0.149-0.084-0.202s-0.126-0.084-0.202-0.084h-1.143c-0.076 0-0.148 0.030-0.202 0.084s-0.084 0.126-0.084 0.202c0 0.076 0.030 0.148 0.084 0.202s0.126 0.084 0.202 0.084zM8.821 14.47h1.143c0.076 0 0.149-0.030 0.202-0.084s0.084-0.126 0.084-0.202c0-0.076-0.030-0.149-0.084-0.202s-0.126-0.084-0.202-0.084h-1.143c-0.076 0-0.148 0.030-0.202 0.084s-0.084 0.126-0.084 0.202c0 0.076 0.030 0.148 0.084 0.202s0.126 0.084 0.202 0.084z"></path>
</symbol>
</defs>
</svg>
