<svg width="23" height="22" viewBox="0 0 23 22" fill="none" xmlns="http://www.w3.org/2000/svg">
<path d="M20.025 21.3613H2.975C1.8125 21.3613 0.84375 20.3926 0.84375 19.2301V3.58474C0.84375 2.42224 1.61875 1.45349 2.63594 1.45349H3.70156V2.85818H2.63594C2.49063 2.85818 2.29688 3.1488 2.29688 3.58474V19.2301C2.29688 19.6176 2.63594 19.9566 3.02344 19.9566H20.0734C20.4609 19.9566 20.8 19.6176 20.8 19.2301V3.58474C20.8 3.1488 20.5578 2.85818 20.4609 2.85818H19.3953V1.45349H20.4609C21.4297 1.45349 22.2531 2.42224 22.2531 3.58474V19.2301C22.1563 20.3926 21.1875 21.3613 20.025 21.3613Z" fill="url(#paint0_linear_714_5554)"/>
<path d="M5.83301 4.3113C5.44551 4.3113 5.10645 3.97224 5.10645 3.58474V0.726929C5.10645 0.339429 5.44551 0.000366211 5.83301 0.000366211C6.22051 0.000366211 6.55957 0.339429 6.55957 0.726929V3.58474C6.51113 3.97224 6.22051 4.3113 5.83301 4.3113ZM17.1674 4.3113C16.7799 4.3113 16.4408 3.97224 16.4408 3.58474V0.726929C16.4408 0.339429 16.7799 0.000366211 17.1674 0.000366211C17.5549 0.000366211 17.8939 0.339429 17.8939 0.726929V3.58474C17.8939 3.97224 17.5549 4.3113 17.1674 4.3113Z" fill="url(#paint1_linear_714_5554)"/>
<path d="M7.96387 1.45349H15.0357V2.90662H7.96387V1.45349Z" fill="url(#paint2_linear_714_5554)"/>
<path d="M2.24805 5.716H20.7512V7.16913H2.24805V5.716Z" fill="url(#paint3_linear_714_5554)"/>
<path d="M17.8936 8.57379H19.2982V9.97848H17.8936V8.57379Z" fill="url(#paint4_linear_714_5554)"/>
<path d="M15.0361 8.57379H16.4893V9.97848H15.0361V8.57379Z" fill="url(#paint5_linear_714_5554)"/>
<path d="M12.2266 8.57379H13.6312V9.97848H12.2266V8.57379Z" fill="url(#paint6_linear_714_5554)"/>
<path d="M9.36914 8.57379H10.7738V9.97848H9.36914V8.57379Z" fill="url(#paint7_linear_714_5554)"/>
<path d="M6.51074 8.57379H7.96387V9.97848H6.51074V8.57379Z" fill="url(#paint8_linear_714_5554)"/>
<path d="M17.8936 11.4316H19.2982V12.8363H17.8936V11.4316Z" fill="url(#paint9_linear_714_5554)"/>
<path d="M15.0361 11.4316H16.4893V12.8363H15.0361V11.4316Z" fill="url(#paint10_linear_714_5554)"/>
<path d="M12.2266 11.4316H13.6312V12.8363H12.2266V11.4316Z" fill="url(#paint11_linear_714_5554)"/>
<path d="M9.36914 11.4316H10.7738V12.8363H9.36914V11.4316Z" fill="url(#paint12_linear_714_5554)"/>
<path d="M6.51074 11.4316H7.96387V12.8363H6.51074V11.4316Z" fill="url(#paint13_linear_714_5554)"/>
<path d="M3.70117 11.4316H5.10586V12.8363H3.70117V11.4316Z" fill="url(#paint14_linear_714_5554)"/>
<path d="M17.8936 14.241H19.2982V15.6941H17.8936V14.241Z" fill="url(#paint15_linear_714_5554)"/>
<path d="M15.0361 14.241H16.4893V15.6941H15.0361V14.241Z" fill="url(#paint16_linear_714_5554)"/>
<path d="M12.2266 14.241H13.6312V15.6941H12.2266V14.241Z" fill="url(#paint17_linear_714_5554)"/>
<path d="M9.36914 14.241H10.7738V15.6941H9.36914V14.241Z" fill="url(#paint18_linear_714_5554)"/>
<path d="M6.51074 14.241H7.96387V15.6941H6.51074V14.241Z" fill="url(#paint19_linear_714_5554)"/>
<path d="M3.70117 14.241H5.10586V15.6941H3.70117V14.241Z" fill="url(#paint20_linear_714_5554)"/>
<path d="M15.0361 17.0988H16.4893V18.5035H15.0361V17.0988Z" fill="url(#paint21_linear_714_5554)"/>
<path d="M12.2266 17.0988H13.6312V18.5035H12.2266V17.0988Z" fill="url(#paint22_linear_714_5554)"/>
<path d="M9.36914 17.0988H10.7738V18.5035H9.36914V17.0988Z" fill="url(#paint23_linear_714_5554)"/>
<path d="M6.51074 17.0988H7.96387V18.5035H6.51074V17.0988Z" fill="url(#paint24_linear_714_5554)"/>
<path d="M3.70117 17.0988H5.10586V18.5035H3.70117V17.0988Z" fill="url(#paint25_linear_714_5554)"/>
<defs>
<linearGradient id="paint0_linear_714_5554" x1="24.0882" y1="-1.39048" x2="-1.53048" y2="29.1881" gradientUnits="userSpaceOnUse">
<stop stop-color="#002E82"/>
<stop offset="1" stop-color="#00A3E0"/>
</linearGradient>
<linearGradient id="paint1_linear_714_5554" x1="18.99" y1="-0.615481" x2="15.8561" y2="9.70203" gradientUnits="userSpaceOnUse">
<stop stop-color="#002E82"/>
<stop offset="1" stop-color="#00A3E0"/>
</linearGradient>
<linearGradient id="paint2_linear_714_5554" x1="15.6419" y1="1.2459" x2="14.9619" y2="4.9187" gradientUnits="userSpaceOnUse">
<stop stop-color="#002E82"/>
<stop offset="1" stop-color="#00A3E0"/>
</linearGradient>
<linearGradient id="paint3_linear_714_5554" x1="22.3372" y1="5.50841" x2="22.0697" y2="9.28817" gradientUnits="userSpaceOnUse">
<stop stop-color="#002E82"/>
<stop offset="1" stop-color="#00A3E0"/>
</linearGradient>
<linearGradient id="paint4_linear_714_5554" x1="19.4186" y1="8.37312" x2="17.5926" y2="10.3999" gradientUnits="userSpaceOnUse">
<stop stop-color="#002E82"/>
<stop offset="1" stop-color="#00A3E0"/>
</linearGradient>
<linearGradient id="paint5_linear_714_5554" x1="16.6138" y1="8.37312" x2="14.7952" y2="10.4612" gradientUnits="userSpaceOnUse">
<stop stop-color="#002E82"/>
<stop offset="1" stop-color="#00A3E0"/>
</linearGradient>
<linearGradient id="paint6_linear_714_5554" x1="13.7517" y1="8.37312" x2="11.9256" y2="10.3999" gradientUnits="userSpaceOnUse">
<stop stop-color="#002E82"/>
<stop offset="1" stop-color="#00A3E0"/>
</linearGradient>
<linearGradient id="paint7_linear_714_5554" x1="10.8942" y1="8.37312" x2="9.06814" y2="10.3999" gradientUnits="userSpaceOnUse">
<stop stop-color="#002E82"/>
<stop offset="1" stop-color="#00A3E0"/>
</linearGradient>
<linearGradient id="paint8_linear_714_5554" x1="8.08842" y1="8.37312" x2="6.26978" y2="10.4612" gradientUnits="userSpaceOnUse">
<stop stop-color="#002E82"/>
<stop offset="1" stop-color="#00A3E0"/>
</linearGradient>
<linearGradient id="paint9_linear_714_5554" x1="19.4186" y1="11.231" x2="17.5926" y2="13.2577" gradientUnits="userSpaceOnUse">
<stop stop-color="#002E82"/>
<stop offset="1" stop-color="#00A3E0"/>
</linearGradient>
<linearGradient id="paint10_linear_714_5554" x1="16.6138" y1="11.231" x2="14.7952" y2="13.3191" gradientUnits="userSpaceOnUse">
<stop stop-color="#002E82"/>
<stop offset="1" stop-color="#00A3E0"/>
</linearGradient>
<linearGradient id="paint11_linear_714_5554" x1="13.7517" y1="11.231" x2="11.9256" y2="13.2577" gradientUnits="userSpaceOnUse">
<stop stop-color="#002E82"/>
<stop offset="1" stop-color="#00A3E0"/>
</linearGradient>
<linearGradient id="paint12_linear_714_5554" x1="10.8942" y1="11.231" x2="9.06814" y2="13.2577" gradientUnits="userSpaceOnUse">
<stop stop-color="#002E82"/>
<stop offset="1" stop-color="#00A3E0"/>
</linearGradient>
<linearGradient id="paint13_linear_714_5554" x1="8.08842" y1="11.231" x2="6.26978" y2="13.3191" gradientUnits="userSpaceOnUse">
<stop stop-color="#002E82"/>
<stop offset="1" stop-color="#00A3E0"/>
</linearGradient>
<linearGradient id="paint14_linear_714_5554" x1="5.22626" y1="11.231" x2="3.40017" y2="13.2577" gradientUnits="userSpaceOnUse">
<stop stop-color="#002E82"/>
<stop offset="1" stop-color="#00A3E0"/>
</linearGradient>
<linearGradient id="paint15_linear_714_5554" x1="19.4186" y1="14.0334" x2="17.524" y2="16.0661" gradientUnits="userSpaceOnUse">
<stop stop-color="#002E82"/>
<stop offset="1" stop-color="#00A3E0"/>
</linearGradient>
<linearGradient id="paint16_linear_714_5554" x1="16.6138" y1="14.0334" x2="14.7247" y2="16.13" gradientUnits="userSpaceOnUse">
<stop stop-color="#002E82"/>
<stop offset="1" stop-color="#00A3E0"/>
</linearGradient>
<linearGradient id="paint17_linear_714_5554" x1="13.7517" y1="14.0334" x2="11.857" y2="16.0661" gradientUnits="userSpaceOnUse">
<stop stop-color="#002E82"/>
<stop offset="1" stop-color="#00A3E0"/>
</linearGradient>
<linearGradient id="paint18_linear_714_5554" x1="10.8942" y1="14.0334" x2="8.99958" y2="16.0661" gradientUnits="userSpaceOnUse">
<stop stop-color="#002E82"/>
<stop offset="1" stop-color="#00A3E0"/>
</linearGradient>
<linearGradient id="paint19_linear_714_5554" x1="8.08842" y1="14.0334" x2="6.19936" y2="16.13" gradientUnits="userSpaceOnUse">
<stop stop-color="#002E82"/>
<stop offset="1" stop-color="#00A3E0"/>
</linearGradient>
<linearGradient id="paint20_linear_714_5554" x1="5.22626" y1="14.0334" x2="3.33161" y2="16.0661" gradientUnits="userSpaceOnUse">
<stop stop-color="#002E82"/>
<stop offset="1" stop-color="#00A3E0"/>
</linearGradient>
<linearGradient id="paint21_linear_714_5554" x1="16.6138" y1="16.8981" x2="14.7952" y2="18.9862" gradientUnits="userSpaceOnUse">
<stop stop-color="#002E82"/>
<stop offset="1" stop-color="#00A3E0"/>
</linearGradient>
<linearGradient id="paint22_linear_714_5554" x1="13.7517" y1="16.8981" x2="11.9256" y2="18.9249" gradientUnits="userSpaceOnUse">
<stop stop-color="#002E82"/>
<stop offset="1" stop-color="#00A3E0"/>
</linearGradient>
<linearGradient id="paint23_linear_714_5554" x1="10.8942" y1="16.8981" x2="9.06814" y2="18.9249" gradientUnits="userSpaceOnUse">
<stop stop-color="#002E82"/>
<stop offset="1" stop-color="#00A3E0"/>
</linearGradient>
<linearGradient id="paint24_linear_714_5554" x1="8.08842" y1="16.8981" x2="6.26978" y2="18.9862" gradientUnits="userSpaceOnUse">
<stop stop-color="#002E82"/>
<stop offset="1" stop-color="#00A3E0"/>
</linearGradient>
<linearGradient id="paint25_linear_714_5554" x1="5.22626" y1="16.8981" x2="3.40017" y2="18.9249" gradientUnits="userSpaceOnUse">
<stop stop-color="#002E82"/>
<stop offset="1" stop-color="#00A3E0"/>
</linearGradient>
</defs>
</svg>
