<svg width="14" height="14" viewBox="0 0 14 14" fill="none" xmlns="http://www.w3.org/2000/svg">
<path d="M12.9731 1.25027C12.7436 1.12252 12.4911 1.04128 12.2301 1.0112C11.9691 0.981111 11.7047 1.00277 11.4521 1.07493C11.1995 1.1471 10.9635 1.26835 10.7578 1.43176C10.5521 1.59517 10.3806 1.79753 10.2531 2.02727L6.54014 8.70927L4.41514 6.58427C4.23064 6.39325 4.00996 6.24088 3.76595 6.13607C3.52194 6.03125 3.2595 5.97608 2.99394 5.97377C2.72838 5.97146 2.46502 6.02206 2.21923 6.12263C1.97344 6.22319 1.75013 6.37169 1.56235 6.55948C1.37456 6.74727 1.22606 6.97057 1.1255 7.21636C1.02493 7.46215 0.97433 7.72551 0.976638 7.99107C0.978946 8.25663 1.03412 8.51907 1.13894 8.76308C1.24375 9.00709 1.39612 9.22778 1.58714 9.41227L5.58714 13.4123C5.96514 13.7913 6.47514 13.9993 7.00114 13.9993L7.27814 13.9793C7.58469 13.9364 7.8771 13.8229 8.13236 13.6478C8.38762 13.4728 8.59875 13.2408 8.74914 12.9703L13.7491 3.97027C13.8768 3.74072 13.958 3.48828 13.9881 3.22735C14.0182 2.96642 13.9966 2.70212 13.9245 2.44955C13.8524 2.19697 13.7313 1.96106 13.5681 1.75528C13.4049 1.54951 13.2027 1.37791 12.9731 1.25027Z" fill="#38AE00"/>
</svg>
