<svg id="img" width="18" height="19" viewBox="0 0 18 19" fill="none" xmlns="http://www.w3.org/2000/svg">
<path d="M9 17.5C13.6944 17.5 17.5 13.6944 17.5 9C17.5 4.30558 13.6944 0.5 9 0.5C4.30558 0.5 0.5 4.30558 0.5 9C0.5 13.6944 4.30558 17.5 9 17.5Z" stroke="currentColor"/>
<path d="M9.38019 10.92H8.19019L7.88219 7V4.2H9.70219V7L9.38019 10.92ZM8.79219 12.068C9.08152 12.068 9.32886 12.1707 9.53419 12.376C9.73952 12.5813 9.84219 12.8287 9.84219 13.118C9.84219 13.4073 9.73952 13.6547 9.53419 13.86C9.32886 14.0653 9.08152 14.168 8.79219 14.168C8.50286 14.168 8.25552 14.0653 8.05019 13.86C7.84486 13.6547 7.74219 13.4073 7.74219 13.118C7.74219 12.8287 7.84019 12.5813 8.03619 12.376C8.24152 12.1707 8.49352 12.068 8.79219 12.068Z" fill="currentColor"/>
</svg>
