<svg width="24" height="24" viewBox="0 0 24 24" fill="none" xmlns="http://www.w3.org/2000/svg">
<path d="M22.3799 15.5438C22.5299 15.2475 22.4999 15.1388 22.4999 14.1863C22.4999 13.9048 22.3881 13.6349 22.1891 13.4358C21.99 13.2368 21.7201 13.125 21.4386 13.125H21.1124C24.3749 10.8337 22.7774 5.625 18.7499 5.625C18.0537 5.62474 17.3687 5.8007 16.7588 6.1365C16.1489 6.47229 15.6339 6.95699 15.2619 7.54544C14.8898 8.1339 14.6727 8.80695 14.6308 9.50191C14.5889 10.1969 14.7236 10.8911 15.0224 11.52C15.9336 13.4437 17.4186 13.125 15.3111 13.125C15.0297 13.125 14.7597 13.2368 14.5607 13.4358C14.3617 13.6349 14.2499 13.9048 14.2499 14.1863C14.2499 14.9363 14.1299 15.5662 14.7449 15.9562C14.6671 16.1044 14.6259 16.269 14.6249 16.4363C14.6249 17.3625 14.6249 17.4038 14.6774 17.625C14.5331 17.6125 14.3878 17.629 14.25 17.6734C14.1122 17.7179 13.9847 17.7894 13.8749 17.8837C13.7651 17.7894 13.6375 17.7179 13.4997 17.6734C13.3619 17.629 13.2166 17.6125 13.0724 17.625C13.1399 17.4038 13.1249 17.3888 13.1249 16.4363C13.1238 16.269 13.0827 16.1044 13.0049 15.9562C13.6199 15.5812 13.4999 14.9475 13.4999 14.1863C13.4999 13.9048 13.3881 13.6349 13.1891 13.4358C12.99 13.2368 12.7201 13.125 12.4386 13.125C12.2249 13.125 12.3749 13.1737 12.3749 12.8137C12.3749 11.8687 12.3749 11.8275 12.3149 11.5912C12.5453 11.5351 12.7503 11.4034 12.8971 11.2172C13.0439 11.0309 13.1241 10.8009 13.1249 10.5638V9.68625C13.1249 9.40479 13.0131 9.13486 12.8141 8.93583C12.615 8.73681 12.3451 8.625 12.0636 8.625H11.3624C14.6699 6.315 13.0161 1.125 8.99988 1.125C8.30366 1.12474 7.6187 1.3007 7.00881 1.6365C6.39892 1.97229 5.88394 2.45699 5.51185 3.04544C5.13977 3.6339 4.92268 4.30695 4.8808 5.00191C4.83893 5.69688 4.97364 6.39113 5.27238 7.02C6.14238 8.85375 7.46238 8.625 5.93613 8.625C5.65467 8.625 5.38474 8.73681 5.18572 8.93583C4.98669 9.13486 4.87488 9.40479 4.87488 9.68625C4.87488 10.6312 4.85613 10.6725 4.93488 10.9088C4.70448 10.9649 4.49952 11.0966 4.3527 11.2828C4.20589 11.4691 4.12568 11.6991 4.12488 11.9362V12.8137C4.12516 12.9631 4.15673 13.1107 4.21757 13.2472C4.27841 13.3836 4.36717 13.5057 4.47812 13.6057C4.58906 13.7057 4.71974 13.7813 4.86171 13.8277C5.00368 13.8741 5.1538 13.8902 5.30238 13.875C4.64448 13.8861 3.99851 14.0525 3.41718 14.3608C2.83586 14.669 2.33565 15.1104 1.95738 15.6487C1.90672 15.7304 1.88932 15.8284 1.90878 15.9225C1.92824 16.0165 1.98307 16.0996 2.06197 16.1544C2.14086 16.2093 2.2378 16.2317 2.33277 16.2172C2.42775 16.2026 2.51352 16.1522 2.57238 16.0762C3.00791 15.4482 3.64372 14.9865 4.37577 14.7669C5.10782 14.5472 5.89275 14.5825 6.60213 14.867C7.3115 15.1515 7.9033 15.6683 8.28069 16.333C8.65808 16.9976 8.7987 17.7706 8.67955 18.5256C8.5604 19.2806 8.18853 19.9727 7.62479 20.4888C7.06105 21.0049 6.33883 21.3144 5.57632 21.3666C4.81381 21.4188 4.05615 21.2106 3.42734 20.7762C2.79853 20.3417 2.33581 19.7067 2.11488 18.975C2.08704 18.8795 2.0224 18.799 1.9352 18.7512C1.84799 18.7034 1.74536 18.6922 1.64988 18.72C1.55441 18.7478 1.4739 18.8125 1.42608 18.8997C1.37826 18.9869 1.36704 19.0895 1.39488 19.185C1.66343 20.091 2.23492 20.8774 3.01376 21.4125C3.7926 21.9477 4.73157 22.1992 5.67363 22.125C5.73908 22.3424 5.87299 22.5329 6.05544 22.668C6.23788 22.8031 6.45909 22.8757 6.68613 22.875H12.8136C13.0951 22.875 13.365 22.7632 13.5641 22.5642C13.7631 22.3651 13.8749 22.0952 13.8749 21.8137C13.8749 20.9062 13.9086 20.76 13.7549 20.4562C13.7973 20.4296 13.8374 20.3995 13.8749 20.3663C14.0654 20.5316 14.3088 20.6234 14.5611 20.625C14.7749 20.625 14.6249 20.5763 14.6249 20.9363V21.8137C14.6249 22.0952 14.7367 22.3651 14.9357 22.5642C15.1347 22.7632 15.4047 22.875 15.6861 22.875H21.8136C22.0951 22.875 22.365 22.7632 22.5641 22.5642C22.7631 22.3651 22.8749 22.0952 22.8749 21.8137V20.9363C22.8749 20.6548 22.7631 20.3849 22.5641 20.1858C22.365 19.9868 22.0951 19.875 21.8136 19.875C21.5999 19.875 21.7499 19.9237 21.7499 19.5637C21.7499 18.6375 21.7499 18.5962 21.6974 18.375C21.8459 18.3896 21.9957 18.3731 22.1375 18.3265C22.2792 18.2799 22.4096 18.2042 22.5204 18.1043C22.6312 18.0045 22.72 17.8826 22.781 17.7464C22.8421 17.6103 22.874 17.4629 22.8749 17.3137C22.8749 16.5487 22.9949 15.9338 22.3799 15.5438ZM15.7011 11.1975C15.4314 10.6118 15.3302 9.96254 15.4086 9.3225C15.9186 5.715 20.7936 5.36625 21.9299 8.625C22.209 9.4382 22.1672 10.3273 21.8131 11.1107C21.459 11.8942 20.8192 12.5129 20.0244 12.8407C19.2296 13.1685 18.3396 13.1806 17.5362 12.8745C16.7327 12.5685 16.0764 11.9673 15.7011 11.1938V11.1975ZM14.9999 14.1975C14.9999 14.115 15.0327 14.0358 15.091 13.9774C15.1494 13.919 15.2286 13.8862 15.3111 13.8862H21.4386C21.5212 13.8862 21.6004 13.919 21.6587 13.9774C21.7171 14.0358 21.7499 14.115 21.7499 14.1975V15.075C21.7499 15.1575 21.7171 15.2367 21.6587 15.2951C21.6004 15.3535 21.5212 15.3862 21.4386 15.3862H15.3111C15.2286 15.3862 15.1494 15.3535 15.091 15.2951C15.0327 15.2367 14.9999 15.1575 14.9999 15.075V14.1975ZM13.4999 18.6975V19.575C13.4999 19.6575 13.4671 19.7367 13.4087 19.7951C13.3504 19.8535 13.2712 19.8862 13.1886 19.8862H8.99988C9.22875 19.4485 9.37254 18.9713 9.42363 18.48C9.42363 18.3412 9.02238 18.3862 13.1736 18.3862C13.2148 18.3842 13.256 18.3904 13.2948 18.4045C13.3335 18.4185 13.3691 18.4401 13.3995 18.468C13.4299 18.4959 13.4544 18.5296 13.4716 18.5671C13.4888 18.6045 13.4984 18.645 13.4999 18.6863V18.6975ZM9.44988 17.625C9.39704 17.1009 9.24429 16.5917 8.99988 16.125H12.0486C12.1312 16.125 12.2104 16.1578 12.2687 16.2162C12.3271 16.2745 12.3599 16.3537 12.3599 16.4363V17.3137C12.3599 17.3963 12.3271 17.4755 12.2687 17.5338C12.2104 17.5922 12.1312 17.625 12.0486 17.625H9.44988ZM5.95113 6.6975C5.68144 6.11178 5.58015 5.46254 5.65863 4.8225C6.16863 1.215 11.0436 0.866251 12.1799 4.125C12.459 4.9382 12.4172 5.82727 12.0631 6.61072C11.709 7.39418 11.0692 8.01295 10.2744 8.34074C9.47958 8.66853 8.58962 8.68062 7.78618 8.37454C6.98274 8.06846 6.3264 7.4673 5.95113 6.69375V6.6975ZM5.62488 9.6975C5.62488 9.61495 5.65768 9.53578 5.71605 9.47741C5.77442 9.41904 5.85359 9.38625 5.93613 9.38625H12.0636C12.1462 9.38625 12.2253 9.41904 12.2837 9.47741C12.3421 9.53578 12.3749 9.61495 12.3749 9.6975V10.575C12.3749 10.6575 12.3421 10.7367 12.2837 10.7951C12.2253 10.8535 12.1462 10.8863 12.0636 10.8863H5.93613C5.85359 10.8863 5.77442 10.8535 5.71605 10.7951C5.65768 10.7367 5.62488 10.6575 5.62488 10.575V9.6975ZM4.87488 12.825V11.9362C4.87488 11.8537 4.90768 11.7745 4.96605 11.7162C5.02442 11.6578 5.10359 11.625 5.18613 11.625H11.3136C11.3962 11.625 11.4754 11.6578 11.5337 11.7162C11.5921 11.7745 11.6249 11.8537 11.6249 11.9362V12.8137C11.6249 12.8963 11.5921 12.9755 11.5337 13.0338C11.4754 13.0922 11.3962 13.125 11.3136 13.125H5.18613C5.10359 13.125 5.02442 13.0922 4.96605 13.0338C4.90768 12.9755 4.87488 12.8963 4.87488 12.8137V12.825ZM6.11613 13.95C6.25113 13.8375 5.83863 13.875 12.4386 13.875C12.5212 13.875 12.6003 13.9078 12.6587 13.9662C12.7171 14.0245 12.7499 14.1037 12.7499 14.1863V15.0637C12.7499 15.1463 12.7171 15.2255 12.6587 15.2838C12.6003 15.3422 12.5212 15.375 12.4386 15.375H8.52363C7.91163 14.6341 7.06013 14.1301 6.11613 13.95V13.95ZM13.1249 21.8137C13.1249 21.8963 13.0921 21.9755 13.0337 22.0338C12.9754 22.0922 12.8962 22.125 12.8136 22.125C6.16113 22.125 6.56238 22.1887 6.43863 21.975C7.25377 21.7477 7.97995 21.2766 8.51988 20.625H12.8136C12.8962 20.625 12.9754 20.6578 13.0337 20.7162C13.0921 20.7745 13.1249 20.8537 13.1249 20.9363V21.8137ZM22.1249 20.9363V21.8137C22.1249 21.8963 22.0921 21.9755 22.0337 22.0338C21.9754 22.0922 21.8962 22.125 21.8136 22.125H15.6861C15.6036 22.125 15.5244 22.0922 15.466 22.0338C15.4077 21.9755 15.3749 21.8963 15.3749 21.8137V20.9363C15.3749 20.8537 15.4077 20.7745 15.466 20.7162C15.5244 20.6578 15.6036 20.625 15.6861 20.625H21.8136C21.8962 20.625 21.9754 20.6578 22.0337 20.7162C22.0921 20.7745 22.1249 20.8537 22.1249 20.9363V20.9363ZM20.9999 18.6863V19.5637C20.9999 19.6463 20.9671 19.7255 20.9087 19.7838C20.8504 19.8422 20.7712 19.875 20.6886 19.875H14.5611C14.4789 19.874 14.4003 19.8409 14.3421 19.7828C14.284 19.7246 14.2509 19.646 14.2499 19.5637V18.6863C14.2499 18.6037 14.2827 18.5245 14.341 18.4662C14.3994 18.4078 14.4786 18.375 14.5611 18.375H20.6886C20.7712 18.375 20.8504 18.4078 20.9087 18.4662C20.9671 18.5245 20.9999 18.6037 20.9999 18.6863V18.6863ZM22.1249 17.3137C22.1249 17.3963 22.0921 17.4755 22.0337 17.5338C21.9754 17.5922 21.8962 17.625 21.8136 17.625H15.6861C15.6036 17.625 15.5244 17.5922 15.466 17.5338C15.4077 17.4755 15.3749 17.3963 15.3749 17.3137V16.4363C15.3749 16.3537 15.4077 16.2745 15.466 16.2162C15.5244 16.1578 15.6036 16.125 15.6861 16.125H21.8136C21.8962 16.125 21.9754 16.1578 22.0337 16.2162C22.0921 16.2745 22.1249 16.3537 22.1249 16.4363V17.3137Z" fill="white"/>
<path d="M5.43746 18.75H4.49996C4.4005 18.75 4.30512 18.7895 4.2348 18.8598C4.16447 18.9302 4.12496 19.0255 4.12496 19.125C4.12496 19.2245 4.16447 19.3198 4.2348 19.3902C4.30512 19.4605 4.4005 19.5 4.49996 19.5H4.87496V19.875C4.87496 19.9745 4.91447 20.0698 4.9848 20.1402C5.05512 20.2105 5.1505 20.25 5.24996 20.25C5.34942 20.25 5.4448 20.2105 5.51513 20.1402C5.58545 20.0698 5.62496 19.9745 5.62496 19.875V19.5C5.8736 19.4751 6.10218 19.3525 6.26041 19.1591C6.41865 18.9657 6.49357 18.7174 6.46871 18.4688C6.44385 18.2201 6.32123 17.9915 6.12783 17.8333C5.93444 17.6751 5.6861 17.6001 5.43746 17.625C5.18996 17.625 4.87496 17.685 4.87496 17.4375C4.87496 17.3878 4.89472 17.3401 4.92988 17.3049C4.96504 17.2698 5.01273 17.25 5.06246 17.25H5.99996C6.09942 17.25 6.1948 17.2105 6.26513 17.1402C6.33545 17.0698 6.37496 16.9745 6.37496 16.875C6.37496 16.7755 6.33545 16.6802 6.26513 16.6098C6.1948 16.5395 6.09942 16.5 5.99996 16.5H5.62496V16.125C5.62496 16.0255 5.58545 15.9302 5.51513 15.8598C5.4448 15.7895 5.34942 15.75 5.24996 15.75C5.1505 15.75 5.05512 15.7895 4.9848 15.8598C4.91447 15.9302 4.87496 16.0255 4.87496 16.125V16.5C4.62632 16.5249 4.39774 16.6475 4.23951 16.8409C4.08127 17.0343 4.00635 17.2826 4.03121 17.5312C4.05607 17.7799 4.17869 18.0085 4.37209 18.1667C4.56549 18.3249 4.81382 18.3999 5.06246 18.375H5.43746C5.48719 18.375 5.53488 18.3948 5.57004 18.4299C5.60521 18.4651 5.62496 18.5128 5.62496 18.5625C5.62496 18.6122 5.60521 18.6599 5.57004 18.6951C5.53488 18.7302 5.48719 18.75 5.43746 18.75ZM1.99496 17.625C2.00129 17.5175 2.01761 17.4108 2.04371 17.3063C2.06333 17.2113 2.04543 17.1125 1.99375 17.0304C1.94208 16.9484 1.86064 16.8896 1.76654 16.8663C1.67244 16.843 1.57297 16.8571 1.48901 16.9056C1.40505 16.954 1.34312 17.0331 1.31621 17.1262C1.27798 17.2902 1.2529 17.457 1.24121 17.625C1.24121 17.725 1.28092 17.8208 1.3516 17.8915C1.42227 17.9622 1.51813 18.0019 1.61809 18.0019C1.71804 18.0019 1.8139 17.9622 1.88458 17.8915C1.95525 17.8208 1.99496 17.725 1.99496 17.625ZM8.81246 4.5H9.74996C9.84942 4.5 9.9448 4.46049 10.0151 4.39016C10.0855 4.31984 10.125 4.22446 10.125 4.125C10.125 4.02554 10.0855 3.93016 10.0151 3.85984C9.9448 3.78951 9.84942 3.75 9.74996 3.75H9.37496V3.375C9.37496 3.27554 9.33545 3.18016 9.26513 3.10984C9.1948 3.03951 9.09942 3 8.99996 3C8.9005 3 8.80512 3.03951 8.7348 3.10984C8.66447 3.18016 8.62496 3.27554 8.62496 3.375V3.76875C8.39712 3.81501 8.1946 3.94429 8.05671 4.13147C7.91882 4.31866 7.8554 4.5504 7.87877 4.78172C7.90213 5.01303 8.01061 5.22741 8.18315 5.38324C8.35569 5.53907 8.57997 5.62523 8.81246 5.625C9.05996 5.625 9.37496 5.565 9.37496 5.8125C9.37496 5.86223 9.35521 5.90992 9.32004 5.94508C9.28488 5.98025 9.23719 6 9.18746 6H8.24996C8.1505 6 8.05512 6.03951 7.9848 6.10983C7.91447 6.18016 7.87496 6.27554 7.87496 6.375C7.87496 6.47446 7.91447 6.56984 7.9848 6.64017C8.05512 6.71049 8.1505 6.75 8.24996 6.75H8.62496V7.125C8.62496 7.22446 8.66447 7.31984 8.7348 7.39017C8.80512 7.46049 8.9005 7.5 8.99996 7.5C9.09942 7.5 9.1948 7.46049 9.26513 7.39017C9.33545 7.31984 9.37496 7.22446 9.37496 7.125V6.75C9.6236 6.72514 9.85218 6.60252 10.0104 6.40912C10.1686 6.21572 10.2436 5.96739 10.2187 5.71875C10.1938 5.47011 10.0712 5.24153 9.87783 5.0833C9.68443 4.92506 9.4361 4.85014 9.18746 4.875H8.81246C8.76273 4.875 8.71504 4.85525 8.67988 4.82008C8.64471 4.78492 8.62496 4.73723 8.62496 4.6875C8.62496 4.63777 8.64471 4.59008 8.67988 4.55492C8.71504 4.51975 8.76273 4.5 8.81246 4.5ZM18.5625 9H19.5C19.5994 9 19.6948 8.96049 19.7651 8.89017C19.8355 8.81984 19.875 8.72446 19.875 8.625C19.875 8.52554 19.8355 8.43016 19.7651 8.35983C19.6948 8.28951 19.5994 8.25 19.5 8.25H19.125V7.875C19.125 7.77554 19.0855 7.68016 19.0151 7.60983C18.9448 7.53951 18.8494 7.5 18.75 7.5C18.6505 7.5 18.5551 7.53951 18.4848 7.60983C18.4145 7.68016 18.375 7.77554 18.375 7.875V8.26875C18.1471 8.31501 17.9446 8.44429 17.8067 8.63147C17.6688 8.81866 17.6054 9.0504 17.6288 9.28172C17.6521 9.51303 17.7606 9.72741 17.9331 9.88324C18.1057 10.0391 18.33 10.1252 18.5625 10.125C18.81 10.125 19.125 10.065 19.125 10.3125C19.125 10.3622 19.1052 10.4099 19.07 10.4451C19.0349 10.4802 18.9872 10.5 18.9375 10.5H18C17.9005 10.5 17.8051 10.5395 17.7348 10.6098C17.6645 10.6802 17.625 10.7755 17.625 10.875C17.625 10.9745 17.6645 11.0698 17.7348 11.1402C17.8051 11.2105 17.9005 11.25 18 11.25H18.375V11.625C18.375 11.7245 18.4145 11.8198 18.4848 11.8902C18.5551 11.9605 18.6505 12 18.75 12C18.8494 12 18.9448 11.9605 19.0151 11.8902C19.0855 11.8198 19.125 11.7245 19.125 11.625V11.25C19.3736 11.2251 19.6022 11.1025 19.7604 10.9091C19.9186 10.7157 19.9936 10.4674 19.9687 10.2188C19.9438 9.97011 19.8212 9.74153 19.6278 9.5833C19.4344 9.42506 19.1861 9.35014 18.9375 9.375H18.5625C18.5127 9.375 18.465 9.35525 18.4299 9.32008C18.3947 9.28492 18.375 9.23723 18.375 9.1875C18.375 9.13777 18.3947 9.09008 18.4299 9.05492C18.465 9.01975 18.5127 9 18.5625 9Z" fill="white"/>
</svg>
