<svg width="22" height="22" viewBox="0 0 22 22" fill="none" xmlns="http://www.w3.org/2000/svg">
<path d="M21.2888 20.4187L14.3571 13.2769C15.4328 11.8442 16.0146 10.0925 16.0146 8.24996C16.0146 6.04447 15.1792 3.97648 13.6685 2.41724C12.1578 0.857996 10.1453 0 8.00732 0C5.86936 0 3.85686 0.860746 2.34614 2.41724C0.832761 3.97373 0 6.04447 0 8.24996C0 10.4527 0.83543 12.5262 2.34614 14.0827C3.85686 15.6419 5.8667 16.4999 8.00732 16.4999C9.79562 16.4999 11.4932 15.9004 12.8838 14.7949L19.8154 21.9339C19.8358 21.9549 19.8599 21.9715 19.8865 21.9828C19.913 21.9942 19.9415 22 19.9703 22C19.999 22 20.0275 21.9942 20.054 21.9828C20.0806 21.9715 20.1047 21.9549 20.1251 21.9339L21.2888 20.7377C21.3091 20.7167 21.3253 20.6919 21.3363 20.6645C21.3473 20.6371 21.3529 20.6078 21.3529 20.5782C21.3529 20.5485 21.3473 20.5192 21.3363 20.4918C21.3253 20.4645 21.3091 20.4396 21.2888 20.4187ZM12.2352 12.6059C11.1035 13.7692 9.60344 14.4099 8.00732 14.4099C6.41119 14.4099 4.91116 13.7692 3.77945 12.6059C2.65042 11.44 2.02852 9.89446 2.02852 8.24996C2.02852 6.60547 2.65042 5.05723 3.77945 3.89398C4.91116 2.73074 6.41119 2.08999 8.00732 2.08999C9.60344 2.08999 11.1062 2.72799 12.2352 3.89398C13.3642 5.05998 13.9861 6.60547 13.9861 8.24996C13.9861 9.89446 13.3642 11.4427 12.2352 12.6059Z" fill="#F3F3F3"/>
</svg>
